%TF.GenerationSoftware,KiCad,Pcbnew,(5.1.6)-1*%
%TF.CreationDate,2021-08-16T20:18:48+02:00*%
%TF.ProjectId,proxima_panel,70726f78-696d-4615-9f70-616e656c2e6b,rev?*%
%TF.SameCoordinates,Original*%
%TF.FileFunction,Copper,L1,Top*%
%TF.FilePolarity,Positive*%
%FSLAX46Y46*%
G04 Gerber Fmt 4.6, Leading zero omitted, Abs format (unit mm)*
G04 Created by KiCad (PCBNEW (5.1.6)-1) date 2021-08-16 20:18:48*
%MOMM*%
%LPD*%
G01*
G04 APERTURE LIST*
%TA.AperFunction,ComponentPad*%
%ADD10R,1.800000X1.800000*%
%TD*%
%TA.AperFunction,ComponentPad*%
%ADD11C,1.800000*%
%TD*%
%TA.AperFunction,ComponentPad*%
%ADD12R,1.700000X1.700000*%
%TD*%
%TA.AperFunction,ComponentPad*%
%ADD13O,1.700000X1.700000*%
%TD*%
%TA.AperFunction,ViaPad*%
%ADD14C,0.800000*%
%TD*%
%TA.AperFunction,Conductor*%
%ADD15C,0.500000*%
%TD*%
%TA.AperFunction,Conductor*%
%ADD16C,0.750000*%
%TD*%
G04 APERTURE END LIST*
%TO.P,R2,1*%
%TO.N,Net-(D1-Pad1)*%
%TA.AperFunction,SMDPad,CuDef*%
G36*
G01*
X177862500Y-117293750D02*
X177862500Y-118206250D01*
G75*
G02*
X177618750Y-118450000I-243750J0D01*
G01*
X177131250Y-118450000D01*
G75*
G02*
X176887500Y-118206250I0J243750D01*
G01*
X176887500Y-117293750D01*
G75*
G02*
X177131250Y-117050000I243750J0D01*
G01*
X177618750Y-117050000D01*
G75*
G02*
X177862500Y-117293750I0J-243750D01*
G01*
G37*
%TD.AperFunction*%
%TO.P,R2,2*%
%TO.N,GND*%
%TA.AperFunction,SMDPad,CuDef*%
G36*
G01*
X175987500Y-117293750D02*
X175987500Y-118206250D01*
G75*
G02*
X175743750Y-118450000I-243750J0D01*
G01*
X175256250Y-118450000D01*
G75*
G02*
X175012500Y-118206250I0J243750D01*
G01*
X175012500Y-117293750D01*
G75*
G02*
X175256250Y-117050000I243750J0D01*
G01*
X175743750Y-117050000D01*
G75*
G02*
X175987500Y-117293750I0J-243750D01*
G01*
G37*
%TD.AperFunction*%
%TD*%
%TO.P,R2,1*%
%TO.N,Net-(D1-Pad1)*%
%TA.AperFunction,SMDPad,CuDef*%
G36*
G01*
X160862500Y-117293750D02*
X160862500Y-118206250D01*
G75*
G02*
X160618750Y-118450000I-243750J0D01*
G01*
X160131250Y-118450000D01*
G75*
G02*
X159887500Y-118206250I0J243750D01*
G01*
X159887500Y-117293750D01*
G75*
G02*
X160131250Y-117050000I243750J0D01*
G01*
X160618750Y-117050000D01*
G75*
G02*
X160862500Y-117293750I0J-243750D01*
G01*
G37*
%TD.AperFunction*%
%TO.P,R2,2*%
%TO.N,GND*%
%TA.AperFunction,SMDPad,CuDef*%
G36*
G01*
X158987500Y-117293750D02*
X158987500Y-118206250D01*
G75*
G02*
X158743750Y-118450000I-243750J0D01*
G01*
X158256250Y-118450000D01*
G75*
G02*
X158012500Y-118206250I0J243750D01*
G01*
X158012500Y-117293750D01*
G75*
G02*
X158256250Y-117050000I243750J0D01*
G01*
X158743750Y-117050000D01*
G75*
G02*
X158987500Y-117293750I0J-243750D01*
G01*
G37*
%TD.AperFunction*%
%TD*%
%TO.P,R2,1*%
%TO.N,Net-(D1-Pad1)*%
%TA.AperFunction,SMDPad,CuDef*%
G36*
G01*
X143862500Y-117293750D02*
X143862500Y-118206250D01*
G75*
G02*
X143618750Y-118450000I-243750J0D01*
G01*
X143131250Y-118450000D01*
G75*
G02*
X142887500Y-118206250I0J243750D01*
G01*
X142887500Y-117293750D01*
G75*
G02*
X143131250Y-117050000I243750J0D01*
G01*
X143618750Y-117050000D01*
G75*
G02*
X143862500Y-117293750I0J-243750D01*
G01*
G37*
%TD.AperFunction*%
%TO.P,R2,2*%
%TO.N,GND*%
%TA.AperFunction,SMDPad,CuDef*%
G36*
G01*
X141987500Y-117293750D02*
X141987500Y-118206250D01*
G75*
G02*
X141743750Y-118450000I-243750J0D01*
G01*
X141256250Y-118450000D01*
G75*
G02*
X141012500Y-118206250I0J243750D01*
G01*
X141012500Y-117293750D01*
G75*
G02*
X141256250Y-117050000I243750J0D01*
G01*
X141743750Y-117050000D01*
G75*
G02*
X141987500Y-117293750I0J-243750D01*
G01*
G37*
%TD.AperFunction*%
%TD*%
%TO.P,R2,1*%
%TO.N,Net-(D1-Pad1)*%
%TA.AperFunction,SMDPad,CuDef*%
G36*
G01*
X177862500Y-105293750D02*
X177862500Y-106206250D01*
G75*
G02*
X177618750Y-106450000I-243750J0D01*
G01*
X177131250Y-106450000D01*
G75*
G02*
X176887500Y-106206250I0J243750D01*
G01*
X176887500Y-105293750D01*
G75*
G02*
X177131250Y-105050000I243750J0D01*
G01*
X177618750Y-105050000D01*
G75*
G02*
X177862500Y-105293750I0J-243750D01*
G01*
G37*
%TD.AperFunction*%
%TO.P,R2,2*%
%TO.N,GND*%
%TA.AperFunction,SMDPad,CuDef*%
G36*
G01*
X175987500Y-105293750D02*
X175987500Y-106206250D01*
G75*
G02*
X175743750Y-106450000I-243750J0D01*
G01*
X175256250Y-106450000D01*
G75*
G02*
X175012500Y-106206250I0J243750D01*
G01*
X175012500Y-105293750D01*
G75*
G02*
X175256250Y-105050000I243750J0D01*
G01*
X175743750Y-105050000D01*
G75*
G02*
X175987500Y-105293750I0J-243750D01*
G01*
G37*
%TD.AperFunction*%
%TD*%
%TO.P,R2,1*%
%TO.N,Net-(D1-Pad1)*%
%TA.AperFunction,SMDPad,CuDef*%
G36*
G01*
X160862500Y-105293750D02*
X160862500Y-106206250D01*
G75*
G02*
X160618750Y-106450000I-243750J0D01*
G01*
X160131250Y-106450000D01*
G75*
G02*
X159887500Y-106206250I0J243750D01*
G01*
X159887500Y-105293750D01*
G75*
G02*
X160131250Y-105050000I243750J0D01*
G01*
X160618750Y-105050000D01*
G75*
G02*
X160862500Y-105293750I0J-243750D01*
G01*
G37*
%TD.AperFunction*%
%TO.P,R2,2*%
%TO.N,GND*%
%TA.AperFunction,SMDPad,CuDef*%
G36*
G01*
X158987500Y-105293750D02*
X158987500Y-106206250D01*
G75*
G02*
X158743750Y-106450000I-243750J0D01*
G01*
X158256250Y-106450000D01*
G75*
G02*
X158012500Y-106206250I0J243750D01*
G01*
X158012500Y-105293750D01*
G75*
G02*
X158256250Y-105050000I243750J0D01*
G01*
X158743750Y-105050000D01*
G75*
G02*
X158987500Y-105293750I0J-243750D01*
G01*
G37*
%TD.AperFunction*%
%TD*%
D10*
%TO.P,D1,1*%
%TO.N,Net-(D1-Pad1)*%
X178500000Y-115350000D03*
D11*
%TO.P,D1,2*%
%TO.N,SQUARE_WAVE_SIGNAL*%
X175960000Y-115350000D03*
%TD*%
D10*
%TO.P,D1,1*%
%TO.N,Net-(D1-Pad1)*%
X161500000Y-115350000D03*
D11*
%TO.P,D1,2*%
%TO.N,SQUARE_WAVE_SIGNAL*%
X158960000Y-115350000D03*
%TD*%
D10*
%TO.P,D1,1*%
%TO.N,Net-(D1-Pad1)*%
X144500000Y-115350000D03*
D11*
%TO.P,D1,2*%
%TO.N,SQUARE_WAVE_SIGNAL*%
X141960000Y-115350000D03*
%TD*%
D10*
%TO.P,D1,1*%
%TO.N,Net-(D1-Pad1)*%
X178500000Y-103350000D03*
D11*
%TO.P,D1,2*%
%TO.N,SQUARE_WAVE_SIGNAL*%
X175960000Y-103350000D03*
%TD*%
D10*
%TO.P,D1,1*%
%TO.N,Net-(D1-Pad1)*%
X161500000Y-103350000D03*
D11*
%TO.P,D1,2*%
%TO.N,SQUARE_WAVE_SIGNAL*%
X158960000Y-103350000D03*
%TD*%
%TO.P,U1,1*%
%TO.N,OUTPUT_INVERTED*%
%TA.AperFunction,ComponentPad*%
G36*
G01*
X166600000Y-118151600D02*
X166600000Y-116848400D01*
G75*
G02*
X166848400Y-116600000I248400J0D01*
G01*
X168151600Y-116600000D01*
G75*
G02*
X168400000Y-116848400I0J-248400D01*
G01*
X168400000Y-118151600D01*
G75*
G02*
X168151600Y-118400000I-248400J0D01*
G01*
X166848400Y-118400000D01*
G75*
G02*
X166600000Y-118151600I0J248400D01*
G01*
G37*
%TD.AperFunction*%
%TO.P,U1,2*%
%TO.N,Net-(C1-Pad1)*%
X170040000Y-117500000D03*
%TO.P,U1,3*%
%TO.N,GND*%
X172580000Y-117500000D03*
%TD*%
%TO.P,U1,1*%
%TO.N,OUTPUT_INVERTED*%
%TA.AperFunction,ComponentPad*%
G36*
G01*
X149600000Y-118151600D02*
X149600000Y-116848400D01*
G75*
G02*
X149848400Y-116600000I248400J0D01*
G01*
X151151600Y-116600000D01*
G75*
G02*
X151400000Y-116848400I0J-248400D01*
G01*
X151400000Y-118151600D01*
G75*
G02*
X151151600Y-118400000I-248400J0D01*
G01*
X149848400Y-118400000D01*
G75*
G02*
X149600000Y-118151600I0J248400D01*
G01*
G37*
%TD.AperFunction*%
%TO.P,U1,2*%
%TO.N,Net-(C1-Pad1)*%
X153040000Y-117500000D03*
%TO.P,U1,3*%
%TO.N,GND*%
X155580000Y-117500000D03*
%TD*%
%TO.P,U1,1*%
%TO.N,OUTPUT_INVERTED*%
%TA.AperFunction,ComponentPad*%
G36*
G01*
X132600000Y-118151600D02*
X132600000Y-116848400D01*
G75*
G02*
X132848400Y-116600000I248400J0D01*
G01*
X134151600Y-116600000D01*
G75*
G02*
X134400000Y-116848400I0J-248400D01*
G01*
X134400000Y-118151600D01*
G75*
G02*
X134151600Y-118400000I-248400J0D01*
G01*
X132848400Y-118400000D01*
G75*
G02*
X132600000Y-118151600I0J248400D01*
G01*
G37*
%TD.AperFunction*%
%TO.P,U1,2*%
%TO.N,Net-(C1-Pad1)*%
X136040000Y-117500000D03*
%TO.P,U1,3*%
%TO.N,GND*%
X138580000Y-117500000D03*
%TD*%
%TO.P,U1,1*%
%TO.N,OUTPUT_INVERTED*%
%TA.AperFunction,ComponentPad*%
G36*
G01*
X166600000Y-106151600D02*
X166600000Y-104848400D01*
G75*
G02*
X166848400Y-104600000I248400J0D01*
G01*
X168151600Y-104600000D01*
G75*
G02*
X168400000Y-104848400I0J-248400D01*
G01*
X168400000Y-106151600D01*
G75*
G02*
X168151600Y-106400000I-248400J0D01*
G01*
X166848400Y-106400000D01*
G75*
G02*
X166600000Y-106151600I0J248400D01*
G01*
G37*
%TD.AperFunction*%
%TO.P,U1,2*%
%TO.N,Net-(C1-Pad1)*%
X170040000Y-105500000D03*
%TO.P,U1,3*%
%TO.N,GND*%
X172580000Y-105500000D03*
%TD*%
%TO.P,U1,1*%
%TO.N,OUTPUT_INVERTED*%
%TA.AperFunction,ComponentPad*%
G36*
G01*
X149600000Y-106151600D02*
X149600000Y-104848400D01*
G75*
G02*
X149848400Y-104600000I248400J0D01*
G01*
X151151600Y-104600000D01*
G75*
G02*
X151400000Y-104848400I0J-248400D01*
G01*
X151400000Y-106151600D01*
G75*
G02*
X151151600Y-106400000I-248400J0D01*
G01*
X149848400Y-106400000D01*
G75*
G02*
X149600000Y-106151600I0J248400D01*
G01*
G37*
%TD.AperFunction*%
%TO.P,U1,2*%
%TO.N,Net-(C1-Pad1)*%
X153040000Y-105500000D03*
%TO.P,U1,3*%
%TO.N,GND*%
X155580000Y-105500000D03*
%TD*%
%TO.P,U2,1*%
%TO.N,GND*%
%TA.AperFunction,SMDPad,CuDef*%
G36*
G01*
X173800000Y-109745000D02*
X173800000Y-109445000D01*
G75*
G02*
X173950000Y-109295000I150000J0D01*
G01*
X175600000Y-109295000D01*
G75*
G02*
X175750000Y-109445000I0J-150000D01*
G01*
X175750000Y-109745000D01*
G75*
G02*
X175600000Y-109895000I-150000J0D01*
G01*
X173950000Y-109895000D01*
G75*
G02*
X173800000Y-109745000I0J150000D01*
G01*
G37*
%TD.AperFunction*%
%TO.P,U2,2*%
%TO.N,Net-(C3-Pad1)*%
%TA.AperFunction,SMDPad,CuDef*%
G36*
G01*
X173800000Y-111015000D02*
X173800000Y-110715000D01*
G75*
G02*
X173950000Y-110565000I150000J0D01*
G01*
X175600000Y-110565000D01*
G75*
G02*
X175750000Y-110715000I0J-150000D01*
G01*
X175750000Y-111015000D01*
G75*
G02*
X175600000Y-111165000I-150000J0D01*
G01*
X173950000Y-111165000D01*
G75*
G02*
X173800000Y-111015000I0J150000D01*
G01*
G37*
%TD.AperFunction*%
%TO.P,U2,3*%
%TO.N,SQUARE_WAVE_SIGNAL*%
%TA.AperFunction,SMDPad,CuDef*%
G36*
G01*
X173800000Y-112285000D02*
X173800000Y-111985000D01*
G75*
G02*
X173950000Y-111835000I150000J0D01*
G01*
X175600000Y-111835000D01*
G75*
G02*
X175750000Y-111985000I0J-150000D01*
G01*
X175750000Y-112285000D01*
G75*
G02*
X175600000Y-112435000I-150000J0D01*
G01*
X173950000Y-112435000D01*
G75*
G02*
X173800000Y-112285000I0J150000D01*
G01*
G37*
%TD.AperFunction*%
%TO.P,U2,4*%
%TO.N,VCC*%
%TA.AperFunction,SMDPad,CuDef*%
G36*
G01*
X173800000Y-113555000D02*
X173800000Y-113255000D01*
G75*
G02*
X173950000Y-113105000I150000J0D01*
G01*
X175600000Y-113105000D01*
G75*
G02*
X175750000Y-113255000I0J-150000D01*
G01*
X175750000Y-113555000D01*
G75*
G02*
X175600000Y-113705000I-150000J0D01*
G01*
X173950000Y-113705000D01*
G75*
G02*
X173800000Y-113555000I0J150000D01*
G01*
G37*
%TD.AperFunction*%
%TO.P,U2,5*%
%TO.N,Net-(C2-Pad1)*%
%TA.AperFunction,SMDPad,CuDef*%
G36*
G01*
X178750000Y-113555000D02*
X178750000Y-113255000D01*
G75*
G02*
X178900000Y-113105000I150000J0D01*
G01*
X180550000Y-113105000D01*
G75*
G02*
X180700000Y-113255000I0J-150000D01*
G01*
X180700000Y-113555000D01*
G75*
G02*
X180550000Y-113705000I-150000J0D01*
G01*
X178900000Y-113705000D01*
G75*
G02*
X178750000Y-113555000I0J150000D01*
G01*
G37*
%TD.AperFunction*%
%TO.P,U2,6*%
%TO.N,Net-(C3-Pad1)*%
%TA.AperFunction,SMDPad,CuDef*%
G36*
G01*
X178750000Y-112285000D02*
X178750000Y-111985000D01*
G75*
G02*
X178900000Y-111835000I150000J0D01*
G01*
X180550000Y-111835000D01*
G75*
G02*
X180700000Y-111985000I0J-150000D01*
G01*
X180700000Y-112285000D01*
G75*
G02*
X180550000Y-112435000I-150000J0D01*
G01*
X178900000Y-112435000D01*
G75*
G02*
X178750000Y-112285000I0J150000D01*
G01*
G37*
%TD.AperFunction*%
%TO.P,U2,7*%
%TO.N,Net-(R3-Pad2)*%
%TA.AperFunction,SMDPad,CuDef*%
G36*
G01*
X178750000Y-111015000D02*
X178750000Y-110715000D01*
G75*
G02*
X178900000Y-110565000I150000J0D01*
G01*
X180550000Y-110565000D01*
G75*
G02*
X180700000Y-110715000I0J-150000D01*
G01*
X180700000Y-111015000D01*
G75*
G02*
X180550000Y-111165000I-150000J0D01*
G01*
X178900000Y-111165000D01*
G75*
G02*
X178750000Y-111015000I0J150000D01*
G01*
G37*
%TD.AperFunction*%
%TO.P,U2,8*%
%TO.N,VCC*%
%TA.AperFunction,SMDPad,CuDef*%
G36*
G01*
X178750000Y-109745000D02*
X178750000Y-109445000D01*
G75*
G02*
X178900000Y-109295000I150000J0D01*
G01*
X180550000Y-109295000D01*
G75*
G02*
X180700000Y-109445000I0J-150000D01*
G01*
X180700000Y-109745000D01*
G75*
G02*
X180550000Y-109895000I-150000J0D01*
G01*
X178900000Y-109895000D01*
G75*
G02*
X178750000Y-109745000I0J150000D01*
G01*
G37*
%TD.AperFunction*%
%TD*%
%TO.P,U2,1*%
%TO.N,GND*%
%TA.AperFunction,SMDPad,CuDef*%
G36*
G01*
X156800000Y-109745000D02*
X156800000Y-109445000D01*
G75*
G02*
X156950000Y-109295000I150000J0D01*
G01*
X158600000Y-109295000D01*
G75*
G02*
X158750000Y-109445000I0J-150000D01*
G01*
X158750000Y-109745000D01*
G75*
G02*
X158600000Y-109895000I-150000J0D01*
G01*
X156950000Y-109895000D01*
G75*
G02*
X156800000Y-109745000I0J150000D01*
G01*
G37*
%TD.AperFunction*%
%TO.P,U2,2*%
%TO.N,Net-(C3-Pad1)*%
%TA.AperFunction,SMDPad,CuDef*%
G36*
G01*
X156800000Y-111015000D02*
X156800000Y-110715000D01*
G75*
G02*
X156950000Y-110565000I150000J0D01*
G01*
X158600000Y-110565000D01*
G75*
G02*
X158750000Y-110715000I0J-150000D01*
G01*
X158750000Y-111015000D01*
G75*
G02*
X158600000Y-111165000I-150000J0D01*
G01*
X156950000Y-111165000D01*
G75*
G02*
X156800000Y-111015000I0J150000D01*
G01*
G37*
%TD.AperFunction*%
%TO.P,U2,3*%
%TO.N,SQUARE_WAVE_SIGNAL*%
%TA.AperFunction,SMDPad,CuDef*%
G36*
G01*
X156800000Y-112285000D02*
X156800000Y-111985000D01*
G75*
G02*
X156950000Y-111835000I150000J0D01*
G01*
X158600000Y-111835000D01*
G75*
G02*
X158750000Y-111985000I0J-150000D01*
G01*
X158750000Y-112285000D01*
G75*
G02*
X158600000Y-112435000I-150000J0D01*
G01*
X156950000Y-112435000D01*
G75*
G02*
X156800000Y-112285000I0J150000D01*
G01*
G37*
%TD.AperFunction*%
%TO.P,U2,4*%
%TO.N,VCC*%
%TA.AperFunction,SMDPad,CuDef*%
G36*
G01*
X156800000Y-113555000D02*
X156800000Y-113255000D01*
G75*
G02*
X156950000Y-113105000I150000J0D01*
G01*
X158600000Y-113105000D01*
G75*
G02*
X158750000Y-113255000I0J-150000D01*
G01*
X158750000Y-113555000D01*
G75*
G02*
X158600000Y-113705000I-150000J0D01*
G01*
X156950000Y-113705000D01*
G75*
G02*
X156800000Y-113555000I0J150000D01*
G01*
G37*
%TD.AperFunction*%
%TO.P,U2,5*%
%TO.N,Net-(C2-Pad1)*%
%TA.AperFunction,SMDPad,CuDef*%
G36*
G01*
X161750000Y-113555000D02*
X161750000Y-113255000D01*
G75*
G02*
X161900000Y-113105000I150000J0D01*
G01*
X163550000Y-113105000D01*
G75*
G02*
X163700000Y-113255000I0J-150000D01*
G01*
X163700000Y-113555000D01*
G75*
G02*
X163550000Y-113705000I-150000J0D01*
G01*
X161900000Y-113705000D01*
G75*
G02*
X161750000Y-113555000I0J150000D01*
G01*
G37*
%TD.AperFunction*%
%TO.P,U2,6*%
%TO.N,Net-(C3-Pad1)*%
%TA.AperFunction,SMDPad,CuDef*%
G36*
G01*
X161750000Y-112285000D02*
X161750000Y-111985000D01*
G75*
G02*
X161900000Y-111835000I150000J0D01*
G01*
X163550000Y-111835000D01*
G75*
G02*
X163700000Y-111985000I0J-150000D01*
G01*
X163700000Y-112285000D01*
G75*
G02*
X163550000Y-112435000I-150000J0D01*
G01*
X161900000Y-112435000D01*
G75*
G02*
X161750000Y-112285000I0J150000D01*
G01*
G37*
%TD.AperFunction*%
%TO.P,U2,7*%
%TO.N,Net-(R3-Pad2)*%
%TA.AperFunction,SMDPad,CuDef*%
G36*
G01*
X161750000Y-111015000D02*
X161750000Y-110715000D01*
G75*
G02*
X161900000Y-110565000I150000J0D01*
G01*
X163550000Y-110565000D01*
G75*
G02*
X163700000Y-110715000I0J-150000D01*
G01*
X163700000Y-111015000D01*
G75*
G02*
X163550000Y-111165000I-150000J0D01*
G01*
X161900000Y-111165000D01*
G75*
G02*
X161750000Y-111015000I0J150000D01*
G01*
G37*
%TD.AperFunction*%
%TO.P,U2,8*%
%TO.N,VCC*%
%TA.AperFunction,SMDPad,CuDef*%
G36*
G01*
X161750000Y-109745000D02*
X161750000Y-109445000D01*
G75*
G02*
X161900000Y-109295000I150000J0D01*
G01*
X163550000Y-109295000D01*
G75*
G02*
X163700000Y-109445000I0J-150000D01*
G01*
X163700000Y-109745000D01*
G75*
G02*
X163550000Y-109895000I-150000J0D01*
G01*
X161900000Y-109895000D01*
G75*
G02*
X161750000Y-109745000I0J150000D01*
G01*
G37*
%TD.AperFunction*%
%TD*%
%TO.P,U2,1*%
%TO.N,GND*%
%TA.AperFunction,SMDPad,CuDef*%
G36*
G01*
X139800000Y-109745000D02*
X139800000Y-109445000D01*
G75*
G02*
X139950000Y-109295000I150000J0D01*
G01*
X141600000Y-109295000D01*
G75*
G02*
X141750000Y-109445000I0J-150000D01*
G01*
X141750000Y-109745000D01*
G75*
G02*
X141600000Y-109895000I-150000J0D01*
G01*
X139950000Y-109895000D01*
G75*
G02*
X139800000Y-109745000I0J150000D01*
G01*
G37*
%TD.AperFunction*%
%TO.P,U2,2*%
%TO.N,Net-(C3-Pad1)*%
%TA.AperFunction,SMDPad,CuDef*%
G36*
G01*
X139800000Y-111015000D02*
X139800000Y-110715000D01*
G75*
G02*
X139950000Y-110565000I150000J0D01*
G01*
X141600000Y-110565000D01*
G75*
G02*
X141750000Y-110715000I0J-150000D01*
G01*
X141750000Y-111015000D01*
G75*
G02*
X141600000Y-111165000I-150000J0D01*
G01*
X139950000Y-111165000D01*
G75*
G02*
X139800000Y-111015000I0J150000D01*
G01*
G37*
%TD.AperFunction*%
%TO.P,U2,3*%
%TO.N,SQUARE_WAVE_SIGNAL*%
%TA.AperFunction,SMDPad,CuDef*%
G36*
G01*
X139800000Y-112285000D02*
X139800000Y-111985000D01*
G75*
G02*
X139950000Y-111835000I150000J0D01*
G01*
X141600000Y-111835000D01*
G75*
G02*
X141750000Y-111985000I0J-150000D01*
G01*
X141750000Y-112285000D01*
G75*
G02*
X141600000Y-112435000I-150000J0D01*
G01*
X139950000Y-112435000D01*
G75*
G02*
X139800000Y-112285000I0J150000D01*
G01*
G37*
%TD.AperFunction*%
%TO.P,U2,4*%
%TO.N,VCC*%
%TA.AperFunction,SMDPad,CuDef*%
G36*
G01*
X139800000Y-113555000D02*
X139800000Y-113255000D01*
G75*
G02*
X139950000Y-113105000I150000J0D01*
G01*
X141600000Y-113105000D01*
G75*
G02*
X141750000Y-113255000I0J-150000D01*
G01*
X141750000Y-113555000D01*
G75*
G02*
X141600000Y-113705000I-150000J0D01*
G01*
X139950000Y-113705000D01*
G75*
G02*
X139800000Y-113555000I0J150000D01*
G01*
G37*
%TD.AperFunction*%
%TO.P,U2,5*%
%TO.N,Net-(C2-Pad1)*%
%TA.AperFunction,SMDPad,CuDef*%
G36*
G01*
X144750000Y-113555000D02*
X144750000Y-113255000D01*
G75*
G02*
X144900000Y-113105000I150000J0D01*
G01*
X146550000Y-113105000D01*
G75*
G02*
X146700000Y-113255000I0J-150000D01*
G01*
X146700000Y-113555000D01*
G75*
G02*
X146550000Y-113705000I-150000J0D01*
G01*
X144900000Y-113705000D01*
G75*
G02*
X144750000Y-113555000I0J150000D01*
G01*
G37*
%TD.AperFunction*%
%TO.P,U2,6*%
%TO.N,Net-(C3-Pad1)*%
%TA.AperFunction,SMDPad,CuDef*%
G36*
G01*
X144750000Y-112285000D02*
X144750000Y-111985000D01*
G75*
G02*
X144900000Y-111835000I150000J0D01*
G01*
X146550000Y-111835000D01*
G75*
G02*
X146700000Y-111985000I0J-150000D01*
G01*
X146700000Y-112285000D01*
G75*
G02*
X146550000Y-112435000I-150000J0D01*
G01*
X144900000Y-112435000D01*
G75*
G02*
X144750000Y-112285000I0J150000D01*
G01*
G37*
%TD.AperFunction*%
%TO.P,U2,7*%
%TO.N,Net-(R3-Pad2)*%
%TA.AperFunction,SMDPad,CuDef*%
G36*
G01*
X144750000Y-111015000D02*
X144750000Y-110715000D01*
G75*
G02*
X144900000Y-110565000I150000J0D01*
G01*
X146550000Y-110565000D01*
G75*
G02*
X146700000Y-110715000I0J-150000D01*
G01*
X146700000Y-111015000D01*
G75*
G02*
X146550000Y-111165000I-150000J0D01*
G01*
X144900000Y-111165000D01*
G75*
G02*
X144750000Y-111015000I0J150000D01*
G01*
G37*
%TD.AperFunction*%
%TO.P,U2,8*%
%TO.N,VCC*%
%TA.AperFunction,SMDPad,CuDef*%
G36*
G01*
X144750000Y-109745000D02*
X144750000Y-109445000D01*
G75*
G02*
X144900000Y-109295000I150000J0D01*
G01*
X146550000Y-109295000D01*
G75*
G02*
X146700000Y-109445000I0J-150000D01*
G01*
X146700000Y-109745000D01*
G75*
G02*
X146550000Y-109895000I-150000J0D01*
G01*
X144900000Y-109895000D01*
G75*
G02*
X144750000Y-109745000I0J150000D01*
G01*
G37*
%TD.AperFunction*%
%TD*%
%TO.P,U2,1*%
%TO.N,GND*%
%TA.AperFunction,SMDPad,CuDef*%
G36*
G01*
X173800000Y-97745000D02*
X173800000Y-97445000D01*
G75*
G02*
X173950000Y-97295000I150000J0D01*
G01*
X175600000Y-97295000D01*
G75*
G02*
X175750000Y-97445000I0J-150000D01*
G01*
X175750000Y-97745000D01*
G75*
G02*
X175600000Y-97895000I-150000J0D01*
G01*
X173950000Y-97895000D01*
G75*
G02*
X173800000Y-97745000I0J150000D01*
G01*
G37*
%TD.AperFunction*%
%TO.P,U2,2*%
%TO.N,Net-(C3-Pad1)*%
%TA.AperFunction,SMDPad,CuDef*%
G36*
G01*
X173800000Y-99015000D02*
X173800000Y-98715000D01*
G75*
G02*
X173950000Y-98565000I150000J0D01*
G01*
X175600000Y-98565000D01*
G75*
G02*
X175750000Y-98715000I0J-150000D01*
G01*
X175750000Y-99015000D01*
G75*
G02*
X175600000Y-99165000I-150000J0D01*
G01*
X173950000Y-99165000D01*
G75*
G02*
X173800000Y-99015000I0J150000D01*
G01*
G37*
%TD.AperFunction*%
%TO.P,U2,3*%
%TO.N,SQUARE_WAVE_SIGNAL*%
%TA.AperFunction,SMDPad,CuDef*%
G36*
G01*
X173800000Y-100285000D02*
X173800000Y-99985000D01*
G75*
G02*
X173950000Y-99835000I150000J0D01*
G01*
X175600000Y-99835000D01*
G75*
G02*
X175750000Y-99985000I0J-150000D01*
G01*
X175750000Y-100285000D01*
G75*
G02*
X175600000Y-100435000I-150000J0D01*
G01*
X173950000Y-100435000D01*
G75*
G02*
X173800000Y-100285000I0J150000D01*
G01*
G37*
%TD.AperFunction*%
%TO.P,U2,4*%
%TO.N,VCC*%
%TA.AperFunction,SMDPad,CuDef*%
G36*
G01*
X173800000Y-101555000D02*
X173800000Y-101255000D01*
G75*
G02*
X173950000Y-101105000I150000J0D01*
G01*
X175600000Y-101105000D01*
G75*
G02*
X175750000Y-101255000I0J-150000D01*
G01*
X175750000Y-101555000D01*
G75*
G02*
X175600000Y-101705000I-150000J0D01*
G01*
X173950000Y-101705000D01*
G75*
G02*
X173800000Y-101555000I0J150000D01*
G01*
G37*
%TD.AperFunction*%
%TO.P,U2,5*%
%TO.N,Net-(C2-Pad1)*%
%TA.AperFunction,SMDPad,CuDef*%
G36*
G01*
X178750000Y-101555000D02*
X178750000Y-101255000D01*
G75*
G02*
X178900000Y-101105000I150000J0D01*
G01*
X180550000Y-101105000D01*
G75*
G02*
X180700000Y-101255000I0J-150000D01*
G01*
X180700000Y-101555000D01*
G75*
G02*
X180550000Y-101705000I-150000J0D01*
G01*
X178900000Y-101705000D01*
G75*
G02*
X178750000Y-101555000I0J150000D01*
G01*
G37*
%TD.AperFunction*%
%TO.P,U2,6*%
%TO.N,Net-(C3-Pad1)*%
%TA.AperFunction,SMDPad,CuDef*%
G36*
G01*
X178750000Y-100285000D02*
X178750000Y-99985000D01*
G75*
G02*
X178900000Y-99835000I150000J0D01*
G01*
X180550000Y-99835000D01*
G75*
G02*
X180700000Y-99985000I0J-150000D01*
G01*
X180700000Y-100285000D01*
G75*
G02*
X180550000Y-100435000I-150000J0D01*
G01*
X178900000Y-100435000D01*
G75*
G02*
X178750000Y-100285000I0J150000D01*
G01*
G37*
%TD.AperFunction*%
%TO.P,U2,7*%
%TO.N,Net-(R3-Pad2)*%
%TA.AperFunction,SMDPad,CuDef*%
G36*
G01*
X178750000Y-99015000D02*
X178750000Y-98715000D01*
G75*
G02*
X178900000Y-98565000I150000J0D01*
G01*
X180550000Y-98565000D01*
G75*
G02*
X180700000Y-98715000I0J-150000D01*
G01*
X180700000Y-99015000D01*
G75*
G02*
X180550000Y-99165000I-150000J0D01*
G01*
X178900000Y-99165000D01*
G75*
G02*
X178750000Y-99015000I0J150000D01*
G01*
G37*
%TD.AperFunction*%
%TO.P,U2,8*%
%TO.N,VCC*%
%TA.AperFunction,SMDPad,CuDef*%
G36*
G01*
X178750000Y-97745000D02*
X178750000Y-97445000D01*
G75*
G02*
X178900000Y-97295000I150000J0D01*
G01*
X180550000Y-97295000D01*
G75*
G02*
X180700000Y-97445000I0J-150000D01*
G01*
X180700000Y-97745000D01*
G75*
G02*
X180550000Y-97895000I-150000J0D01*
G01*
X178900000Y-97895000D01*
G75*
G02*
X178750000Y-97745000I0J150000D01*
G01*
G37*
%TD.AperFunction*%
%TD*%
%TO.P,U2,1*%
%TO.N,GND*%
%TA.AperFunction,SMDPad,CuDef*%
G36*
G01*
X156800000Y-97745000D02*
X156800000Y-97445000D01*
G75*
G02*
X156950000Y-97295000I150000J0D01*
G01*
X158600000Y-97295000D01*
G75*
G02*
X158750000Y-97445000I0J-150000D01*
G01*
X158750000Y-97745000D01*
G75*
G02*
X158600000Y-97895000I-150000J0D01*
G01*
X156950000Y-97895000D01*
G75*
G02*
X156800000Y-97745000I0J150000D01*
G01*
G37*
%TD.AperFunction*%
%TO.P,U2,2*%
%TO.N,Net-(C3-Pad1)*%
%TA.AperFunction,SMDPad,CuDef*%
G36*
G01*
X156800000Y-99015000D02*
X156800000Y-98715000D01*
G75*
G02*
X156950000Y-98565000I150000J0D01*
G01*
X158600000Y-98565000D01*
G75*
G02*
X158750000Y-98715000I0J-150000D01*
G01*
X158750000Y-99015000D01*
G75*
G02*
X158600000Y-99165000I-150000J0D01*
G01*
X156950000Y-99165000D01*
G75*
G02*
X156800000Y-99015000I0J150000D01*
G01*
G37*
%TD.AperFunction*%
%TO.P,U2,3*%
%TO.N,SQUARE_WAVE_SIGNAL*%
%TA.AperFunction,SMDPad,CuDef*%
G36*
G01*
X156800000Y-100285000D02*
X156800000Y-99985000D01*
G75*
G02*
X156950000Y-99835000I150000J0D01*
G01*
X158600000Y-99835000D01*
G75*
G02*
X158750000Y-99985000I0J-150000D01*
G01*
X158750000Y-100285000D01*
G75*
G02*
X158600000Y-100435000I-150000J0D01*
G01*
X156950000Y-100435000D01*
G75*
G02*
X156800000Y-100285000I0J150000D01*
G01*
G37*
%TD.AperFunction*%
%TO.P,U2,4*%
%TO.N,VCC*%
%TA.AperFunction,SMDPad,CuDef*%
G36*
G01*
X156800000Y-101555000D02*
X156800000Y-101255000D01*
G75*
G02*
X156950000Y-101105000I150000J0D01*
G01*
X158600000Y-101105000D01*
G75*
G02*
X158750000Y-101255000I0J-150000D01*
G01*
X158750000Y-101555000D01*
G75*
G02*
X158600000Y-101705000I-150000J0D01*
G01*
X156950000Y-101705000D01*
G75*
G02*
X156800000Y-101555000I0J150000D01*
G01*
G37*
%TD.AperFunction*%
%TO.P,U2,5*%
%TO.N,Net-(C2-Pad1)*%
%TA.AperFunction,SMDPad,CuDef*%
G36*
G01*
X161750000Y-101555000D02*
X161750000Y-101255000D01*
G75*
G02*
X161900000Y-101105000I150000J0D01*
G01*
X163550000Y-101105000D01*
G75*
G02*
X163700000Y-101255000I0J-150000D01*
G01*
X163700000Y-101555000D01*
G75*
G02*
X163550000Y-101705000I-150000J0D01*
G01*
X161900000Y-101705000D01*
G75*
G02*
X161750000Y-101555000I0J150000D01*
G01*
G37*
%TD.AperFunction*%
%TO.P,U2,6*%
%TO.N,Net-(C3-Pad1)*%
%TA.AperFunction,SMDPad,CuDef*%
G36*
G01*
X161750000Y-100285000D02*
X161750000Y-99985000D01*
G75*
G02*
X161900000Y-99835000I150000J0D01*
G01*
X163550000Y-99835000D01*
G75*
G02*
X163700000Y-99985000I0J-150000D01*
G01*
X163700000Y-100285000D01*
G75*
G02*
X163550000Y-100435000I-150000J0D01*
G01*
X161900000Y-100435000D01*
G75*
G02*
X161750000Y-100285000I0J150000D01*
G01*
G37*
%TD.AperFunction*%
%TO.P,U2,7*%
%TO.N,Net-(R3-Pad2)*%
%TA.AperFunction,SMDPad,CuDef*%
G36*
G01*
X161750000Y-99015000D02*
X161750000Y-98715000D01*
G75*
G02*
X161900000Y-98565000I150000J0D01*
G01*
X163550000Y-98565000D01*
G75*
G02*
X163700000Y-98715000I0J-150000D01*
G01*
X163700000Y-99015000D01*
G75*
G02*
X163550000Y-99165000I-150000J0D01*
G01*
X161900000Y-99165000D01*
G75*
G02*
X161750000Y-99015000I0J150000D01*
G01*
G37*
%TD.AperFunction*%
%TO.P,U2,8*%
%TO.N,VCC*%
%TA.AperFunction,SMDPad,CuDef*%
G36*
G01*
X161750000Y-97745000D02*
X161750000Y-97445000D01*
G75*
G02*
X161900000Y-97295000I150000J0D01*
G01*
X163550000Y-97295000D01*
G75*
G02*
X163700000Y-97445000I0J-150000D01*
G01*
X163700000Y-97745000D01*
G75*
G02*
X163550000Y-97895000I-150000J0D01*
G01*
X161900000Y-97895000D01*
G75*
G02*
X161750000Y-97745000I0J150000D01*
G01*
G37*
%TD.AperFunction*%
%TD*%
D12*
%TO.P,J1,1*%
%TO.N,GND*%
X172500000Y-110500000D03*
D13*
%TO.P,J1,2*%
%TO.N,VCC*%
X169960000Y-110500000D03*
%TO.P,J1,3*%
%TO.N,OUTPUT_INVERTED*%
X167420000Y-110500000D03*
%TD*%
D12*
%TO.P,J1,1*%
%TO.N,GND*%
X155500000Y-110500000D03*
D13*
%TO.P,J1,2*%
%TO.N,VCC*%
X152960000Y-110500000D03*
%TO.P,J1,3*%
%TO.N,OUTPUT_INVERTED*%
X150420000Y-110500000D03*
%TD*%
D12*
%TO.P,J1,1*%
%TO.N,GND*%
X138500000Y-110500000D03*
D13*
%TO.P,J1,2*%
%TO.N,VCC*%
X135960000Y-110500000D03*
%TO.P,J1,3*%
%TO.N,OUTPUT_INVERTED*%
X133420000Y-110500000D03*
%TD*%
D12*
%TO.P,J1,1*%
%TO.N,GND*%
X172500000Y-98500000D03*
D13*
%TO.P,J1,2*%
%TO.N,VCC*%
X169960000Y-98500000D03*
%TO.P,J1,3*%
%TO.N,OUTPUT_INVERTED*%
X167420000Y-98500000D03*
%TD*%
D12*
%TO.P,J1,1*%
%TO.N,GND*%
X155500000Y-98500000D03*
D13*
%TO.P,J1,2*%
%TO.N,VCC*%
X152960000Y-98500000D03*
%TO.P,J1,3*%
%TO.N,OUTPUT_INVERTED*%
X150420000Y-98500000D03*
%TD*%
%TO.P,C1,1*%
%TO.N,Net-(C1-Pad1)*%
%TA.AperFunction,SMDPad,CuDef*%
G36*
G01*
X167950000Y-114925001D02*
X167950000Y-114074999D01*
G75*
G02*
X168199999Y-113825000I249999J0D01*
G01*
X169100001Y-113825000D01*
G75*
G02*
X169350000Y-114074999I0J-249999D01*
G01*
X169350000Y-114925001D01*
G75*
G02*
X169100001Y-115175000I-249999J0D01*
G01*
X168199999Y-115175000D01*
G75*
G02*
X167950000Y-114925001I0J249999D01*
G01*
G37*
%TD.AperFunction*%
%TO.P,C1,2*%
%TO.N,GND*%
%TA.AperFunction,SMDPad,CuDef*%
G36*
G01*
X170650000Y-114925001D02*
X170650000Y-114074999D01*
G75*
G02*
X170899999Y-113825000I249999J0D01*
G01*
X171800001Y-113825000D01*
G75*
G02*
X172050000Y-114074999I0J-249999D01*
G01*
X172050000Y-114925001D01*
G75*
G02*
X171800001Y-115175000I-249999J0D01*
G01*
X170899999Y-115175000D01*
G75*
G02*
X170650000Y-114925001I0J249999D01*
G01*
G37*
%TD.AperFunction*%
%TD*%
%TO.P,C1,1*%
%TO.N,Net-(C1-Pad1)*%
%TA.AperFunction,SMDPad,CuDef*%
G36*
G01*
X150950000Y-114925001D02*
X150950000Y-114074999D01*
G75*
G02*
X151199999Y-113825000I249999J0D01*
G01*
X152100001Y-113825000D01*
G75*
G02*
X152350000Y-114074999I0J-249999D01*
G01*
X152350000Y-114925001D01*
G75*
G02*
X152100001Y-115175000I-249999J0D01*
G01*
X151199999Y-115175000D01*
G75*
G02*
X150950000Y-114925001I0J249999D01*
G01*
G37*
%TD.AperFunction*%
%TO.P,C1,2*%
%TO.N,GND*%
%TA.AperFunction,SMDPad,CuDef*%
G36*
G01*
X153650000Y-114925001D02*
X153650000Y-114074999D01*
G75*
G02*
X153899999Y-113825000I249999J0D01*
G01*
X154800001Y-113825000D01*
G75*
G02*
X155050000Y-114074999I0J-249999D01*
G01*
X155050000Y-114925001D01*
G75*
G02*
X154800001Y-115175000I-249999J0D01*
G01*
X153899999Y-115175000D01*
G75*
G02*
X153650000Y-114925001I0J249999D01*
G01*
G37*
%TD.AperFunction*%
%TD*%
%TO.P,C1,1*%
%TO.N,Net-(C1-Pad1)*%
%TA.AperFunction,SMDPad,CuDef*%
G36*
G01*
X133950000Y-114925001D02*
X133950000Y-114074999D01*
G75*
G02*
X134199999Y-113825000I249999J0D01*
G01*
X135100001Y-113825000D01*
G75*
G02*
X135350000Y-114074999I0J-249999D01*
G01*
X135350000Y-114925001D01*
G75*
G02*
X135100001Y-115175000I-249999J0D01*
G01*
X134199999Y-115175000D01*
G75*
G02*
X133950000Y-114925001I0J249999D01*
G01*
G37*
%TD.AperFunction*%
%TO.P,C1,2*%
%TO.N,GND*%
%TA.AperFunction,SMDPad,CuDef*%
G36*
G01*
X136650000Y-114925001D02*
X136650000Y-114074999D01*
G75*
G02*
X136899999Y-113825000I249999J0D01*
G01*
X137800001Y-113825000D01*
G75*
G02*
X138050000Y-114074999I0J-249999D01*
G01*
X138050000Y-114925001D01*
G75*
G02*
X137800001Y-115175000I-249999J0D01*
G01*
X136899999Y-115175000D01*
G75*
G02*
X136650000Y-114925001I0J249999D01*
G01*
G37*
%TD.AperFunction*%
%TD*%
%TO.P,C1,1*%
%TO.N,Net-(C1-Pad1)*%
%TA.AperFunction,SMDPad,CuDef*%
G36*
G01*
X167950000Y-102925001D02*
X167950000Y-102074999D01*
G75*
G02*
X168199999Y-101825000I249999J0D01*
G01*
X169100001Y-101825000D01*
G75*
G02*
X169350000Y-102074999I0J-249999D01*
G01*
X169350000Y-102925001D01*
G75*
G02*
X169100001Y-103175000I-249999J0D01*
G01*
X168199999Y-103175000D01*
G75*
G02*
X167950000Y-102925001I0J249999D01*
G01*
G37*
%TD.AperFunction*%
%TO.P,C1,2*%
%TO.N,GND*%
%TA.AperFunction,SMDPad,CuDef*%
G36*
G01*
X170650000Y-102925001D02*
X170650000Y-102074999D01*
G75*
G02*
X170899999Y-101825000I249999J0D01*
G01*
X171800001Y-101825000D01*
G75*
G02*
X172050000Y-102074999I0J-249999D01*
G01*
X172050000Y-102925001D01*
G75*
G02*
X171800001Y-103175000I-249999J0D01*
G01*
X170899999Y-103175000D01*
G75*
G02*
X170650000Y-102925001I0J249999D01*
G01*
G37*
%TD.AperFunction*%
%TD*%
%TO.P,C1,1*%
%TO.N,Net-(C1-Pad1)*%
%TA.AperFunction,SMDPad,CuDef*%
G36*
G01*
X150950000Y-102925001D02*
X150950000Y-102074999D01*
G75*
G02*
X151199999Y-101825000I249999J0D01*
G01*
X152100001Y-101825000D01*
G75*
G02*
X152350000Y-102074999I0J-249999D01*
G01*
X152350000Y-102925001D01*
G75*
G02*
X152100001Y-103175000I-249999J0D01*
G01*
X151199999Y-103175000D01*
G75*
G02*
X150950000Y-102925001I0J249999D01*
G01*
G37*
%TD.AperFunction*%
%TO.P,C1,2*%
%TO.N,GND*%
%TA.AperFunction,SMDPad,CuDef*%
G36*
G01*
X153650000Y-102925001D02*
X153650000Y-102074999D01*
G75*
G02*
X153899999Y-101825000I249999J0D01*
G01*
X154800001Y-101825000D01*
G75*
G02*
X155050000Y-102074999I0J-249999D01*
G01*
X155050000Y-102925001D01*
G75*
G02*
X154800001Y-103175000I-249999J0D01*
G01*
X153899999Y-103175000D01*
G75*
G02*
X153650000Y-102925001I0J249999D01*
G01*
G37*
%TD.AperFunction*%
%TD*%
%TO.P,C1,2*%
%TO.N,GND*%
%TA.AperFunction,SMDPad,CuDef*%
G36*
G01*
X136650000Y-102925001D02*
X136650000Y-102074999D01*
G75*
G02*
X136899999Y-101825000I249999J0D01*
G01*
X137800001Y-101825000D01*
G75*
G02*
X138050000Y-102074999I0J-249999D01*
G01*
X138050000Y-102925001D01*
G75*
G02*
X137800001Y-103175000I-249999J0D01*
G01*
X136899999Y-103175000D01*
G75*
G02*
X136650000Y-102925001I0J249999D01*
G01*
G37*
%TD.AperFunction*%
%TO.P,C1,1*%
%TO.N,Net-(C1-Pad1)*%
%TA.AperFunction,SMDPad,CuDef*%
G36*
G01*
X133950000Y-102925001D02*
X133950000Y-102074999D01*
G75*
G02*
X134199999Y-101825000I249999J0D01*
G01*
X135100001Y-101825000D01*
G75*
G02*
X135350000Y-102074999I0J-249999D01*
G01*
X135350000Y-102925001D01*
G75*
G02*
X135100001Y-103175000I-249999J0D01*
G01*
X134199999Y-103175000D01*
G75*
G02*
X133950000Y-102925001I0J249999D01*
G01*
G37*
%TD.AperFunction*%
%TD*%
%TO.P,J1,3*%
%TO.N,OUTPUT_INVERTED*%
X133420000Y-98500000D03*
%TO.P,J1,2*%
%TO.N,VCC*%
X135960000Y-98500000D03*
D12*
%TO.P,J1,1*%
%TO.N,GND*%
X138500000Y-98500000D03*
%TD*%
%TO.P,U2,8*%
%TO.N,VCC*%
%TA.AperFunction,SMDPad,CuDef*%
G36*
G01*
X144750000Y-97745000D02*
X144750000Y-97445000D01*
G75*
G02*
X144900000Y-97295000I150000J0D01*
G01*
X146550000Y-97295000D01*
G75*
G02*
X146700000Y-97445000I0J-150000D01*
G01*
X146700000Y-97745000D01*
G75*
G02*
X146550000Y-97895000I-150000J0D01*
G01*
X144900000Y-97895000D01*
G75*
G02*
X144750000Y-97745000I0J150000D01*
G01*
G37*
%TD.AperFunction*%
%TO.P,U2,7*%
%TO.N,Net-(R3-Pad2)*%
%TA.AperFunction,SMDPad,CuDef*%
G36*
G01*
X144750000Y-99015000D02*
X144750000Y-98715000D01*
G75*
G02*
X144900000Y-98565000I150000J0D01*
G01*
X146550000Y-98565000D01*
G75*
G02*
X146700000Y-98715000I0J-150000D01*
G01*
X146700000Y-99015000D01*
G75*
G02*
X146550000Y-99165000I-150000J0D01*
G01*
X144900000Y-99165000D01*
G75*
G02*
X144750000Y-99015000I0J150000D01*
G01*
G37*
%TD.AperFunction*%
%TO.P,U2,6*%
%TO.N,Net-(C3-Pad1)*%
%TA.AperFunction,SMDPad,CuDef*%
G36*
G01*
X144750000Y-100285000D02*
X144750000Y-99985000D01*
G75*
G02*
X144900000Y-99835000I150000J0D01*
G01*
X146550000Y-99835000D01*
G75*
G02*
X146700000Y-99985000I0J-150000D01*
G01*
X146700000Y-100285000D01*
G75*
G02*
X146550000Y-100435000I-150000J0D01*
G01*
X144900000Y-100435000D01*
G75*
G02*
X144750000Y-100285000I0J150000D01*
G01*
G37*
%TD.AperFunction*%
%TO.P,U2,5*%
%TO.N,Net-(C2-Pad1)*%
%TA.AperFunction,SMDPad,CuDef*%
G36*
G01*
X144750000Y-101555000D02*
X144750000Y-101255000D01*
G75*
G02*
X144900000Y-101105000I150000J0D01*
G01*
X146550000Y-101105000D01*
G75*
G02*
X146700000Y-101255000I0J-150000D01*
G01*
X146700000Y-101555000D01*
G75*
G02*
X146550000Y-101705000I-150000J0D01*
G01*
X144900000Y-101705000D01*
G75*
G02*
X144750000Y-101555000I0J150000D01*
G01*
G37*
%TD.AperFunction*%
%TO.P,U2,4*%
%TO.N,VCC*%
%TA.AperFunction,SMDPad,CuDef*%
G36*
G01*
X139800000Y-101555000D02*
X139800000Y-101255000D01*
G75*
G02*
X139950000Y-101105000I150000J0D01*
G01*
X141600000Y-101105000D01*
G75*
G02*
X141750000Y-101255000I0J-150000D01*
G01*
X141750000Y-101555000D01*
G75*
G02*
X141600000Y-101705000I-150000J0D01*
G01*
X139950000Y-101705000D01*
G75*
G02*
X139800000Y-101555000I0J150000D01*
G01*
G37*
%TD.AperFunction*%
%TO.P,U2,3*%
%TO.N,SQUARE_WAVE_SIGNAL*%
%TA.AperFunction,SMDPad,CuDef*%
G36*
G01*
X139800000Y-100285000D02*
X139800000Y-99985000D01*
G75*
G02*
X139950000Y-99835000I150000J0D01*
G01*
X141600000Y-99835000D01*
G75*
G02*
X141750000Y-99985000I0J-150000D01*
G01*
X141750000Y-100285000D01*
G75*
G02*
X141600000Y-100435000I-150000J0D01*
G01*
X139950000Y-100435000D01*
G75*
G02*
X139800000Y-100285000I0J150000D01*
G01*
G37*
%TD.AperFunction*%
%TO.P,U2,2*%
%TO.N,Net-(C3-Pad1)*%
%TA.AperFunction,SMDPad,CuDef*%
G36*
G01*
X139800000Y-99015000D02*
X139800000Y-98715000D01*
G75*
G02*
X139950000Y-98565000I150000J0D01*
G01*
X141600000Y-98565000D01*
G75*
G02*
X141750000Y-98715000I0J-150000D01*
G01*
X141750000Y-99015000D01*
G75*
G02*
X141600000Y-99165000I-150000J0D01*
G01*
X139950000Y-99165000D01*
G75*
G02*
X139800000Y-99015000I0J150000D01*
G01*
G37*
%TD.AperFunction*%
%TO.P,U2,1*%
%TO.N,GND*%
%TA.AperFunction,SMDPad,CuDef*%
G36*
G01*
X139800000Y-97745000D02*
X139800000Y-97445000D01*
G75*
G02*
X139950000Y-97295000I150000J0D01*
G01*
X141600000Y-97295000D01*
G75*
G02*
X141750000Y-97445000I0J-150000D01*
G01*
X141750000Y-97745000D01*
G75*
G02*
X141600000Y-97895000I-150000J0D01*
G01*
X139950000Y-97895000D01*
G75*
G02*
X139800000Y-97745000I0J150000D01*
G01*
G37*
%TD.AperFunction*%
%TD*%
D11*
%TO.P,U1,3*%
%TO.N,GND*%
X138580000Y-105500000D03*
%TO.P,U1,2*%
%TO.N,Net-(C1-Pad1)*%
X136040000Y-105500000D03*
%TO.P,U1,1*%
%TO.N,OUTPUT_INVERTED*%
%TA.AperFunction,ComponentPad*%
G36*
G01*
X132600000Y-106151600D02*
X132600000Y-104848400D01*
G75*
G02*
X132848400Y-104600000I248400J0D01*
G01*
X134151600Y-104600000D01*
G75*
G02*
X134400000Y-104848400I0J-248400D01*
G01*
X134400000Y-106151600D01*
G75*
G02*
X134151600Y-106400000I-248400J0D01*
G01*
X132848400Y-106400000D01*
G75*
G02*
X132600000Y-106151600I0J248400D01*
G01*
G37*
%TD.AperFunction*%
%TD*%
%TO.P,R2,2*%
%TO.N,GND*%
%TA.AperFunction,SMDPad,CuDef*%
G36*
G01*
X141987500Y-105293750D02*
X141987500Y-106206250D01*
G75*
G02*
X141743750Y-106450000I-243750J0D01*
G01*
X141256250Y-106450000D01*
G75*
G02*
X141012500Y-106206250I0J243750D01*
G01*
X141012500Y-105293750D01*
G75*
G02*
X141256250Y-105050000I243750J0D01*
G01*
X141743750Y-105050000D01*
G75*
G02*
X141987500Y-105293750I0J-243750D01*
G01*
G37*
%TD.AperFunction*%
%TO.P,R2,1*%
%TO.N,Net-(D1-Pad1)*%
%TA.AperFunction,SMDPad,CuDef*%
G36*
G01*
X143862500Y-105293750D02*
X143862500Y-106206250D01*
G75*
G02*
X143618750Y-106450000I-243750J0D01*
G01*
X143131250Y-106450000D01*
G75*
G02*
X142887500Y-106206250I0J243750D01*
G01*
X142887500Y-105293750D01*
G75*
G02*
X143131250Y-105050000I243750J0D01*
G01*
X143618750Y-105050000D01*
G75*
G02*
X143862500Y-105293750I0J-243750D01*
G01*
G37*
%TD.AperFunction*%
%TD*%
%TO.P,D1,2*%
%TO.N,SQUARE_WAVE_SIGNAL*%
X141960000Y-103350000D03*
D10*
%TO.P,D1,1*%
%TO.N,Net-(D1-Pad1)*%
X144500000Y-103350000D03*
%TD*%
D14*
%TO.N,GND*%
X142000000Y-97950000D03*
X159000000Y-97950000D03*
X176000000Y-97950000D03*
X142000000Y-109950000D03*
X159000000Y-109950000D03*
X176000000Y-109950000D03*
%TO.N,Net-(C1-Pad1)*%
X133800000Y-103200000D03*
X150800000Y-103200000D03*
X167800000Y-103200000D03*
X133800000Y-115200000D03*
X150800000Y-115200000D03*
X167800000Y-115200000D03*
%TO.N,Net-(C2-Pad1)*%
X146375000Y-102800000D03*
X163375000Y-102800000D03*
X180375000Y-102800000D03*
X146375000Y-114800000D03*
X163375000Y-114800000D03*
X180375000Y-114800000D03*
%TO.N,Net-(C3-Pad1)*%
X143950000Y-98000000D03*
X143900000Y-100850000D03*
X160900000Y-100850000D03*
X177900000Y-100850000D03*
X143900000Y-112850000D03*
X160900000Y-112850000D03*
X177900000Y-112850000D03*
X160950000Y-98000000D03*
X177950000Y-98000000D03*
X143950000Y-110000000D03*
X160950000Y-110000000D03*
X177950000Y-110000000D03*
%TO.N,VCC*%
X146375000Y-97800000D03*
X140080000Y-102100000D03*
X163375000Y-97800000D03*
X180375000Y-97800000D03*
X146375000Y-109800000D03*
X163375000Y-109800000D03*
X180375000Y-109800000D03*
X157080000Y-102100000D03*
X174080000Y-102100000D03*
X140080000Y-114100000D03*
X157080000Y-114100000D03*
X174080000Y-114100000D03*
%TO.N,OUTPUT_INVERTED*%
X137300000Y-100900000D03*
X154300000Y-100900000D03*
X171300000Y-100900000D03*
X137300000Y-112900000D03*
X154300000Y-112900000D03*
X171300000Y-112900000D03*
%TO.N,Net-(R3-Pad2)*%
X143150000Y-99500000D03*
X160150000Y-99500000D03*
X177150000Y-99500000D03*
X143150000Y-111500000D03*
X160150000Y-111500000D03*
X177150000Y-111500000D03*
%TD*%
D15*
%TO.N,GND*%
X138830000Y-105750000D02*
X138580000Y-105500000D01*
D16*
X138580000Y-103730000D02*
X137350000Y-102500000D01*
X138580000Y-105500000D02*
X138580000Y-103730000D01*
X138500000Y-101350000D02*
X138500000Y-98500000D01*
X137350000Y-102500000D02*
X138500000Y-101350000D01*
X141500000Y-105750000D02*
X138830000Y-105750000D01*
D15*
X139405000Y-97595000D02*
X138500000Y-98500000D01*
X140775000Y-97595000D02*
X139405000Y-97595000D01*
X140775000Y-97595000D02*
X141645000Y-97595000D01*
X141645000Y-97595000D02*
X142000000Y-97950000D01*
D16*
X158500000Y-105750000D02*
X155830000Y-105750000D01*
X175500000Y-105750000D02*
X172830000Y-105750000D01*
X141500000Y-117750000D02*
X138830000Y-117750000D01*
X158500000Y-117750000D02*
X155830000Y-117750000D01*
X175500000Y-117750000D02*
X172830000Y-117750000D01*
D15*
X157775000Y-97595000D02*
X158645000Y-97595000D01*
X174775000Y-97595000D02*
X175645000Y-97595000D01*
X140775000Y-109595000D02*
X141645000Y-109595000D01*
X157775000Y-109595000D02*
X158645000Y-109595000D01*
X174775000Y-109595000D02*
X175645000Y-109595000D01*
D16*
X155500000Y-101350000D02*
X155500000Y-98500000D01*
X172500000Y-101350000D02*
X172500000Y-98500000D01*
X138500000Y-113350000D02*
X138500000Y-110500000D01*
X155500000Y-113350000D02*
X155500000Y-110500000D01*
X172500000Y-113350000D02*
X172500000Y-110500000D01*
D15*
X155830000Y-105750000D02*
X155580000Y-105500000D01*
X172830000Y-105750000D02*
X172580000Y-105500000D01*
X138830000Y-117750000D02*
X138580000Y-117500000D01*
X155830000Y-117750000D02*
X155580000Y-117500000D01*
X172830000Y-117750000D02*
X172580000Y-117500000D01*
D16*
X154350000Y-102500000D02*
X155500000Y-101350000D01*
X171350000Y-102500000D02*
X172500000Y-101350000D01*
X137350000Y-114500000D02*
X138500000Y-113350000D01*
X154350000Y-114500000D02*
X155500000Y-113350000D01*
X171350000Y-114500000D02*
X172500000Y-113350000D01*
D15*
X157775000Y-97595000D02*
X156405000Y-97595000D01*
X174775000Y-97595000D02*
X173405000Y-97595000D01*
X140775000Y-109595000D02*
X139405000Y-109595000D01*
X157775000Y-109595000D02*
X156405000Y-109595000D01*
X174775000Y-109595000D02*
X173405000Y-109595000D01*
X158645000Y-97595000D02*
X159000000Y-97950000D01*
X175645000Y-97595000D02*
X176000000Y-97950000D01*
X141645000Y-109595000D02*
X142000000Y-109950000D01*
X158645000Y-109595000D02*
X159000000Y-109950000D01*
X175645000Y-109595000D02*
X176000000Y-109950000D01*
D16*
X155580000Y-105500000D02*
X155580000Y-103730000D01*
X172580000Y-105500000D02*
X172580000Y-103730000D01*
X138580000Y-117500000D02*
X138580000Y-115730000D01*
X155580000Y-117500000D02*
X155580000Y-115730000D01*
X172580000Y-117500000D02*
X172580000Y-115730000D01*
X155580000Y-103730000D02*
X154350000Y-102500000D01*
X172580000Y-103730000D02*
X171350000Y-102500000D01*
X138580000Y-115730000D02*
X137350000Y-114500000D01*
X155580000Y-115730000D02*
X154350000Y-114500000D01*
X172580000Y-115730000D02*
X171350000Y-114500000D01*
D15*
X156405000Y-97595000D02*
X155500000Y-98500000D01*
X173405000Y-97595000D02*
X172500000Y-98500000D01*
X139405000Y-109595000D02*
X138500000Y-110500000D01*
X156405000Y-109595000D02*
X155500000Y-110500000D01*
X173405000Y-109595000D02*
X172500000Y-110500000D01*
%TO.N,Net-(C1-Pad1)*%
X133950000Y-103200000D02*
X134650000Y-102500000D01*
X133800000Y-103200000D02*
X133950000Y-103200000D01*
X136040000Y-103890000D02*
X134650000Y-102500000D01*
X136040000Y-105500000D02*
X136040000Y-103890000D01*
X153040000Y-105500000D02*
X153040000Y-103890000D01*
X170040000Y-105500000D02*
X170040000Y-103890000D01*
X136040000Y-117500000D02*
X136040000Y-115890000D01*
X153040000Y-117500000D02*
X153040000Y-115890000D01*
X170040000Y-117500000D02*
X170040000Y-115890000D01*
X150950000Y-103200000D02*
X151650000Y-102500000D01*
X167950000Y-103200000D02*
X168650000Y-102500000D01*
X133950000Y-115200000D02*
X134650000Y-114500000D01*
X150950000Y-115200000D02*
X151650000Y-114500000D01*
X167950000Y-115200000D02*
X168650000Y-114500000D01*
X153040000Y-103890000D02*
X151650000Y-102500000D01*
X170040000Y-103890000D02*
X168650000Y-102500000D01*
X136040000Y-115890000D02*
X134650000Y-114500000D01*
X153040000Y-115890000D02*
X151650000Y-114500000D01*
X170040000Y-115890000D02*
X168650000Y-114500000D01*
X150800000Y-103200000D02*
X150950000Y-103200000D01*
X167800000Y-103200000D02*
X167950000Y-103200000D01*
X133800000Y-115200000D02*
X133950000Y-115200000D01*
X150800000Y-115200000D02*
X150950000Y-115200000D01*
X167800000Y-115200000D02*
X167950000Y-115200000D01*
%TO.N,Net-(C2-Pad1)*%
X145725000Y-101405000D02*
X146375000Y-102055000D01*
X146375000Y-102055000D02*
X146375000Y-102800000D01*
X163375000Y-102055000D02*
X163375000Y-102800000D01*
X180375000Y-102055000D02*
X180375000Y-102800000D01*
X146375000Y-114055000D02*
X146375000Y-114800000D01*
X163375000Y-114055000D02*
X163375000Y-114800000D01*
X180375000Y-114055000D02*
X180375000Y-114800000D01*
X162725000Y-101405000D02*
X163375000Y-102055000D01*
X179725000Y-101405000D02*
X180375000Y-102055000D01*
X145725000Y-113405000D02*
X146375000Y-114055000D01*
X162725000Y-113405000D02*
X163375000Y-114055000D01*
X179725000Y-113405000D02*
X180375000Y-114055000D01*
%TO.N,Net-(C3-Pad1)*%
X145015000Y-100135000D02*
X145725000Y-100135000D01*
X140775000Y-98865000D02*
X142335000Y-98865000D01*
X143200000Y-98000000D02*
X143950000Y-98000000D01*
X142335000Y-98865000D02*
X143200000Y-98000000D01*
X144615000Y-100135000D02*
X145725000Y-100135000D01*
X143900000Y-100850000D02*
X144615000Y-100135000D01*
X161615000Y-100135000D02*
X162725000Y-100135000D01*
X178615000Y-100135000D02*
X179725000Y-100135000D01*
X144615000Y-112135000D02*
X145725000Y-112135000D01*
X161615000Y-112135000D02*
X162725000Y-112135000D01*
X178615000Y-112135000D02*
X179725000Y-112135000D01*
X162015000Y-100135000D02*
X162725000Y-100135000D01*
X179015000Y-100135000D02*
X179725000Y-100135000D01*
X145015000Y-112135000D02*
X145725000Y-112135000D01*
X162015000Y-112135000D02*
X162725000Y-112135000D01*
X179015000Y-112135000D02*
X179725000Y-112135000D01*
X159335000Y-98865000D02*
X160200000Y-98000000D01*
X176335000Y-98865000D02*
X177200000Y-98000000D01*
X142335000Y-110865000D02*
X143200000Y-110000000D01*
X159335000Y-110865000D02*
X160200000Y-110000000D01*
X176335000Y-110865000D02*
X177200000Y-110000000D01*
X160900000Y-100850000D02*
X161615000Y-100135000D01*
X177900000Y-100850000D02*
X178615000Y-100135000D01*
X143900000Y-112850000D02*
X144615000Y-112135000D01*
X160900000Y-112850000D02*
X161615000Y-112135000D01*
X177900000Y-112850000D02*
X178615000Y-112135000D01*
X157775000Y-98865000D02*
X159335000Y-98865000D01*
X174775000Y-98865000D02*
X176335000Y-98865000D01*
X140775000Y-110865000D02*
X142335000Y-110865000D01*
X157775000Y-110865000D02*
X159335000Y-110865000D01*
X174775000Y-110865000D02*
X176335000Y-110865000D01*
X160200000Y-98000000D02*
X160950000Y-98000000D01*
X177200000Y-98000000D02*
X177950000Y-98000000D01*
X143200000Y-110000000D02*
X143950000Y-110000000D01*
X160200000Y-110000000D02*
X160950000Y-110000000D01*
X177200000Y-110000000D02*
X177950000Y-110000000D01*
%TO.N,VCC*%
X145725000Y-97595000D02*
X146170000Y-97595000D01*
X146170000Y-97595000D02*
X146375000Y-97800000D01*
X140775000Y-101405000D02*
X140080000Y-102100000D01*
X157775000Y-101405000D02*
X157080000Y-102100000D01*
X174775000Y-101405000D02*
X174080000Y-102100000D01*
X140775000Y-113405000D02*
X140080000Y-114100000D01*
X157775000Y-113405000D02*
X157080000Y-114100000D01*
X174775000Y-113405000D02*
X174080000Y-114100000D01*
X162725000Y-97595000D02*
X163170000Y-97595000D01*
X179725000Y-97595000D02*
X180170000Y-97595000D01*
X145725000Y-109595000D02*
X146170000Y-109595000D01*
X162725000Y-109595000D02*
X163170000Y-109595000D01*
X179725000Y-109595000D02*
X180170000Y-109595000D01*
X163170000Y-97595000D02*
X163375000Y-97800000D01*
X180170000Y-97595000D02*
X180375000Y-97800000D01*
X146170000Y-109595000D02*
X146375000Y-109800000D01*
X163170000Y-109595000D02*
X163375000Y-109800000D01*
X180170000Y-109595000D02*
X180375000Y-109800000D01*
D16*
%TO.N,Net-(D1-Pad1)*%
X144500000Y-104625000D02*
X143375000Y-105750000D01*
X144500000Y-103350000D02*
X144500000Y-104625000D01*
X161500000Y-104625000D02*
X160375000Y-105750000D01*
X178500000Y-104625000D02*
X177375000Y-105750000D01*
X144500000Y-116625000D02*
X143375000Y-117750000D01*
X161500000Y-116625000D02*
X160375000Y-117750000D01*
X178500000Y-116625000D02*
X177375000Y-117750000D01*
X161500000Y-103350000D02*
X161500000Y-104625000D01*
X178500000Y-103350000D02*
X178500000Y-104625000D01*
X144500000Y-115350000D02*
X144500000Y-116625000D01*
X161500000Y-115350000D02*
X161500000Y-116625000D01*
X178500000Y-115350000D02*
X178500000Y-116625000D01*
D15*
%TO.N,OUTPUT_INVERTED*%
X132570001Y-104570001D02*
X133500000Y-105500000D01*
X133420000Y-98500000D02*
X132570001Y-99349999D01*
X133900000Y-100900000D02*
X132570001Y-102229999D01*
X137300000Y-100900000D02*
X133900000Y-100900000D01*
X132570001Y-99349999D02*
X132570001Y-102229999D01*
X132570001Y-102229999D02*
X132570001Y-104570001D01*
X149570001Y-104570001D02*
X150500000Y-105500000D01*
X166570001Y-104570001D02*
X167500000Y-105500000D01*
X132570001Y-116570001D02*
X133500000Y-117500000D01*
X149570001Y-116570001D02*
X150500000Y-117500000D01*
X166570001Y-116570001D02*
X167500000Y-117500000D01*
X150900000Y-100900000D02*
X149570001Y-102229999D01*
X167900000Y-100900000D02*
X166570001Y-102229999D01*
X133900000Y-112900000D02*
X132570001Y-114229999D01*
X150900000Y-112900000D02*
X149570001Y-114229999D01*
X167900000Y-112900000D02*
X166570001Y-114229999D01*
X150420000Y-98500000D02*
X149570001Y-99349999D01*
X167420000Y-98500000D02*
X166570001Y-99349999D01*
X133420000Y-110500000D02*
X132570001Y-111349999D01*
X150420000Y-110500000D02*
X149570001Y-111349999D01*
X167420000Y-110500000D02*
X166570001Y-111349999D01*
X149570001Y-102229999D02*
X149570001Y-104570001D01*
X166570001Y-102229999D02*
X166570001Y-104570001D01*
X132570001Y-114229999D02*
X132570001Y-116570001D01*
X149570001Y-114229999D02*
X149570001Y-116570001D01*
X166570001Y-114229999D02*
X166570001Y-116570001D01*
X154300000Y-100900000D02*
X150900000Y-100900000D01*
X171300000Y-100900000D02*
X167900000Y-100900000D01*
X137300000Y-112900000D02*
X133900000Y-112900000D01*
X154300000Y-112900000D02*
X150900000Y-112900000D01*
X171300000Y-112900000D02*
X167900000Y-112900000D01*
X149570001Y-99349999D02*
X149570001Y-102229999D01*
X166570001Y-99349999D02*
X166570001Y-102229999D01*
X132570001Y-111349999D02*
X132570001Y-114229999D01*
X149570001Y-111349999D02*
X149570001Y-114229999D01*
X166570001Y-111349999D02*
X166570001Y-114229999D01*
D16*
%TO.N,SQUARE_WAVE_SIGNAL*%
X140775000Y-100135000D02*
X141785000Y-100135000D01*
X141785000Y-100135000D02*
X142600000Y-100950000D01*
X142600000Y-102710000D02*
X141960000Y-103350000D01*
X142600000Y-100950000D02*
X142600000Y-102710000D01*
X157775000Y-100135000D02*
X158785000Y-100135000D01*
X174775000Y-100135000D02*
X175785000Y-100135000D01*
X140775000Y-112135000D02*
X141785000Y-112135000D01*
X157775000Y-112135000D02*
X158785000Y-112135000D01*
X174775000Y-112135000D02*
X175785000Y-112135000D01*
X158785000Y-100135000D02*
X159600000Y-100950000D01*
X175785000Y-100135000D02*
X176600000Y-100950000D01*
X141785000Y-112135000D02*
X142600000Y-112950000D01*
X158785000Y-112135000D02*
X159600000Y-112950000D01*
X175785000Y-112135000D02*
X176600000Y-112950000D01*
X159600000Y-100950000D02*
X159600000Y-102710000D01*
X176600000Y-100950000D02*
X176600000Y-102710000D01*
X142600000Y-112950000D02*
X142600000Y-114710000D01*
X159600000Y-112950000D02*
X159600000Y-114710000D01*
X176600000Y-112950000D02*
X176600000Y-114710000D01*
X159600000Y-102710000D02*
X158960000Y-103350000D01*
X176600000Y-102710000D02*
X175960000Y-103350000D01*
X142600000Y-114710000D02*
X141960000Y-115350000D01*
X159600000Y-114710000D02*
X158960000Y-115350000D01*
X176600000Y-114710000D02*
X175960000Y-115350000D01*
D15*
%TO.N,Net-(R3-Pad2)*%
X143785000Y-98865000D02*
X145725000Y-98865000D01*
X143150000Y-99500000D02*
X143785000Y-98865000D01*
X160150000Y-99500000D02*
X160785000Y-98865000D01*
X177150000Y-99500000D02*
X177785000Y-98865000D01*
X143150000Y-111500000D02*
X143785000Y-110865000D01*
X160150000Y-111500000D02*
X160785000Y-110865000D01*
X177150000Y-111500000D02*
X177785000Y-110865000D01*
X160785000Y-98865000D02*
X162725000Y-98865000D01*
X177785000Y-98865000D02*
X179725000Y-98865000D01*
X143785000Y-110865000D02*
X145725000Y-110865000D01*
X160785000Y-110865000D02*
X162725000Y-110865000D01*
X177785000Y-110865000D02*
X179725000Y-110865000D01*
%TD*%
M02*
