M48
; DRILL file {KiCad (5.1.6)-1} date 08/16/21 20:18:44
; FORMAT={3:3/ absolute / metric / suppress leading zeros}
; #@! TF.CreationDate,2021-08-16T20:18:44+02:00
; #@! TF.GenerationSoftware,Kicad,Pcbnew,(5.1.6)-1
FMAT,2
METRIC,TZ
T1C0.400
T2C0.900
T3C1.000
T4C0.500
%
G90
G05
T1
X133800Y-103200
X133800Y-115200
X137300Y-100900
X137300Y-112900
X140080Y-102100
X140080Y-114100
X142000Y-97950
X142000Y-109950
X143150Y-99500
X143150Y-111500
X143900Y-100850
X143900Y-112850
X143950Y-98000
X143950Y-110000
X146375Y-97800
X146375Y-102800
X146375Y-109800
X146375Y-114800
X150800Y-103200
X150800Y-115200
X154300Y-100900
X154300Y-112900
X157080Y-102100
X157080Y-114100
X159000Y-97950
X159000Y-109950
X160150Y-99500
X160150Y-111500
X160900Y-100850
X160900Y-112850
X160950Y-98000
X160950Y-110000
X163375Y-97800
X163375Y-102800
X163375Y-109800
X163375Y-114800
X167800Y-103200
X167800Y-115200
X171300Y-100900
X171300Y-112900
X174080Y-102100
X174080Y-114100
X176000Y-97950
X176000Y-109950
X177150Y-99500
X177150Y-111500
X177900Y-100850
X177900Y-112850
X177950Y-98000
X177950Y-110000
X180375Y-97800
X180375Y-102800
X180375Y-109800
X180375Y-114800
T2
X167500Y-117500
X170040Y-117500
X172580Y-117500
X158960Y-103350
X161500Y-103350
X141960Y-115350
X144500Y-115350
X150500Y-117500
X153040Y-117500
X155580Y-117500
X175960Y-115350
X178500Y-115350
X141960Y-103350
X144500Y-103350
X133500Y-105500
X136040Y-105500
X138580Y-105500
X133500Y-117500
X136040Y-117500
X138580Y-117500
X150500Y-105500
X153040Y-105500
X155580Y-105500
X167500Y-105500
X170040Y-105500
X172580Y-105500
X158960Y-115350
X161500Y-115350
X175960Y-103350
X178500Y-103350
T3
X150420Y-110500
X152960Y-110500
X155500Y-110500
X133420Y-98500
X135960Y-98500
X138500Y-98500
X150420Y-98500
X152960Y-98500
X155500Y-98500
X167420Y-110500
X169960Y-110500
X172500Y-110500
X167420Y-98500
X169960Y-98500
X172500Y-98500
X133420Y-110500
X135960Y-110500
X138500Y-110500
T4
X164250Y-99750
X164250Y-100500
X164250Y-101250
X164250Y-102000
X164250Y-102750
X164250Y-103500
X164250Y-104250
X165750Y-99750
X165750Y-100500
X165750Y-101250
X165750Y-102000
X165750Y-102750
X165750Y-103500
X165750Y-104250
X147250Y-111750
X147250Y-112500
X147250Y-113250
X147250Y-114000
X147250Y-114750
X147250Y-115500
X147250Y-116250
X148750Y-111750
X148750Y-112500
X148750Y-113250
X148750Y-114000
X148750Y-114750
X148750Y-115500
X148750Y-116250
X164250Y-111750
X164250Y-112500
X164250Y-113250
X164250Y-114000
X164250Y-114750
X164250Y-115500
X164250Y-116250
X165750Y-111750
X165750Y-112500
X165750Y-113250
X165750Y-114000
X165750Y-114750
X165750Y-115500
X165750Y-116250
X181250Y-111750
X181250Y-112500
X181250Y-113250
X181250Y-114000
X181250Y-114750
X181250Y-115500
X181250Y-116250
X182750Y-111750
X182750Y-112500
X182750Y-113250
X182750Y-114000
X182750Y-114750
X182750Y-115500
X182750Y-116250
X147250Y-99750
X147250Y-100500
X147250Y-101250
X147250Y-102000
X147250Y-102750
X147250Y-103500
X147250Y-104250
X148750Y-99750
X148750Y-100500
X148750Y-101250
X148750Y-102000
X148750Y-102750
X148750Y-103500
X148750Y-104250
X154750Y-107250
X154750Y-108750
X155500Y-107250
X155500Y-108750
X156250Y-107250
X156250Y-108750
X157000Y-107250
X157000Y-108750
X157750Y-107250
X157750Y-108750
X158500Y-107250
X158500Y-108750
X159250Y-107250
X159250Y-108750
X137750Y-107250
X137750Y-108750
X138500Y-107250
X138500Y-108750
X139250Y-107250
X139250Y-108750
X140000Y-107250
X140000Y-108750
X140750Y-107250
X140750Y-108750
X141500Y-107250
X141500Y-108750
X142250Y-107250
X142250Y-108750
X171750Y-107250
X171750Y-108750
X172500Y-107250
X172500Y-108750
X173250Y-107250
X173250Y-108750
X174000Y-107250
X174000Y-108750
X174750Y-107250
X174750Y-108750
X175500Y-107250
X175500Y-108750
X176250Y-107250
X176250Y-108750
T0
M30
