%TF.GenerationSoftware,KiCad,Pcbnew,(5.1.6)-1*%
%TF.CreationDate,2021-08-16T20:18:48+02:00*%
%TF.ProjectId,proxima_panel,70726f78-696d-4615-9f70-616e656c2e6b,rev?*%
%TF.SameCoordinates,Original*%
%TF.FileFunction,Paste,Top*%
%TF.FilePolarity,Positive*%
%FSLAX46Y46*%
G04 Gerber Fmt 4.6, Leading zero omitted, Abs format (unit mm)*
G04 Created by KiCad (PCBNEW (5.1.6)-1) date 2021-08-16 20:18:48*
%MOMM*%
%LPD*%
G01*
G04 APERTURE LIST*
G04 APERTURE END LIST*
%TO.C,R2*%
G36*
G01*
X177862500Y-117293750D02*
X177862500Y-118206250D01*
G75*
G02*
X177618750Y-118450000I-243750J0D01*
G01*
X177131250Y-118450000D01*
G75*
G02*
X176887500Y-118206250I0J243750D01*
G01*
X176887500Y-117293750D01*
G75*
G02*
X177131250Y-117050000I243750J0D01*
G01*
X177618750Y-117050000D01*
G75*
G02*
X177862500Y-117293750I0J-243750D01*
G01*
G37*
G36*
G01*
X175987500Y-117293750D02*
X175987500Y-118206250D01*
G75*
G02*
X175743750Y-118450000I-243750J0D01*
G01*
X175256250Y-118450000D01*
G75*
G02*
X175012500Y-118206250I0J243750D01*
G01*
X175012500Y-117293750D01*
G75*
G02*
X175256250Y-117050000I243750J0D01*
G01*
X175743750Y-117050000D01*
G75*
G02*
X175987500Y-117293750I0J-243750D01*
G01*
G37*
%TD*%
%TO.C,R2*%
G36*
G01*
X160862500Y-117293750D02*
X160862500Y-118206250D01*
G75*
G02*
X160618750Y-118450000I-243750J0D01*
G01*
X160131250Y-118450000D01*
G75*
G02*
X159887500Y-118206250I0J243750D01*
G01*
X159887500Y-117293750D01*
G75*
G02*
X160131250Y-117050000I243750J0D01*
G01*
X160618750Y-117050000D01*
G75*
G02*
X160862500Y-117293750I0J-243750D01*
G01*
G37*
G36*
G01*
X158987500Y-117293750D02*
X158987500Y-118206250D01*
G75*
G02*
X158743750Y-118450000I-243750J0D01*
G01*
X158256250Y-118450000D01*
G75*
G02*
X158012500Y-118206250I0J243750D01*
G01*
X158012500Y-117293750D01*
G75*
G02*
X158256250Y-117050000I243750J0D01*
G01*
X158743750Y-117050000D01*
G75*
G02*
X158987500Y-117293750I0J-243750D01*
G01*
G37*
%TD*%
%TO.C,R2*%
G36*
G01*
X143862500Y-117293750D02*
X143862500Y-118206250D01*
G75*
G02*
X143618750Y-118450000I-243750J0D01*
G01*
X143131250Y-118450000D01*
G75*
G02*
X142887500Y-118206250I0J243750D01*
G01*
X142887500Y-117293750D01*
G75*
G02*
X143131250Y-117050000I243750J0D01*
G01*
X143618750Y-117050000D01*
G75*
G02*
X143862500Y-117293750I0J-243750D01*
G01*
G37*
G36*
G01*
X141987500Y-117293750D02*
X141987500Y-118206250D01*
G75*
G02*
X141743750Y-118450000I-243750J0D01*
G01*
X141256250Y-118450000D01*
G75*
G02*
X141012500Y-118206250I0J243750D01*
G01*
X141012500Y-117293750D01*
G75*
G02*
X141256250Y-117050000I243750J0D01*
G01*
X141743750Y-117050000D01*
G75*
G02*
X141987500Y-117293750I0J-243750D01*
G01*
G37*
%TD*%
%TO.C,R2*%
G36*
G01*
X177862500Y-105293750D02*
X177862500Y-106206250D01*
G75*
G02*
X177618750Y-106450000I-243750J0D01*
G01*
X177131250Y-106450000D01*
G75*
G02*
X176887500Y-106206250I0J243750D01*
G01*
X176887500Y-105293750D01*
G75*
G02*
X177131250Y-105050000I243750J0D01*
G01*
X177618750Y-105050000D01*
G75*
G02*
X177862500Y-105293750I0J-243750D01*
G01*
G37*
G36*
G01*
X175987500Y-105293750D02*
X175987500Y-106206250D01*
G75*
G02*
X175743750Y-106450000I-243750J0D01*
G01*
X175256250Y-106450000D01*
G75*
G02*
X175012500Y-106206250I0J243750D01*
G01*
X175012500Y-105293750D01*
G75*
G02*
X175256250Y-105050000I243750J0D01*
G01*
X175743750Y-105050000D01*
G75*
G02*
X175987500Y-105293750I0J-243750D01*
G01*
G37*
%TD*%
%TO.C,R2*%
G36*
G01*
X160862500Y-105293750D02*
X160862500Y-106206250D01*
G75*
G02*
X160618750Y-106450000I-243750J0D01*
G01*
X160131250Y-106450000D01*
G75*
G02*
X159887500Y-106206250I0J243750D01*
G01*
X159887500Y-105293750D01*
G75*
G02*
X160131250Y-105050000I243750J0D01*
G01*
X160618750Y-105050000D01*
G75*
G02*
X160862500Y-105293750I0J-243750D01*
G01*
G37*
G36*
G01*
X158987500Y-105293750D02*
X158987500Y-106206250D01*
G75*
G02*
X158743750Y-106450000I-243750J0D01*
G01*
X158256250Y-106450000D01*
G75*
G02*
X158012500Y-106206250I0J243750D01*
G01*
X158012500Y-105293750D01*
G75*
G02*
X158256250Y-105050000I243750J0D01*
G01*
X158743750Y-105050000D01*
G75*
G02*
X158987500Y-105293750I0J-243750D01*
G01*
G37*
%TD*%
%TO.C,U2*%
G36*
G01*
X173800000Y-109745000D02*
X173800000Y-109445000D01*
G75*
G02*
X173950000Y-109295000I150000J0D01*
G01*
X175600000Y-109295000D01*
G75*
G02*
X175750000Y-109445000I0J-150000D01*
G01*
X175750000Y-109745000D01*
G75*
G02*
X175600000Y-109895000I-150000J0D01*
G01*
X173950000Y-109895000D01*
G75*
G02*
X173800000Y-109745000I0J150000D01*
G01*
G37*
G36*
G01*
X173800000Y-111015000D02*
X173800000Y-110715000D01*
G75*
G02*
X173950000Y-110565000I150000J0D01*
G01*
X175600000Y-110565000D01*
G75*
G02*
X175750000Y-110715000I0J-150000D01*
G01*
X175750000Y-111015000D01*
G75*
G02*
X175600000Y-111165000I-150000J0D01*
G01*
X173950000Y-111165000D01*
G75*
G02*
X173800000Y-111015000I0J150000D01*
G01*
G37*
G36*
G01*
X173800000Y-112285000D02*
X173800000Y-111985000D01*
G75*
G02*
X173950000Y-111835000I150000J0D01*
G01*
X175600000Y-111835000D01*
G75*
G02*
X175750000Y-111985000I0J-150000D01*
G01*
X175750000Y-112285000D01*
G75*
G02*
X175600000Y-112435000I-150000J0D01*
G01*
X173950000Y-112435000D01*
G75*
G02*
X173800000Y-112285000I0J150000D01*
G01*
G37*
G36*
G01*
X173800000Y-113555000D02*
X173800000Y-113255000D01*
G75*
G02*
X173950000Y-113105000I150000J0D01*
G01*
X175600000Y-113105000D01*
G75*
G02*
X175750000Y-113255000I0J-150000D01*
G01*
X175750000Y-113555000D01*
G75*
G02*
X175600000Y-113705000I-150000J0D01*
G01*
X173950000Y-113705000D01*
G75*
G02*
X173800000Y-113555000I0J150000D01*
G01*
G37*
G36*
G01*
X178750000Y-113555000D02*
X178750000Y-113255000D01*
G75*
G02*
X178900000Y-113105000I150000J0D01*
G01*
X180550000Y-113105000D01*
G75*
G02*
X180700000Y-113255000I0J-150000D01*
G01*
X180700000Y-113555000D01*
G75*
G02*
X180550000Y-113705000I-150000J0D01*
G01*
X178900000Y-113705000D01*
G75*
G02*
X178750000Y-113555000I0J150000D01*
G01*
G37*
G36*
G01*
X178750000Y-112285000D02*
X178750000Y-111985000D01*
G75*
G02*
X178900000Y-111835000I150000J0D01*
G01*
X180550000Y-111835000D01*
G75*
G02*
X180700000Y-111985000I0J-150000D01*
G01*
X180700000Y-112285000D01*
G75*
G02*
X180550000Y-112435000I-150000J0D01*
G01*
X178900000Y-112435000D01*
G75*
G02*
X178750000Y-112285000I0J150000D01*
G01*
G37*
G36*
G01*
X178750000Y-111015000D02*
X178750000Y-110715000D01*
G75*
G02*
X178900000Y-110565000I150000J0D01*
G01*
X180550000Y-110565000D01*
G75*
G02*
X180700000Y-110715000I0J-150000D01*
G01*
X180700000Y-111015000D01*
G75*
G02*
X180550000Y-111165000I-150000J0D01*
G01*
X178900000Y-111165000D01*
G75*
G02*
X178750000Y-111015000I0J150000D01*
G01*
G37*
G36*
G01*
X178750000Y-109745000D02*
X178750000Y-109445000D01*
G75*
G02*
X178900000Y-109295000I150000J0D01*
G01*
X180550000Y-109295000D01*
G75*
G02*
X180700000Y-109445000I0J-150000D01*
G01*
X180700000Y-109745000D01*
G75*
G02*
X180550000Y-109895000I-150000J0D01*
G01*
X178900000Y-109895000D01*
G75*
G02*
X178750000Y-109745000I0J150000D01*
G01*
G37*
%TD*%
%TO.C,U2*%
G36*
G01*
X156800000Y-109745000D02*
X156800000Y-109445000D01*
G75*
G02*
X156950000Y-109295000I150000J0D01*
G01*
X158600000Y-109295000D01*
G75*
G02*
X158750000Y-109445000I0J-150000D01*
G01*
X158750000Y-109745000D01*
G75*
G02*
X158600000Y-109895000I-150000J0D01*
G01*
X156950000Y-109895000D01*
G75*
G02*
X156800000Y-109745000I0J150000D01*
G01*
G37*
G36*
G01*
X156800000Y-111015000D02*
X156800000Y-110715000D01*
G75*
G02*
X156950000Y-110565000I150000J0D01*
G01*
X158600000Y-110565000D01*
G75*
G02*
X158750000Y-110715000I0J-150000D01*
G01*
X158750000Y-111015000D01*
G75*
G02*
X158600000Y-111165000I-150000J0D01*
G01*
X156950000Y-111165000D01*
G75*
G02*
X156800000Y-111015000I0J150000D01*
G01*
G37*
G36*
G01*
X156800000Y-112285000D02*
X156800000Y-111985000D01*
G75*
G02*
X156950000Y-111835000I150000J0D01*
G01*
X158600000Y-111835000D01*
G75*
G02*
X158750000Y-111985000I0J-150000D01*
G01*
X158750000Y-112285000D01*
G75*
G02*
X158600000Y-112435000I-150000J0D01*
G01*
X156950000Y-112435000D01*
G75*
G02*
X156800000Y-112285000I0J150000D01*
G01*
G37*
G36*
G01*
X156800000Y-113555000D02*
X156800000Y-113255000D01*
G75*
G02*
X156950000Y-113105000I150000J0D01*
G01*
X158600000Y-113105000D01*
G75*
G02*
X158750000Y-113255000I0J-150000D01*
G01*
X158750000Y-113555000D01*
G75*
G02*
X158600000Y-113705000I-150000J0D01*
G01*
X156950000Y-113705000D01*
G75*
G02*
X156800000Y-113555000I0J150000D01*
G01*
G37*
G36*
G01*
X161750000Y-113555000D02*
X161750000Y-113255000D01*
G75*
G02*
X161900000Y-113105000I150000J0D01*
G01*
X163550000Y-113105000D01*
G75*
G02*
X163700000Y-113255000I0J-150000D01*
G01*
X163700000Y-113555000D01*
G75*
G02*
X163550000Y-113705000I-150000J0D01*
G01*
X161900000Y-113705000D01*
G75*
G02*
X161750000Y-113555000I0J150000D01*
G01*
G37*
G36*
G01*
X161750000Y-112285000D02*
X161750000Y-111985000D01*
G75*
G02*
X161900000Y-111835000I150000J0D01*
G01*
X163550000Y-111835000D01*
G75*
G02*
X163700000Y-111985000I0J-150000D01*
G01*
X163700000Y-112285000D01*
G75*
G02*
X163550000Y-112435000I-150000J0D01*
G01*
X161900000Y-112435000D01*
G75*
G02*
X161750000Y-112285000I0J150000D01*
G01*
G37*
G36*
G01*
X161750000Y-111015000D02*
X161750000Y-110715000D01*
G75*
G02*
X161900000Y-110565000I150000J0D01*
G01*
X163550000Y-110565000D01*
G75*
G02*
X163700000Y-110715000I0J-150000D01*
G01*
X163700000Y-111015000D01*
G75*
G02*
X163550000Y-111165000I-150000J0D01*
G01*
X161900000Y-111165000D01*
G75*
G02*
X161750000Y-111015000I0J150000D01*
G01*
G37*
G36*
G01*
X161750000Y-109745000D02*
X161750000Y-109445000D01*
G75*
G02*
X161900000Y-109295000I150000J0D01*
G01*
X163550000Y-109295000D01*
G75*
G02*
X163700000Y-109445000I0J-150000D01*
G01*
X163700000Y-109745000D01*
G75*
G02*
X163550000Y-109895000I-150000J0D01*
G01*
X161900000Y-109895000D01*
G75*
G02*
X161750000Y-109745000I0J150000D01*
G01*
G37*
%TD*%
%TO.C,U2*%
G36*
G01*
X139800000Y-109745000D02*
X139800000Y-109445000D01*
G75*
G02*
X139950000Y-109295000I150000J0D01*
G01*
X141600000Y-109295000D01*
G75*
G02*
X141750000Y-109445000I0J-150000D01*
G01*
X141750000Y-109745000D01*
G75*
G02*
X141600000Y-109895000I-150000J0D01*
G01*
X139950000Y-109895000D01*
G75*
G02*
X139800000Y-109745000I0J150000D01*
G01*
G37*
G36*
G01*
X139800000Y-111015000D02*
X139800000Y-110715000D01*
G75*
G02*
X139950000Y-110565000I150000J0D01*
G01*
X141600000Y-110565000D01*
G75*
G02*
X141750000Y-110715000I0J-150000D01*
G01*
X141750000Y-111015000D01*
G75*
G02*
X141600000Y-111165000I-150000J0D01*
G01*
X139950000Y-111165000D01*
G75*
G02*
X139800000Y-111015000I0J150000D01*
G01*
G37*
G36*
G01*
X139800000Y-112285000D02*
X139800000Y-111985000D01*
G75*
G02*
X139950000Y-111835000I150000J0D01*
G01*
X141600000Y-111835000D01*
G75*
G02*
X141750000Y-111985000I0J-150000D01*
G01*
X141750000Y-112285000D01*
G75*
G02*
X141600000Y-112435000I-150000J0D01*
G01*
X139950000Y-112435000D01*
G75*
G02*
X139800000Y-112285000I0J150000D01*
G01*
G37*
G36*
G01*
X139800000Y-113555000D02*
X139800000Y-113255000D01*
G75*
G02*
X139950000Y-113105000I150000J0D01*
G01*
X141600000Y-113105000D01*
G75*
G02*
X141750000Y-113255000I0J-150000D01*
G01*
X141750000Y-113555000D01*
G75*
G02*
X141600000Y-113705000I-150000J0D01*
G01*
X139950000Y-113705000D01*
G75*
G02*
X139800000Y-113555000I0J150000D01*
G01*
G37*
G36*
G01*
X144750000Y-113555000D02*
X144750000Y-113255000D01*
G75*
G02*
X144900000Y-113105000I150000J0D01*
G01*
X146550000Y-113105000D01*
G75*
G02*
X146700000Y-113255000I0J-150000D01*
G01*
X146700000Y-113555000D01*
G75*
G02*
X146550000Y-113705000I-150000J0D01*
G01*
X144900000Y-113705000D01*
G75*
G02*
X144750000Y-113555000I0J150000D01*
G01*
G37*
G36*
G01*
X144750000Y-112285000D02*
X144750000Y-111985000D01*
G75*
G02*
X144900000Y-111835000I150000J0D01*
G01*
X146550000Y-111835000D01*
G75*
G02*
X146700000Y-111985000I0J-150000D01*
G01*
X146700000Y-112285000D01*
G75*
G02*
X146550000Y-112435000I-150000J0D01*
G01*
X144900000Y-112435000D01*
G75*
G02*
X144750000Y-112285000I0J150000D01*
G01*
G37*
G36*
G01*
X144750000Y-111015000D02*
X144750000Y-110715000D01*
G75*
G02*
X144900000Y-110565000I150000J0D01*
G01*
X146550000Y-110565000D01*
G75*
G02*
X146700000Y-110715000I0J-150000D01*
G01*
X146700000Y-111015000D01*
G75*
G02*
X146550000Y-111165000I-150000J0D01*
G01*
X144900000Y-111165000D01*
G75*
G02*
X144750000Y-111015000I0J150000D01*
G01*
G37*
G36*
G01*
X144750000Y-109745000D02*
X144750000Y-109445000D01*
G75*
G02*
X144900000Y-109295000I150000J0D01*
G01*
X146550000Y-109295000D01*
G75*
G02*
X146700000Y-109445000I0J-150000D01*
G01*
X146700000Y-109745000D01*
G75*
G02*
X146550000Y-109895000I-150000J0D01*
G01*
X144900000Y-109895000D01*
G75*
G02*
X144750000Y-109745000I0J150000D01*
G01*
G37*
%TD*%
%TO.C,U2*%
G36*
G01*
X173800000Y-97745000D02*
X173800000Y-97445000D01*
G75*
G02*
X173950000Y-97295000I150000J0D01*
G01*
X175600000Y-97295000D01*
G75*
G02*
X175750000Y-97445000I0J-150000D01*
G01*
X175750000Y-97745000D01*
G75*
G02*
X175600000Y-97895000I-150000J0D01*
G01*
X173950000Y-97895000D01*
G75*
G02*
X173800000Y-97745000I0J150000D01*
G01*
G37*
G36*
G01*
X173800000Y-99015000D02*
X173800000Y-98715000D01*
G75*
G02*
X173950000Y-98565000I150000J0D01*
G01*
X175600000Y-98565000D01*
G75*
G02*
X175750000Y-98715000I0J-150000D01*
G01*
X175750000Y-99015000D01*
G75*
G02*
X175600000Y-99165000I-150000J0D01*
G01*
X173950000Y-99165000D01*
G75*
G02*
X173800000Y-99015000I0J150000D01*
G01*
G37*
G36*
G01*
X173800000Y-100285000D02*
X173800000Y-99985000D01*
G75*
G02*
X173950000Y-99835000I150000J0D01*
G01*
X175600000Y-99835000D01*
G75*
G02*
X175750000Y-99985000I0J-150000D01*
G01*
X175750000Y-100285000D01*
G75*
G02*
X175600000Y-100435000I-150000J0D01*
G01*
X173950000Y-100435000D01*
G75*
G02*
X173800000Y-100285000I0J150000D01*
G01*
G37*
G36*
G01*
X173800000Y-101555000D02*
X173800000Y-101255000D01*
G75*
G02*
X173950000Y-101105000I150000J0D01*
G01*
X175600000Y-101105000D01*
G75*
G02*
X175750000Y-101255000I0J-150000D01*
G01*
X175750000Y-101555000D01*
G75*
G02*
X175600000Y-101705000I-150000J0D01*
G01*
X173950000Y-101705000D01*
G75*
G02*
X173800000Y-101555000I0J150000D01*
G01*
G37*
G36*
G01*
X178750000Y-101555000D02*
X178750000Y-101255000D01*
G75*
G02*
X178900000Y-101105000I150000J0D01*
G01*
X180550000Y-101105000D01*
G75*
G02*
X180700000Y-101255000I0J-150000D01*
G01*
X180700000Y-101555000D01*
G75*
G02*
X180550000Y-101705000I-150000J0D01*
G01*
X178900000Y-101705000D01*
G75*
G02*
X178750000Y-101555000I0J150000D01*
G01*
G37*
G36*
G01*
X178750000Y-100285000D02*
X178750000Y-99985000D01*
G75*
G02*
X178900000Y-99835000I150000J0D01*
G01*
X180550000Y-99835000D01*
G75*
G02*
X180700000Y-99985000I0J-150000D01*
G01*
X180700000Y-100285000D01*
G75*
G02*
X180550000Y-100435000I-150000J0D01*
G01*
X178900000Y-100435000D01*
G75*
G02*
X178750000Y-100285000I0J150000D01*
G01*
G37*
G36*
G01*
X178750000Y-99015000D02*
X178750000Y-98715000D01*
G75*
G02*
X178900000Y-98565000I150000J0D01*
G01*
X180550000Y-98565000D01*
G75*
G02*
X180700000Y-98715000I0J-150000D01*
G01*
X180700000Y-99015000D01*
G75*
G02*
X180550000Y-99165000I-150000J0D01*
G01*
X178900000Y-99165000D01*
G75*
G02*
X178750000Y-99015000I0J150000D01*
G01*
G37*
G36*
G01*
X178750000Y-97745000D02*
X178750000Y-97445000D01*
G75*
G02*
X178900000Y-97295000I150000J0D01*
G01*
X180550000Y-97295000D01*
G75*
G02*
X180700000Y-97445000I0J-150000D01*
G01*
X180700000Y-97745000D01*
G75*
G02*
X180550000Y-97895000I-150000J0D01*
G01*
X178900000Y-97895000D01*
G75*
G02*
X178750000Y-97745000I0J150000D01*
G01*
G37*
%TD*%
%TO.C,U2*%
G36*
G01*
X156800000Y-97745000D02*
X156800000Y-97445000D01*
G75*
G02*
X156950000Y-97295000I150000J0D01*
G01*
X158600000Y-97295000D01*
G75*
G02*
X158750000Y-97445000I0J-150000D01*
G01*
X158750000Y-97745000D01*
G75*
G02*
X158600000Y-97895000I-150000J0D01*
G01*
X156950000Y-97895000D01*
G75*
G02*
X156800000Y-97745000I0J150000D01*
G01*
G37*
G36*
G01*
X156800000Y-99015000D02*
X156800000Y-98715000D01*
G75*
G02*
X156950000Y-98565000I150000J0D01*
G01*
X158600000Y-98565000D01*
G75*
G02*
X158750000Y-98715000I0J-150000D01*
G01*
X158750000Y-99015000D01*
G75*
G02*
X158600000Y-99165000I-150000J0D01*
G01*
X156950000Y-99165000D01*
G75*
G02*
X156800000Y-99015000I0J150000D01*
G01*
G37*
G36*
G01*
X156800000Y-100285000D02*
X156800000Y-99985000D01*
G75*
G02*
X156950000Y-99835000I150000J0D01*
G01*
X158600000Y-99835000D01*
G75*
G02*
X158750000Y-99985000I0J-150000D01*
G01*
X158750000Y-100285000D01*
G75*
G02*
X158600000Y-100435000I-150000J0D01*
G01*
X156950000Y-100435000D01*
G75*
G02*
X156800000Y-100285000I0J150000D01*
G01*
G37*
G36*
G01*
X156800000Y-101555000D02*
X156800000Y-101255000D01*
G75*
G02*
X156950000Y-101105000I150000J0D01*
G01*
X158600000Y-101105000D01*
G75*
G02*
X158750000Y-101255000I0J-150000D01*
G01*
X158750000Y-101555000D01*
G75*
G02*
X158600000Y-101705000I-150000J0D01*
G01*
X156950000Y-101705000D01*
G75*
G02*
X156800000Y-101555000I0J150000D01*
G01*
G37*
G36*
G01*
X161750000Y-101555000D02*
X161750000Y-101255000D01*
G75*
G02*
X161900000Y-101105000I150000J0D01*
G01*
X163550000Y-101105000D01*
G75*
G02*
X163700000Y-101255000I0J-150000D01*
G01*
X163700000Y-101555000D01*
G75*
G02*
X163550000Y-101705000I-150000J0D01*
G01*
X161900000Y-101705000D01*
G75*
G02*
X161750000Y-101555000I0J150000D01*
G01*
G37*
G36*
G01*
X161750000Y-100285000D02*
X161750000Y-99985000D01*
G75*
G02*
X161900000Y-99835000I150000J0D01*
G01*
X163550000Y-99835000D01*
G75*
G02*
X163700000Y-99985000I0J-150000D01*
G01*
X163700000Y-100285000D01*
G75*
G02*
X163550000Y-100435000I-150000J0D01*
G01*
X161900000Y-100435000D01*
G75*
G02*
X161750000Y-100285000I0J150000D01*
G01*
G37*
G36*
G01*
X161750000Y-99015000D02*
X161750000Y-98715000D01*
G75*
G02*
X161900000Y-98565000I150000J0D01*
G01*
X163550000Y-98565000D01*
G75*
G02*
X163700000Y-98715000I0J-150000D01*
G01*
X163700000Y-99015000D01*
G75*
G02*
X163550000Y-99165000I-150000J0D01*
G01*
X161900000Y-99165000D01*
G75*
G02*
X161750000Y-99015000I0J150000D01*
G01*
G37*
G36*
G01*
X161750000Y-97745000D02*
X161750000Y-97445000D01*
G75*
G02*
X161900000Y-97295000I150000J0D01*
G01*
X163550000Y-97295000D01*
G75*
G02*
X163700000Y-97445000I0J-150000D01*
G01*
X163700000Y-97745000D01*
G75*
G02*
X163550000Y-97895000I-150000J0D01*
G01*
X161900000Y-97895000D01*
G75*
G02*
X161750000Y-97745000I0J150000D01*
G01*
G37*
%TD*%
%TO.C,C1*%
G36*
G01*
X167950000Y-114925001D02*
X167950000Y-114074999D01*
G75*
G02*
X168199999Y-113825000I249999J0D01*
G01*
X169100001Y-113825000D01*
G75*
G02*
X169350000Y-114074999I0J-249999D01*
G01*
X169350000Y-114925001D01*
G75*
G02*
X169100001Y-115175000I-249999J0D01*
G01*
X168199999Y-115175000D01*
G75*
G02*
X167950000Y-114925001I0J249999D01*
G01*
G37*
G36*
G01*
X170650000Y-114925001D02*
X170650000Y-114074999D01*
G75*
G02*
X170899999Y-113825000I249999J0D01*
G01*
X171800001Y-113825000D01*
G75*
G02*
X172050000Y-114074999I0J-249999D01*
G01*
X172050000Y-114925001D01*
G75*
G02*
X171800001Y-115175000I-249999J0D01*
G01*
X170899999Y-115175000D01*
G75*
G02*
X170650000Y-114925001I0J249999D01*
G01*
G37*
%TD*%
%TO.C,C1*%
G36*
G01*
X150950000Y-114925001D02*
X150950000Y-114074999D01*
G75*
G02*
X151199999Y-113825000I249999J0D01*
G01*
X152100001Y-113825000D01*
G75*
G02*
X152350000Y-114074999I0J-249999D01*
G01*
X152350000Y-114925001D01*
G75*
G02*
X152100001Y-115175000I-249999J0D01*
G01*
X151199999Y-115175000D01*
G75*
G02*
X150950000Y-114925001I0J249999D01*
G01*
G37*
G36*
G01*
X153650000Y-114925001D02*
X153650000Y-114074999D01*
G75*
G02*
X153899999Y-113825000I249999J0D01*
G01*
X154800001Y-113825000D01*
G75*
G02*
X155050000Y-114074999I0J-249999D01*
G01*
X155050000Y-114925001D01*
G75*
G02*
X154800001Y-115175000I-249999J0D01*
G01*
X153899999Y-115175000D01*
G75*
G02*
X153650000Y-114925001I0J249999D01*
G01*
G37*
%TD*%
%TO.C,C1*%
G36*
G01*
X133950000Y-114925001D02*
X133950000Y-114074999D01*
G75*
G02*
X134199999Y-113825000I249999J0D01*
G01*
X135100001Y-113825000D01*
G75*
G02*
X135350000Y-114074999I0J-249999D01*
G01*
X135350000Y-114925001D01*
G75*
G02*
X135100001Y-115175000I-249999J0D01*
G01*
X134199999Y-115175000D01*
G75*
G02*
X133950000Y-114925001I0J249999D01*
G01*
G37*
G36*
G01*
X136650000Y-114925001D02*
X136650000Y-114074999D01*
G75*
G02*
X136899999Y-113825000I249999J0D01*
G01*
X137800001Y-113825000D01*
G75*
G02*
X138050000Y-114074999I0J-249999D01*
G01*
X138050000Y-114925001D01*
G75*
G02*
X137800001Y-115175000I-249999J0D01*
G01*
X136899999Y-115175000D01*
G75*
G02*
X136650000Y-114925001I0J249999D01*
G01*
G37*
%TD*%
%TO.C,C1*%
G36*
G01*
X167950000Y-102925001D02*
X167950000Y-102074999D01*
G75*
G02*
X168199999Y-101825000I249999J0D01*
G01*
X169100001Y-101825000D01*
G75*
G02*
X169350000Y-102074999I0J-249999D01*
G01*
X169350000Y-102925001D01*
G75*
G02*
X169100001Y-103175000I-249999J0D01*
G01*
X168199999Y-103175000D01*
G75*
G02*
X167950000Y-102925001I0J249999D01*
G01*
G37*
G36*
G01*
X170650000Y-102925001D02*
X170650000Y-102074999D01*
G75*
G02*
X170899999Y-101825000I249999J0D01*
G01*
X171800001Y-101825000D01*
G75*
G02*
X172050000Y-102074999I0J-249999D01*
G01*
X172050000Y-102925001D01*
G75*
G02*
X171800001Y-103175000I-249999J0D01*
G01*
X170899999Y-103175000D01*
G75*
G02*
X170650000Y-102925001I0J249999D01*
G01*
G37*
%TD*%
%TO.C,C1*%
G36*
G01*
X150950000Y-102925001D02*
X150950000Y-102074999D01*
G75*
G02*
X151199999Y-101825000I249999J0D01*
G01*
X152100001Y-101825000D01*
G75*
G02*
X152350000Y-102074999I0J-249999D01*
G01*
X152350000Y-102925001D01*
G75*
G02*
X152100001Y-103175000I-249999J0D01*
G01*
X151199999Y-103175000D01*
G75*
G02*
X150950000Y-102925001I0J249999D01*
G01*
G37*
G36*
G01*
X153650000Y-102925001D02*
X153650000Y-102074999D01*
G75*
G02*
X153899999Y-101825000I249999J0D01*
G01*
X154800001Y-101825000D01*
G75*
G02*
X155050000Y-102074999I0J-249999D01*
G01*
X155050000Y-102925001D01*
G75*
G02*
X154800001Y-103175000I-249999J0D01*
G01*
X153899999Y-103175000D01*
G75*
G02*
X153650000Y-102925001I0J249999D01*
G01*
G37*
%TD*%
%TO.C,C1*%
G36*
G01*
X136650000Y-102925001D02*
X136650000Y-102074999D01*
G75*
G02*
X136899999Y-101825000I249999J0D01*
G01*
X137800001Y-101825000D01*
G75*
G02*
X138050000Y-102074999I0J-249999D01*
G01*
X138050000Y-102925001D01*
G75*
G02*
X137800001Y-103175000I-249999J0D01*
G01*
X136899999Y-103175000D01*
G75*
G02*
X136650000Y-102925001I0J249999D01*
G01*
G37*
G36*
G01*
X133950000Y-102925001D02*
X133950000Y-102074999D01*
G75*
G02*
X134199999Y-101825000I249999J0D01*
G01*
X135100001Y-101825000D01*
G75*
G02*
X135350000Y-102074999I0J-249999D01*
G01*
X135350000Y-102925001D01*
G75*
G02*
X135100001Y-103175000I-249999J0D01*
G01*
X134199999Y-103175000D01*
G75*
G02*
X133950000Y-102925001I0J249999D01*
G01*
G37*
%TD*%
%TO.C,U2*%
G36*
G01*
X144750000Y-97745000D02*
X144750000Y-97445000D01*
G75*
G02*
X144900000Y-97295000I150000J0D01*
G01*
X146550000Y-97295000D01*
G75*
G02*
X146700000Y-97445000I0J-150000D01*
G01*
X146700000Y-97745000D01*
G75*
G02*
X146550000Y-97895000I-150000J0D01*
G01*
X144900000Y-97895000D01*
G75*
G02*
X144750000Y-97745000I0J150000D01*
G01*
G37*
G36*
G01*
X144750000Y-99015000D02*
X144750000Y-98715000D01*
G75*
G02*
X144900000Y-98565000I150000J0D01*
G01*
X146550000Y-98565000D01*
G75*
G02*
X146700000Y-98715000I0J-150000D01*
G01*
X146700000Y-99015000D01*
G75*
G02*
X146550000Y-99165000I-150000J0D01*
G01*
X144900000Y-99165000D01*
G75*
G02*
X144750000Y-99015000I0J150000D01*
G01*
G37*
G36*
G01*
X144750000Y-100285000D02*
X144750000Y-99985000D01*
G75*
G02*
X144900000Y-99835000I150000J0D01*
G01*
X146550000Y-99835000D01*
G75*
G02*
X146700000Y-99985000I0J-150000D01*
G01*
X146700000Y-100285000D01*
G75*
G02*
X146550000Y-100435000I-150000J0D01*
G01*
X144900000Y-100435000D01*
G75*
G02*
X144750000Y-100285000I0J150000D01*
G01*
G37*
G36*
G01*
X144750000Y-101555000D02*
X144750000Y-101255000D01*
G75*
G02*
X144900000Y-101105000I150000J0D01*
G01*
X146550000Y-101105000D01*
G75*
G02*
X146700000Y-101255000I0J-150000D01*
G01*
X146700000Y-101555000D01*
G75*
G02*
X146550000Y-101705000I-150000J0D01*
G01*
X144900000Y-101705000D01*
G75*
G02*
X144750000Y-101555000I0J150000D01*
G01*
G37*
G36*
G01*
X139800000Y-101555000D02*
X139800000Y-101255000D01*
G75*
G02*
X139950000Y-101105000I150000J0D01*
G01*
X141600000Y-101105000D01*
G75*
G02*
X141750000Y-101255000I0J-150000D01*
G01*
X141750000Y-101555000D01*
G75*
G02*
X141600000Y-101705000I-150000J0D01*
G01*
X139950000Y-101705000D01*
G75*
G02*
X139800000Y-101555000I0J150000D01*
G01*
G37*
G36*
G01*
X139800000Y-100285000D02*
X139800000Y-99985000D01*
G75*
G02*
X139950000Y-99835000I150000J0D01*
G01*
X141600000Y-99835000D01*
G75*
G02*
X141750000Y-99985000I0J-150000D01*
G01*
X141750000Y-100285000D01*
G75*
G02*
X141600000Y-100435000I-150000J0D01*
G01*
X139950000Y-100435000D01*
G75*
G02*
X139800000Y-100285000I0J150000D01*
G01*
G37*
G36*
G01*
X139800000Y-99015000D02*
X139800000Y-98715000D01*
G75*
G02*
X139950000Y-98565000I150000J0D01*
G01*
X141600000Y-98565000D01*
G75*
G02*
X141750000Y-98715000I0J-150000D01*
G01*
X141750000Y-99015000D01*
G75*
G02*
X141600000Y-99165000I-150000J0D01*
G01*
X139950000Y-99165000D01*
G75*
G02*
X139800000Y-99015000I0J150000D01*
G01*
G37*
G36*
G01*
X139800000Y-97745000D02*
X139800000Y-97445000D01*
G75*
G02*
X139950000Y-97295000I150000J0D01*
G01*
X141600000Y-97295000D01*
G75*
G02*
X141750000Y-97445000I0J-150000D01*
G01*
X141750000Y-97745000D01*
G75*
G02*
X141600000Y-97895000I-150000J0D01*
G01*
X139950000Y-97895000D01*
G75*
G02*
X139800000Y-97745000I0J150000D01*
G01*
G37*
%TD*%
%TO.C,R2*%
G36*
G01*
X141987500Y-105293750D02*
X141987500Y-106206250D01*
G75*
G02*
X141743750Y-106450000I-243750J0D01*
G01*
X141256250Y-106450000D01*
G75*
G02*
X141012500Y-106206250I0J243750D01*
G01*
X141012500Y-105293750D01*
G75*
G02*
X141256250Y-105050000I243750J0D01*
G01*
X141743750Y-105050000D01*
G75*
G02*
X141987500Y-105293750I0J-243750D01*
G01*
G37*
G36*
G01*
X143862500Y-105293750D02*
X143862500Y-106206250D01*
G75*
G02*
X143618750Y-106450000I-243750J0D01*
G01*
X143131250Y-106450000D01*
G75*
G02*
X142887500Y-106206250I0J243750D01*
G01*
X142887500Y-105293750D01*
G75*
G02*
X143131250Y-105050000I243750J0D01*
G01*
X143618750Y-105050000D01*
G75*
G02*
X143862500Y-105293750I0J-243750D01*
G01*
G37*
%TD*%
M02*
