M48
; DRILL file {KiCad (5.1.6)-1} date 08/15/21 16:57:43
; FORMAT={3:3/ absolute / metric / suppress leading zeros}
; #@! TF.CreationDate,2021-08-15T16:57:43+02:00
; #@! TF.GenerationSoftware,Kicad,Pcbnew,(5.1.6)-1
FMAT,2
METRIC,TZ
T1C0.400
T2C0.900
T3C1.000
T4C0.500
%
G90
G05
T1
X133800Y-103200
X133800Y-115200
X133800Y-127200
X133800Y-139200
X133800Y-151200
X133800Y-163200
X133800Y-175200
X133800Y-187200
X137300Y-100900
X137300Y-112900
X137300Y-124900
X137300Y-136900
X137300Y-148900
X137300Y-160900
X137300Y-172900
X137300Y-184900
X140080Y-102100
X140080Y-114100
X140080Y-126100
X140080Y-138100
X140080Y-150100
X140080Y-162100
X140080Y-174100
X140080Y-186100
X142000Y-97950
X142000Y-109950
X142000Y-121950
X142000Y-133950
X142000Y-145950
X142000Y-157950
X142000Y-169950
X142000Y-181950
X143150Y-99500
X143150Y-111500
X143150Y-123500
X143150Y-135500
X143150Y-147500
X143150Y-159500
X143150Y-171500
X143150Y-183500
X143900Y-100850
X143900Y-112850
X143900Y-124850
X143900Y-136850
X143900Y-148850
X143900Y-160850
X143900Y-172850
X143900Y-184850
X143950Y-98000
X143950Y-110000
X143950Y-122000
X143950Y-134000
X143950Y-146000
X143950Y-158000
X143950Y-170000
X143950Y-182000
X146375Y-97800
X146375Y-102800
X146375Y-109800
X146375Y-114800
X146375Y-121800
X146375Y-126800
X146375Y-133800
X146375Y-138800
X146375Y-145800
X146375Y-150800
X146375Y-157800
X146375Y-162800
X146375Y-169800
X146375Y-174800
X146375Y-181800
X146375Y-186800
X150800Y-103200
X150800Y-115200
X150800Y-127200
X150800Y-139200
X150800Y-151200
X150800Y-163200
X150800Y-175200
X150800Y-187200
X154300Y-100900
X154300Y-112900
X154300Y-124900
X154300Y-136900
X154300Y-148900
X154300Y-160900
X154300Y-172900
X154300Y-184900
X157080Y-102100
X157080Y-114100
X157080Y-126100
X157080Y-138100
X157080Y-150100
X157080Y-162100
X157080Y-174100
X157080Y-186100
X159000Y-97950
X159000Y-109950
X159000Y-121950
X159000Y-133950
X159000Y-145950
X159000Y-157950
X159000Y-169950
X159000Y-181950
X160150Y-99500
X160150Y-111500
X160150Y-123500
X160150Y-135500
X160150Y-147500
X160150Y-159500
X160150Y-171500
X160150Y-183500
X160900Y-100850
X160900Y-112850
X160900Y-124850
X160900Y-136850
X160900Y-148850
X160900Y-160850
X160900Y-172850
X160900Y-184850
X160950Y-98000
X160950Y-110000
X160950Y-122000
X160950Y-134000
X160950Y-146000
X160950Y-158000
X160950Y-170000
X160950Y-182000
X163375Y-97800
X163375Y-102800
X163375Y-109800
X163375Y-114800
X163375Y-121800
X163375Y-126800
X163375Y-133800
X163375Y-138800
X163375Y-145800
X163375Y-150800
X163375Y-157800
X163375Y-162800
X163375Y-169800
X163375Y-174800
X163375Y-181800
X163375Y-186800
X167800Y-103200
X167800Y-115200
X167800Y-127200
X167800Y-139200
X167800Y-151200
X167800Y-163200
X167800Y-175200
X167800Y-187200
X171300Y-100900
X171300Y-112900
X171300Y-124900
X171300Y-136900
X171300Y-148900
X171300Y-160900
X171300Y-172900
X171300Y-184900
X174080Y-102100
X174080Y-114100
X174080Y-126100
X174080Y-138100
X174080Y-150100
X174080Y-162100
X174080Y-174100
X174080Y-186100
X176000Y-97950
X176000Y-109950
X176000Y-121950
X176000Y-133950
X176000Y-145950
X176000Y-157950
X176000Y-169950
X176000Y-181950
X177150Y-99500
X177150Y-111500
X177150Y-123500
X177150Y-135500
X177150Y-147500
X177150Y-159500
X177150Y-171500
X177150Y-183500
X177900Y-100850
X177900Y-112850
X177900Y-124850
X177900Y-136850
X177900Y-148850
X177900Y-160850
X177900Y-172850
X177900Y-184850
X177950Y-98000
X177950Y-110000
X177950Y-122000
X177950Y-134000
X177950Y-146000
X177950Y-158000
X177950Y-170000
X177950Y-182000
X180375Y-97800
X180375Y-102800
X180375Y-109800
X180375Y-114800
X180375Y-121800
X180375Y-126800
X180375Y-133800
X180375Y-138800
X180375Y-145800
X180375Y-150800
X180375Y-157800
X180375Y-162800
X180375Y-169800
X180375Y-174800
X180375Y-181800
X180375Y-186800
X184800Y-103200
X184800Y-115200
X184800Y-127200
X184800Y-139200
X184800Y-151200
X184800Y-163200
X184800Y-175200
X184800Y-187200
X188300Y-100900
X188300Y-112900
X188300Y-124900
X188300Y-136900
X188300Y-148900
X188300Y-160900
X188300Y-172900
X188300Y-184900
X191080Y-102100
X191080Y-114100
X191080Y-126100
X191080Y-138100
X191080Y-150100
X191080Y-162100
X191080Y-174100
X191080Y-186100
X193000Y-97950
X193000Y-109950
X193000Y-121950
X193000Y-133950
X193000Y-145950
X193000Y-157950
X193000Y-169950
X193000Y-181950
X194150Y-99500
X194150Y-111500
X194150Y-123500
X194150Y-135500
X194150Y-147500
X194150Y-159500
X194150Y-171500
X194150Y-183500
X194900Y-100850
X194900Y-112850
X194900Y-124850
X194900Y-136850
X194900Y-148850
X194900Y-160850
X194900Y-172850
X194900Y-184850
X194950Y-98000
X194950Y-110000
X194950Y-122000
X194950Y-134000
X194950Y-146000
X194950Y-158000
X194950Y-170000
X194950Y-182000
X197375Y-97800
X197375Y-102800
X197375Y-109800
X197375Y-114800
X197375Y-121800
X197375Y-126800
X197375Y-133800
X197375Y-138800
X197375Y-145800
X197375Y-150800
X197375Y-157800
X197375Y-162800
X197375Y-169800
X197375Y-174800
X197375Y-181800
X197375Y-186800
X201800Y-103200
X201800Y-115200
X201800Y-127200
X201800Y-139200
X201800Y-151200
X201800Y-163200
X201800Y-175200
X201800Y-187200
X205300Y-100900
X205300Y-112900
X205300Y-124900
X205300Y-136900
X205300Y-148900
X205300Y-160900
X205300Y-172900
X205300Y-184900
X208080Y-102100
X208080Y-114100
X208080Y-126100
X208080Y-138100
X208080Y-150100
X208080Y-162100
X208080Y-174100
X208080Y-186100
X210000Y-97950
X210000Y-109950
X210000Y-121950
X210000Y-133950
X210000Y-145950
X210000Y-157950
X210000Y-169950
X210000Y-181950
X211150Y-99500
X211150Y-111500
X211150Y-123500
X211150Y-135500
X211150Y-147500
X211150Y-159500
X211150Y-171500
X211150Y-183500
X211900Y-100850
X211900Y-112850
X211900Y-124850
X211900Y-136850
X211900Y-148850
X211900Y-160850
X211900Y-172850
X211900Y-184850
X211950Y-98000
X211950Y-110000
X211950Y-122000
X211950Y-134000
X211950Y-146000
X211950Y-158000
X211950Y-170000
X211950Y-182000
X214375Y-97800
X214375Y-102800
X214375Y-109800
X214375Y-114800
X214375Y-121800
X214375Y-126800
X214375Y-133800
X214375Y-138800
X214375Y-145800
X214375Y-150800
X214375Y-157800
X214375Y-162800
X214375Y-169800
X214375Y-174800
X214375Y-181800
X214375Y-186800
T2
X175960Y-103350
X178500Y-103350
X158960Y-151350
X161500Y-151350
X184500Y-141500
X187040Y-141500
X189580Y-141500
X167500Y-117500
X170040Y-117500
X172580Y-117500
X150500Y-177500
X153040Y-177500
X155580Y-177500
X201500Y-129500
X204040Y-129500
X206580Y-129500
X201500Y-153500
X204040Y-153500
X206580Y-153500
X175960Y-151350
X178500Y-151350
X141960Y-115350
X144500Y-115350
X158960Y-163350
X161500Y-163350
X192960Y-127350
X195500Y-127350
X209960Y-139350
X212500Y-139350
X133500Y-189500
X136040Y-189500
X138580Y-189500
X150500Y-141500
X153040Y-141500
X155580Y-141500
X167500Y-153500
X170040Y-153500
X172580Y-153500
X167500Y-129500
X170040Y-129500
X172580Y-129500
X201500Y-105500
X204040Y-105500
X206580Y-105500
X133500Y-117500
X136040Y-117500
X138580Y-117500
X209960Y-187350
X212500Y-187350
X133500Y-105500
X136040Y-105500
X138580Y-105500
X158960Y-115350
X161500Y-115350
X192960Y-139350
X195500Y-139350
X158960Y-139350
X161500Y-139350
X209960Y-151350
X212500Y-151350
X209960Y-127350
X212500Y-127350
X133500Y-177500
X136040Y-177500
X138580Y-177500
X150500Y-117500
X153040Y-117500
X155580Y-117500
X201500Y-141500
X204040Y-141500
X206580Y-141500
X201500Y-189500
X204040Y-189500
X206580Y-189500
X150500Y-129500
X153040Y-129500
X155580Y-129500
X167500Y-189500
X170040Y-189500
X172580Y-189500
X201500Y-117500
X204040Y-117500
X206580Y-117500
X167500Y-141500
X170040Y-141500
X172580Y-141500
X175960Y-187350
X178500Y-187350
X158960Y-127350
X161500Y-127350
X192960Y-175350
X195500Y-175350
X141960Y-127350
X144500Y-127350
X141960Y-163350
X144500Y-163350
X192960Y-187350
X195500Y-187350
X141960Y-103350
X144500Y-103350
X184500Y-153500
X187040Y-153500
X189580Y-153500
X133500Y-129500
X136040Y-129500
X138580Y-129500
X201500Y-165500
X204040Y-165500
X206580Y-165500
X184500Y-117500
X187040Y-117500
X189580Y-117500
X184500Y-129500
X187040Y-129500
X189580Y-129500
X141960Y-187350
X144500Y-187350
X209960Y-115350
X212500Y-115350
X192960Y-151350
X195500Y-151350
X175960Y-115350
X178500Y-115350
X175960Y-139350
X178500Y-139350
X158960Y-187350
X161500Y-187350
X167500Y-177500
X170040Y-177500
X172580Y-177500
X201500Y-177500
X204040Y-177500
X206580Y-177500
X184500Y-105500
X187040Y-105500
X189580Y-105500
X150500Y-189500
X153040Y-189500
X155580Y-189500
X167500Y-105500
X170040Y-105500
X172580Y-105500
X184500Y-165500
X187040Y-165500
X189580Y-165500
X150500Y-165500
X153040Y-165500
X155580Y-165500
X175960Y-175350
X178500Y-175350
X209960Y-103350
X212500Y-103350
X192960Y-163350
X195500Y-163350
X175960Y-127350
X178500Y-127350
X141960Y-139350
X144500Y-139350
X209960Y-175350
X212500Y-175350
X184500Y-177500
X187040Y-177500
X189580Y-177500
X133500Y-141500
X136040Y-141500
X138580Y-141500
X150500Y-105500
X153040Y-105500
X155580Y-105500
X133500Y-165500
X136040Y-165500
X138580Y-165500
X141960Y-175350
X144500Y-175350
X175960Y-163350
X178500Y-163350
X141960Y-151350
X144500Y-151350
X158960Y-103350
X161500Y-103350
X158960Y-175350
X161500Y-175350
X184500Y-189500
X187040Y-189500
X189580Y-189500
X133500Y-153500
X136040Y-153500
X138580Y-153500
X167500Y-165500
X170040Y-165500
X172580Y-165500
X150500Y-153500
X153040Y-153500
X155580Y-153500
X209960Y-163350
X212500Y-163350
X192960Y-103350
X195500Y-103350
X192960Y-115350
X195500Y-115350
T3
X184420Y-158500
X186960Y-158500
X189500Y-158500
X150420Y-170500
X152960Y-170500
X155500Y-170500
X201420Y-146500
X203960Y-146500
X206500Y-146500
X184420Y-134500
X186960Y-134500
X189500Y-134500
X133420Y-122500
X135960Y-122500
X138500Y-122500
X133420Y-110500
X135960Y-110500
X138500Y-110500
X150420Y-110500
X152960Y-110500
X155500Y-110500
X167420Y-146500
X169960Y-146500
X172500Y-146500
X150420Y-158500
X152960Y-158500
X155500Y-158500
X184420Y-146500
X186960Y-146500
X189500Y-146500
X201420Y-122500
X203960Y-122500
X206500Y-122500
X201420Y-98500
X203960Y-98500
X206500Y-98500
X133420Y-98500
X135960Y-98500
X138500Y-98500
X201420Y-158500
X203960Y-158500
X206500Y-158500
X167420Y-158500
X169960Y-158500
X172500Y-158500
X133420Y-158500
X135960Y-158500
X138500Y-158500
X167420Y-134500
X169960Y-134500
X172500Y-134500
X167420Y-182500
X169960Y-182500
X172500Y-182500
X201420Y-170500
X203960Y-170500
X206500Y-170500
X133420Y-146500
X135960Y-146500
X138500Y-146500
X184420Y-122500
X186960Y-122500
X189500Y-122500
X167420Y-98500
X169960Y-98500
X172500Y-98500
X150420Y-98500
X152960Y-98500
X155500Y-98500
X133420Y-170500
X135960Y-170500
X138500Y-170500
X184420Y-182500
X186960Y-182500
X189500Y-182500
X201420Y-182500
X203960Y-182500
X206500Y-182500
X150420Y-182500
X152960Y-182500
X155500Y-182500
X133420Y-134500
X135960Y-134500
X138500Y-134500
X201420Y-134500
X203960Y-134500
X206500Y-134500
X184420Y-110500
X186960Y-110500
X189500Y-110500
X167420Y-110500
X169960Y-110500
X172500Y-110500
X133420Y-182500
X135960Y-182500
X138500Y-182500
X150420Y-146500
X152960Y-146500
X155500Y-146500
X167420Y-122500
X169960Y-122500
X172500Y-122500
X201420Y-110500
X203960Y-110500
X206500Y-110500
X184420Y-98500
X186960Y-98500
X189500Y-98500
X167420Y-170500
X169960Y-170500
X172500Y-170500
X184420Y-170500
X186960Y-170500
X189500Y-170500
X150420Y-134500
X152960Y-134500
X155500Y-134500
X150420Y-122500
X152960Y-122500
X155500Y-122500
T4
X147250Y-183750
X147250Y-184500
X147250Y-185250
X147250Y-186000
X147250Y-186750
X147250Y-187500
X147250Y-188250
X148750Y-183750
X148750Y-184500
X148750Y-185250
X148750Y-186000
X148750Y-186750
X148750Y-187500
X148750Y-188250
X164250Y-159750
X164250Y-160500
X164250Y-161250
X164250Y-162000
X164250Y-162750
X164250Y-163500
X164250Y-164250
X165750Y-159750
X165750Y-160500
X165750Y-161250
X165750Y-162000
X165750Y-162750
X165750Y-163500
X165750Y-164250
X205750Y-179250
X205750Y-180750
X206500Y-179250
X206500Y-180750
X207250Y-179250
X207250Y-180750
X208000Y-179250
X208000Y-180750
X208750Y-179250
X208750Y-180750
X209500Y-179250
X209500Y-180750
X210250Y-179250
X210250Y-180750
X164250Y-111750
X164250Y-112500
X164250Y-113250
X164250Y-114000
X164250Y-114750
X164250Y-115500
X164250Y-116250
X165750Y-111750
X165750Y-112500
X165750Y-113250
X165750Y-114000
X165750Y-114750
X165750Y-115500
X165750Y-116250
X188750Y-155250
X188750Y-156750
X189500Y-155250
X189500Y-156750
X190250Y-155250
X190250Y-156750
X191000Y-155250
X191000Y-156750
X191750Y-155250
X191750Y-156750
X192500Y-155250
X192500Y-156750
X193250Y-155250
X193250Y-156750
X147250Y-159750
X147250Y-160500
X147250Y-161250
X147250Y-162000
X147250Y-162750
X147250Y-163500
X147250Y-164250
X148750Y-159750
X148750Y-160500
X148750Y-161250
X148750Y-162000
X148750Y-162750
X148750Y-163500
X148750Y-164250
X171750Y-155250
X171750Y-156750
X172500Y-155250
X172500Y-156750
X173250Y-155250
X173250Y-156750
X174000Y-155250
X174000Y-156750
X174750Y-155250
X174750Y-156750
X175500Y-155250
X175500Y-156750
X176250Y-155250
X176250Y-156750
X205750Y-167250
X205750Y-168750
X206500Y-167250
X206500Y-168750
X207250Y-167250
X207250Y-168750
X208000Y-167250
X208000Y-168750
X208750Y-167250
X208750Y-168750
X209500Y-167250
X209500Y-168750
X210250Y-167250
X210250Y-168750
X198250Y-159750
X198250Y-160500
X198250Y-161250
X198250Y-162000
X198250Y-162750
X198250Y-163500
X198250Y-164250
X199750Y-159750
X199750Y-160500
X199750Y-161250
X199750Y-162000
X199750Y-162750
X199750Y-163500
X199750Y-164250
X154750Y-179250
X154750Y-180750
X155500Y-179250
X155500Y-180750
X156250Y-179250
X156250Y-180750
X157000Y-179250
X157000Y-180750
X157750Y-179250
X157750Y-180750
X158500Y-179250
X158500Y-180750
X159250Y-179250
X159250Y-180750
X205750Y-131250
X205750Y-132750
X206500Y-131250
X206500Y-132750
X207250Y-131250
X207250Y-132750
X208000Y-131250
X208000Y-132750
X208750Y-131250
X208750Y-132750
X209500Y-131250
X209500Y-132750
X210250Y-131250
X210250Y-132750
X147250Y-111750
X147250Y-112500
X147250Y-113250
X147250Y-114000
X147250Y-114750
X147250Y-115500
X147250Y-116250
X148750Y-111750
X148750Y-112500
X148750Y-113250
X148750Y-114000
X148750Y-114750
X148750Y-115500
X148750Y-116250
X188750Y-143250
X188750Y-144750
X189500Y-143250
X189500Y-144750
X190250Y-143250
X190250Y-144750
X191000Y-143250
X191000Y-144750
X191750Y-143250
X191750Y-144750
X192500Y-143250
X192500Y-144750
X193250Y-143250
X193250Y-144750
X181250Y-99750
X181250Y-100500
X181250Y-101250
X181250Y-102000
X181250Y-102750
X181250Y-103500
X181250Y-104250
X182750Y-99750
X182750Y-100500
X182750Y-101250
X182750Y-102000
X182750Y-102750
X182750Y-103500
X182750Y-104250
X171750Y-143250
X171750Y-144750
X172500Y-143250
X172500Y-144750
X173250Y-143250
X173250Y-144750
X174000Y-143250
X174000Y-144750
X174750Y-143250
X174750Y-144750
X175500Y-143250
X175500Y-144750
X176250Y-143250
X176250Y-144750
X147250Y-147750
X147250Y-148500
X147250Y-149250
X147250Y-150000
X147250Y-150750
X147250Y-151500
X147250Y-152250
X148750Y-147750
X148750Y-148500
X148750Y-149250
X148750Y-150000
X148750Y-150750
X148750Y-151500
X148750Y-152250
X188750Y-107250
X188750Y-108750
X189500Y-107250
X189500Y-108750
X190250Y-107250
X190250Y-108750
X191000Y-107250
X191000Y-108750
X191750Y-107250
X191750Y-108750
X192500Y-107250
X192500Y-108750
X193250Y-107250
X193250Y-108750
X137750Y-107250
X137750Y-108750
X138500Y-107250
X138500Y-108750
X139250Y-107250
X139250Y-108750
X140000Y-107250
X140000Y-108750
X140750Y-107250
X140750Y-108750
X141500Y-107250
X141500Y-108750
X142250Y-107250
X142250Y-108750
X154750Y-167250
X154750Y-168750
X155500Y-167250
X155500Y-168750
X156250Y-167250
X156250Y-168750
X157000Y-167250
X157000Y-168750
X157750Y-167250
X157750Y-168750
X158500Y-167250
X158500Y-168750
X159250Y-167250
X159250Y-168750
X198250Y-99750
X198250Y-100500
X198250Y-101250
X198250Y-102000
X198250Y-102750
X198250Y-103500
X198250Y-104250
X199750Y-99750
X199750Y-100500
X199750Y-101250
X199750Y-102000
X199750Y-102750
X199750Y-103500
X199750Y-104250
X205750Y-143250
X205750Y-144750
X206500Y-143250
X206500Y-144750
X207250Y-143250
X207250Y-144750
X208000Y-143250
X208000Y-144750
X208750Y-143250
X208750Y-144750
X209500Y-143250
X209500Y-144750
X210250Y-143250
X210250Y-144750
X181250Y-111750
X181250Y-112500
X181250Y-113250
X181250Y-114000
X181250Y-114750
X181250Y-115500
X181250Y-116250
X182750Y-111750
X182750Y-112500
X182750Y-113250
X182750Y-114000
X182750Y-114750
X182750Y-115500
X182750Y-116250
X154750Y-143250
X154750Y-144750
X155500Y-143250
X155500Y-144750
X156250Y-143250
X156250Y-144750
X157000Y-143250
X157000Y-144750
X157750Y-143250
X157750Y-144750
X158500Y-143250
X158500Y-144750
X159250Y-143250
X159250Y-144750
X164250Y-123750
X164250Y-124500
X164250Y-125250
X164250Y-126000
X164250Y-126750
X164250Y-127500
X164250Y-128250
X165750Y-123750
X165750Y-124500
X165750Y-125250
X165750Y-126000
X165750Y-126750
X165750Y-127500
X165750Y-128250
X205750Y-107250
X205750Y-108750
X206500Y-107250
X206500Y-108750
X207250Y-107250
X207250Y-108750
X208000Y-107250
X208000Y-108750
X208750Y-107250
X208750Y-108750
X209500Y-107250
X209500Y-108750
X210250Y-107250
X210250Y-108750
X147250Y-99750
X147250Y-100500
X147250Y-101250
X147250Y-102000
X147250Y-102750
X147250Y-103500
X147250Y-104250
X148750Y-99750
X148750Y-100500
X148750Y-101250
X148750Y-102000
X148750Y-102750
X148750Y-103500
X148750Y-104250
X181250Y-183750
X181250Y-184500
X181250Y-185250
X181250Y-186000
X181250Y-186750
X181250Y-187500
X181250Y-188250
X182750Y-183750
X182750Y-184500
X182750Y-185250
X182750Y-186000
X182750Y-186750
X182750Y-187500
X182750Y-188250
X198250Y-183750
X198250Y-184500
X198250Y-185250
X198250Y-186000
X198250Y-186750
X198250Y-187500
X198250Y-188250
X199750Y-183750
X199750Y-184500
X199750Y-185250
X199750Y-186000
X199750Y-186750
X199750Y-187500
X199750Y-188250
X198250Y-147750
X198250Y-148500
X198250Y-149250
X198250Y-150000
X198250Y-150750
X198250Y-151500
X198250Y-152250
X199750Y-147750
X199750Y-148500
X199750Y-149250
X199750Y-150000
X199750Y-150750
X199750Y-151500
X199750Y-152250
X198250Y-135750
X198250Y-136500
X198250Y-137250
X198250Y-138000
X198250Y-138750
X198250Y-139500
X198250Y-140250
X199750Y-135750
X199750Y-136500
X199750Y-137250
X199750Y-138000
X199750Y-138750
X199750Y-139500
X199750Y-140250
X171750Y-131250
X171750Y-132750
X172500Y-131250
X172500Y-132750
X173250Y-131250
X173250Y-132750
X174000Y-131250
X174000Y-132750
X174750Y-131250
X174750Y-132750
X175500Y-131250
X175500Y-132750
X176250Y-131250
X176250Y-132750
X164250Y-171750
X164250Y-172500
X164250Y-173250
X164250Y-174000
X164250Y-174750
X164250Y-175500
X164250Y-176250
X165750Y-171750
X165750Y-172500
X165750Y-173250
X165750Y-174000
X165750Y-174750
X165750Y-175500
X165750Y-176250
X154750Y-131250
X154750Y-132750
X155500Y-131250
X155500Y-132750
X156250Y-131250
X156250Y-132750
X157000Y-131250
X157000Y-132750
X157750Y-131250
X157750Y-132750
X158500Y-131250
X158500Y-132750
X159250Y-131250
X159250Y-132750
X164250Y-135750
X164250Y-136500
X164250Y-137250
X164250Y-138000
X164250Y-138750
X164250Y-139500
X164250Y-140250
X165750Y-135750
X165750Y-136500
X165750Y-137250
X165750Y-138000
X165750Y-138750
X165750Y-139500
X165750Y-140250
X154750Y-155250
X154750Y-156750
X155500Y-155250
X155500Y-156750
X156250Y-155250
X156250Y-156750
X157000Y-155250
X157000Y-156750
X157750Y-155250
X157750Y-156750
X158500Y-155250
X158500Y-156750
X159250Y-155250
X159250Y-156750
X171750Y-119250
X171750Y-120750
X172500Y-119250
X172500Y-120750
X173250Y-119250
X173250Y-120750
X174000Y-119250
X174000Y-120750
X174750Y-119250
X174750Y-120750
X175500Y-119250
X175500Y-120750
X176250Y-119250
X176250Y-120750
X181250Y-135750
X181250Y-136500
X181250Y-137250
X181250Y-138000
X181250Y-138750
X181250Y-139500
X181250Y-140250
X182750Y-135750
X182750Y-136500
X182750Y-137250
X182750Y-138000
X182750Y-138750
X182750Y-139500
X182750Y-140250
X147250Y-135750
X147250Y-136500
X147250Y-137250
X147250Y-138000
X147250Y-138750
X147250Y-139500
X147250Y-140250
X148750Y-135750
X148750Y-136500
X148750Y-137250
X148750Y-138000
X148750Y-138750
X148750Y-139500
X148750Y-140250
X137750Y-143250
X137750Y-144750
X138500Y-143250
X138500Y-144750
X139250Y-143250
X139250Y-144750
X140000Y-143250
X140000Y-144750
X140750Y-143250
X140750Y-144750
X141500Y-143250
X141500Y-144750
X142250Y-143250
X142250Y-144750
X147250Y-171750
X147250Y-172500
X147250Y-173250
X147250Y-174000
X147250Y-174750
X147250Y-175500
X147250Y-176250
X148750Y-171750
X148750Y-172500
X148750Y-173250
X148750Y-174000
X148750Y-174750
X148750Y-175500
X148750Y-176250
X188750Y-131250
X188750Y-132750
X189500Y-131250
X189500Y-132750
X190250Y-131250
X190250Y-132750
X191000Y-131250
X191000Y-132750
X191750Y-131250
X191750Y-132750
X192500Y-131250
X192500Y-132750
X193250Y-131250
X193250Y-132750
X171750Y-167250
X171750Y-168750
X172500Y-167250
X172500Y-168750
X173250Y-167250
X173250Y-168750
X174000Y-167250
X174000Y-168750
X174750Y-167250
X174750Y-168750
X175500Y-167250
X175500Y-168750
X176250Y-167250
X176250Y-168750
X181250Y-147750
X181250Y-148500
X181250Y-149250
X181250Y-150000
X181250Y-150750
X181250Y-151500
X181250Y-152250
X182750Y-147750
X182750Y-148500
X182750Y-149250
X182750Y-150000
X182750Y-150750
X182750Y-151500
X182750Y-152250
X188750Y-119250
X188750Y-120750
X189500Y-119250
X189500Y-120750
X190250Y-119250
X190250Y-120750
X191000Y-119250
X191000Y-120750
X191750Y-119250
X191750Y-120750
X192500Y-119250
X192500Y-120750
X193250Y-119250
X193250Y-120750
X171750Y-107250
X171750Y-108750
X172500Y-107250
X172500Y-108750
X173250Y-107250
X173250Y-108750
X174000Y-107250
X174000Y-108750
X174750Y-107250
X174750Y-108750
X175500Y-107250
X175500Y-108750
X176250Y-107250
X176250Y-108750
X164250Y-183750
X164250Y-184500
X164250Y-185250
X164250Y-186000
X164250Y-186750
X164250Y-187500
X164250Y-188250
X165750Y-183750
X165750Y-184500
X165750Y-185250
X165750Y-186000
X165750Y-186750
X165750Y-187500
X165750Y-188250
X198250Y-171750
X198250Y-172500
X198250Y-173250
X198250Y-174000
X198250Y-174750
X198250Y-175500
X198250Y-176250
X199750Y-171750
X199750Y-172500
X199750Y-173250
X199750Y-174000
X199750Y-174750
X199750Y-175500
X199750Y-176250
X164250Y-99750
X164250Y-100500
X164250Y-101250
X164250Y-102000
X164250Y-102750
X164250Y-103500
X164250Y-104250
X165750Y-99750
X165750Y-100500
X165750Y-101250
X165750Y-102000
X165750Y-102750
X165750Y-103500
X165750Y-104250
X137750Y-179250
X137750Y-180750
X138500Y-179250
X138500Y-180750
X139250Y-179250
X139250Y-180750
X140000Y-179250
X140000Y-180750
X140750Y-179250
X140750Y-180750
X141500Y-179250
X141500Y-180750
X142250Y-179250
X142250Y-180750
X137750Y-167250
X137750Y-168750
X138500Y-167250
X138500Y-168750
X139250Y-167250
X139250Y-168750
X140000Y-167250
X140000Y-168750
X140750Y-167250
X140750Y-168750
X141500Y-167250
X141500Y-168750
X142250Y-167250
X142250Y-168750
X181250Y-159750
X181250Y-160500
X181250Y-161250
X181250Y-162000
X181250Y-162750
X181250Y-163500
X181250Y-164250
X182750Y-159750
X182750Y-160500
X182750Y-161250
X182750Y-162000
X182750Y-162750
X182750Y-163500
X182750Y-164250
X188750Y-167250
X188750Y-168750
X189500Y-167250
X189500Y-168750
X190250Y-167250
X190250Y-168750
X191000Y-167250
X191000Y-168750
X191750Y-167250
X191750Y-168750
X192500Y-167250
X192500Y-168750
X193250Y-167250
X193250Y-168750
X137750Y-131250
X137750Y-132750
X138500Y-131250
X138500Y-132750
X139250Y-131250
X139250Y-132750
X140000Y-131250
X140000Y-132750
X140750Y-131250
X140750Y-132750
X141500Y-131250
X141500Y-132750
X142250Y-131250
X142250Y-132750
X164250Y-147750
X164250Y-148500
X164250Y-149250
X164250Y-150000
X164250Y-150750
X164250Y-151500
X164250Y-152250
X165750Y-147750
X165750Y-148500
X165750Y-149250
X165750Y-150000
X165750Y-150750
X165750Y-151500
X165750Y-152250
X154750Y-119250
X154750Y-120750
X155500Y-119250
X155500Y-120750
X156250Y-119250
X156250Y-120750
X157000Y-119250
X157000Y-120750
X157750Y-119250
X157750Y-120750
X158500Y-119250
X158500Y-120750
X159250Y-119250
X159250Y-120750
X147250Y-123750
X147250Y-124500
X147250Y-125250
X147250Y-126000
X147250Y-126750
X147250Y-127500
X147250Y-128250
X148750Y-123750
X148750Y-124500
X148750Y-125250
X148750Y-126000
X148750Y-126750
X148750Y-127500
X148750Y-128250
X137750Y-119250
X137750Y-120750
X138500Y-119250
X138500Y-120750
X139250Y-119250
X139250Y-120750
X140000Y-119250
X140000Y-120750
X140750Y-119250
X140750Y-120750
X141500Y-119250
X141500Y-120750
X142250Y-119250
X142250Y-120750
X154750Y-107250
X154750Y-108750
X155500Y-107250
X155500Y-108750
X156250Y-107250
X156250Y-108750
X157000Y-107250
X157000Y-108750
X157750Y-107250
X157750Y-108750
X158500Y-107250
X158500Y-108750
X159250Y-107250
X159250Y-108750
X198250Y-111750
X198250Y-112500
X198250Y-113250
X198250Y-114000
X198250Y-114750
X198250Y-115500
X198250Y-116250
X199750Y-111750
X199750Y-112500
X199750Y-113250
X199750Y-114000
X199750Y-114750
X199750Y-115500
X199750Y-116250
X181250Y-123750
X181250Y-124500
X181250Y-125250
X181250Y-126000
X181250Y-126750
X181250Y-127500
X181250Y-128250
X182750Y-123750
X182750Y-124500
X182750Y-125250
X182750Y-126000
X182750Y-126750
X182750Y-127500
X182750Y-128250
X137750Y-155250
X137750Y-156750
X138500Y-155250
X138500Y-156750
X139250Y-155250
X139250Y-156750
X140000Y-155250
X140000Y-156750
X140750Y-155250
X140750Y-156750
X141500Y-155250
X141500Y-156750
X142250Y-155250
X142250Y-156750
X171750Y-179250
X171750Y-180750
X172500Y-179250
X172500Y-180750
X173250Y-179250
X173250Y-180750
X174000Y-179250
X174000Y-180750
X174750Y-179250
X174750Y-180750
X175500Y-179250
X175500Y-180750
X176250Y-179250
X176250Y-180750
X205750Y-155250
X205750Y-156750
X206500Y-155250
X206500Y-156750
X207250Y-155250
X207250Y-156750
X208000Y-155250
X208000Y-156750
X208750Y-155250
X208750Y-156750
X209500Y-155250
X209500Y-156750
X210250Y-155250
X210250Y-156750
X198250Y-123750
X198250Y-124500
X198250Y-125250
X198250Y-126000
X198250Y-126750
X198250Y-127500
X198250Y-128250
X199750Y-123750
X199750Y-124500
X199750Y-125250
X199750Y-126000
X199750Y-126750
X199750Y-127500
X199750Y-128250
X205750Y-119250
X205750Y-120750
X206500Y-119250
X206500Y-120750
X207250Y-119250
X207250Y-120750
X208000Y-119250
X208000Y-120750
X208750Y-119250
X208750Y-120750
X209500Y-119250
X209500Y-120750
X210250Y-119250
X210250Y-120750
X181250Y-171750
X181250Y-172500
X181250Y-173250
X181250Y-174000
X181250Y-174750
X181250Y-175500
X181250Y-176250
X182750Y-171750
X182750Y-172500
X182750Y-173250
X182750Y-174000
X182750Y-174750
X182750Y-175500
X182750Y-176250
X188750Y-179250
X188750Y-180750
X189500Y-179250
X189500Y-180750
X190250Y-179250
X190250Y-180750
X191000Y-179250
X191000Y-180750
X191750Y-179250
X191750Y-180750
X192500Y-179250
X192500Y-180750
X193250Y-179250
X193250Y-180750
T0
M30
