%TF.GenerationSoftware,KiCad,Pcbnew,(5.1.6)-1*%
%TF.CreationDate,2021-08-16T20:18:48+02:00*%
%TF.ProjectId,proxima_panel,70726f78-696d-4615-9f70-616e656c2e6b,rev?*%
%TF.SameCoordinates,Original*%
%TF.FileFunction,Legend,Top*%
%TF.FilePolarity,Positive*%
%FSLAX46Y46*%
G04 Gerber Fmt 4.6, Leading zero omitted, Abs format (unit mm)*
G04 Created by KiCad (PCBNEW (5.1.6)-1) date 2021-08-16 20:18:48*
%MOMM*%
%LPD*%
G01*
G04 APERTURE LIST*
%ADD10C,0.150000*%
%ADD11C,0.100000*%
%ADD12C,0.120000*%
G04 APERTURE END LIST*
D10*
X183702380Y-117869047D02*
X184416666Y-117869047D01*
X184559523Y-117916666D01*
X184654761Y-118011904D01*
X184702380Y-118154761D01*
X184702380Y-118250000D01*
X184702380Y-116916666D02*
X184702380Y-117392857D01*
X183702380Y-117392857D01*
X184607142Y-116011904D02*
X184654761Y-116059523D01*
X184702380Y-116202380D01*
X184702380Y-116297619D01*
X184654761Y-116440476D01*
X184559523Y-116535714D01*
X184464285Y-116583333D01*
X184273809Y-116630952D01*
X184130952Y-116630952D01*
X183940476Y-116583333D01*
X183845238Y-116535714D01*
X183750000Y-116440476D01*
X183702380Y-116297619D01*
X183702380Y-116202380D01*
X183750000Y-116059523D01*
X183797619Y-116011904D01*
X183702380Y-115297619D02*
X184416666Y-115297619D01*
X184559523Y-115345238D01*
X184654761Y-115440476D01*
X184702380Y-115583333D01*
X184702380Y-115678571D01*
X184702380Y-114345238D02*
X184702380Y-114821428D01*
X183702380Y-114821428D01*
X184607142Y-113440476D02*
X184654761Y-113488095D01*
X184702380Y-113630952D01*
X184702380Y-113726190D01*
X184654761Y-113869047D01*
X184559523Y-113964285D01*
X184464285Y-114011904D01*
X184273809Y-114059523D01*
X184130952Y-114059523D01*
X183940476Y-114011904D01*
X183845238Y-113964285D01*
X183750000Y-113869047D01*
X183702380Y-113726190D01*
X183702380Y-113630952D01*
X183750000Y-113488095D01*
X183797619Y-113440476D01*
X183702380Y-112726190D02*
X184416666Y-112726190D01*
X184559523Y-112773809D01*
X184654761Y-112869047D01*
X184702380Y-113011904D01*
X184702380Y-113107142D01*
X184702380Y-111773809D02*
X184702380Y-112250000D01*
X183702380Y-112250000D01*
X184607142Y-110869047D02*
X184654761Y-110916666D01*
X184702380Y-111059523D01*
X184702380Y-111154761D01*
X184654761Y-111297619D01*
X184559523Y-111392857D01*
X184464285Y-111440476D01*
X184273809Y-111488095D01*
X184130952Y-111488095D01*
X183940476Y-111440476D01*
X183845238Y-111392857D01*
X183750000Y-111297619D01*
X183702380Y-111154761D01*
X183702380Y-111059523D01*
X183750000Y-110916666D01*
X183797619Y-110869047D01*
X183702380Y-110154761D02*
X184416666Y-110154761D01*
X184559523Y-110202380D01*
X184654761Y-110297619D01*
X184702380Y-110440476D01*
X184702380Y-110535714D01*
X184702380Y-109202380D02*
X184702380Y-109678571D01*
X183702380Y-109678571D01*
X184607142Y-108297619D02*
X184654761Y-108345238D01*
X184702380Y-108488095D01*
X184702380Y-108583333D01*
X184654761Y-108726190D01*
X184559523Y-108821428D01*
X184464285Y-108869047D01*
X184273809Y-108916666D01*
X184130952Y-108916666D01*
X183940476Y-108869047D01*
X183845238Y-108821428D01*
X183750000Y-108726190D01*
X183702380Y-108583333D01*
X183702380Y-108488095D01*
X183750000Y-108345238D01*
X183797619Y-108297619D01*
X166452380Y-116023809D02*
X167452380Y-115690476D01*
X166452380Y-115357142D01*
X167452380Y-114500000D02*
X167452380Y-115071428D01*
X167452380Y-114785714D02*
X166452380Y-114785714D01*
X166595238Y-114880952D01*
X166690476Y-114976190D01*
X166738095Y-115071428D01*
X167357142Y-114071428D02*
X167404761Y-114023809D01*
X167452380Y-114071428D01*
X167404761Y-114119047D01*
X167357142Y-114071428D01*
X167452380Y-114071428D01*
X166452380Y-113404761D02*
X166452380Y-113309523D01*
X166500000Y-113214285D01*
X166547619Y-113166666D01*
X166642857Y-113119047D01*
X166833333Y-113071428D01*
X167071428Y-113071428D01*
X167261904Y-113119047D01*
X167357142Y-113166666D01*
X167404761Y-113214285D01*
X167452380Y-113309523D01*
X167452380Y-113404761D01*
X167404761Y-113500000D01*
X167357142Y-113547619D01*
X167261904Y-113595238D01*
X167071428Y-113642857D01*
X166833333Y-113642857D01*
X166642857Y-113595238D01*
X166547619Y-113547619D01*
X166500000Y-113500000D01*
X166452380Y-113404761D01*
X149452380Y-116023809D02*
X150452380Y-115690476D01*
X149452380Y-115357142D01*
X150452380Y-114500000D02*
X150452380Y-115071428D01*
X150452380Y-114785714D02*
X149452380Y-114785714D01*
X149595238Y-114880952D01*
X149690476Y-114976190D01*
X149738095Y-115071428D01*
X150357142Y-114071428D02*
X150404761Y-114023809D01*
X150452380Y-114071428D01*
X150404761Y-114119047D01*
X150357142Y-114071428D01*
X150452380Y-114071428D01*
X149452380Y-113404761D02*
X149452380Y-113309523D01*
X149500000Y-113214285D01*
X149547619Y-113166666D01*
X149642857Y-113119047D01*
X149833333Y-113071428D01*
X150071428Y-113071428D01*
X150261904Y-113119047D01*
X150357142Y-113166666D01*
X150404761Y-113214285D01*
X150452380Y-113309523D01*
X150452380Y-113404761D01*
X150404761Y-113500000D01*
X150357142Y-113547619D01*
X150261904Y-113595238D01*
X150071428Y-113642857D01*
X149833333Y-113642857D01*
X149642857Y-113595238D01*
X149547619Y-113547619D01*
X149500000Y-113500000D01*
X149452380Y-113404761D01*
X132452380Y-116023809D02*
X133452380Y-115690476D01*
X132452380Y-115357142D01*
X133452380Y-114500000D02*
X133452380Y-115071428D01*
X133452380Y-114785714D02*
X132452380Y-114785714D01*
X132595238Y-114880952D01*
X132690476Y-114976190D01*
X132738095Y-115071428D01*
X133357142Y-114071428D02*
X133404761Y-114023809D01*
X133452380Y-114071428D01*
X133404761Y-114119047D01*
X133357142Y-114071428D01*
X133452380Y-114071428D01*
X132452380Y-113404761D02*
X132452380Y-113309523D01*
X132500000Y-113214285D01*
X132547619Y-113166666D01*
X132642857Y-113119047D01*
X132833333Y-113071428D01*
X133071428Y-113071428D01*
X133261904Y-113119047D01*
X133357142Y-113166666D01*
X133404761Y-113214285D01*
X133452380Y-113309523D01*
X133452380Y-113404761D01*
X133404761Y-113500000D01*
X133357142Y-113547619D01*
X133261904Y-113595238D01*
X133071428Y-113642857D01*
X132833333Y-113642857D01*
X132642857Y-113595238D01*
X132547619Y-113547619D01*
X132500000Y-113500000D01*
X132452380Y-113404761D01*
X166452380Y-104023809D02*
X167452380Y-103690476D01*
X166452380Y-103357142D01*
X167452380Y-102500000D02*
X167452380Y-103071428D01*
X167452380Y-102785714D02*
X166452380Y-102785714D01*
X166595238Y-102880952D01*
X166690476Y-102976190D01*
X166738095Y-103071428D01*
X167357142Y-102071428D02*
X167404761Y-102023809D01*
X167452380Y-102071428D01*
X167404761Y-102119047D01*
X167357142Y-102071428D01*
X167452380Y-102071428D01*
X166452380Y-101404761D02*
X166452380Y-101309523D01*
X166500000Y-101214285D01*
X166547619Y-101166666D01*
X166642857Y-101119047D01*
X166833333Y-101071428D01*
X167071428Y-101071428D01*
X167261904Y-101119047D01*
X167357142Y-101166666D01*
X167404761Y-101214285D01*
X167452380Y-101309523D01*
X167452380Y-101404761D01*
X167404761Y-101500000D01*
X167357142Y-101547619D01*
X167261904Y-101595238D01*
X167071428Y-101642857D01*
X166833333Y-101642857D01*
X166642857Y-101595238D01*
X166547619Y-101547619D01*
X166500000Y-101500000D01*
X166452380Y-101404761D01*
X149452380Y-104023809D02*
X150452380Y-103690476D01*
X149452380Y-103357142D01*
X150452380Y-102500000D02*
X150452380Y-103071428D01*
X150452380Y-102785714D02*
X149452380Y-102785714D01*
X149595238Y-102880952D01*
X149690476Y-102976190D01*
X149738095Y-103071428D01*
X150357142Y-102071428D02*
X150404761Y-102023809D01*
X150452380Y-102071428D01*
X150404761Y-102119047D01*
X150357142Y-102071428D01*
X150452380Y-102071428D01*
X149452380Y-101404761D02*
X149452380Y-101309523D01*
X149500000Y-101214285D01*
X149547619Y-101166666D01*
X149642857Y-101119047D01*
X149833333Y-101071428D01*
X150071428Y-101071428D01*
X150261904Y-101119047D01*
X150357142Y-101166666D01*
X150404761Y-101214285D01*
X150452380Y-101309523D01*
X150452380Y-101404761D01*
X150404761Y-101500000D01*
X150357142Y-101547619D01*
X150261904Y-101595238D01*
X150071428Y-101642857D01*
X149833333Y-101642857D01*
X149642857Y-101595238D01*
X149547619Y-101547619D01*
X149500000Y-101500000D01*
X149452380Y-101404761D01*
X167214285Y-112702380D02*
X167214285Y-111702380D01*
X167595238Y-111702380D01*
X167690476Y-111750000D01*
X167738095Y-111797619D01*
X167785714Y-111892857D01*
X167785714Y-112035714D01*
X167738095Y-112130952D01*
X167690476Y-112178571D01*
X167595238Y-112226190D01*
X167214285Y-112226190D01*
X168214285Y-112702380D02*
X168214285Y-112035714D01*
X168214285Y-112226190D02*
X168261904Y-112130952D01*
X168309523Y-112083333D01*
X168404761Y-112035714D01*
X168500000Y-112035714D01*
X168976190Y-112702380D02*
X168880952Y-112654761D01*
X168833333Y-112607142D01*
X168785714Y-112511904D01*
X168785714Y-112226190D01*
X168833333Y-112130952D01*
X168880952Y-112083333D01*
X168976190Y-112035714D01*
X169119047Y-112035714D01*
X169214285Y-112083333D01*
X169261904Y-112130952D01*
X169309523Y-112226190D01*
X169309523Y-112511904D01*
X169261904Y-112607142D01*
X169214285Y-112654761D01*
X169119047Y-112702380D01*
X168976190Y-112702380D01*
X169642857Y-112702380D02*
X170166666Y-112035714D01*
X169642857Y-112035714D02*
X170166666Y-112702380D01*
X170547619Y-112702380D02*
X170547619Y-112035714D01*
X170547619Y-111702380D02*
X170500000Y-111750000D01*
X170547619Y-111797619D01*
X170595238Y-111750000D01*
X170547619Y-111702380D01*
X170547619Y-111797619D01*
X171023809Y-112702380D02*
X171023809Y-112035714D01*
X171023809Y-112130952D02*
X171071428Y-112083333D01*
X171166666Y-112035714D01*
X171309523Y-112035714D01*
X171404761Y-112083333D01*
X171452380Y-112178571D01*
X171452380Y-112702380D01*
X171452380Y-112178571D02*
X171500000Y-112083333D01*
X171595238Y-112035714D01*
X171738095Y-112035714D01*
X171833333Y-112083333D01*
X171880952Y-112178571D01*
X171880952Y-112702380D01*
X172785714Y-112702380D02*
X172785714Y-112178571D01*
X172738095Y-112083333D01*
X172642857Y-112035714D01*
X172452380Y-112035714D01*
X172357142Y-112083333D01*
X172785714Y-112654761D02*
X172690476Y-112702380D01*
X172452380Y-112702380D01*
X172357142Y-112654761D01*
X172309523Y-112559523D01*
X172309523Y-112464285D01*
X172357142Y-112369047D01*
X172452380Y-112321428D01*
X172690476Y-112321428D01*
X172785714Y-112273809D01*
X150214285Y-112702380D02*
X150214285Y-111702380D01*
X150595238Y-111702380D01*
X150690476Y-111750000D01*
X150738095Y-111797619D01*
X150785714Y-111892857D01*
X150785714Y-112035714D01*
X150738095Y-112130952D01*
X150690476Y-112178571D01*
X150595238Y-112226190D01*
X150214285Y-112226190D01*
X151214285Y-112702380D02*
X151214285Y-112035714D01*
X151214285Y-112226190D02*
X151261904Y-112130952D01*
X151309523Y-112083333D01*
X151404761Y-112035714D01*
X151500000Y-112035714D01*
X151976190Y-112702380D02*
X151880952Y-112654761D01*
X151833333Y-112607142D01*
X151785714Y-112511904D01*
X151785714Y-112226190D01*
X151833333Y-112130952D01*
X151880952Y-112083333D01*
X151976190Y-112035714D01*
X152119047Y-112035714D01*
X152214285Y-112083333D01*
X152261904Y-112130952D01*
X152309523Y-112226190D01*
X152309523Y-112511904D01*
X152261904Y-112607142D01*
X152214285Y-112654761D01*
X152119047Y-112702380D01*
X151976190Y-112702380D01*
X152642857Y-112702380D02*
X153166666Y-112035714D01*
X152642857Y-112035714D02*
X153166666Y-112702380D01*
X153547619Y-112702380D02*
X153547619Y-112035714D01*
X153547619Y-111702380D02*
X153500000Y-111750000D01*
X153547619Y-111797619D01*
X153595238Y-111750000D01*
X153547619Y-111702380D01*
X153547619Y-111797619D01*
X154023809Y-112702380D02*
X154023809Y-112035714D01*
X154023809Y-112130952D02*
X154071428Y-112083333D01*
X154166666Y-112035714D01*
X154309523Y-112035714D01*
X154404761Y-112083333D01*
X154452380Y-112178571D01*
X154452380Y-112702380D01*
X154452380Y-112178571D02*
X154500000Y-112083333D01*
X154595238Y-112035714D01*
X154738095Y-112035714D01*
X154833333Y-112083333D01*
X154880952Y-112178571D01*
X154880952Y-112702380D01*
X155785714Y-112702380D02*
X155785714Y-112178571D01*
X155738095Y-112083333D01*
X155642857Y-112035714D01*
X155452380Y-112035714D01*
X155357142Y-112083333D01*
X155785714Y-112654761D02*
X155690476Y-112702380D01*
X155452380Y-112702380D01*
X155357142Y-112654761D01*
X155309523Y-112559523D01*
X155309523Y-112464285D01*
X155357142Y-112369047D01*
X155452380Y-112321428D01*
X155690476Y-112321428D01*
X155785714Y-112273809D01*
X133214285Y-112702380D02*
X133214285Y-111702380D01*
X133595238Y-111702380D01*
X133690476Y-111750000D01*
X133738095Y-111797619D01*
X133785714Y-111892857D01*
X133785714Y-112035714D01*
X133738095Y-112130952D01*
X133690476Y-112178571D01*
X133595238Y-112226190D01*
X133214285Y-112226190D01*
X134214285Y-112702380D02*
X134214285Y-112035714D01*
X134214285Y-112226190D02*
X134261904Y-112130952D01*
X134309523Y-112083333D01*
X134404761Y-112035714D01*
X134500000Y-112035714D01*
X134976190Y-112702380D02*
X134880952Y-112654761D01*
X134833333Y-112607142D01*
X134785714Y-112511904D01*
X134785714Y-112226190D01*
X134833333Y-112130952D01*
X134880952Y-112083333D01*
X134976190Y-112035714D01*
X135119047Y-112035714D01*
X135214285Y-112083333D01*
X135261904Y-112130952D01*
X135309523Y-112226190D01*
X135309523Y-112511904D01*
X135261904Y-112607142D01*
X135214285Y-112654761D01*
X135119047Y-112702380D01*
X134976190Y-112702380D01*
X135642857Y-112702380D02*
X136166666Y-112035714D01*
X135642857Y-112035714D02*
X136166666Y-112702380D01*
X136547619Y-112702380D02*
X136547619Y-112035714D01*
X136547619Y-111702380D02*
X136500000Y-111750000D01*
X136547619Y-111797619D01*
X136595238Y-111750000D01*
X136547619Y-111702380D01*
X136547619Y-111797619D01*
X137023809Y-112702380D02*
X137023809Y-112035714D01*
X137023809Y-112130952D02*
X137071428Y-112083333D01*
X137166666Y-112035714D01*
X137309523Y-112035714D01*
X137404761Y-112083333D01*
X137452380Y-112178571D01*
X137452380Y-112702380D01*
X137452380Y-112178571D02*
X137500000Y-112083333D01*
X137595238Y-112035714D01*
X137738095Y-112035714D01*
X137833333Y-112083333D01*
X137880952Y-112178571D01*
X137880952Y-112702380D01*
X138785714Y-112702380D02*
X138785714Y-112178571D01*
X138738095Y-112083333D01*
X138642857Y-112035714D01*
X138452380Y-112035714D01*
X138357142Y-112083333D01*
X138785714Y-112654761D02*
X138690476Y-112702380D01*
X138452380Y-112702380D01*
X138357142Y-112654761D01*
X138309523Y-112559523D01*
X138309523Y-112464285D01*
X138357142Y-112369047D01*
X138452380Y-112321428D01*
X138690476Y-112321428D01*
X138785714Y-112273809D01*
X167214285Y-100702380D02*
X167214285Y-99702380D01*
X167595238Y-99702380D01*
X167690476Y-99750000D01*
X167738095Y-99797619D01*
X167785714Y-99892857D01*
X167785714Y-100035714D01*
X167738095Y-100130952D01*
X167690476Y-100178571D01*
X167595238Y-100226190D01*
X167214285Y-100226190D01*
X168214285Y-100702380D02*
X168214285Y-100035714D01*
X168214285Y-100226190D02*
X168261904Y-100130952D01*
X168309523Y-100083333D01*
X168404761Y-100035714D01*
X168500000Y-100035714D01*
X168976190Y-100702380D02*
X168880952Y-100654761D01*
X168833333Y-100607142D01*
X168785714Y-100511904D01*
X168785714Y-100226190D01*
X168833333Y-100130952D01*
X168880952Y-100083333D01*
X168976190Y-100035714D01*
X169119047Y-100035714D01*
X169214285Y-100083333D01*
X169261904Y-100130952D01*
X169309523Y-100226190D01*
X169309523Y-100511904D01*
X169261904Y-100607142D01*
X169214285Y-100654761D01*
X169119047Y-100702380D01*
X168976190Y-100702380D01*
X169642857Y-100702380D02*
X170166666Y-100035714D01*
X169642857Y-100035714D02*
X170166666Y-100702380D01*
X170547619Y-100702380D02*
X170547619Y-100035714D01*
X170547619Y-99702380D02*
X170500000Y-99750000D01*
X170547619Y-99797619D01*
X170595238Y-99750000D01*
X170547619Y-99702380D01*
X170547619Y-99797619D01*
X171023809Y-100702380D02*
X171023809Y-100035714D01*
X171023809Y-100130952D02*
X171071428Y-100083333D01*
X171166666Y-100035714D01*
X171309523Y-100035714D01*
X171404761Y-100083333D01*
X171452380Y-100178571D01*
X171452380Y-100702380D01*
X171452380Y-100178571D02*
X171500000Y-100083333D01*
X171595238Y-100035714D01*
X171738095Y-100035714D01*
X171833333Y-100083333D01*
X171880952Y-100178571D01*
X171880952Y-100702380D01*
X172785714Y-100702380D02*
X172785714Y-100178571D01*
X172738095Y-100083333D01*
X172642857Y-100035714D01*
X172452380Y-100035714D01*
X172357142Y-100083333D01*
X172785714Y-100654761D02*
X172690476Y-100702380D01*
X172452380Y-100702380D01*
X172357142Y-100654761D01*
X172309523Y-100559523D01*
X172309523Y-100464285D01*
X172357142Y-100369047D01*
X172452380Y-100321428D01*
X172690476Y-100321428D01*
X172785714Y-100273809D01*
X150214285Y-100702380D02*
X150214285Y-99702380D01*
X150595238Y-99702380D01*
X150690476Y-99750000D01*
X150738095Y-99797619D01*
X150785714Y-99892857D01*
X150785714Y-100035714D01*
X150738095Y-100130952D01*
X150690476Y-100178571D01*
X150595238Y-100226190D01*
X150214285Y-100226190D01*
X151214285Y-100702380D02*
X151214285Y-100035714D01*
X151214285Y-100226190D02*
X151261904Y-100130952D01*
X151309523Y-100083333D01*
X151404761Y-100035714D01*
X151500000Y-100035714D01*
X151976190Y-100702380D02*
X151880952Y-100654761D01*
X151833333Y-100607142D01*
X151785714Y-100511904D01*
X151785714Y-100226190D01*
X151833333Y-100130952D01*
X151880952Y-100083333D01*
X151976190Y-100035714D01*
X152119047Y-100035714D01*
X152214285Y-100083333D01*
X152261904Y-100130952D01*
X152309523Y-100226190D01*
X152309523Y-100511904D01*
X152261904Y-100607142D01*
X152214285Y-100654761D01*
X152119047Y-100702380D01*
X151976190Y-100702380D01*
X152642857Y-100702380D02*
X153166666Y-100035714D01*
X152642857Y-100035714D02*
X153166666Y-100702380D01*
X153547619Y-100702380D02*
X153547619Y-100035714D01*
X153547619Y-99702380D02*
X153500000Y-99750000D01*
X153547619Y-99797619D01*
X153595238Y-99750000D01*
X153547619Y-99702380D01*
X153547619Y-99797619D01*
X154023809Y-100702380D02*
X154023809Y-100035714D01*
X154023809Y-100130952D02*
X154071428Y-100083333D01*
X154166666Y-100035714D01*
X154309523Y-100035714D01*
X154404761Y-100083333D01*
X154452380Y-100178571D01*
X154452380Y-100702380D01*
X154452380Y-100178571D02*
X154500000Y-100083333D01*
X154595238Y-100035714D01*
X154738095Y-100035714D01*
X154833333Y-100083333D01*
X154880952Y-100178571D01*
X154880952Y-100702380D01*
X155785714Y-100702380D02*
X155785714Y-100178571D01*
X155738095Y-100083333D01*
X155642857Y-100035714D01*
X155452380Y-100035714D01*
X155357142Y-100083333D01*
X155785714Y-100654761D02*
X155690476Y-100702380D01*
X155452380Y-100702380D01*
X155357142Y-100654761D01*
X155309523Y-100559523D01*
X155309523Y-100464285D01*
X155357142Y-100369047D01*
X155452380Y-100321428D01*
X155690476Y-100321428D01*
X155785714Y-100273809D01*
X132452380Y-104023809D02*
X133452380Y-103690476D01*
X132452380Y-103357142D01*
X133452380Y-102500000D02*
X133452380Y-103071428D01*
X133452380Y-102785714D02*
X132452380Y-102785714D01*
X132595238Y-102880952D01*
X132690476Y-102976190D01*
X132738095Y-103071428D01*
X133357142Y-102071428D02*
X133404761Y-102023809D01*
X133452380Y-102071428D01*
X133404761Y-102119047D01*
X133357142Y-102071428D01*
X133452380Y-102071428D01*
X132452380Y-101404761D02*
X132452380Y-101309523D01*
X132500000Y-101214285D01*
X132547619Y-101166666D01*
X132642857Y-101119047D01*
X132833333Y-101071428D01*
X133071428Y-101071428D01*
X133261904Y-101119047D01*
X133357142Y-101166666D01*
X133404761Y-101214285D01*
X133452380Y-101309523D01*
X133452380Y-101404761D01*
X133404761Y-101500000D01*
X133357142Y-101547619D01*
X133261904Y-101595238D01*
X133071428Y-101642857D01*
X132833333Y-101642857D01*
X132642857Y-101595238D01*
X132547619Y-101547619D01*
X132500000Y-101500000D01*
X132452380Y-101404761D01*
X133214285Y-100702380D02*
X133214285Y-99702380D01*
X133595238Y-99702380D01*
X133690476Y-99750000D01*
X133738095Y-99797619D01*
X133785714Y-99892857D01*
X133785714Y-100035714D01*
X133738095Y-100130952D01*
X133690476Y-100178571D01*
X133595238Y-100226190D01*
X133214285Y-100226190D01*
X134214285Y-100702380D02*
X134214285Y-100035714D01*
X134214285Y-100226190D02*
X134261904Y-100130952D01*
X134309523Y-100083333D01*
X134404761Y-100035714D01*
X134500000Y-100035714D01*
X134976190Y-100702380D02*
X134880952Y-100654761D01*
X134833333Y-100607142D01*
X134785714Y-100511904D01*
X134785714Y-100226190D01*
X134833333Y-100130952D01*
X134880952Y-100083333D01*
X134976190Y-100035714D01*
X135119047Y-100035714D01*
X135214285Y-100083333D01*
X135261904Y-100130952D01*
X135309523Y-100226190D01*
X135309523Y-100511904D01*
X135261904Y-100607142D01*
X135214285Y-100654761D01*
X135119047Y-100702380D01*
X134976190Y-100702380D01*
X135642857Y-100702380D02*
X136166666Y-100035714D01*
X135642857Y-100035714D02*
X136166666Y-100702380D01*
X136547619Y-100702380D02*
X136547619Y-100035714D01*
X136547619Y-99702380D02*
X136500000Y-99750000D01*
X136547619Y-99797619D01*
X136595238Y-99750000D01*
X136547619Y-99702380D01*
X136547619Y-99797619D01*
X137023809Y-100702380D02*
X137023809Y-100035714D01*
X137023809Y-100130952D02*
X137071428Y-100083333D01*
X137166666Y-100035714D01*
X137309523Y-100035714D01*
X137404761Y-100083333D01*
X137452380Y-100178571D01*
X137452380Y-100702380D01*
X137452380Y-100178571D02*
X137500000Y-100083333D01*
X137595238Y-100035714D01*
X137738095Y-100035714D01*
X137833333Y-100083333D01*
X137880952Y-100178571D01*
X137880952Y-100702380D01*
X138785714Y-100702380D02*
X138785714Y-100178571D01*
X138738095Y-100083333D01*
X138642857Y-100035714D01*
X138452380Y-100035714D01*
X138357142Y-100083333D01*
X138785714Y-100654761D02*
X138690476Y-100702380D01*
X138452380Y-100702380D01*
X138357142Y-100654761D01*
X138309523Y-100559523D01*
X138309523Y-100464285D01*
X138357142Y-100369047D01*
X138452380Y-100321428D01*
X138690476Y-100321428D01*
X138785714Y-100273809D01*
D11*
%TO.C,*%
X181000000Y-110500000D02*
G75*
G03*
X183000000Y-110500000I1000000J0D01*
G01*
X183000000Y-117500000D02*
G75*
G03*
X181000000Y-117500000I-1000000J0D01*
G01*
D12*
%TO.C,R2*%
X176696078Y-117040000D02*
X176178922Y-117040000D01*
X176696078Y-118460000D02*
X176178922Y-118460000D01*
X159696078Y-117040000D02*
X159178922Y-117040000D01*
X159696078Y-118460000D02*
X159178922Y-118460000D01*
X142696078Y-117040000D02*
X142178922Y-117040000D01*
X142696078Y-118460000D02*
X142178922Y-118460000D01*
X176696078Y-105040000D02*
X176178922Y-105040000D01*
X176696078Y-106460000D02*
X176178922Y-106460000D01*
X159696078Y-105040000D02*
X159178922Y-105040000D01*
X159696078Y-106460000D02*
X159178922Y-106460000D01*
%TO.C,D1*%
X174240000Y-115349538D02*
G75*
G03*
X179790000Y-116894830I2990000J-462D01*
G01*
X174240000Y-115350462D02*
G75*
G02*
X179790000Y-113805170I2990000J462D01*
G01*
X179730000Y-115350000D02*
G75*
G03*
X179730000Y-115350000I-2500000J0D01*
G01*
X179790000Y-116895000D02*
X179790000Y-113805000D01*
X157240000Y-115349538D02*
G75*
G03*
X162790000Y-116894830I2990000J-462D01*
G01*
X157240000Y-115350462D02*
G75*
G02*
X162790000Y-113805170I2990000J462D01*
G01*
X162730000Y-115350000D02*
G75*
G03*
X162730000Y-115350000I-2500000J0D01*
G01*
X162790000Y-116895000D02*
X162790000Y-113805000D01*
X140240000Y-115349538D02*
G75*
G03*
X145790000Y-116894830I2990000J-462D01*
G01*
X140240000Y-115350462D02*
G75*
G02*
X145790000Y-113805170I2990000J462D01*
G01*
X145730000Y-115350000D02*
G75*
G03*
X145730000Y-115350000I-2500000J0D01*
G01*
X145790000Y-116895000D02*
X145790000Y-113805000D01*
X174240000Y-103349538D02*
G75*
G03*
X179790000Y-104894830I2990000J-462D01*
G01*
X174240000Y-103350462D02*
G75*
G02*
X179790000Y-101805170I2990000J462D01*
G01*
X179730000Y-103350000D02*
G75*
G03*
X179730000Y-103350000I-2500000J0D01*
G01*
X179790000Y-104895000D02*
X179790000Y-101805000D01*
X157240000Y-103349538D02*
G75*
G03*
X162790000Y-104894830I2990000J-462D01*
G01*
X157240000Y-103350462D02*
G75*
G02*
X162790000Y-101805170I2990000J462D01*
G01*
X162730000Y-103350000D02*
G75*
G03*
X162730000Y-103350000I-2500000J0D01*
G01*
X162790000Y-104895000D02*
X162790000Y-101805000D01*
%TO.C,U1*%
X167540000Y-119800000D02*
G75*
G03*
X172740000Y-119800000I2600000J1100000D01*
G01*
X167540000Y-119800000D02*
X167320000Y-119800000D01*
X173120000Y-116140000D02*
X170040000Y-116140000D01*
X173200000Y-119800000D02*
X172740000Y-119800000D01*
X173200000Y-119800000D02*
X173200000Y-118600000D01*
X150540000Y-119800000D02*
G75*
G03*
X155740000Y-119800000I2600000J1100000D01*
G01*
X150540000Y-119800000D02*
X150320000Y-119800000D01*
X156120000Y-116140000D02*
X153040000Y-116140000D01*
X156200000Y-119800000D02*
X155740000Y-119800000D01*
X156200000Y-119800000D02*
X156200000Y-118600000D01*
X133540000Y-119800000D02*
G75*
G03*
X138740000Y-119800000I2600000J1100000D01*
G01*
X133540000Y-119800000D02*
X133320000Y-119800000D01*
X139120000Y-116140000D02*
X136040000Y-116140000D01*
X139200000Y-119800000D02*
X138740000Y-119800000D01*
X139200000Y-119800000D02*
X139200000Y-118600000D01*
X167540000Y-107800000D02*
G75*
G03*
X172740000Y-107800000I2600000J1100000D01*
G01*
X167540000Y-107800000D02*
X167320000Y-107800000D01*
X173120000Y-104140000D02*
X170040000Y-104140000D01*
X173200000Y-107800000D02*
X172740000Y-107800000D01*
X173200000Y-107800000D02*
X173200000Y-106600000D01*
X150540000Y-107800000D02*
G75*
G03*
X155740000Y-107800000I2600000J1100000D01*
G01*
X150540000Y-107800000D02*
X150320000Y-107800000D01*
X156120000Y-104140000D02*
X153040000Y-104140000D01*
X156200000Y-107800000D02*
X155740000Y-107800000D01*
X156200000Y-107800000D02*
X156200000Y-106600000D01*
%TO.C,U2*%
X177250000Y-108940000D02*
X173800000Y-108940000D01*
X177250000Y-108940000D02*
X179200000Y-108940000D01*
X177250000Y-114060000D02*
X175300000Y-114060000D01*
X177250000Y-114060000D02*
X179200000Y-114060000D01*
X160250000Y-108940000D02*
X156800000Y-108940000D01*
X160250000Y-108940000D02*
X162200000Y-108940000D01*
X160250000Y-114060000D02*
X158300000Y-114060000D01*
X160250000Y-114060000D02*
X162200000Y-114060000D01*
X143250000Y-108940000D02*
X139800000Y-108940000D01*
X143250000Y-108940000D02*
X145200000Y-108940000D01*
X143250000Y-114060000D02*
X141300000Y-114060000D01*
X143250000Y-114060000D02*
X145200000Y-114060000D01*
X177250000Y-96940000D02*
X173800000Y-96940000D01*
X177250000Y-96940000D02*
X179200000Y-96940000D01*
X177250000Y-102060000D02*
X175300000Y-102060000D01*
X177250000Y-102060000D02*
X179200000Y-102060000D01*
X160250000Y-96940000D02*
X156800000Y-96940000D01*
X160250000Y-96940000D02*
X162200000Y-96940000D01*
X160250000Y-102060000D02*
X158300000Y-102060000D01*
X160250000Y-102060000D02*
X162200000Y-102060000D01*
%TO.C,C1*%
X167690000Y-115435000D02*
X171600000Y-115435000D01*
X167690000Y-113565000D02*
X167690000Y-115435000D01*
X171600000Y-113565000D02*
X167690000Y-113565000D01*
X150690000Y-115435000D02*
X154600000Y-115435000D01*
X150690000Y-113565000D02*
X150690000Y-115435000D01*
X154600000Y-113565000D02*
X150690000Y-113565000D01*
X133690000Y-115435000D02*
X137600000Y-115435000D01*
X133690000Y-113565000D02*
X133690000Y-115435000D01*
X137600000Y-113565000D02*
X133690000Y-113565000D01*
X167690000Y-103435000D02*
X171600000Y-103435000D01*
X167690000Y-101565000D02*
X167690000Y-103435000D01*
X171600000Y-101565000D02*
X167690000Y-101565000D01*
X150690000Y-103435000D02*
X154600000Y-103435000D01*
X150690000Y-101565000D02*
X150690000Y-103435000D01*
X154600000Y-101565000D02*
X150690000Y-101565000D01*
D11*
%TO.C,*%
X166000000Y-117500000D02*
G75*
G03*
X164000000Y-117500000I-1000000J0D01*
G01*
X164000000Y-110500000D02*
G75*
G03*
X166000000Y-110500000I1000000J0D01*
G01*
X149000000Y-117500000D02*
G75*
G03*
X147000000Y-117500000I-1000000J0D01*
G01*
X147000000Y-110500000D02*
G75*
G03*
X149000000Y-110500000I1000000J0D01*
G01*
X166000000Y-105500000D02*
G75*
G03*
X164000000Y-105500000I-1000000J0D01*
G01*
X164000000Y-98500000D02*
G75*
G03*
X166000000Y-98500000I1000000J0D01*
G01*
X170500000Y-109000000D02*
G75*
G03*
X170500000Y-107000000I0J1000000D01*
G01*
X177500000Y-107000000D02*
G75*
G03*
X177500000Y-109000000I0J-1000000D01*
G01*
X153500000Y-109000000D02*
G75*
G03*
X153500000Y-107000000I0J1000000D01*
G01*
X160500000Y-107000000D02*
G75*
G03*
X160500000Y-109000000I0J-1000000D01*
G01*
X143500000Y-107000000D02*
G75*
G03*
X143500000Y-109000000I0J-1000000D01*
G01*
X136500000Y-109000000D02*
G75*
G03*
X136500000Y-107000000I0J1000000D01*
G01*
X147000000Y-98500000D02*
G75*
G03*
X149000000Y-98500000I1000000J0D01*
G01*
X149000000Y-105500000D02*
G75*
G03*
X147000000Y-105500000I-1000000J0D01*
G01*
D12*
%TO.C,C1*%
X137600000Y-101565000D02*
X133690000Y-101565000D01*
X133690000Y-101565000D02*
X133690000Y-103435000D01*
X133690000Y-103435000D02*
X137600000Y-103435000D01*
%TO.C,U2*%
X143250000Y-102060000D02*
X145200000Y-102060000D01*
X143250000Y-102060000D02*
X141300000Y-102060000D01*
X143250000Y-96940000D02*
X145200000Y-96940000D01*
X143250000Y-96940000D02*
X139800000Y-96940000D01*
%TO.C,U1*%
X139200000Y-107800000D02*
X139200000Y-106600000D01*
X139200000Y-107800000D02*
X138740000Y-107800000D01*
X139120000Y-104140000D02*
X136040000Y-104140000D01*
X133540000Y-107800000D02*
X133320000Y-107800000D01*
X133540000Y-107800000D02*
G75*
G03*
X138740000Y-107800000I2600000J1100000D01*
G01*
%TO.C,R2*%
X142696078Y-106460000D02*
X142178922Y-106460000D01*
X142696078Y-105040000D02*
X142178922Y-105040000D01*
%TO.C,D1*%
X145790000Y-104895000D02*
X145790000Y-101805000D01*
X145730000Y-103350000D02*
G75*
G03*
X145730000Y-103350000I-2500000J0D01*
G01*
X140240000Y-103350462D02*
G75*
G02*
X145790000Y-101805170I2990000J462D01*
G01*
X140240000Y-103349538D02*
G75*
G03*
X145790000Y-104894830I2990000J-462D01*
G01*
%TO.C,*%
D10*
%TO.C,R2*%
X179833333Y-118702380D02*
X179500000Y-118226190D01*
X179261904Y-118702380D02*
X179261904Y-117702380D01*
X179642857Y-117702380D01*
X179738095Y-117750000D01*
X179785714Y-117797619D01*
X179833333Y-117892857D01*
X179833333Y-118035714D01*
X179785714Y-118130952D01*
X179738095Y-118178571D01*
X179642857Y-118226190D01*
X179261904Y-118226190D01*
X180214285Y-117797619D02*
X180261904Y-117750000D01*
X180357142Y-117702380D01*
X180595238Y-117702380D01*
X180690476Y-117750000D01*
X180738095Y-117797619D01*
X180785714Y-117892857D01*
X180785714Y-117988095D01*
X180738095Y-118130952D01*
X180166666Y-118702380D01*
X180785714Y-118702380D01*
X162833333Y-118702380D02*
X162500000Y-118226190D01*
X162261904Y-118702380D02*
X162261904Y-117702380D01*
X162642857Y-117702380D01*
X162738095Y-117750000D01*
X162785714Y-117797619D01*
X162833333Y-117892857D01*
X162833333Y-118035714D01*
X162785714Y-118130952D01*
X162738095Y-118178571D01*
X162642857Y-118226190D01*
X162261904Y-118226190D01*
X163214285Y-117797619D02*
X163261904Y-117750000D01*
X163357142Y-117702380D01*
X163595238Y-117702380D01*
X163690476Y-117750000D01*
X163738095Y-117797619D01*
X163785714Y-117892857D01*
X163785714Y-117988095D01*
X163738095Y-118130952D01*
X163166666Y-118702380D01*
X163785714Y-118702380D01*
X145833333Y-118702380D02*
X145500000Y-118226190D01*
X145261904Y-118702380D02*
X145261904Y-117702380D01*
X145642857Y-117702380D01*
X145738095Y-117750000D01*
X145785714Y-117797619D01*
X145833333Y-117892857D01*
X145833333Y-118035714D01*
X145785714Y-118130952D01*
X145738095Y-118178571D01*
X145642857Y-118226190D01*
X145261904Y-118226190D01*
X146214285Y-117797619D02*
X146261904Y-117750000D01*
X146357142Y-117702380D01*
X146595238Y-117702380D01*
X146690476Y-117750000D01*
X146738095Y-117797619D01*
X146785714Y-117892857D01*
X146785714Y-117988095D01*
X146738095Y-118130952D01*
X146166666Y-118702380D01*
X146785714Y-118702380D01*
X179833333Y-106702380D02*
X179500000Y-106226190D01*
X179261904Y-106702380D02*
X179261904Y-105702380D01*
X179642857Y-105702380D01*
X179738095Y-105750000D01*
X179785714Y-105797619D01*
X179833333Y-105892857D01*
X179833333Y-106035714D01*
X179785714Y-106130952D01*
X179738095Y-106178571D01*
X179642857Y-106226190D01*
X179261904Y-106226190D01*
X180214285Y-105797619D02*
X180261904Y-105750000D01*
X180357142Y-105702380D01*
X180595238Y-105702380D01*
X180690476Y-105750000D01*
X180738095Y-105797619D01*
X180785714Y-105892857D01*
X180785714Y-105988095D01*
X180738095Y-106130952D01*
X180166666Y-106702380D01*
X180785714Y-106702380D01*
X162833333Y-106702380D02*
X162500000Y-106226190D01*
X162261904Y-106702380D02*
X162261904Y-105702380D01*
X162642857Y-105702380D01*
X162738095Y-105750000D01*
X162785714Y-105797619D01*
X162833333Y-105892857D01*
X162833333Y-106035714D01*
X162785714Y-106130952D01*
X162738095Y-106178571D01*
X162642857Y-106226190D01*
X162261904Y-106226190D01*
X163214285Y-105797619D02*
X163261904Y-105750000D01*
X163357142Y-105702380D01*
X163595238Y-105702380D01*
X163690476Y-105750000D01*
X163738095Y-105797619D01*
X163785714Y-105892857D01*
X163785714Y-105988095D01*
X163738095Y-106130952D01*
X163166666Y-106702380D01*
X163785714Y-106702380D01*
%TO.C,U2*%
X176488095Y-110952380D02*
X176488095Y-111761904D01*
X176535714Y-111857142D01*
X176583333Y-111904761D01*
X176678571Y-111952380D01*
X176869047Y-111952380D01*
X176964285Y-111904761D01*
X177011904Y-111857142D01*
X177059523Y-111761904D01*
X177059523Y-110952380D01*
X177488095Y-111047619D02*
X177535714Y-111000000D01*
X177630952Y-110952380D01*
X177869047Y-110952380D01*
X177964285Y-111000000D01*
X178011904Y-111047619D01*
X178059523Y-111142857D01*
X178059523Y-111238095D01*
X178011904Y-111380952D01*
X177440476Y-111952380D01*
X178059523Y-111952380D01*
X159488095Y-110952380D02*
X159488095Y-111761904D01*
X159535714Y-111857142D01*
X159583333Y-111904761D01*
X159678571Y-111952380D01*
X159869047Y-111952380D01*
X159964285Y-111904761D01*
X160011904Y-111857142D01*
X160059523Y-111761904D01*
X160059523Y-110952380D01*
X160488095Y-111047619D02*
X160535714Y-111000000D01*
X160630952Y-110952380D01*
X160869047Y-110952380D01*
X160964285Y-111000000D01*
X161011904Y-111047619D01*
X161059523Y-111142857D01*
X161059523Y-111238095D01*
X161011904Y-111380952D01*
X160440476Y-111952380D01*
X161059523Y-111952380D01*
X142488095Y-110952380D02*
X142488095Y-111761904D01*
X142535714Y-111857142D01*
X142583333Y-111904761D01*
X142678571Y-111952380D01*
X142869047Y-111952380D01*
X142964285Y-111904761D01*
X143011904Y-111857142D01*
X143059523Y-111761904D01*
X143059523Y-110952380D01*
X143488095Y-111047619D02*
X143535714Y-111000000D01*
X143630952Y-110952380D01*
X143869047Y-110952380D01*
X143964285Y-111000000D01*
X144011904Y-111047619D01*
X144059523Y-111142857D01*
X144059523Y-111238095D01*
X144011904Y-111380952D01*
X143440476Y-111952380D01*
X144059523Y-111952380D01*
X176488095Y-98952380D02*
X176488095Y-99761904D01*
X176535714Y-99857142D01*
X176583333Y-99904761D01*
X176678571Y-99952380D01*
X176869047Y-99952380D01*
X176964285Y-99904761D01*
X177011904Y-99857142D01*
X177059523Y-99761904D01*
X177059523Y-98952380D01*
X177488095Y-99047619D02*
X177535714Y-99000000D01*
X177630952Y-98952380D01*
X177869047Y-98952380D01*
X177964285Y-99000000D01*
X178011904Y-99047619D01*
X178059523Y-99142857D01*
X178059523Y-99238095D01*
X178011904Y-99380952D01*
X177440476Y-99952380D01*
X178059523Y-99952380D01*
X159488095Y-98952380D02*
X159488095Y-99761904D01*
X159535714Y-99857142D01*
X159583333Y-99904761D01*
X159678571Y-99952380D01*
X159869047Y-99952380D01*
X159964285Y-99904761D01*
X160011904Y-99857142D01*
X160059523Y-99761904D01*
X160059523Y-98952380D01*
X160488095Y-99047619D02*
X160535714Y-99000000D01*
X160630952Y-98952380D01*
X160869047Y-98952380D01*
X160964285Y-99000000D01*
X161011904Y-99047619D01*
X161059523Y-99142857D01*
X161059523Y-99238095D01*
X161011904Y-99380952D01*
X160440476Y-99952380D01*
X161059523Y-99952380D01*
%TO.C,C1*%
X172833333Y-114857142D02*
X172785714Y-114904761D01*
X172642857Y-114952380D01*
X172547619Y-114952380D01*
X172404761Y-114904761D01*
X172309523Y-114809523D01*
X172261904Y-114714285D01*
X172214285Y-114523809D01*
X172214285Y-114380952D01*
X172261904Y-114190476D01*
X172309523Y-114095238D01*
X172404761Y-114000000D01*
X172547619Y-113952380D01*
X172642857Y-113952380D01*
X172785714Y-114000000D01*
X172833333Y-114047619D01*
X173785714Y-114952380D02*
X173214285Y-114952380D01*
X173500000Y-114952380D02*
X173500000Y-113952380D01*
X173404761Y-114095238D01*
X173309523Y-114190476D01*
X173214285Y-114238095D01*
X155833333Y-114857142D02*
X155785714Y-114904761D01*
X155642857Y-114952380D01*
X155547619Y-114952380D01*
X155404761Y-114904761D01*
X155309523Y-114809523D01*
X155261904Y-114714285D01*
X155214285Y-114523809D01*
X155214285Y-114380952D01*
X155261904Y-114190476D01*
X155309523Y-114095238D01*
X155404761Y-114000000D01*
X155547619Y-113952380D01*
X155642857Y-113952380D01*
X155785714Y-114000000D01*
X155833333Y-114047619D01*
X156785714Y-114952380D02*
X156214285Y-114952380D01*
X156500000Y-114952380D02*
X156500000Y-113952380D01*
X156404761Y-114095238D01*
X156309523Y-114190476D01*
X156214285Y-114238095D01*
X138833333Y-114857142D02*
X138785714Y-114904761D01*
X138642857Y-114952380D01*
X138547619Y-114952380D01*
X138404761Y-114904761D01*
X138309523Y-114809523D01*
X138261904Y-114714285D01*
X138214285Y-114523809D01*
X138214285Y-114380952D01*
X138261904Y-114190476D01*
X138309523Y-114095238D01*
X138404761Y-114000000D01*
X138547619Y-113952380D01*
X138642857Y-113952380D01*
X138785714Y-114000000D01*
X138833333Y-114047619D01*
X139785714Y-114952380D02*
X139214285Y-114952380D01*
X139500000Y-114952380D02*
X139500000Y-113952380D01*
X139404761Y-114095238D01*
X139309523Y-114190476D01*
X139214285Y-114238095D01*
X172833333Y-102857142D02*
X172785714Y-102904761D01*
X172642857Y-102952380D01*
X172547619Y-102952380D01*
X172404761Y-102904761D01*
X172309523Y-102809523D01*
X172261904Y-102714285D01*
X172214285Y-102523809D01*
X172214285Y-102380952D01*
X172261904Y-102190476D01*
X172309523Y-102095238D01*
X172404761Y-102000000D01*
X172547619Y-101952380D01*
X172642857Y-101952380D01*
X172785714Y-102000000D01*
X172833333Y-102047619D01*
X173785714Y-102952380D02*
X173214285Y-102952380D01*
X173500000Y-102952380D02*
X173500000Y-101952380D01*
X173404761Y-102095238D01*
X173309523Y-102190476D01*
X173214285Y-102238095D01*
X155833333Y-102857142D02*
X155785714Y-102904761D01*
X155642857Y-102952380D01*
X155547619Y-102952380D01*
X155404761Y-102904761D01*
X155309523Y-102809523D01*
X155261904Y-102714285D01*
X155214285Y-102523809D01*
X155214285Y-102380952D01*
X155261904Y-102190476D01*
X155309523Y-102095238D01*
X155404761Y-102000000D01*
X155547619Y-101952380D01*
X155642857Y-101952380D01*
X155785714Y-102000000D01*
X155833333Y-102047619D01*
X156785714Y-102952380D02*
X156214285Y-102952380D01*
X156500000Y-102952380D02*
X156500000Y-101952380D01*
X156404761Y-102095238D01*
X156309523Y-102190476D01*
X156214285Y-102238095D01*
%TO.C,*%
%TO.C,C1*%
X138833333Y-102857142D02*
X138785714Y-102904761D01*
X138642857Y-102952380D01*
X138547619Y-102952380D01*
X138404761Y-102904761D01*
X138309523Y-102809523D01*
X138261904Y-102714285D01*
X138214285Y-102523809D01*
X138214285Y-102380952D01*
X138261904Y-102190476D01*
X138309523Y-102095238D01*
X138404761Y-102000000D01*
X138547619Y-101952380D01*
X138642857Y-101952380D01*
X138785714Y-102000000D01*
X138833333Y-102047619D01*
X139785714Y-102952380D02*
X139214285Y-102952380D01*
X139500000Y-102952380D02*
X139500000Y-101952380D01*
X139404761Y-102095238D01*
X139309523Y-102190476D01*
X139214285Y-102238095D01*
%TO.C,U2*%
X142488095Y-98952380D02*
X142488095Y-99761904D01*
X142535714Y-99857142D01*
X142583333Y-99904761D01*
X142678571Y-99952380D01*
X142869047Y-99952380D01*
X142964285Y-99904761D01*
X143011904Y-99857142D01*
X143059523Y-99761904D01*
X143059523Y-98952380D01*
X143488095Y-99047619D02*
X143535714Y-99000000D01*
X143630952Y-98952380D01*
X143869047Y-98952380D01*
X143964285Y-99000000D01*
X144011904Y-99047619D01*
X144059523Y-99142857D01*
X144059523Y-99238095D01*
X144011904Y-99380952D01*
X143440476Y-99952380D01*
X144059523Y-99952380D01*
%TO.C,R2*%
X145833333Y-106702380D02*
X145500000Y-106226190D01*
X145261904Y-106702380D02*
X145261904Y-105702380D01*
X145642857Y-105702380D01*
X145738095Y-105750000D01*
X145785714Y-105797619D01*
X145833333Y-105892857D01*
X145833333Y-106035714D01*
X145785714Y-106130952D01*
X145738095Y-106178571D01*
X145642857Y-106226190D01*
X145261904Y-106226190D01*
X146214285Y-105797619D02*
X146261904Y-105750000D01*
X146357142Y-105702380D01*
X146595238Y-105702380D01*
X146690476Y-105750000D01*
X146738095Y-105797619D01*
X146785714Y-105892857D01*
X146785714Y-105988095D01*
X146738095Y-106130952D01*
X146166666Y-106702380D01*
X146785714Y-106702380D01*
%TD*%
M02*
