%TF.GenerationSoftware,KiCad,Pcbnew,(5.1.6)-1*%
%TF.CreationDate,2021-08-16T20:18:48+02:00*%
%TF.ProjectId,proxima_panel,70726f78-696d-4615-9f70-616e656c2e6b,rev?*%
%TF.SameCoordinates,Original*%
%TF.FileFunction,Legend,Bot*%
%TF.FilePolarity,Positive*%
%FSLAX46Y46*%
G04 Gerber Fmt 4.6, Leading zero omitted, Abs format (unit mm)*
G04 Created by KiCad (PCBNEW (5.1.6)-1) date 2021-08-16 20:18:48*
%MOMM*%
%LPD*%
G01*
G04 APERTURE LIST*
%ADD10C,0.150000*%
%ADD11C,0.120000*%
G04 APERTURE END LIST*
D10*
X180178571Y-109750000D02*
X180178571Y-110083333D01*
X180702380Y-110226190D02*
X180702380Y-109750000D01*
X179702380Y-109750000D01*
X179702380Y-110226190D01*
X180607142Y-110654761D02*
X180654761Y-110702380D01*
X180702380Y-110654761D01*
X180654761Y-110607142D01*
X180607142Y-110654761D01*
X180702380Y-110654761D01*
X180702380Y-111892857D02*
X179702380Y-111892857D01*
X180416666Y-112226190D01*
X179702380Y-112559523D01*
X180702380Y-112559523D01*
X180702380Y-113178571D02*
X180654761Y-113083333D01*
X180607142Y-113035714D01*
X180511904Y-112988095D01*
X180226190Y-112988095D01*
X180130952Y-113035714D01*
X180083333Y-113083333D01*
X180035714Y-113178571D01*
X180035714Y-113321428D01*
X180083333Y-113416666D01*
X180130952Y-113464285D01*
X180226190Y-113511904D01*
X180511904Y-113511904D01*
X180607142Y-113464285D01*
X180654761Y-113416666D01*
X180702380Y-113321428D01*
X180702380Y-113178571D01*
X180035714Y-113845238D02*
X180035714Y-114369047D01*
X180702380Y-113845238D01*
X180702380Y-114369047D01*
X179702380Y-114130952D02*
X179750000Y-114083333D01*
X179797619Y-114130952D01*
X179750000Y-114178571D01*
X179702380Y-114130952D01*
X179797619Y-114130952D01*
X180702380Y-115178571D02*
X179702380Y-115178571D01*
X180654761Y-115178571D02*
X180702380Y-115083333D01*
X180702380Y-114892857D01*
X180654761Y-114797619D01*
X180607142Y-114750000D01*
X180511904Y-114702380D01*
X180226190Y-114702380D01*
X180130952Y-114750000D01*
X180083333Y-114797619D01*
X180035714Y-114892857D01*
X180035714Y-115083333D01*
X180083333Y-115178571D01*
X180035714Y-115559523D02*
X180035714Y-116083333D01*
X180702380Y-115559523D01*
X180702380Y-116083333D01*
X179702380Y-115845238D02*
X179750000Y-115797619D01*
X179797619Y-115845238D01*
X179750000Y-115892857D01*
X179702380Y-115845238D01*
X179797619Y-115845238D01*
X180654761Y-116845238D02*
X180702380Y-116750000D01*
X180702380Y-116559523D01*
X180654761Y-116464285D01*
X180559523Y-116416666D01*
X180178571Y-116416666D01*
X180083333Y-116464285D01*
X180035714Y-116559523D01*
X180035714Y-116750000D01*
X180083333Y-116845238D01*
X180178571Y-116892857D01*
X180273809Y-116892857D01*
X180369047Y-116416666D01*
X180035714Y-117321428D02*
X180702380Y-117321428D01*
X180130952Y-117321428D02*
X180083333Y-117369047D01*
X180035714Y-117464285D01*
X180035714Y-117607142D01*
X180083333Y-117702380D01*
X180178571Y-117750000D01*
X180702380Y-117750000D01*
X179654761Y-117607142D02*
X179797619Y-117464285D01*
X163178571Y-109750000D02*
X163178571Y-110083333D01*
X163702380Y-110226190D02*
X163702380Y-109750000D01*
X162702380Y-109750000D01*
X162702380Y-110226190D01*
X163607142Y-110654761D02*
X163654761Y-110702380D01*
X163702380Y-110654761D01*
X163654761Y-110607142D01*
X163607142Y-110654761D01*
X163702380Y-110654761D01*
X163702380Y-111892857D02*
X162702380Y-111892857D01*
X163416666Y-112226190D01*
X162702380Y-112559523D01*
X163702380Y-112559523D01*
X163702380Y-113178571D02*
X163654761Y-113083333D01*
X163607142Y-113035714D01*
X163511904Y-112988095D01*
X163226190Y-112988095D01*
X163130952Y-113035714D01*
X163083333Y-113083333D01*
X163035714Y-113178571D01*
X163035714Y-113321428D01*
X163083333Y-113416666D01*
X163130952Y-113464285D01*
X163226190Y-113511904D01*
X163511904Y-113511904D01*
X163607142Y-113464285D01*
X163654761Y-113416666D01*
X163702380Y-113321428D01*
X163702380Y-113178571D01*
X163035714Y-113845238D02*
X163035714Y-114369047D01*
X163702380Y-113845238D01*
X163702380Y-114369047D01*
X162702380Y-114130952D02*
X162750000Y-114083333D01*
X162797619Y-114130952D01*
X162750000Y-114178571D01*
X162702380Y-114130952D01*
X162797619Y-114130952D01*
X163702380Y-115178571D02*
X162702380Y-115178571D01*
X163654761Y-115178571D02*
X163702380Y-115083333D01*
X163702380Y-114892857D01*
X163654761Y-114797619D01*
X163607142Y-114750000D01*
X163511904Y-114702380D01*
X163226190Y-114702380D01*
X163130952Y-114750000D01*
X163083333Y-114797619D01*
X163035714Y-114892857D01*
X163035714Y-115083333D01*
X163083333Y-115178571D01*
X163035714Y-115559523D02*
X163035714Y-116083333D01*
X163702380Y-115559523D01*
X163702380Y-116083333D01*
X162702380Y-115845238D02*
X162750000Y-115797619D01*
X162797619Y-115845238D01*
X162750000Y-115892857D01*
X162702380Y-115845238D01*
X162797619Y-115845238D01*
X163654761Y-116845238D02*
X163702380Y-116750000D01*
X163702380Y-116559523D01*
X163654761Y-116464285D01*
X163559523Y-116416666D01*
X163178571Y-116416666D01*
X163083333Y-116464285D01*
X163035714Y-116559523D01*
X163035714Y-116750000D01*
X163083333Y-116845238D01*
X163178571Y-116892857D01*
X163273809Y-116892857D01*
X163369047Y-116416666D01*
X163035714Y-117321428D02*
X163702380Y-117321428D01*
X163130952Y-117321428D02*
X163083333Y-117369047D01*
X163035714Y-117464285D01*
X163035714Y-117607142D01*
X163083333Y-117702380D01*
X163178571Y-117750000D01*
X163702380Y-117750000D01*
X162654761Y-117607142D02*
X162797619Y-117464285D01*
X146178571Y-109750000D02*
X146178571Y-110083333D01*
X146702380Y-110226190D02*
X146702380Y-109750000D01*
X145702380Y-109750000D01*
X145702380Y-110226190D01*
X146607142Y-110654761D02*
X146654761Y-110702380D01*
X146702380Y-110654761D01*
X146654761Y-110607142D01*
X146607142Y-110654761D01*
X146702380Y-110654761D01*
X146702380Y-111892857D02*
X145702380Y-111892857D01*
X146416666Y-112226190D01*
X145702380Y-112559523D01*
X146702380Y-112559523D01*
X146702380Y-113178571D02*
X146654761Y-113083333D01*
X146607142Y-113035714D01*
X146511904Y-112988095D01*
X146226190Y-112988095D01*
X146130952Y-113035714D01*
X146083333Y-113083333D01*
X146035714Y-113178571D01*
X146035714Y-113321428D01*
X146083333Y-113416666D01*
X146130952Y-113464285D01*
X146226190Y-113511904D01*
X146511904Y-113511904D01*
X146607142Y-113464285D01*
X146654761Y-113416666D01*
X146702380Y-113321428D01*
X146702380Y-113178571D01*
X146035714Y-113845238D02*
X146035714Y-114369047D01*
X146702380Y-113845238D01*
X146702380Y-114369047D01*
X145702380Y-114130952D02*
X145750000Y-114083333D01*
X145797619Y-114130952D01*
X145750000Y-114178571D01*
X145702380Y-114130952D01*
X145797619Y-114130952D01*
X146702380Y-115178571D02*
X145702380Y-115178571D01*
X146654761Y-115178571D02*
X146702380Y-115083333D01*
X146702380Y-114892857D01*
X146654761Y-114797619D01*
X146607142Y-114750000D01*
X146511904Y-114702380D01*
X146226190Y-114702380D01*
X146130952Y-114750000D01*
X146083333Y-114797619D01*
X146035714Y-114892857D01*
X146035714Y-115083333D01*
X146083333Y-115178571D01*
X146035714Y-115559523D02*
X146035714Y-116083333D01*
X146702380Y-115559523D01*
X146702380Y-116083333D01*
X145702380Y-115845238D02*
X145750000Y-115797619D01*
X145797619Y-115845238D01*
X145750000Y-115892857D01*
X145702380Y-115845238D01*
X145797619Y-115845238D01*
X146654761Y-116845238D02*
X146702380Y-116750000D01*
X146702380Y-116559523D01*
X146654761Y-116464285D01*
X146559523Y-116416666D01*
X146178571Y-116416666D01*
X146083333Y-116464285D01*
X146035714Y-116559523D01*
X146035714Y-116750000D01*
X146083333Y-116845238D01*
X146178571Y-116892857D01*
X146273809Y-116892857D01*
X146369047Y-116416666D01*
X146035714Y-117321428D02*
X146702380Y-117321428D01*
X146130952Y-117321428D02*
X146083333Y-117369047D01*
X146035714Y-117464285D01*
X146035714Y-117607142D01*
X146083333Y-117702380D01*
X146178571Y-117750000D01*
X146702380Y-117750000D01*
X145654761Y-117607142D02*
X145797619Y-117464285D01*
X180178571Y-97750000D02*
X180178571Y-98083333D01*
X180702380Y-98226190D02*
X180702380Y-97750000D01*
X179702380Y-97750000D01*
X179702380Y-98226190D01*
X180607142Y-98654761D02*
X180654761Y-98702380D01*
X180702380Y-98654761D01*
X180654761Y-98607142D01*
X180607142Y-98654761D01*
X180702380Y-98654761D01*
X180702380Y-99892857D02*
X179702380Y-99892857D01*
X180416666Y-100226190D01*
X179702380Y-100559523D01*
X180702380Y-100559523D01*
X180702380Y-101178571D02*
X180654761Y-101083333D01*
X180607142Y-101035714D01*
X180511904Y-100988095D01*
X180226190Y-100988095D01*
X180130952Y-101035714D01*
X180083333Y-101083333D01*
X180035714Y-101178571D01*
X180035714Y-101321428D01*
X180083333Y-101416666D01*
X180130952Y-101464285D01*
X180226190Y-101511904D01*
X180511904Y-101511904D01*
X180607142Y-101464285D01*
X180654761Y-101416666D01*
X180702380Y-101321428D01*
X180702380Y-101178571D01*
X180035714Y-101845238D02*
X180035714Y-102369047D01*
X180702380Y-101845238D01*
X180702380Y-102369047D01*
X179702380Y-102130952D02*
X179750000Y-102083333D01*
X179797619Y-102130952D01*
X179750000Y-102178571D01*
X179702380Y-102130952D01*
X179797619Y-102130952D01*
X180702380Y-103178571D02*
X179702380Y-103178571D01*
X180654761Y-103178571D02*
X180702380Y-103083333D01*
X180702380Y-102892857D01*
X180654761Y-102797619D01*
X180607142Y-102750000D01*
X180511904Y-102702380D01*
X180226190Y-102702380D01*
X180130952Y-102750000D01*
X180083333Y-102797619D01*
X180035714Y-102892857D01*
X180035714Y-103083333D01*
X180083333Y-103178571D01*
X180035714Y-103559523D02*
X180035714Y-104083333D01*
X180702380Y-103559523D01*
X180702380Y-104083333D01*
X179702380Y-103845238D02*
X179750000Y-103797619D01*
X179797619Y-103845238D01*
X179750000Y-103892857D01*
X179702380Y-103845238D01*
X179797619Y-103845238D01*
X180654761Y-104845238D02*
X180702380Y-104750000D01*
X180702380Y-104559523D01*
X180654761Y-104464285D01*
X180559523Y-104416666D01*
X180178571Y-104416666D01*
X180083333Y-104464285D01*
X180035714Y-104559523D01*
X180035714Y-104750000D01*
X180083333Y-104845238D01*
X180178571Y-104892857D01*
X180273809Y-104892857D01*
X180369047Y-104416666D01*
X180035714Y-105321428D02*
X180702380Y-105321428D01*
X180130952Y-105321428D02*
X180083333Y-105369047D01*
X180035714Y-105464285D01*
X180035714Y-105607142D01*
X180083333Y-105702380D01*
X180178571Y-105750000D01*
X180702380Y-105750000D01*
X179654761Y-105607142D02*
X179797619Y-105464285D01*
X163178571Y-97750000D02*
X163178571Y-98083333D01*
X163702380Y-98226190D02*
X163702380Y-97750000D01*
X162702380Y-97750000D01*
X162702380Y-98226190D01*
X163607142Y-98654761D02*
X163654761Y-98702380D01*
X163702380Y-98654761D01*
X163654761Y-98607142D01*
X163607142Y-98654761D01*
X163702380Y-98654761D01*
X163702380Y-99892857D02*
X162702380Y-99892857D01*
X163416666Y-100226190D01*
X162702380Y-100559523D01*
X163702380Y-100559523D01*
X163702380Y-101178571D02*
X163654761Y-101083333D01*
X163607142Y-101035714D01*
X163511904Y-100988095D01*
X163226190Y-100988095D01*
X163130952Y-101035714D01*
X163083333Y-101083333D01*
X163035714Y-101178571D01*
X163035714Y-101321428D01*
X163083333Y-101416666D01*
X163130952Y-101464285D01*
X163226190Y-101511904D01*
X163511904Y-101511904D01*
X163607142Y-101464285D01*
X163654761Y-101416666D01*
X163702380Y-101321428D01*
X163702380Y-101178571D01*
X163035714Y-101845238D02*
X163035714Y-102369047D01*
X163702380Y-101845238D01*
X163702380Y-102369047D01*
X162702380Y-102130952D02*
X162750000Y-102083333D01*
X162797619Y-102130952D01*
X162750000Y-102178571D01*
X162702380Y-102130952D01*
X162797619Y-102130952D01*
X163702380Y-103178571D02*
X162702380Y-103178571D01*
X163654761Y-103178571D02*
X163702380Y-103083333D01*
X163702380Y-102892857D01*
X163654761Y-102797619D01*
X163607142Y-102750000D01*
X163511904Y-102702380D01*
X163226190Y-102702380D01*
X163130952Y-102750000D01*
X163083333Y-102797619D01*
X163035714Y-102892857D01*
X163035714Y-103083333D01*
X163083333Y-103178571D01*
X163035714Y-103559523D02*
X163035714Y-104083333D01*
X163702380Y-103559523D01*
X163702380Y-104083333D01*
X162702380Y-103845238D02*
X162750000Y-103797619D01*
X162797619Y-103845238D01*
X162750000Y-103892857D01*
X162702380Y-103845238D01*
X162797619Y-103845238D01*
X163654761Y-104845238D02*
X163702380Y-104750000D01*
X163702380Y-104559523D01*
X163654761Y-104464285D01*
X163559523Y-104416666D01*
X163178571Y-104416666D01*
X163083333Y-104464285D01*
X163035714Y-104559523D01*
X163035714Y-104750000D01*
X163083333Y-104845238D01*
X163178571Y-104892857D01*
X163273809Y-104892857D01*
X163369047Y-104416666D01*
X163035714Y-105321428D02*
X163702380Y-105321428D01*
X163130952Y-105321428D02*
X163083333Y-105369047D01*
X163035714Y-105464285D01*
X163035714Y-105607142D01*
X163083333Y-105702380D01*
X163178571Y-105750000D01*
X163702380Y-105750000D01*
X162654761Y-105607142D02*
X162797619Y-105464285D01*
X146178571Y-97750000D02*
X146178571Y-98083333D01*
X146702380Y-98226190D02*
X146702380Y-97750000D01*
X145702380Y-97750000D01*
X145702380Y-98226190D01*
X146607142Y-98654761D02*
X146654761Y-98702380D01*
X146702380Y-98654761D01*
X146654761Y-98607142D01*
X146607142Y-98654761D01*
X146702380Y-98654761D01*
X146702380Y-99892857D02*
X145702380Y-99892857D01*
X146416666Y-100226190D01*
X145702380Y-100559523D01*
X146702380Y-100559523D01*
X146702380Y-101178571D02*
X146654761Y-101083333D01*
X146607142Y-101035714D01*
X146511904Y-100988095D01*
X146226190Y-100988095D01*
X146130952Y-101035714D01*
X146083333Y-101083333D01*
X146035714Y-101178571D01*
X146035714Y-101321428D01*
X146083333Y-101416666D01*
X146130952Y-101464285D01*
X146226190Y-101511904D01*
X146511904Y-101511904D01*
X146607142Y-101464285D01*
X146654761Y-101416666D01*
X146702380Y-101321428D01*
X146702380Y-101178571D01*
X146035714Y-101845238D02*
X146035714Y-102369047D01*
X146702380Y-101845238D01*
X146702380Y-102369047D01*
X145702380Y-102130952D02*
X145750000Y-102083333D01*
X145797619Y-102130952D01*
X145750000Y-102178571D01*
X145702380Y-102130952D01*
X145797619Y-102130952D01*
X146702380Y-103178571D02*
X145702380Y-103178571D01*
X146654761Y-103178571D02*
X146702380Y-103083333D01*
X146702380Y-102892857D01*
X146654761Y-102797619D01*
X146607142Y-102750000D01*
X146511904Y-102702380D01*
X146226190Y-102702380D01*
X146130952Y-102750000D01*
X146083333Y-102797619D01*
X146035714Y-102892857D01*
X146035714Y-103083333D01*
X146083333Y-103178571D01*
X146035714Y-103559523D02*
X146035714Y-104083333D01*
X146702380Y-103559523D01*
X146702380Y-104083333D01*
X145702380Y-103845238D02*
X145750000Y-103797619D01*
X145797619Y-103845238D01*
X145750000Y-103892857D01*
X145702380Y-103845238D01*
X145797619Y-103845238D01*
X146654761Y-104845238D02*
X146702380Y-104750000D01*
X146702380Y-104559523D01*
X146654761Y-104464285D01*
X146559523Y-104416666D01*
X146178571Y-104416666D01*
X146083333Y-104464285D01*
X146035714Y-104559523D01*
X146035714Y-104750000D01*
X146083333Y-104845238D01*
X146178571Y-104892857D01*
X146273809Y-104892857D01*
X146369047Y-104416666D01*
X146035714Y-105321428D02*
X146702380Y-105321428D01*
X146130952Y-105321428D02*
X146083333Y-105369047D01*
X146035714Y-105464285D01*
X146035714Y-105607142D01*
X146083333Y-105702380D01*
X146178571Y-105750000D01*
X146702380Y-105750000D01*
X145654761Y-105607142D02*
X145797619Y-105464285D01*
D11*
%TO.C,C3*%
X177758578Y-110710000D02*
X177241422Y-110710000D01*
X177758578Y-109290000D02*
X177241422Y-109290000D01*
X160758578Y-110710000D02*
X160241422Y-110710000D01*
X160758578Y-109290000D02*
X160241422Y-109290000D01*
X143758578Y-110710000D02*
X143241422Y-110710000D01*
X143758578Y-109290000D02*
X143241422Y-109290000D01*
X177758578Y-98710000D02*
X177241422Y-98710000D01*
X177758578Y-97290000D02*
X177241422Y-97290000D01*
X160758578Y-98710000D02*
X160241422Y-98710000D01*
X160758578Y-97290000D02*
X160241422Y-97290000D01*
%TO.C,D2*%
X168540000Y-115935000D02*
X168540000Y-113250000D01*
X170460000Y-115935000D02*
X168540000Y-115935000D01*
X170460000Y-113250000D02*
X170460000Y-115935000D01*
X151540000Y-115935000D02*
X151540000Y-113250000D01*
X153460000Y-115935000D02*
X151540000Y-115935000D01*
X153460000Y-113250000D02*
X153460000Y-115935000D01*
X134540000Y-115935000D02*
X134540000Y-113250000D01*
X136460000Y-115935000D02*
X134540000Y-115935000D01*
X136460000Y-113250000D02*
X136460000Y-115935000D01*
X168540000Y-103935000D02*
X168540000Y-101250000D01*
X170460000Y-103935000D02*
X168540000Y-103935000D01*
X170460000Y-101250000D02*
X170460000Y-103935000D01*
X151540000Y-103935000D02*
X151540000Y-101250000D01*
X153460000Y-103935000D02*
X151540000Y-103935000D01*
X153460000Y-101250000D02*
X153460000Y-103935000D01*
%TO.C,R1*%
X166290000Y-114508578D02*
X166290000Y-113991422D01*
X167710000Y-114508578D02*
X167710000Y-113991422D01*
X149290000Y-114508578D02*
X149290000Y-113991422D01*
X150710000Y-114508578D02*
X150710000Y-113991422D01*
X132290000Y-114508578D02*
X132290000Y-113991422D01*
X133710000Y-114508578D02*
X133710000Y-113991422D01*
X166290000Y-102508578D02*
X166290000Y-101991422D01*
X167710000Y-102508578D02*
X167710000Y-101991422D01*
X149290000Y-102508578D02*
X149290000Y-101991422D01*
X150710000Y-102508578D02*
X150710000Y-101991422D01*
%TO.C,R5*%
X172960000Y-114508578D02*
X172960000Y-113991422D01*
X171540000Y-114508578D02*
X171540000Y-113991422D01*
X155960000Y-114508578D02*
X155960000Y-113991422D01*
X154540000Y-114508578D02*
X154540000Y-113991422D01*
X138960000Y-114508578D02*
X138960000Y-113991422D01*
X137540000Y-114508578D02*
X137540000Y-113991422D01*
X172960000Y-102508578D02*
X172960000Y-101991422D01*
X171540000Y-102508578D02*
X171540000Y-101991422D01*
X155960000Y-102508578D02*
X155960000Y-101991422D01*
X154540000Y-102508578D02*
X154540000Y-101991422D01*
%TO.C,C2*%
X177508578Y-118460000D02*
X176991422Y-118460000D01*
X177508578Y-117040000D02*
X176991422Y-117040000D01*
X160508578Y-118460000D02*
X159991422Y-118460000D01*
X160508578Y-117040000D02*
X159991422Y-117040000D01*
X143508578Y-118460000D02*
X142991422Y-118460000D01*
X143508578Y-117040000D02*
X142991422Y-117040000D01*
X177508578Y-106460000D02*
X176991422Y-106460000D01*
X177508578Y-105040000D02*
X176991422Y-105040000D01*
X160508578Y-106460000D02*
X159991422Y-106460000D01*
X160508578Y-105040000D02*
X159991422Y-105040000D01*
%TO.C,R3*%
X174040000Y-112508578D02*
X174040000Y-111991422D01*
X175460000Y-112508578D02*
X175460000Y-111991422D01*
X157040000Y-112508578D02*
X157040000Y-111991422D01*
X158460000Y-112508578D02*
X158460000Y-111991422D01*
X140040000Y-112508578D02*
X140040000Y-111991422D01*
X141460000Y-112508578D02*
X141460000Y-111991422D01*
X174040000Y-100508578D02*
X174040000Y-99991422D01*
X175460000Y-100508578D02*
X175460000Y-99991422D01*
X157040000Y-100508578D02*
X157040000Y-99991422D01*
X158460000Y-100508578D02*
X158460000Y-99991422D01*
%TO.C,R4*%
X177241422Y-111540000D02*
X177758578Y-111540000D01*
X177241422Y-112960000D02*
X177758578Y-112960000D01*
X160241422Y-111540000D02*
X160758578Y-111540000D01*
X160241422Y-112960000D02*
X160758578Y-112960000D01*
X143241422Y-111540000D02*
X143758578Y-111540000D01*
X143241422Y-112960000D02*
X143758578Y-112960000D01*
X177241422Y-99540000D02*
X177758578Y-99540000D01*
X177241422Y-100960000D02*
X177758578Y-100960000D01*
X160241422Y-99540000D02*
X160758578Y-99540000D01*
X160241422Y-100960000D02*
X160758578Y-100960000D01*
%TO.C,J1*%
X166090000Y-111830000D02*
X166090000Y-109170000D01*
X171230000Y-111830000D02*
X166090000Y-111830000D01*
X171230000Y-109170000D02*
X166090000Y-109170000D01*
X171230000Y-111830000D02*
X171230000Y-109170000D01*
X172500000Y-111830000D02*
X173830000Y-111830000D01*
X173830000Y-111830000D02*
X173830000Y-110500000D01*
X149090000Y-111830000D02*
X149090000Y-109170000D01*
X154230000Y-111830000D02*
X149090000Y-111830000D01*
X154230000Y-109170000D02*
X149090000Y-109170000D01*
X154230000Y-111830000D02*
X154230000Y-109170000D01*
X155500000Y-111830000D02*
X156830000Y-111830000D01*
X156830000Y-111830000D02*
X156830000Y-110500000D01*
X132090000Y-111830000D02*
X132090000Y-109170000D01*
X137230000Y-111830000D02*
X132090000Y-111830000D01*
X137230000Y-109170000D02*
X132090000Y-109170000D01*
X137230000Y-111830000D02*
X137230000Y-109170000D01*
X138500000Y-111830000D02*
X139830000Y-111830000D01*
X139830000Y-111830000D02*
X139830000Y-110500000D01*
X166090000Y-99830000D02*
X166090000Y-97170000D01*
X171230000Y-99830000D02*
X166090000Y-99830000D01*
X171230000Y-97170000D02*
X166090000Y-97170000D01*
X171230000Y-99830000D02*
X171230000Y-97170000D01*
X172500000Y-99830000D02*
X173830000Y-99830000D01*
X173830000Y-99830000D02*
X173830000Y-98500000D01*
X149090000Y-99830000D02*
X149090000Y-97170000D01*
X154230000Y-99830000D02*
X149090000Y-99830000D01*
X154230000Y-97170000D02*
X149090000Y-97170000D01*
X154230000Y-99830000D02*
X154230000Y-97170000D01*
X155500000Y-99830000D02*
X156830000Y-99830000D01*
X156830000Y-99830000D02*
X156830000Y-98500000D01*
X139830000Y-99830000D02*
X139830000Y-98500000D01*
X138500000Y-99830000D02*
X139830000Y-99830000D01*
X137230000Y-99830000D02*
X137230000Y-97170000D01*
X137230000Y-97170000D02*
X132090000Y-97170000D01*
X137230000Y-99830000D02*
X132090000Y-99830000D01*
X132090000Y-99830000D02*
X132090000Y-97170000D01*
%TO.C,R4*%
X143241422Y-100960000D02*
X143758578Y-100960000D01*
X143241422Y-99540000D02*
X143758578Y-99540000D01*
%TO.C,R3*%
X141460000Y-100508578D02*
X141460000Y-99991422D01*
X140040000Y-100508578D02*
X140040000Y-99991422D01*
%TO.C,R5*%
X137540000Y-102508578D02*
X137540000Y-101991422D01*
X138960000Y-102508578D02*
X138960000Y-101991422D01*
%TO.C,R1*%
X133710000Y-102508578D02*
X133710000Y-101991422D01*
X132290000Y-102508578D02*
X132290000Y-101991422D01*
%TO.C,D2*%
X136460000Y-101250000D02*
X136460000Y-103935000D01*
X136460000Y-103935000D02*
X134540000Y-103935000D01*
X134540000Y-103935000D02*
X134540000Y-101250000D01*
%TO.C,C3*%
X143758578Y-97290000D02*
X143241422Y-97290000D01*
X143758578Y-98710000D02*
X143241422Y-98710000D01*
%TO.C,C2*%
X143508578Y-105040000D02*
X142991422Y-105040000D01*
X143508578Y-106460000D02*
X142991422Y-106460000D01*
%TO.C,C3*%
D10*
X174916666Y-110357142D02*
X174964285Y-110404761D01*
X175107142Y-110452380D01*
X175202380Y-110452380D01*
X175345238Y-110404761D01*
X175440476Y-110309523D01*
X175488095Y-110214285D01*
X175535714Y-110023809D01*
X175535714Y-109880952D01*
X175488095Y-109690476D01*
X175440476Y-109595238D01*
X175345238Y-109500000D01*
X175202380Y-109452380D01*
X175107142Y-109452380D01*
X174964285Y-109500000D01*
X174916666Y-109547619D01*
X174583333Y-109452380D02*
X173964285Y-109452380D01*
X174297619Y-109833333D01*
X174154761Y-109833333D01*
X174059523Y-109880952D01*
X174011904Y-109928571D01*
X173964285Y-110023809D01*
X173964285Y-110261904D01*
X174011904Y-110357142D01*
X174059523Y-110404761D01*
X174154761Y-110452380D01*
X174440476Y-110452380D01*
X174535714Y-110404761D01*
X174583333Y-110357142D01*
X157916666Y-110357142D02*
X157964285Y-110404761D01*
X158107142Y-110452380D01*
X158202380Y-110452380D01*
X158345238Y-110404761D01*
X158440476Y-110309523D01*
X158488095Y-110214285D01*
X158535714Y-110023809D01*
X158535714Y-109880952D01*
X158488095Y-109690476D01*
X158440476Y-109595238D01*
X158345238Y-109500000D01*
X158202380Y-109452380D01*
X158107142Y-109452380D01*
X157964285Y-109500000D01*
X157916666Y-109547619D01*
X157583333Y-109452380D02*
X156964285Y-109452380D01*
X157297619Y-109833333D01*
X157154761Y-109833333D01*
X157059523Y-109880952D01*
X157011904Y-109928571D01*
X156964285Y-110023809D01*
X156964285Y-110261904D01*
X157011904Y-110357142D01*
X157059523Y-110404761D01*
X157154761Y-110452380D01*
X157440476Y-110452380D01*
X157535714Y-110404761D01*
X157583333Y-110357142D01*
X140916666Y-110357142D02*
X140964285Y-110404761D01*
X141107142Y-110452380D01*
X141202380Y-110452380D01*
X141345238Y-110404761D01*
X141440476Y-110309523D01*
X141488095Y-110214285D01*
X141535714Y-110023809D01*
X141535714Y-109880952D01*
X141488095Y-109690476D01*
X141440476Y-109595238D01*
X141345238Y-109500000D01*
X141202380Y-109452380D01*
X141107142Y-109452380D01*
X140964285Y-109500000D01*
X140916666Y-109547619D01*
X140583333Y-109452380D02*
X139964285Y-109452380D01*
X140297619Y-109833333D01*
X140154761Y-109833333D01*
X140059523Y-109880952D01*
X140011904Y-109928571D01*
X139964285Y-110023809D01*
X139964285Y-110261904D01*
X140011904Y-110357142D01*
X140059523Y-110404761D01*
X140154761Y-110452380D01*
X140440476Y-110452380D01*
X140535714Y-110404761D01*
X140583333Y-110357142D01*
X174916666Y-98357142D02*
X174964285Y-98404761D01*
X175107142Y-98452380D01*
X175202380Y-98452380D01*
X175345238Y-98404761D01*
X175440476Y-98309523D01*
X175488095Y-98214285D01*
X175535714Y-98023809D01*
X175535714Y-97880952D01*
X175488095Y-97690476D01*
X175440476Y-97595238D01*
X175345238Y-97500000D01*
X175202380Y-97452380D01*
X175107142Y-97452380D01*
X174964285Y-97500000D01*
X174916666Y-97547619D01*
X174583333Y-97452380D02*
X173964285Y-97452380D01*
X174297619Y-97833333D01*
X174154761Y-97833333D01*
X174059523Y-97880952D01*
X174011904Y-97928571D01*
X173964285Y-98023809D01*
X173964285Y-98261904D01*
X174011904Y-98357142D01*
X174059523Y-98404761D01*
X174154761Y-98452380D01*
X174440476Y-98452380D01*
X174535714Y-98404761D01*
X174583333Y-98357142D01*
X157916666Y-98357142D02*
X157964285Y-98404761D01*
X158107142Y-98452380D01*
X158202380Y-98452380D01*
X158345238Y-98404761D01*
X158440476Y-98309523D01*
X158488095Y-98214285D01*
X158535714Y-98023809D01*
X158535714Y-97880952D01*
X158488095Y-97690476D01*
X158440476Y-97595238D01*
X158345238Y-97500000D01*
X158202380Y-97452380D01*
X158107142Y-97452380D01*
X157964285Y-97500000D01*
X157916666Y-97547619D01*
X157583333Y-97452380D02*
X156964285Y-97452380D01*
X157297619Y-97833333D01*
X157154761Y-97833333D01*
X157059523Y-97880952D01*
X157011904Y-97928571D01*
X156964285Y-98023809D01*
X156964285Y-98261904D01*
X157011904Y-98357142D01*
X157059523Y-98404761D01*
X157154761Y-98452380D01*
X157440476Y-98452380D01*
X157535714Y-98404761D01*
X157583333Y-98357142D01*
%TO.C,D2*%
X170238095Y-112452380D02*
X170238095Y-111452380D01*
X170000000Y-111452380D01*
X169857142Y-111500000D01*
X169761904Y-111595238D01*
X169714285Y-111690476D01*
X169666666Y-111880952D01*
X169666666Y-112023809D01*
X169714285Y-112214285D01*
X169761904Y-112309523D01*
X169857142Y-112404761D01*
X170000000Y-112452380D01*
X170238095Y-112452380D01*
X169285714Y-111547619D02*
X169238095Y-111500000D01*
X169142857Y-111452380D01*
X168904761Y-111452380D01*
X168809523Y-111500000D01*
X168761904Y-111547619D01*
X168714285Y-111642857D01*
X168714285Y-111738095D01*
X168761904Y-111880952D01*
X169333333Y-112452380D01*
X168714285Y-112452380D01*
X153238095Y-112452380D02*
X153238095Y-111452380D01*
X153000000Y-111452380D01*
X152857142Y-111500000D01*
X152761904Y-111595238D01*
X152714285Y-111690476D01*
X152666666Y-111880952D01*
X152666666Y-112023809D01*
X152714285Y-112214285D01*
X152761904Y-112309523D01*
X152857142Y-112404761D01*
X153000000Y-112452380D01*
X153238095Y-112452380D01*
X152285714Y-111547619D02*
X152238095Y-111500000D01*
X152142857Y-111452380D01*
X151904761Y-111452380D01*
X151809523Y-111500000D01*
X151761904Y-111547619D01*
X151714285Y-111642857D01*
X151714285Y-111738095D01*
X151761904Y-111880952D01*
X152333333Y-112452380D01*
X151714285Y-112452380D01*
X136238095Y-112452380D02*
X136238095Y-111452380D01*
X136000000Y-111452380D01*
X135857142Y-111500000D01*
X135761904Y-111595238D01*
X135714285Y-111690476D01*
X135666666Y-111880952D01*
X135666666Y-112023809D01*
X135714285Y-112214285D01*
X135761904Y-112309523D01*
X135857142Y-112404761D01*
X136000000Y-112452380D01*
X136238095Y-112452380D01*
X135285714Y-111547619D02*
X135238095Y-111500000D01*
X135142857Y-111452380D01*
X134904761Y-111452380D01*
X134809523Y-111500000D01*
X134761904Y-111547619D01*
X134714285Y-111642857D01*
X134714285Y-111738095D01*
X134761904Y-111880952D01*
X135333333Y-112452380D01*
X134714285Y-112452380D01*
X170238095Y-100452380D02*
X170238095Y-99452380D01*
X170000000Y-99452380D01*
X169857142Y-99500000D01*
X169761904Y-99595238D01*
X169714285Y-99690476D01*
X169666666Y-99880952D01*
X169666666Y-100023809D01*
X169714285Y-100214285D01*
X169761904Y-100309523D01*
X169857142Y-100404761D01*
X170000000Y-100452380D01*
X170238095Y-100452380D01*
X169285714Y-99547619D02*
X169238095Y-99500000D01*
X169142857Y-99452380D01*
X168904761Y-99452380D01*
X168809523Y-99500000D01*
X168761904Y-99547619D01*
X168714285Y-99642857D01*
X168714285Y-99738095D01*
X168761904Y-99880952D01*
X169333333Y-100452380D01*
X168714285Y-100452380D01*
X153238095Y-100452380D02*
X153238095Y-99452380D01*
X153000000Y-99452380D01*
X152857142Y-99500000D01*
X152761904Y-99595238D01*
X152714285Y-99690476D01*
X152666666Y-99880952D01*
X152666666Y-100023809D01*
X152714285Y-100214285D01*
X152761904Y-100309523D01*
X152857142Y-100404761D01*
X153000000Y-100452380D01*
X153238095Y-100452380D01*
X152285714Y-99547619D02*
X152238095Y-99500000D01*
X152142857Y-99452380D01*
X151904761Y-99452380D01*
X151809523Y-99500000D01*
X151761904Y-99547619D01*
X151714285Y-99642857D01*
X151714285Y-99738095D01*
X151761904Y-99880952D01*
X152333333Y-100452380D01*
X151714285Y-100452380D01*
%TO.C,R1*%
X167166666Y-112452380D02*
X167500000Y-111976190D01*
X167738095Y-112452380D02*
X167738095Y-111452380D01*
X167357142Y-111452380D01*
X167261904Y-111500000D01*
X167214285Y-111547619D01*
X167166666Y-111642857D01*
X167166666Y-111785714D01*
X167214285Y-111880952D01*
X167261904Y-111928571D01*
X167357142Y-111976190D01*
X167738095Y-111976190D01*
X166214285Y-112452380D02*
X166785714Y-112452380D01*
X166500000Y-112452380D02*
X166500000Y-111452380D01*
X166595238Y-111595238D01*
X166690476Y-111690476D01*
X166785714Y-111738095D01*
X150166666Y-112452380D02*
X150500000Y-111976190D01*
X150738095Y-112452380D02*
X150738095Y-111452380D01*
X150357142Y-111452380D01*
X150261904Y-111500000D01*
X150214285Y-111547619D01*
X150166666Y-111642857D01*
X150166666Y-111785714D01*
X150214285Y-111880952D01*
X150261904Y-111928571D01*
X150357142Y-111976190D01*
X150738095Y-111976190D01*
X149214285Y-112452380D02*
X149785714Y-112452380D01*
X149500000Y-112452380D02*
X149500000Y-111452380D01*
X149595238Y-111595238D01*
X149690476Y-111690476D01*
X149785714Y-111738095D01*
X133166666Y-112452380D02*
X133500000Y-111976190D01*
X133738095Y-112452380D02*
X133738095Y-111452380D01*
X133357142Y-111452380D01*
X133261904Y-111500000D01*
X133214285Y-111547619D01*
X133166666Y-111642857D01*
X133166666Y-111785714D01*
X133214285Y-111880952D01*
X133261904Y-111928571D01*
X133357142Y-111976190D01*
X133738095Y-111976190D01*
X132214285Y-112452380D02*
X132785714Y-112452380D01*
X132500000Y-112452380D02*
X132500000Y-111452380D01*
X132595238Y-111595238D01*
X132690476Y-111690476D01*
X132785714Y-111738095D01*
X167166666Y-100452380D02*
X167500000Y-99976190D01*
X167738095Y-100452380D02*
X167738095Y-99452380D01*
X167357142Y-99452380D01*
X167261904Y-99500000D01*
X167214285Y-99547619D01*
X167166666Y-99642857D01*
X167166666Y-99785714D01*
X167214285Y-99880952D01*
X167261904Y-99928571D01*
X167357142Y-99976190D01*
X167738095Y-99976190D01*
X166214285Y-100452380D02*
X166785714Y-100452380D01*
X166500000Y-100452380D02*
X166500000Y-99452380D01*
X166595238Y-99595238D01*
X166690476Y-99690476D01*
X166785714Y-99738095D01*
X150166666Y-100452380D02*
X150500000Y-99976190D01*
X150738095Y-100452380D02*
X150738095Y-99452380D01*
X150357142Y-99452380D01*
X150261904Y-99500000D01*
X150214285Y-99547619D01*
X150166666Y-99642857D01*
X150166666Y-99785714D01*
X150214285Y-99880952D01*
X150261904Y-99928571D01*
X150357142Y-99976190D01*
X150738095Y-99976190D01*
X149214285Y-100452380D02*
X149785714Y-100452380D01*
X149500000Y-100452380D02*
X149500000Y-99452380D01*
X149595238Y-99595238D01*
X149690476Y-99690476D01*
X149785714Y-99738095D01*
%TO.C,R5*%
X172416666Y-112452380D02*
X172750000Y-111976190D01*
X172988095Y-112452380D02*
X172988095Y-111452380D01*
X172607142Y-111452380D01*
X172511904Y-111500000D01*
X172464285Y-111547619D01*
X172416666Y-111642857D01*
X172416666Y-111785714D01*
X172464285Y-111880952D01*
X172511904Y-111928571D01*
X172607142Y-111976190D01*
X172988095Y-111976190D01*
X171511904Y-111452380D02*
X171988095Y-111452380D01*
X172035714Y-111928571D01*
X171988095Y-111880952D01*
X171892857Y-111833333D01*
X171654761Y-111833333D01*
X171559523Y-111880952D01*
X171511904Y-111928571D01*
X171464285Y-112023809D01*
X171464285Y-112261904D01*
X171511904Y-112357142D01*
X171559523Y-112404761D01*
X171654761Y-112452380D01*
X171892857Y-112452380D01*
X171988095Y-112404761D01*
X172035714Y-112357142D01*
X155416666Y-112452380D02*
X155750000Y-111976190D01*
X155988095Y-112452380D02*
X155988095Y-111452380D01*
X155607142Y-111452380D01*
X155511904Y-111500000D01*
X155464285Y-111547619D01*
X155416666Y-111642857D01*
X155416666Y-111785714D01*
X155464285Y-111880952D01*
X155511904Y-111928571D01*
X155607142Y-111976190D01*
X155988095Y-111976190D01*
X154511904Y-111452380D02*
X154988095Y-111452380D01*
X155035714Y-111928571D01*
X154988095Y-111880952D01*
X154892857Y-111833333D01*
X154654761Y-111833333D01*
X154559523Y-111880952D01*
X154511904Y-111928571D01*
X154464285Y-112023809D01*
X154464285Y-112261904D01*
X154511904Y-112357142D01*
X154559523Y-112404761D01*
X154654761Y-112452380D01*
X154892857Y-112452380D01*
X154988095Y-112404761D01*
X155035714Y-112357142D01*
X138416666Y-112452380D02*
X138750000Y-111976190D01*
X138988095Y-112452380D02*
X138988095Y-111452380D01*
X138607142Y-111452380D01*
X138511904Y-111500000D01*
X138464285Y-111547619D01*
X138416666Y-111642857D01*
X138416666Y-111785714D01*
X138464285Y-111880952D01*
X138511904Y-111928571D01*
X138607142Y-111976190D01*
X138988095Y-111976190D01*
X137511904Y-111452380D02*
X137988095Y-111452380D01*
X138035714Y-111928571D01*
X137988095Y-111880952D01*
X137892857Y-111833333D01*
X137654761Y-111833333D01*
X137559523Y-111880952D01*
X137511904Y-111928571D01*
X137464285Y-112023809D01*
X137464285Y-112261904D01*
X137511904Y-112357142D01*
X137559523Y-112404761D01*
X137654761Y-112452380D01*
X137892857Y-112452380D01*
X137988095Y-112404761D01*
X138035714Y-112357142D01*
X172416666Y-100452380D02*
X172750000Y-99976190D01*
X172988095Y-100452380D02*
X172988095Y-99452380D01*
X172607142Y-99452380D01*
X172511904Y-99500000D01*
X172464285Y-99547619D01*
X172416666Y-99642857D01*
X172416666Y-99785714D01*
X172464285Y-99880952D01*
X172511904Y-99928571D01*
X172607142Y-99976190D01*
X172988095Y-99976190D01*
X171511904Y-99452380D02*
X171988095Y-99452380D01*
X172035714Y-99928571D01*
X171988095Y-99880952D01*
X171892857Y-99833333D01*
X171654761Y-99833333D01*
X171559523Y-99880952D01*
X171511904Y-99928571D01*
X171464285Y-100023809D01*
X171464285Y-100261904D01*
X171511904Y-100357142D01*
X171559523Y-100404761D01*
X171654761Y-100452380D01*
X171892857Y-100452380D01*
X171988095Y-100404761D01*
X172035714Y-100357142D01*
X155416666Y-100452380D02*
X155750000Y-99976190D01*
X155988095Y-100452380D02*
X155988095Y-99452380D01*
X155607142Y-99452380D01*
X155511904Y-99500000D01*
X155464285Y-99547619D01*
X155416666Y-99642857D01*
X155416666Y-99785714D01*
X155464285Y-99880952D01*
X155511904Y-99928571D01*
X155607142Y-99976190D01*
X155988095Y-99976190D01*
X154511904Y-99452380D02*
X154988095Y-99452380D01*
X155035714Y-99928571D01*
X154988095Y-99880952D01*
X154892857Y-99833333D01*
X154654761Y-99833333D01*
X154559523Y-99880952D01*
X154511904Y-99928571D01*
X154464285Y-100023809D01*
X154464285Y-100261904D01*
X154511904Y-100357142D01*
X154559523Y-100404761D01*
X154654761Y-100452380D01*
X154892857Y-100452380D01*
X154988095Y-100404761D01*
X155035714Y-100357142D01*
%TO.C,C2*%
X174916666Y-118107142D02*
X174964285Y-118154761D01*
X175107142Y-118202380D01*
X175202380Y-118202380D01*
X175345238Y-118154761D01*
X175440476Y-118059523D01*
X175488095Y-117964285D01*
X175535714Y-117773809D01*
X175535714Y-117630952D01*
X175488095Y-117440476D01*
X175440476Y-117345238D01*
X175345238Y-117250000D01*
X175202380Y-117202380D01*
X175107142Y-117202380D01*
X174964285Y-117250000D01*
X174916666Y-117297619D01*
X174535714Y-117297619D02*
X174488095Y-117250000D01*
X174392857Y-117202380D01*
X174154761Y-117202380D01*
X174059523Y-117250000D01*
X174011904Y-117297619D01*
X173964285Y-117392857D01*
X173964285Y-117488095D01*
X174011904Y-117630952D01*
X174583333Y-118202380D01*
X173964285Y-118202380D01*
X157916666Y-118107142D02*
X157964285Y-118154761D01*
X158107142Y-118202380D01*
X158202380Y-118202380D01*
X158345238Y-118154761D01*
X158440476Y-118059523D01*
X158488095Y-117964285D01*
X158535714Y-117773809D01*
X158535714Y-117630952D01*
X158488095Y-117440476D01*
X158440476Y-117345238D01*
X158345238Y-117250000D01*
X158202380Y-117202380D01*
X158107142Y-117202380D01*
X157964285Y-117250000D01*
X157916666Y-117297619D01*
X157535714Y-117297619D02*
X157488095Y-117250000D01*
X157392857Y-117202380D01*
X157154761Y-117202380D01*
X157059523Y-117250000D01*
X157011904Y-117297619D01*
X156964285Y-117392857D01*
X156964285Y-117488095D01*
X157011904Y-117630952D01*
X157583333Y-118202380D01*
X156964285Y-118202380D01*
X140916666Y-118107142D02*
X140964285Y-118154761D01*
X141107142Y-118202380D01*
X141202380Y-118202380D01*
X141345238Y-118154761D01*
X141440476Y-118059523D01*
X141488095Y-117964285D01*
X141535714Y-117773809D01*
X141535714Y-117630952D01*
X141488095Y-117440476D01*
X141440476Y-117345238D01*
X141345238Y-117250000D01*
X141202380Y-117202380D01*
X141107142Y-117202380D01*
X140964285Y-117250000D01*
X140916666Y-117297619D01*
X140535714Y-117297619D02*
X140488095Y-117250000D01*
X140392857Y-117202380D01*
X140154761Y-117202380D01*
X140059523Y-117250000D01*
X140011904Y-117297619D01*
X139964285Y-117392857D01*
X139964285Y-117488095D01*
X140011904Y-117630952D01*
X140583333Y-118202380D01*
X139964285Y-118202380D01*
X174916666Y-106107142D02*
X174964285Y-106154761D01*
X175107142Y-106202380D01*
X175202380Y-106202380D01*
X175345238Y-106154761D01*
X175440476Y-106059523D01*
X175488095Y-105964285D01*
X175535714Y-105773809D01*
X175535714Y-105630952D01*
X175488095Y-105440476D01*
X175440476Y-105345238D01*
X175345238Y-105250000D01*
X175202380Y-105202380D01*
X175107142Y-105202380D01*
X174964285Y-105250000D01*
X174916666Y-105297619D01*
X174535714Y-105297619D02*
X174488095Y-105250000D01*
X174392857Y-105202380D01*
X174154761Y-105202380D01*
X174059523Y-105250000D01*
X174011904Y-105297619D01*
X173964285Y-105392857D01*
X173964285Y-105488095D01*
X174011904Y-105630952D01*
X174583333Y-106202380D01*
X173964285Y-106202380D01*
X157916666Y-106107142D02*
X157964285Y-106154761D01*
X158107142Y-106202380D01*
X158202380Y-106202380D01*
X158345238Y-106154761D01*
X158440476Y-106059523D01*
X158488095Y-105964285D01*
X158535714Y-105773809D01*
X158535714Y-105630952D01*
X158488095Y-105440476D01*
X158440476Y-105345238D01*
X158345238Y-105250000D01*
X158202380Y-105202380D01*
X158107142Y-105202380D01*
X157964285Y-105250000D01*
X157916666Y-105297619D01*
X157535714Y-105297619D02*
X157488095Y-105250000D01*
X157392857Y-105202380D01*
X157154761Y-105202380D01*
X157059523Y-105250000D01*
X157011904Y-105297619D01*
X156964285Y-105392857D01*
X156964285Y-105488095D01*
X157011904Y-105630952D01*
X157583333Y-106202380D01*
X156964285Y-106202380D01*
%TO.C,R3*%
X174166666Y-115202380D02*
X174500000Y-114726190D01*
X174738095Y-115202380D02*
X174738095Y-114202380D01*
X174357142Y-114202380D01*
X174261904Y-114250000D01*
X174214285Y-114297619D01*
X174166666Y-114392857D01*
X174166666Y-114535714D01*
X174214285Y-114630952D01*
X174261904Y-114678571D01*
X174357142Y-114726190D01*
X174738095Y-114726190D01*
X173833333Y-114202380D02*
X173214285Y-114202380D01*
X173547619Y-114583333D01*
X173404761Y-114583333D01*
X173309523Y-114630952D01*
X173261904Y-114678571D01*
X173214285Y-114773809D01*
X173214285Y-115011904D01*
X173261904Y-115107142D01*
X173309523Y-115154761D01*
X173404761Y-115202380D01*
X173690476Y-115202380D01*
X173785714Y-115154761D01*
X173833333Y-115107142D01*
X157166666Y-115202380D02*
X157500000Y-114726190D01*
X157738095Y-115202380D02*
X157738095Y-114202380D01*
X157357142Y-114202380D01*
X157261904Y-114250000D01*
X157214285Y-114297619D01*
X157166666Y-114392857D01*
X157166666Y-114535714D01*
X157214285Y-114630952D01*
X157261904Y-114678571D01*
X157357142Y-114726190D01*
X157738095Y-114726190D01*
X156833333Y-114202380D02*
X156214285Y-114202380D01*
X156547619Y-114583333D01*
X156404761Y-114583333D01*
X156309523Y-114630952D01*
X156261904Y-114678571D01*
X156214285Y-114773809D01*
X156214285Y-115011904D01*
X156261904Y-115107142D01*
X156309523Y-115154761D01*
X156404761Y-115202380D01*
X156690476Y-115202380D01*
X156785714Y-115154761D01*
X156833333Y-115107142D01*
X140166666Y-115202380D02*
X140500000Y-114726190D01*
X140738095Y-115202380D02*
X140738095Y-114202380D01*
X140357142Y-114202380D01*
X140261904Y-114250000D01*
X140214285Y-114297619D01*
X140166666Y-114392857D01*
X140166666Y-114535714D01*
X140214285Y-114630952D01*
X140261904Y-114678571D01*
X140357142Y-114726190D01*
X140738095Y-114726190D01*
X139833333Y-114202380D02*
X139214285Y-114202380D01*
X139547619Y-114583333D01*
X139404761Y-114583333D01*
X139309523Y-114630952D01*
X139261904Y-114678571D01*
X139214285Y-114773809D01*
X139214285Y-115011904D01*
X139261904Y-115107142D01*
X139309523Y-115154761D01*
X139404761Y-115202380D01*
X139690476Y-115202380D01*
X139785714Y-115154761D01*
X139833333Y-115107142D01*
X174166666Y-103202380D02*
X174500000Y-102726190D01*
X174738095Y-103202380D02*
X174738095Y-102202380D01*
X174357142Y-102202380D01*
X174261904Y-102250000D01*
X174214285Y-102297619D01*
X174166666Y-102392857D01*
X174166666Y-102535714D01*
X174214285Y-102630952D01*
X174261904Y-102678571D01*
X174357142Y-102726190D01*
X174738095Y-102726190D01*
X173833333Y-102202380D02*
X173214285Y-102202380D01*
X173547619Y-102583333D01*
X173404761Y-102583333D01*
X173309523Y-102630952D01*
X173261904Y-102678571D01*
X173214285Y-102773809D01*
X173214285Y-103011904D01*
X173261904Y-103107142D01*
X173309523Y-103154761D01*
X173404761Y-103202380D01*
X173690476Y-103202380D01*
X173785714Y-103154761D01*
X173833333Y-103107142D01*
X157166666Y-103202380D02*
X157500000Y-102726190D01*
X157738095Y-103202380D02*
X157738095Y-102202380D01*
X157357142Y-102202380D01*
X157261904Y-102250000D01*
X157214285Y-102297619D01*
X157166666Y-102392857D01*
X157166666Y-102535714D01*
X157214285Y-102630952D01*
X157261904Y-102678571D01*
X157357142Y-102726190D01*
X157738095Y-102726190D01*
X156833333Y-102202380D02*
X156214285Y-102202380D01*
X156547619Y-102583333D01*
X156404761Y-102583333D01*
X156309523Y-102630952D01*
X156261904Y-102678571D01*
X156214285Y-102773809D01*
X156214285Y-103011904D01*
X156261904Y-103107142D01*
X156309523Y-103154761D01*
X156404761Y-103202380D01*
X156690476Y-103202380D01*
X156785714Y-103154761D01*
X156833333Y-103107142D01*
%TO.C,R4*%
X177666666Y-114202380D02*
X178000000Y-113726190D01*
X178238095Y-114202380D02*
X178238095Y-113202380D01*
X177857142Y-113202380D01*
X177761904Y-113250000D01*
X177714285Y-113297619D01*
X177666666Y-113392857D01*
X177666666Y-113535714D01*
X177714285Y-113630952D01*
X177761904Y-113678571D01*
X177857142Y-113726190D01*
X178238095Y-113726190D01*
X176809523Y-113535714D02*
X176809523Y-114202380D01*
X177047619Y-113154761D02*
X177285714Y-113869047D01*
X176666666Y-113869047D01*
X160666666Y-114202380D02*
X161000000Y-113726190D01*
X161238095Y-114202380D02*
X161238095Y-113202380D01*
X160857142Y-113202380D01*
X160761904Y-113250000D01*
X160714285Y-113297619D01*
X160666666Y-113392857D01*
X160666666Y-113535714D01*
X160714285Y-113630952D01*
X160761904Y-113678571D01*
X160857142Y-113726190D01*
X161238095Y-113726190D01*
X159809523Y-113535714D02*
X159809523Y-114202380D01*
X160047619Y-113154761D02*
X160285714Y-113869047D01*
X159666666Y-113869047D01*
X143666666Y-114202380D02*
X144000000Y-113726190D01*
X144238095Y-114202380D02*
X144238095Y-113202380D01*
X143857142Y-113202380D01*
X143761904Y-113250000D01*
X143714285Y-113297619D01*
X143666666Y-113392857D01*
X143666666Y-113535714D01*
X143714285Y-113630952D01*
X143761904Y-113678571D01*
X143857142Y-113726190D01*
X144238095Y-113726190D01*
X142809523Y-113535714D02*
X142809523Y-114202380D01*
X143047619Y-113154761D02*
X143285714Y-113869047D01*
X142666666Y-113869047D01*
X177666666Y-102202380D02*
X178000000Y-101726190D01*
X178238095Y-102202380D02*
X178238095Y-101202380D01*
X177857142Y-101202380D01*
X177761904Y-101250000D01*
X177714285Y-101297619D01*
X177666666Y-101392857D01*
X177666666Y-101535714D01*
X177714285Y-101630952D01*
X177761904Y-101678571D01*
X177857142Y-101726190D01*
X178238095Y-101726190D01*
X176809523Y-101535714D02*
X176809523Y-102202380D01*
X177047619Y-101154761D02*
X177285714Y-101869047D01*
X176666666Y-101869047D01*
X160666666Y-102202380D02*
X161000000Y-101726190D01*
X161238095Y-102202380D02*
X161238095Y-101202380D01*
X160857142Y-101202380D01*
X160761904Y-101250000D01*
X160714285Y-101297619D01*
X160666666Y-101392857D01*
X160666666Y-101535714D01*
X160714285Y-101630952D01*
X160761904Y-101678571D01*
X160857142Y-101726190D01*
X161238095Y-101726190D01*
X159809523Y-101535714D02*
X159809523Y-102202380D01*
X160047619Y-101154761D02*
X160285714Y-101869047D01*
X159666666Y-101869047D01*
X143666666Y-102202380D02*
X144000000Y-101726190D01*
X144238095Y-102202380D02*
X144238095Y-101202380D01*
X143857142Y-101202380D01*
X143761904Y-101250000D01*
X143714285Y-101297619D01*
X143666666Y-101392857D01*
X143666666Y-101535714D01*
X143714285Y-101630952D01*
X143761904Y-101678571D01*
X143857142Y-101726190D01*
X144238095Y-101726190D01*
X142809523Y-101535714D02*
X142809523Y-102202380D01*
X143047619Y-101154761D02*
X143285714Y-101869047D01*
X142666666Y-101869047D01*
%TO.C,R3*%
X140166666Y-103202380D02*
X140500000Y-102726190D01*
X140738095Y-103202380D02*
X140738095Y-102202380D01*
X140357142Y-102202380D01*
X140261904Y-102250000D01*
X140214285Y-102297619D01*
X140166666Y-102392857D01*
X140166666Y-102535714D01*
X140214285Y-102630952D01*
X140261904Y-102678571D01*
X140357142Y-102726190D01*
X140738095Y-102726190D01*
X139833333Y-102202380D02*
X139214285Y-102202380D01*
X139547619Y-102583333D01*
X139404761Y-102583333D01*
X139309523Y-102630952D01*
X139261904Y-102678571D01*
X139214285Y-102773809D01*
X139214285Y-103011904D01*
X139261904Y-103107142D01*
X139309523Y-103154761D01*
X139404761Y-103202380D01*
X139690476Y-103202380D01*
X139785714Y-103154761D01*
X139833333Y-103107142D01*
%TO.C,R5*%
X138416666Y-100452380D02*
X138750000Y-99976190D01*
X138988095Y-100452380D02*
X138988095Y-99452380D01*
X138607142Y-99452380D01*
X138511904Y-99500000D01*
X138464285Y-99547619D01*
X138416666Y-99642857D01*
X138416666Y-99785714D01*
X138464285Y-99880952D01*
X138511904Y-99928571D01*
X138607142Y-99976190D01*
X138988095Y-99976190D01*
X137511904Y-99452380D02*
X137988095Y-99452380D01*
X138035714Y-99928571D01*
X137988095Y-99880952D01*
X137892857Y-99833333D01*
X137654761Y-99833333D01*
X137559523Y-99880952D01*
X137511904Y-99928571D01*
X137464285Y-100023809D01*
X137464285Y-100261904D01*
X137511904Y-100357142D01*
X137559523Y-100404761D01*
X137654761Y-100452380D01*
X137892857Y-100452380D01*
X137988095Y-100404761D01*
X138035714Y-100357142D01*
%TO.C,R1*%
X133166666Y-100452380D02*
X133500000Y-99976190D01*
X133738095Y-100452380D02*
X133738095Y-99452380D01*
X133357142Y-99452380D01*
X133261904Y-99500000D01*
X133214285Y-99547619D01*
X133166666Y-99642857D01*
X133166666Y-99785714D01*
X133214285Y-99880952D01*
X133261904Y-99928571D01*
X133357142Y-99976190D01*
X133738095Y-99976190D01*
X132214285Y-100452380D02*
X132785714Y-100452380D01*
X132500000Y-100452380D02*
X132500000Y-99452380D01*
X132595238Y-99595238D01*
X132690476Y-99690476D01*
X132785714Y-99738095D01*
%TO.C,D2*%
X136238095Y-100452380D02*
X136238095Y-99452380D01*
X136000000Y-99452380D01*
X135857142Y-99500000D01*
X135761904Y-99595238D01*
X135714285Y-99690476D01*
X135666666Y-99880952D01*
X135666666Y-100023809D01*
X135714285Y-100214285D01*
X135761904Y-100309523D01*
X135857142Y-100404761D01*
X136000000Y-100452380D01*
X136238095Y-100452380D01*
X135285714Y-99547619D02*
X135238095Y-99500000D01*
X135142857Y-99452380D01*
X134904761Y-99452380D01*
X134809523Y-99500000D01*
X134761904Y-99547619D01*
X134714285Y-99642857D01*
X134714285Y-99738095D01*
X134761904Y-99880952D01*
X135333333Y-100452380D01*
X134714285Y-100452380D01*
%TO.C,C3*%
X140916666Y-98357142D02*
X140964285Y-98404761D01*
X141107142Y-98452380D01*
X141202380Y-98452380D01*
X141345238Y-98404761D01*
X141440476Y-98309523D01*
X141488095Y-98214285D01*
X141535714Y-98023809D01*
X141535714Y-97880952D01*
X141488095Y-97690476D01*
X141440476Y-97595238D01*
X141345238Y-97500000D01*
X141202380Y-97452380D01*
X141107142Y-97452380D01*
X140964285Y-97500000D01*
X140916666Y-97547619D01*
X140583333Y-97452380D02*
X139964285Y-97452380D01*
X140297619Y-97833333D01*
X140154761Y-97833333D01*
X140059523Y-97880952D01*
X140011904Y-97928571D01*
X139964285Y-98023809D01*
X139964285Y-98261904D01*
X140011904Y-98357142D01*
X140059523Y-98404761D01*
X140154761Y-98452380D01*
X140440476Y-98452380D01*
X140535714Y-98404761D01*
X140583333Y-98357142D01*
%TO.C,C2*%
X140916666Y-106107142D02*
X140964285Y-106154761D01*
X141107142Y-106202380D01*
X141202380Y-106202380D01*
X141345238Y-106154761D01*
X141440476Y-106059523D01*
X141488095Y-105964285D01*
X141535714Y-105773809D01*
X141535714Y-105630952D01*
X141488095Y-105440476D01*
X141440476Y-105345238D01*
X141345238Y-105250000D01*
X141202380Y-105202380D01*
X141107142Y-105202380D01*
X140964285Y-105250000D01*
X140916666Y-105297619D01*
X140535714Y-105297619D02*
X140488095Y-105250000D01*
X140392857Y-105202380D01*
X140154761Y-105202380D01*
X140059523Y-105250000D01*
X140011904Y-105297619D01*
X139964285Y-105392857D01*
X139964285Y-105488095D01*
X140011904Y-105630952D01*
X140583333Y-106202380D01*
X139964285Y-106202380D01*
%TD*%
M02*
