%TF.GenerationSoftware,KiCad,Pcbnew,(5.1.6)-1*%
%TF.CreationDate,2021-08-16T20:18:48+02:00*%
%TF.ProjectId,proxima_panel,70726f78-696d-4615-9f70-616e656c2e6b,rev?*%
%TF.SameCoordinates,Original*%
%TF.FileFunction,Soldermask,Bot*%
%TF.FilePolarity,Negative*%
%FSLAX46Y46*%
G04 Gerber Fmt 4.6, Leading zero omitted, Abs format (unit mm)*
G04 Created by KiCad (PCBNEW (5.1.6)-1) date 2021-08-16 20:18:48*
%MOMM*%
%LPD*%
G01*
G04 APERTURE LIST*
%ADD10C,0.600000*%
%ADD11R,1.900000X1.900000*%
%ADD12C,1.900000*%
%ADD13R,1.800000X1.800000*%
%ADD14O,1.800000X1.800000*%
G04 APERTURE END LIST*
D10*
%TO.C,*%
X181250000Y-113250000D03*
X181250000Y-111750000D03*
X182750000Y-115500000D03*
X181250000Y-114750000D03*
X181250000Y-116250000D03*
X182750000Y-113250000D03*
X181250000Y-114000000D03*
X182750000Y-114750000D03*
X181250000Y-115500000D03*
X181250000Y-112500000D03*
X182750000Y-116250000D03*
X182750000Y-114000000D03*
X182750000Y-112500000D03*
X182750000Y-111750000D03*
%TD*%
%TO.C,C3*%
G36*
G01*
X178975000Y-109518750D02*
X178975000Y-110481250D01*
G75*
G02*
X178706250Y-110750000I-268750J0D01*
G01*
X178168750Y-110750000D01*
G75*
G02*
X177900000Y-110481250I0J268750D01*
G01*
X177900000Y-109518750D01*
G75*
G02*
X178168750Y-109250000I268750J0D01*
G01*
X178706250Y-109250000D01*
G75*
G02*
X178975000Y-109518750I0J-268750D01*
G01*
G37*
G36*
G01*
X177100000Y-109518750D02*
X177100000Y-110481250D01*
G75*
G02*
X176831250Y-110750000I-268750J0D01*
G01*
X176293750Y-110750000D01*
G75*
G02*
X176025000Y-110481250I0J268750D01*
G01*
X176025000Y-109518750D01*
G75*
G02*
X176293750Y-109250000I268750J0D01*
G01*
X176831250Y-109250000D01*
G75*
G02*
X177100000Y-109518750I0J-268750D01*
G01*
G37*
%TD*%
%TO.C,C3*%
G36*
G01*
X161975000Y-109518750D02*
X161975000Y-110481250D01*
G75*
G02*
X161706250Y-110750000I-268750J0D01*
G01*
X161168750Y-110750000D01*
G75*
G02*
X160900000Y-110481250I0J268750D01*
G01*
X160900000Y-109518750D01*
G75*
G02*
X161168750Y-109250000I268750J0D01*
G01*
X161706250Y-109250000D01*
G75*
G02*
X161975000Y-109518750I0J-268750D01*
G01*
G37*
G36*
G01*
X160100000Y-109518750D02*
X160100000Y-110481250D01*
G75*
G02*
X159831250Y-110750000I-268750J0D01*
G01*
X159293750Y-110750000D01*
G75*
G02*
X159025000Y-110481250I0J268750D01*
G01*
X159025000Y-109518750D01*
G75*
G02*
X159293750Y-109250000I268750J0D01*
G01*
X159831250Y-109250000D01*
G75*
G02*
X160100000Y-109518750I0J-268750D01*
G01*
G37*
%TD*%
%TO.C,C3*%
G36*
G01*
X144975000Y-109518750D02*
X144975000Y-110481250D01*
G75*
G02*
X144706250Y-110750000I-268750J0D01*
G01*
X144168750Y-110750000D01*
G75*
G02*
X143900000Y-110481250I0J268750D01*
G01*
X143900000Y-109518750D01*
G75*
G02*
X144168750Y-109250000I268750J0D01*
G01*
X144706250Y-109250000D01*
G75*
G02*
X144975000Y-109518750I0J-268750D01*
G01*
G37*
G36*
G01*
X143100000Y-109518750D02*
X143100000Y-110481250D01*
G75*
G02*
X142831250Y-110750000I-268750J0D01*
G01*
X142293750Y-110750000D01*
G75*
G02*
X142025000Y-110481250I0J268750D01*
G01*
X142025000Y-109518750D01*
G75*
G02*
X142293750Y-109250000I268750J0D01*
G01*
X142831250Y-109250000D01*
G75*
G02*
X143100000Y-109518750I0J-268750D01*
G01*
G37*
%TD*%
%TO.C,C3*%
G36*
G01*
X178975000Y-97518750D02*
X178975000Y-98481250D01*
G75*
G02*
X178706250Y-98750000I-268750J0D01*
G01*
X178168750Y-98750000D01*
G75*
G02*
X177900000Y-98481250I0J268750D01*
G01*
X177900000Y-97518750D01*
G75*
G02*
X178168750Y-97250000I268750J0D01*
G01*
X178706250Y-97250000D01*
G75*
G02*
X178975000Y-97518750I0J-268750D01*
G01*
G37*
G36*
G01*
X177100000Y-97518750D02*
X177100000Y-98481250D01*
G75*
G02*
X176831250Y-98750000I-268750J0D01*
G01*
X176293750Y-98750000D01*
G75*
G02*
X176025000Y-98481250I0J268750D01*
G01*
X176025000Y-97518750D01*
G75*
G02*
X176293750Y-97250000I268750J0D01*
G01*
X176831250Y-97250000D01*
G75*
G02*
X177100000Y-97518750I0J-268750D01*
G01*
G37*
%TD*%
%TO.C,C3*%
G36*
G01*
X161975000Y-97518750D02*
X161975000Y-98481250D01*
G75*
G02*
X161706250Y-98750000I-268750J0D01*
G01*
X161168750Y-98750000D01*
G75*
G02*
X160900000Y-98481250I0J268750D01*
G01*
X160900000Y-97518750D01*
G75*
G02*
X161168750Y-97250000I268750J0D01*
G01*
X161706250Y-97250000D01*
G75*
G02*
X161975000Y-97518750I0J-268750D01*
G01*
G37*
G36*
G01*
X160100000Y-97518750D02*
X160100000Y-98481250D01*
G75*
G02*
X159831250Y-98750000I-268750J0D01*
G01*
X159293750Y-98750000D01*
G75*
G02*
X159025000Y-98481250I0J268750D01*
G01*
X159025000Y-97518750D01*
G75*
G02*
X159293750Y-97250000I268750J0D01*
G01*
X159831250Y-97250000D01*
G75*
G02*
X160100000Y-97518750I0J-268750D01*
G01*
G37*
%TD*%
%TO.C,D2*%
G36*
G01*
X169981250Y-115725000D02*
X169018750Y-115725000D01*
G75*
G02*
X168750000Y-115456250I0J268750D01*
G01*
X168750000Y-114918750D01*
G75*
G02*
X169018750Y-114650000I268750J0D01*
G01*
X169981250Y-114650000D01*
G75*
G02*
X170250000Y-114918750I0J-268750D01*
G01*
X170250000Y-115456250D01*
G75*
G02*
X169981250Y-115725000I-268750J0D01*
G01*
G37*
G36*
G01*
X169981250Y-113850000D02*
X169018750Y-113850000D01*
G75*
G02*
X168750000Y-113581250I0J268750D01*
G01*
X168750000Y-113043750D01*
G75*
G02*
X169018750Y-112775000I268750J0D01*
G01*
X169981250Y-112775000D01*
G75*
G02*
X170250000Y-113043750I0J-268750D01*
G01*
X170250000Y-113581250D01*
G75*
G02*
X169981250Y-113850000I-268750J0D01*
G01*
G37*
%TD*%
%TO.C,D2*%
G36*
G01*
X152981250Y-115725000D02*
X152018750Y-115725000D01*
G75*
G02*
X151750000Y-115456250I0J268750D01*
G01*
X151750000Y-114918750D01*
G75*
G02*
X152018750Y-114650000I268750J0D01*
G01*
X152981250Y-114650000D01*
G75*
G02*
X153250000Y-114918750I0J-268750D01*
G01*
X153250000Y-115456250D01*
G75*
G02*
X152981250Y-115725000I-268750J0D01*
G01*
G37*
G36*
G01*
X152981250Y-113850000D02*
X152018750Y-113850000D01*
G75*
G02*
X151750000Y-113581250I0J268750D01*
G01*
X151750000Y-113043750D01*
G75*
G02*
X152018750Y-112775000I268750J0D01*
G01*
X152981250Y-112775000D01*
G75*
G02*
X153250000Y-113043750I0J-268750D01*
G01*
X153250000Y-113581250D01*
G75*
G02*
X152981250Y-113850000I-268750J0D01*
G01*
G37*
%TD*%
%TO.C,D2*%
G36*
G01*
X135981250Y-115725000D02*
X135018750Y-115725000D01*
G75*
G02*
X134750000Y-115456250I0J268750D01*
G01*
X134750000Y-114918750D01*
G75*
G02*
X135018750Y-114650000I268750J0D01*
G01*
X135981250Y-114650000D01*
G75*
G02*
X136250000Y-114918750I0J-268750D01*
G01*
X136250000Y-115456250D01*
G75*
G02*
X135981250Y-115725000I-268750J0D01*
G01*
G37*
G36*
G01*
X135981250Y-113850000D02*
X135018750Y-113850000D01*
G75*
G02*
X134750000Y-113581250I0J268750D01*
G01*
X134750000Y-113043750D01*
G75*
G02*
X135018750Y-112775000I268750J0D01*
G01*
X135981250Y-112775000D01*
G75*
G02*
X136250000Y-113043750I0J-268750D01*
G01*
X136250000Y-113581250D01*
G75*
G02*
X135981250Y-113850000I-268750J0D01*
G01*
G37*
%TD*%
%TO.C,D2*%
G36*
G01*
X169981250Y-103725000D02*
X169018750Y-103725000D01*
G75*
G02*
X168750000Y-103456250I0J268750D01*
G01*
X168750000Y-102918750D01*
G75*
G02*
X169018750Y-102650000I268750J0D01*
G01*
X169981250Y-102650000D01*
G75*
G02*
X170250000Y-102918750I0J-268750D01*
G01*
X170250000Y-103456250D01*
G75*
G02*
X169981250Y-103725000I-268750J0D01*
G01*
G37*
G36*
G01*
X169981250Y-101850000D02*
X169018750Y-101850000D01*
G75*
G02*
X168750000Y-101581250I0J268750D01*
G01*
X168750000Y-101043750D01*
G75*
G02*
X169018750Y-100775000I268750J0D01*
G01*
X169981250Y-100775000D01*
G75*
G02*
X170250000Y-101043750I0J-268750D01*
G01*
X170250000Y-101581250D01*
G75*
G02*
X169981250Y-101850000I-268750J0D01*
G01*
G37*
%TD*%
%TO.C,D2*%
G36*
G01*
X152981250Y-103725000D02*
X152018750Y-103725000D01*
G75*
G02*
X151750000Y-103456250I0J268750D01*
G01*
X151750000Y-102918750D01*
G75*
G02*
X152018750Y-102650000I268750J0D01*
G01*
X152981250Y-102650000D01*
G75*
G02*
X153250000Y-102918750I0J-268750D01*
G01*
X153250000Y-103456250D01*
G75*
G02*
X152981250Y-103725000I-268750J0D01*
G01*
G37*
G36*
G01*
X152981250Y-101850000D02*
X152018750Y-101850000D01*
G75*
G02*
X151750000Y-101581250I0J268750D01*
G01*
X151750000Y-101043750D01*
G75*
G02*
X152018750Y-100775000I268750J0D01*
G01*
X152981250Y-100775000D01*
G75*
G02*
X153250000Y-101043750I0J-268750D01*
G01*
X153250000Y-101581250D01*
G75*
G02*
X152981250Y-101850000I-268750J0D01*
G01*
G37*
%TD*%
%TO.C,R1*%
G36*
G01*
X167481250Y-115725000D02*
X166518750Y-115725000D01*
G75*
G02*
X166250000Y-115456250I0J268750D01*
G01*
X166250000Y-114918750D01*
G75*
G02*
X166518750Y-114650000I268750J0D01*
G01*
X167481250Y-114650000D01*
G75*
G02*
X167750000Y-114918750I0J-268750D01*
G01*
X167750000Y-115456250D01*
G75*
G02*
X167481250Y-115725000I-268750J0D01*
G01*
G37*
G36*
G01*
X167481250Y-113850000D02*
X166518750Y-113850000D01*
G75*
G02*
X166250000Y-113581250I0J268750D01*
G01*
X166250000Y-113043750D01*
G75*
G02*
X166518750Y-112775000I268750J0D01*
G01*
X167481250Y-112775000D01*
G75*
G02*
X167750000Y-113043750I0J-268750D01*
G01*
X167750000Y-113581250D01*
G75*
G02*
X167481250Y-113850000I-268750J0D01*
G01*
G37*
%TD*%
%TO.C,R1*%
G36*
G01*
X150481250Y-115725000D02*
X149518750Y-115725000D01*
G75*
G02*
X149250000Y-115456250I0J268750D01*
G01*
X149250000Y-114918750D01*
G75*
G02*
X149518750Y-114650000I268750J0D01*
G01*
X150481250Y-114650000D01*
G75*
G02*
X150750000Y-114918750I0J-268750D01*
G01*
X150750000Y-115456250D01*
G75*
G02*
X150481250Y-115725000I-268750J0D01*
G01*
G37*
G36*
G01*
X150481250Y-113850000D02*
X149518750Y-113850000D01*
G75*
G02*
X149250000Y-113581250I0J268750D01*
G01*
X149250000Y-113043750D01*
G75*
G02*
X149518750Y-112775000I268750J0D01*
G01*
X150481250Y-112775000D01*
G75*
G02*
X150750000Y-113043750I0J-268750D01*
G01*
X150750000Y-113581250D01*
G75*
G02*
X150481250Y-113850000I-268750J0D01*
G01*
G37*
%TD*%
%TO.C,R1*%
G36*
G01*
X133481250Y-115725000D02*
X132518750Y-115725000D01*
G75*
G02*
X132250000Y-115456250I0J268750D01*
G01*
X132250000Y-114918750D01*
G75*
G02*
X132518750Y-114650000I268750J0D01*
G01*
X133481250Y-114650000D01*
G75*
G02*
X133750000Y-114918750I0J-268750D01*
G01*
X133750000Y-115456250D01*
G75*
G02*
X133481250Y-115725000I-268750J0D01*
G01*
G37*
G36*
G01*
X133481250Y-113850000D02*
X132518750Y-113850000D01*
G75*
G02*
X132250000Y-113581250I0J268750D01*
G01*
X132250000Y-113043750D01*
G75*
G02*
X132518750Y-112775000I268750J0D01*
G01*
X133481250Y-112775000D01*
G75*
G02*
X133750000Y-113043750I0J-268750D01*
G01*
X133750000Y-113581250D01*
G75*
G02*
X133481250Y-113850000I-268750J0D01*
G01*
G37*
%TD*%
%TO.C,R1*%
G36*
G01*
X167481250Y-103725000D02*
X166518750Y-103725000D01*
G75*
G02*
X166250000Y-103456250I0J268750D01*
G01*
X166250000Y-102918750D01*
G75*
G02*
X166518750Y-102650000I268750J0D01*
G01*
X167481250Y-102650000D01*
G75*
G02*
X167750000Y-102918750I0J-268750D01*
G01*
X167750000Y-103456250D01*
G75*
G02*
X167481250Y-103725000I-268750J0D01*
G01*
G37*
G36*
G01*
X167481250Y-101850000D02*
X166518750Y-101850000D01*
G75*
G02*
X166250000Y-101581250I0J268750D01*
G01*
X166250000Y-101043750D01*
G75*
G02*
X166518750Y-100775000I268750J0D01*
G01*
X167481250Y-100775000D01*
G75*
G02*
X167750000Y-101043750I0J-268750D01*
G01*
X167750000Y-101581250D01*
G75*
G02*
X167481250Y-101850000I-268750J0D01*
G01*
G37*
%TD*%
%TO.C,R1*%
G36*
G01*
X150481250Y-103725000D02*
X149518750Y-103725000D01*
G75*
G02*
X149250000Y-103456250I0J268750D01*
G01*
X149250000Y-102918750D01*
G75*
G02*
X149518750Y-102650000I268750J0D01*
G01*
X150481250Y-102650000D01*
G75*
G02*
X150750000Y-102918750I0J-268750D01*
G01*
X150750000Y-103456250D01*
G75*
G02*
X150481250Y-103725000I-268750J0D01*
G01*
G37*
G36*
G01*
X150481250Y-101850000D02*
X149518750Y-101850000D01*
G75*
G02*
X149250000Y-101581250I0J268750D01*
G01*
X149250000Y-101043750D01*
G75*
G02*
X149518750Y-100775000I268750J0D01*
G01*
X150481250Y-100775000D01*
G75*
G02*
X150750000Y-101043750I0J-268750D01*
G01*
X150750000Y-101581250D01*
G75*
G02*
X150481250Y-101850000I-268750J0D01*
G01*
G37*
%TD*%
%TO.C,R5*%
G36*
G01*
X172731250Y-113850000D02*
X171768750Y-113850000D01*
G75*
G02*
X171500000Y-113581250I0J268750D01*
G01*
X171500000Y-113043750D01*
G75*
G02*
X171768750Y-112775000I268750J0D01*
G01*
X172731250Y-112775000D01*
G75*
G02*
X173000000Y-113043750I0J-268750D01*
G01*
X173000000Y-113581250D01*
G75*
G02*
X172731250Y-113850000I-268750J0D01*
G01*
G37*
G36*
G01*
X172731250Y-115725000D02*
X171768750Y-115725000D01*
G75*
G02*
X171500000Y-115456250I0J268750D01*
G01*
X171500000Y-114918750D01*
G75*
G02*
X171768750Y-114650000I268750J0D01*
G01*
X172731250Y-114650000D01*
G75*
G02*
X173000000Y-114918750I0J-268750D01*
G01*
X173000000Y-115456250D01*
G75*
G02*
X172731250Y-115725000I-268750J0D01*
G01*
G37*
%TD*%
%TO.C,R5*%
G36*
G01*
X155731250Y-113850000D02*
X154768750Y-113850000D01*
G75*
G02*
X154500000Y-113581250I0J268750D01*
G01*
X154500000Y-113043750D01*
G75*
G02*
X154768750Y-112775000I268750J0D01*
G01*
X155731250Y-112775000D01*
G75*
G02*
X156000000Y-113043750I0J-268750D01*
G01*
X156000000Y-113581250D01*
G75*
G02*
X155731250Y-113850000I-268750J0D01*
G01*
G37*
G36*
G01*
X155731250Y-115725000D02*
X154768750Y-115725000D01*
G75*
G02*
X154500000Y-115456250I0J268750D01*
G01*
X154500000Y-114918750D01*
G75*
G02*
X154768750Y-114650000I268750J0D01*
G01*
X155731250Y-114650000D01*
G75*
G02*
X156000000Y-114918750I0J-268750D01*
G01*
X156000000Y-115456250D01*
G75*
G02*
X155731250Y-115725000I-268750J0D01*
G01*
G37*
%TD*%
%TO.C,R5*%
G36*
G01*
X138731250Y-113850000D02*
X137768750Y-113850000D01*
G75*
G02*
X137500000Y-113581250I0J268750D01*
G01*
X137500000Y-113043750D01*
G75*
G02*
X137768750Y-112775000I268750J0D01*
G01*
X138731250Y-112775000D01*
G75*
G02*
X139000000Y-113043750I0J-268750D01*
G01*
X139000000Y-113581250D01*
G75*
G02*
X138731250Y-113850000I-268750J0D01*
G01*
G37*
G36*
G01*
X138731250Y-115725000D02*
X137768750Y-115725000D01*
G75*
G02*
X137500000Y-115456250I0J268750D01*
G01*
X137500000Y-114918750D01*
G75*
G02*
X137768750Y-114650000I268750J0D01*
G01*
X138731250Y-114650000D01*
G75*
G02*
X139000000Y-114918750I0J-268750D01*
G01*
X139000000Y-115456250D01*
G75*
G02*
X138731250Y-115725000I-268750J0D01*
G01*
G37*
%TD*%
%TO.C,R5*%
G36*
G01*
X172731250Y-101850000D02*
X171768750Y-101850000D01*
G75*
G02*
X171500000Y-101581250I0J268750D01*
G01*
X171500000Y-101043750D01*
G75*
G02*
X171768750Y-100775000I268750J0D01*
G01*
X172731250Y-100775000D01*
G75*
G02*
X173000000Y-101043750I0J-268750D01*
G01*
X173000000Y-101581250D01*
G75*
G02*
X172731250Y-101850000I-268750J0D01*
G01*
G37*
G36*
G01*
X172731250Y-103725000D02*
X171768750Y-103725000D01*
G75*
G02*
X171500000Y-103456250I0J268750D01*
G01*
X171500000Y-102918750D01*
G75*
G02*
X171768750Y-102650000I268750J0D01*
G01*
X172731250Y-102650000D01*
G75*
G02*
X173000000Y-102918750I0J-268750D01*
G01*
X173000000Y-103456250D01*
G75*
G02*
X172731250Y-103725000I-268750J0D01*
G01*
G37*
%TD*%
%TO.C,R5*%
G36*
G01*
X155731250Y-101850000D02*
X154768750Y-101850000D01*
G75*
G02*
X154500000Y-101581250I0J268750D01*
G01*
X154500000Y-101043750D01*
G75*
G02*
X154768750Y-100775000I268750J0D01*
G01*
X155731250Y-100775000D01*
G75*
G02*
X156000000Y-101043750I0J-268750D01*
G01*
X156000000Y-101581250D01*
G75*
G02*
X155731250Y-101850000I-268750J0D01*
G01*
G37*
G36*
G01*
X155731250Y-103725000D02*
X154768750Y-103725000D01*
G75*
G02*
X154500000Y-103456250I0J268750D01*
G01*
X154500000Y-102918750D01*
G75*
G02*
X154768750Y-102650000I268750J0D01*
G01*
X155731250Y-102650000D01*
G75*
G02*
X156000000Y-102918750I0J-268750D01*
G01*
X156000000Y-103456250D01*
G75*
G02*
X155731250Y-103725000I-268750J0D01*
G01*
G37*
%TD*%
D11*
%TO.C,D1*%
X178500000Y-115350000D03*
D12*
X175960000Y-115350000D03*
%TD*%
D11*
%TO.C,D1*%
X161500000Y-115350000D03*
D12*
X158960000Y-115350000D03*
%TD*%
D11*
%TO.C,D1*%
X144500000Y-115350000D03*
D12*
X141960000Y-115350000D03*
%TD*%
D11*
%TO.C,D1*%
X178500000Y-103350000D03*
D12*
X175960000Y-103350000D03*
%TD*%
D11*
%TO.C,D1*%
X161500000Y-103350000D03*
D12*
X158960000Y-103350000D03*
%TD*%
%TO.C,C2*%
G36*
G01*
X178725000Y-117268750D02*
X178725000Y-118231250D01*
G75*
G02*
X178456250Y-118500000I-268750J0D01*
G01*
X177918750Y-118500000D01*
G75*
G02*
X177650000Y-118231250I0J268750D01*
G01*
X177650000Y-117268750D01*
G75*
G02*
X177918750Y-117000000I268750J0D01*
G01*
X178456250Y-117000000D01*
G75*
G02*
X178725000Y-117268750I0J-268750D01*
G01*
G37*
G36*
G01*
X176850000Y-117268750D02*
X176850000Y-118231250D01*
G75*
G02*
X176581250Y-118500000I-268750J0D01*
G01*
X176043750Y-118500000D01*
G75*
G02*
X175775000Y-118231250I0J268750D01*
G01*
X175775000Y-117268750D01*
G75*
G02*
X176043750Y-117000000I268750J0D01*
G01*
X176581250Y-117000000D01*
G75*
G02*
X176850000Y-117268750I0J-268750D01*
G01*
G37*
%TD*%
%TO.C,C2*%
G36*
G01*
X161725000Y-117268750D02*
X161725000Y-118231250D01*
G75*
G02*
X161456250Y-118500000I-268750J0D01*
G01*
X160918750Y-118500000D01*
G75*
G02*
X160650000Y-118231250I0J268750D01*
G01*
X160650000Y-117268750D01*
G75*
G02*
X160918750Y-117000000I268750J0D01*
G01*
X161456250Y-117000000D01*
G75*
G02*
X161725000Y-117268750I0J-268750D01*
G01*
G37*
G36*
G01*
X159850000Y-117268750D02*
X159850000Y-118231250D01*
G75*
G02*
X159581250Y-118500000I-268750J0D01*
G01*
X159043750Y-118500000D01*
G75*
G02*
X158775000Y-118231250I0J268750D01*
G01*
X158775000Y-117268750D01*
G75*
G02*
X159043750Y-117000000I268750J0D01*
G01*
X159581250Y-117000000D01*
G75*
G02*
X159850000Y-117268750I0J-268750D01*
G01*
G37*
%TD*%
%TO.C,C2*%
G36*
G01*
X144725000Y-117268750D02*
X144725000Y-118231250D01*
G75*
G02*
X144456250Y-118500000I-268750J0D01*
G01*
X143918750Y-118500000D01*
G75*
G02*
X143650000Y-118231250I0J268750D01*
G01*
X143650000Y-117268750D01*
G75*
G02*
X143918750Y-117000000I268750J0D01*
G01*
X144456250Y-117000000D01*
G75*
G02*
X144725000Y-117268750I0J-268750D01*
G01*
G37*
G36*
G01*
X142850000Y-117268750D02*
X142850000Y-118231250D01*
G75*
G02*
X142581250Y-118500000I-268750J0D01*
G01*
X142043750Y-118500000D01*
G75*
G02*
X141775000Y-118231250I0J268750D01*
G01*
X141775000Y-117268750D01*
G75*
G02*
X142043750Y-117000000I268750J0D01*
G01*
X142581250Y-117000000D01*
G75*
G02*
X142850000Y-117268750I0J-268750D01*
G01*
G37*
%TD*%
%TO.C,C2*%
G36*
G01*
X178725000Y-105268750D02*
X178725000Y-106231250D01*
G75*
G02*
X178456250Y-106500000I-268750J0D01*
G01*
X177918750Y-106500000D01*
G75*
G02*
X177650000Y-106231250I0J268750D01*
G01*
X177650000Y-105268750D01*
G75*
G02*
X177918750Y-105000000I268750J0D01*
G01*
X178456250Y-105000000D01*
G75*
G02*
X178725000Y-105268750I0J-268750D01*
G01*
G37*
G36*
G01*
X176850000Y-105268750D02*
X176850000Y-106231250D01*
G75*
G02*
X176581250Y-106500000I-268750J0D01*
G01*
X176043750Y-106500000D01*
G75*
G02*
X175775000Y-106231250I0J268750D01*
G01*
X175775000Y-105268750D01*
G75*
G02*
X176043750Y-105000000I268750J0D01*
G01*
X176581250Y-105000000D01*
G75*
G02*
X176850000Y-105268750I0J-268750D01*
G01*
G37*
%TD*%
%TO.C,C2*%
G36*
G01*
X161725000Y-105268750D02*
X161725000Y-106231250D01*
G75*
G02*
X161456250Y-106500000I-268750J0D01*
G01*
X160918750Y-106500000D01*
G75*
G02*
X160650000Y-106231250I0J268750D01*
G01*
X160650000Y-105268750D01*
G75*
G02*
X160918750Y-105000000I268750J0D01*
G01*
X161456250Y-105000000D01*
G75*
G02*
X161725000Y-105268750I0J-268750D01*
G01*
G37*
G36*
G01*
X159850000Y-105268750D02*
X159850000Y-106231250D01*
G75*
G02*
X159581250Y-106500000I-268750J0D01*
G01*
X159043750Y-106500000D01*
G75*
G02*
X158775000Y-106231250I0J268750D01*
G01*
X158775000Y-105268750D01*
G75*
G02*
X159043750Y-105000000I268750J0D01*
G01*
X159581250Y-105000000D01*
G75*
G02*
X159850000Y-105268750I0J-268750D01*
G01*
G37*
%TD*%
%TO.C,R3*%
G36*
G01*
X175231250Y-113725000D02*
X174268750Y-113725000D01*
G75*
G02*
X174000000Y-113456250I0J268750D01*
G01*
X174000000Y-112918750D01*
G75*
G02*
X174268750Y-112650000I268750J0D01*
G01*
X175231250Y-112650000D01*
G75*
G02*
X175500000Y-112918750I0J-268750D01*
G01*
X175500000Y-113456250D01*
G75*
G02*
X175231250Y-113725000I-268750J0D01*
G01*
G37*
G36*
G01*
X175231250Y-111850000D02*
X174268750Y-111850000D01*
G75*
G02*
X174000000Y-111581250I0J268750D01*
G01*
X174000000Y-111043750D01*
G75*
G02*
X174268750Y-110775000I268750J0D01*
G01*
X175231250Y-110775000D01*
G75*
G02*
X175500000Y-111043750I0J-268750D01*
G01*
X175500000Y-111581250D01*
G75*
G02*
X175231250Y-111850000I-268750J0D01*
G01*
G37*
%TD*%
%TO.C,R3*%
G36*
G01*
X158231250Y-113725000D02*
X157268750Y-113725000D01*
G75*
G02*
X157000000Y-113456250I0J268750D01*
G01*
X157000000Y-112918750D01*
G75*
G02*
X157268750Y-112650000I268750J0D01*
G01*
X158231250Y-112650000D01*
G75*
G02*
X158500000Y-112918750I0J-268750D01*
G01*
X158500000Y-113456250D01*
G75*
G02*
X158231250Y-113725000I-268750J0D01*
G01*
G37*
G36*
G01*
X158231250Y-111850000D02*
X157268750Y-111850000D01*
G75*
G02*
X157000000Y-111581250I0J268750D01*
G01*
X157000000Y-111043750D01*
G75*
G02*
X157268750Y-110775000I268750J0D01*
G01*
X158231250Y-110775000D01*
G75*
G02*
X158500000Y-111043750I0J-268750D01*
G01*
X158500000Y-111581250D01*
G75*
G02*
X158231250Y-111850000I-268750J0D01*
G01*
G37*
%TD*%
%TO.C,R3*%
G36*
G01*
X141231250Y-113725000D02*
X140268750Y-113725000D01*
G75*
G02*
X140000000Y-113456250I0J268750D01*
G01*
X140000000Y-112918750D01*
G75*
G02*
X140268750Y-112650000I268750J0D01*
G01*
X141231250Y-112650000D01*
G75*
G02*
X141500000Y-112918750I0J-268750D01*
G01*
X141500000Y-113456250D01*
G75*
G02*
X141231250Y-113725000I-268750J0D01*
G01*
G37*
G36*
G01*
X141231250Y-111850000D02*
X140268750Y-111850000D01*
G75*
G02*
X140000000Y-111581250I0J268750D01*
G01*
X140000000Y-111043750D01*
G75*
G02*
X140268750Y-110775000I268750J0D01*
G01*
X141231250Y-110775000D01*
G75*
G02*
X141500000Y-111043750I0J-268750D01*
G01*
X141500000Y-111581250D01*
G75*
G02*
X141231250Y-111850000I-268750J0D01*
G01*
G37*
%TD*%
%TO.C,R3*%
G36*
G01*
X175231250Y-101725000D02*
X174268750Y-101725000D01*
G75*
G02*
X174000000Y-101456250I0J268750D01*
G01*
X174000000Y-100918750D01*
G75*
G02*
X174268750Y-100650000I268750J0D01*
G01*
X175231250Y-100650000D01*
G75*
G02*
X175500000Y-100918750I0J-268750D01*
G01*
X175500000Y-101456250D01*
G75*
G02*
X175231250Y-101725000I-268750J0D01*
G01*
G37*
G36*
G01*
X175231250Y-99850000D02*
X174268750Y-99850000D01*
G75*
G02*
X174000000Y-99581250I0J268750D01*
G01*
X174000000Y-99043750D01*
G75*
G02*
X174268750Y-98775000I268750J0D01*
G01*
X175231250Y-98775000D01*
G75*
G02*
X175500000Y-99043750I0J-268750D01*
G01*
X175500000Y-99581250D01*
G75*
G02*
X175231250Y-99850000I-268750J0D01*
G01*
G37*
%TD*%
%TO.C,R3*%
G36*
G01*
X158231250Y-101725000D02*
X157268750Y-101725000D01*
G75*
G02*
X157000000Y-101456250I0J268750D01*
G01*
X157000000Y-100918750D01*
G75*
G02*
X157268750Y-100650000I268750J0D01*
G01*
X158231250Y-100650000D01*
G75*
G02*
X158500000Y-100918750I0J-268750D01*
G01*
X158500000Y-101456250D01*
G75*
G02*
X158231250Y-101725000I-268750J0D01*
G01*
G37*
G36*
G01*
X158231250Y-99850000D02*
X157268750Y-99850000D01*
G75*
G02*
X157000000Y-99581250I0J268750D01*
G01*
X157000000Y-99043750D01*
G75*
G02*
X157268750Y-98775000I268750J0D01*
G01*
X158231250Y-98775000D01*
G75*
G02*
X158500000Y-99043750I0J-268750D01*
G01*
X158500000Y-99581250D01*
G75*
G02*
X158231250Y-99850000I-268750J0D01*
G01*
G37*
%TD*%
%TO.C,R4*%
G36*
G01*
X176025000Y-112731250D02*
X176025000Y-111768750D01*
G75*
G02*
X176293750Y-111500000I268750J0D01*
G01*
X176831250Y-111500000D01*
G75*
G02*
X177100000Y-111768750I0J-268750D01*
G01*
X177100000Y-112731250D01*
G75*
G02*
X176831250Y-113000000I-268750J0D01*
G01*
X176293750Y-113000000D01*
G75*
G02*
X176025000Y-112731250I0J268750D01*
G01*
G37*
G36*
G01*
X177900000Y-112731250D02*
X177900000Y-111768750D01*
G75*
G02*
X178168750Y-111500000I268750J0D01*
G01*
X178706250Y-111500000D01*
G75*
G02*
X178975000Y-111768750I0J-268750D01*
G01*
X178975000Y-112731250D01*
G75*
G02*
X178706250Y-113000000I-268750J0D01*
G01*
X178168750Y-113000000D01*
G75*
G02*
X177900000Y-112731250I0J268750D01*
G01*
G37*
%TD*%
%TO.C,R4*%
G36*
G01*
X159025000Y-112731250D02*
X159025000Y-111768750D01*
G75*
G02*
X159293750Y-111500000I268750J0D01*
G01*
X159831250Y-111500000D01*
G75*
G02*
X160100000Y-111768750I0J-268750D01*
G01*
X160100000Y-112731250D01*
G75*
G02*
X159831250Y-113000000I-268750J0D01*
G01*
X159293750Y-113000000D01*
G75*
G02*
X159025000Y-112731250I0J268750D01*
G01*
G37*
G36*
G01*
X160900000Y-112731250D02*
X160900000Y-111768750D01*
G75*
G02*
X161168750Y-111500000I268750J0D01*
G01*
X161706250Y-111500000D01*
G75*
G02*
X161975000Y-111768750I0J-268750D01*
G01*
X161975000Y-112731250D01*
G75*
G02*
X161706250Y-113000000I-268750J0D01*
G01*
X161168750Y-113000000D01*
G75*
G02*
X160900000Y-112731250I0J268750D01*
G01*
G37*
%TD*%
%TO.C,R4*%
G36*
G01*
X142025000Y-112731250D02*
X142025000Y-111768750D01*
G75*
G02*
X142293750Y-111500000I268750J0D01*
G01*
X142831250Y-111500000D01*
G75*
G02*
X143100000Y-111768750I0J-268750D01*
G01*
X143100000Y-112731250D01*
G75*
G02*
X142831250Y-113000000I-268750J0D01*
G01*
X142293750Y-113000000D01*
G75*
G02*
X142025000Y-112731250I0J268750D01*
G01*
G37*
G36*
G01*
X143900000Y-112731250D02*
X143900000Y-111768750D01*
G75*
G02*
X144168750Y-111500000I268750J0D01*
G01*
X144706250Y-111500000D01*
G75*
G02*
X144975000Y-111768750I0J-268750D01*
G01*
X144975000Y-112731250D01*
G75*
G02*
X144706250Y-113000000I-268750J0D01*
G01*
X144168750Y-113000000D01*
G75*
G02*
X143900000Y-112731250I0J268750D01*
G01*
G37*
%TD*%
%TO.C,R4*%
G36*
G01*
X176025000Y-100731250D02*
X176025000Y-99768750D01*
G75*
G02*
X176293750Y-99500000I268750J0D01*
G01*
X176831250Y-99500000D01*
G75*
G02*
X177100000Y-99768750I0J-268750D01*
G01*
X177100000Y-100731250D01*
G75*
G02*
X176831250Y-101000000I-268750J0D01*
G01*
X176293750Y-101000000D01*
G75*
G02*
X176025000Y-100731250I0J268750D01*
G01*
G37*
G36*
G01*
X177900000Y-100731250D02*
X177900000Y-99768750D01*
G75*
G02*
X178168750Y-99500000I268750J0D01*
G01*
X178706250Y-99500000D01*
G75*
G02*
X178975000Y-99768750I0J-268750D01*
G01*
X178975000Y-100731250D01*
G75*
G02*
X178706250Y-101000000I-268750J0D01*
G01*
X178168750Y-101000000D01*
G75*
G02*
X177900000Y-100731250I0J268750D01*
G01*
G37*
%TD*%
%TO.C,R4*%
G36*
G01*
X159025000Y-100731250D02*
X159025000Y-99768750D01*
G75*
G02*
X159293750Y-99500000I268750J0D01*
G01*
X159831250Y-99500000D01*
G75*
G02*
X160100000Y-99768750I0J-268750D01*
G01*
X160100000Y-100731250D01*
G75*
G02*
X159831250Y-101000000I-268750J0D01*
G01*
X159293750Y-101000000D01*
G75*
G02*
X159025000Y-100731250I0J268750D01*
G01*
G37*
G36*
G01*
X160900000Y-100731250D02*
X160900000Y-99768750D01*
G75*
G02*
X161168750Y-99500000I268750J0D01*
G01*
X161706250Y-99500000D01*
G75*
G02*
X161975000Y-99768750I0J-268750D01*
G01*
X161975000Y-100731250D01*
G75*
G02*
X161706250Y-101000000I-268750J0D01*
G01*
X161168750Y-101000000D01*
G75*
G02*
X160900000Y-100731250I0J268750D01*
G01*
G37*
%TD*%
%TO.C,U1*%
G36*
G01*
X166550000Y-118187800D02*
X166550000Y-116812200D01*
G75*
G02*
X166812200Y-116550000I262200J0D01*
G01*
X168187800Y-116550000D01*
G75*
G02*
X168450000Y-116812200I0J-262200D01*
G01*
X168450000Y-118187800D01*
G75*
G02*
X168187800Y-118450000I-262200J0D01*
G01*
X166812200Y-118450000D01*
G75*
G02*
X166550000Y-118187800I0J262200D01*
G01*
G37*
X170040000Y-117500000D03*
X172580000Y-117500000D03*
%TD*%
%TO.C,U1*%
G36*
G01*
X149550000Y-118187800D02*
X149550000Y-116812200D01*
G75*
G02*
X149812200Y-116550000I262200J0D01*
G01*
X151187800Y-116550000D01*
G75*
G02*
X151450000Y-116812200I0J-262200D01*
G01*
X151450000Y-118187800D01*
G75*
G02*
X151187800Y-118450000I-262200J0D01*
G01*
X149812200Y-118450000D01*
G75*
G02*
X149550000Y-118187800I0J262200D01*
G01*
G37*
X153040000Y-117500000D03*
X155580000Y-117500000D03*
%TD*%
%TO.C,U1*%
G36*
G01*
X132550000Y-118187800D02*
X132550000Y-116812200D01*
G75*
G02*
X132812200Y-116550000I262200J0D01*
G01*
X134187800Y-116550000D01*
G75*
G02*
X134450000Y-116812200I0J-262200D01*
G01*
X134450000Y-118187800D01*
G75*
G02*
X134187800Y-118450000I-262200J0D01*
G01*
X132812200Y-118450000D01*
G75*
G02*
X132550000Y-118187800I0J262200D01*
G01*
G37*
X136040000Y-117500000D03*
X138580000Y-117500000D03*
%TD*%
%TO.C,U1*%
G36*
G01*
X166550000Y-106187800D02*
X166550000Y-104812200D01*
G75*
G02*
X166812200Y-104550000I262200J0D01*
G01*
X168187800Y-104550000D01*
G75*
G02*
X168450000Y-104812200I0J-262200D01*
G01*
X168450000Y-106187800D01*
G75*
G02*
X168187800Y-106450000I-262200J0D01*
G01*
X166812200Y-106450000D01*
G75*
G02*
X166550000Y-106187800I0J262200D01*
G01*
G37*
X170040000Y-105500000D03*
X172580000Y-105500000D03*
%TD*%
%TO.C,U1*%
G36*
G01*
X149550000Y-106187800D02*
X149550000Y-104812200D01*
G75*
G02*
X149812200Y-104550000I262200J0D01*
G01*
X151187800Y-104550000D01*
G75*
G02*
X151450000Y-104812200I0J-262200D01*
G01*
X151450000Y-106187800D01*
G75*
G02*
X151187800Y-106450000I-262200J0D01*
G01*
X149812200Y-106450000D01*
G75*
G02*
X149550000Y-106187800I0J262200D01*
G01*
G37*
X153040000Y-105500000D03*
X155580000Y-105500000D03*
%TD*%
D13*
%TO.C,J1*%
X172500000Y-110500000D03*
D14*
X169960000Y-110500000D03*
X167420000Y-110500000D03*
%TD*%
D13*
%TO.C,J1*%
X155500000Y-110500000D03*
D14*
X152960000Y-110500000D03*
X150420000Y-110500000D03*
%TD*%
D13*
%TO.C,J1*%
X138500000Y-110500000D03*
D14*
X135960000Y-110500000D03*
X133420000Y-110500000D03*
%TD*%
D13*
%TO.C,J1*%
X172500000Y-98500000D03*
D14*
X169960000Y-98500000D03*
X167420000Y-98500000D03*
%TD*%
D13*
%TO.C,J1*%
X155500000Y-98500000D03*
D14*
X152960000Y-98500000D03*
X150420000Y-98500000D03*
%TD*%
D10*
%TO.C,*%
X165750000Y-111750000D03*
X165750000Y-112500000D03*
X165750000Y-114000000D03*
X165750000Y-116250000D03*
X164250000Y-112500000D03*
X164250000Y-115500000D03*
X165750000Y-114750000D03*
X164250000Y-114000000D03*
X165750000Y-113250000D03*
X164250000Y-116250000D03*
X164250000Y-114750000D03*
X165750000Y-115500000D03*
X164250000Y-111750000D03*
X164250000Y-113250000D03*
%TD*%
%TO.C,*%
X148750000Y-111750000D03*
X148750000Y-112500000D03*
X148750000Y-114000000D03*
X148750000Y-116250000D03*
X147250000Y-112500000D03*
X147250000Y-115500000D03*
X148750000Y-114750000D03*
X147250000Y-114000000D03*
X148750000Y-113250000D03*
X147250000Y-116250000D03*
X147250000Y-114750000D03*
X148750000Y-115500000D03*
X147250000Y-111750000D03*
X147250000Y-113250000D03*
%TD*%
%TO.C,*%
X165750000Y-99750000D03*
X165750000Y-100500000D03*
X165750000Y-102000000D03*
X165750000Y-104250000D03*
X164250000Y-100500000D03*
X164250000Y-103500000D03*
X165750000Y-102750000D03*
X164250000Y-102000000D03*
X165750000Y-101250000D03*
X164250000Y-104250000D03*
X164250000Y-102750000D03*
X165750000Y-103500000D03*
X164250000Y-99750000D03*
X164250000Y-101250000D03*
%TD*%
%TO.C,*%
X176250000Y-108750000D03*
X175500000Y-108750000D03*
X174000000Y-108750000D03*
X171750000Y-108750000D03*
X175500000Y-107250000D03*
X172500000Y-107250000D03*
X173250000Y-108750000D03*
X174000000Y-107250000D03*
X174750000Y-108750000D03*
X171750000Y-107250000D03*
X173250000Y-107250000D03*
X172500000Y-108750000D03*
X176250000Y-107250000D03*
X174750000Y-107250000D03*
%TD*%
%TO.C,*%
X159250000Y-108750000D03*
X158500000Y-108750000D03*
X157000000Y-108750000D03*
X154750000Y-108750000D03*
X158500000Y-107250000D03*
X155500000Y-107250000D03*
X156250000Y-108750000D03*
X157000000Y-107250000D03*
X157750000Y-108750000D03*
X154750000Y-107250000D03*
X156250000Y-107250000D03*
X155500000Y-108750000D03*
X159250000Y-107250000D03*
X157750000Y-107250000D03*
%TD*%
%TO.C,*%
X140750000Y-107250000D03*
X142250000Y-107250000D03*
X138500000Y-108750000D03*
X139250000Y-107250000D03*
X137750000Y-107250000D03*
X140750000Y-108750000D03*
X140000000Y-107250000D03*
X139250000Y-108750000D03*
X138500000Y-107250000D03*
X141500000Y-107250000D03*
X137750000Y-108750000D03*
X140000000Y-108750000D03*
X141500000Y-108750000D03*
X142250000Y-108750000D03*
%TD*%
%TO.C,*%
X147250000Y-101250000D03*
X147250000Y-99750000D03*
X148750000Y-103500000D03*
X147250000Y-102750000D03*
X147250000Y-104250000D03*
X148750000Y-101250000D03*
X147250000Y-102000000D03*
X148750000Y-102750000D03*
X147250000Y-103500000D03*
X147250000Y-100500000D03*
X148750000Y-104250000D03*
X148750000Y-102000000D03*
X148750000Y-100500000D03*
X148750000Y-99750000D03*
%TD*%
D14*
%TO.C,J1*%
X133420000Y-98500000D03*
X135960000Y-98500000D03*
D13*
X138500000Y-98500000D03*
%TD*%
D12*
%TO.C,U1*%
X138580000Y-105500000D03*
X136040000Y-105500000D03*
G36*
G01*
X132550000Y-106187800D02*
X132550000Y-104812200D01*
G75*
G02*
X132812200Y-104550000I262200J0D01*
G01*
X134187800Y-104550000D01*
G75*
G02*
X134450000Y-104812200I0J-262200D01*
G01*
X134450000Y-106187800D01*
G75*
G02*
X134187800Y-106450000I-262200J0D01*
G01*
X132812200Y-106450000D01*
G75*
G02*
X132550000Y-106187800I0J262200D01*
G01*
G37*
%TD*%
%TO.C,R4*%
G36*
G01*
X143900000Y-100731250D02*
X143900000Y-99768750D01*
G75*
G02*
X144168750Y-99500000I268750J0D01*
G01*
X144706250Y-99500000D01*
G75*
G02*
X144975000Y-99768750I0J-268750D01*
G01*
X144975000Y-100731250D01*
G75*
G02*
X144706250Y-101000000I-268750J0D01*
G01*
X144168750Y-101000000D01*
G75*
G02*
X143900000Y-100731250I0J268750D01*
G01*
G37*
G36*
G01*
X142025000Y-100731250D02*
X142025000Y-99768750D01*
G75*
G02*
X142293750Y-99500000I268750J0D01*
G01*
X142831250Y-99500000D01*
G75*
G02*
X143100000Y-99768750I0J-268750D01*
G01*
X143100000Y-100731250D01*
G75*
G02*
X142831250Y-101000000I-268750J0D01*
G01*
X142293750Y-101000000D01*
G75*
G02*
X142025000Y-100731250I0J268750D01*
G01*
G37*
%TD*%
%TO.C,R3*%
G36*
G01*
X141231250Y-99850000D02*
X140268750Y-99850000D01*
G75*
G02*
X140000000Y-99581250I0J268750D01*
G01*
X140000000Y-99043750D01*
G75*
G02*
X140268750Y-98775000I268750J0D01*
G01*
X141231250Y-98775000D01*
G75*
G02*
X141500000Y-99043750I0J-268750D01*
G01*
X141500000Y-99581250D01*
G75*
G02*
X141231250Y-99850000I-268750J0D01*
G01*
G37*
G36*
G01*
X141231250Y-101725000D02*
X140268750Y-101725000D01*
G75*
G02*
X140000000Y-101456250I0J268750D01*
G01*
X140000000Y-100918750D01*
G75*
G02*
X140268750Y-100650000I268750J0D01*
G01*
X141231250Y-100650000D01*
G75*
G02*
X141500000Y-100918750I0J-268750D01*
G01*
X141500000Y-101456250D01*
G75*
G02*
X141231250Y-101725000I-268750J0D01*
G01*
G37*
%TD*%
%TO.C,R5*%
G36*
G01*
X138731250Y-103725000D02*
X137768750Y-103725000D01*
G75*
G02*
X137500000Y-103456250I0J268750D01*
G01*
X137500000Y-102918750D01*
G75*
G02*
X137768750Y-102650000I268750J0D01*
G01*
X138731250Y-102650000D01*
G75*
G02*
X139000000Y-102918750I0J-268750D01*
G01*
X139000000Y-103456250D01*
G75*
G02*
X138731250Y-103725000I-268750J0D01*
G01*
G37*
G36*
G01*
X138731250Y-101850000D02*
X137768750Y-101850000D01*
G75*
G02*
X137500000Y-101581250I0J268750D01*
G01*
X137500000Y-101043750D01*
G75*
G02*
X137768750Y-100775000I268750J0D01*
G01*
X138731250Y-100775000D01*
G75*
G02*
X139000000Y-101043750I0J-268750D01*
G01*
X139000000Y-101581250D01*
G75*
G02*
X138731250Y-101850000I-268750J0D01*
G01*
G37*
%TD*%
%TO.C,R1*%
G36*
G01*
X133481250Y-101850000D02*
X132518750Y-101850000D01*
G75*
G02*
X132250000Y-101581250I0J268750D01*
G01*
X132250000Y-101043750D01*
G75*
G02*
X132518750Y-100775000I268750J0D01*
G01*
X133481250Y-100775000D01*
G75*
G02*
X133750000Y-101043750I0J-268750D01*
G01*
X133750000Y-101581250D01*
G75*
G02*
X133481250Y-101850000I-268750J0D01*
G01*
G37*
G36*
G01*
X133481250Y-103725000D02*
X132518750Y-103725000D01*
G75*
G02*
X132250000Y-103456250I0J268750D01*
G01*
X132250000Y-102918750D01*
G75*
G02*
X132518750Y-102650000I268750J0D01*
G01*
X133481250Y-102650000D01*
G75*
G02*
X133750000Y-102918750I0J-268750D01*
G01*
X133750000Y-103456250D01*
G75*
G02*
X133481250Y-103725000I-268750J0D01*
G01*
G37*
%TD*%
%TO.C,D2*%
G36*
G01*
X135981250Y-101850000D02*
X135018750Y-101850000D01*
G75*
G02*
X134750000Y-101581250I0J268750D01*
G01*
X134750000Y-101043750D01*
G75*
G02*
X135018750Y-100775000I268750J0D01*
G01*
X135981250Y-100775000D01*
G75*
G02*
X136250000Y-101043750I0J-268750D01*
G01*
X136250000Y-101581250D01*
G75*
G02*
X135981250Y-101850000I-268750J0D01*
G01*
G37*
G36*
G01*
X135981250Y-103725000D02*
X135018750Y-103725000D01*
G75*
G02*
X134750000Y-103456250I0J268750D01*
G01*
X134750000Y-102918750D01*
G75*
G02*
X135018750Y-102650000I268750J0D01*
G01*
X135981250Y-102650000D01*
G75*
G02*
X136250000Y-102918750I0J-268750D01*
G01*
X136250000Y-103456250D01*
G75*
G02*
X135981250Y-103725000I-268750J0D01*
G01*
G37*
%TD*%
%TO.C,D1*%
X141960000Y-103350000D03*
D11*
X144500000Y-103350000D03*
%TD*%
%TO.C,C3*%
G36*
G01*
X143100000Y-97518750D02*
X143100000Y-98481250D01*
G75*
G02*
X142831250Y-98750000I-268750J0D01*
G01*
X142293750Y-98750000D01*
G75*
G02*
X142025000Y-98481250I0J268750D01*
G01*
X142025000Y-97518750D01*
G75*
G02*
X142293750Y-97250000I268750J0D01*
G01*
X142831250Y-97250000D01*
G75*
G02*
X143100000Y-97518750I0J-268750D01*
G01*
G37*
G36*
G01*
X144975000Y-97518750D02*
X144975000Y-98481250D01*
G75*
G02*
X144706250Y-98750000I-268750J0D01*
G01*
X144168750Y-98750000D01*
G75*
G02*
X143900000Y-98481250I0J268750D01*
G01*
X143900000Y-97518750D01*
G75*
G02*
X144168750Y-97250000I268750J0D01*
G01*
X144706250Y-97250000D01*
G75*
G02*
X144975000Y-97518750I0J-268750D01*
G01*
G37*
%TD*%
%TO.C,C2*%
G36*
G01*
X142850000Y-105268750D02*
X142850000Y-106231250D01*
G75*
G02*
X142581250Y-106500000I-268750J0D01*
G01*
X142043750Y-106500000D01*
G75*
G02*
X141775000Y-106231250I0J268750D01*
G01*
X141775000Y-105268750D01*
G75*
G02*
X142043750Y-105000000I268750J0D01*
G01*
X142581250Y-105000000D01*
G75*
G02*
X142850000Y-105268750I0J-268750D01*
G01*
G37*
G36*
G01*
X144725000Y-105268750D02*
X144725000Y-106231250D01*
G75*
G02*
X144456250Y-106500000I-268750J0D01*
G01*
X143918750Y-106500000D01*
G75*
G02*
X143650000Y-106231250I0J268750D01*
G01*
X143650000Y-105268750D01*
G75*
G02*
X143918750Y-105000000I268750J0D01*
G01*
X144456250Y-105000000D01*
G75*
G02*
X144725000Y-105268750I0J-268750D01*
G01*
G37*
%TD*%
M02*
