%TF.GenerationSoftware,KiCad,Pcbnew,(5.1.6)-1*%
%TF.CreationDate,2021-08-16T20:18:48+02:00*%
%TF.ProjectId,proxima_panel,70726f78-696d-4615-9f70-616e656c2e6b,rev?*%
%TF.SameCoordinates,Original*%
%TF.FileFunction,Soldermask,Top*%
%TF.FilePolarity,Negative*%
%FSLAX46Y46*%
G04 Gerber Fmt 4.6, Leading zero omitted, Abs format (unit mm)*
G04 Created by KiCad (PCBNEW (5.1.6)-1) date 2021-08-16 20:18:48*
%MOMM*%
%LPD*%
G01*
G04 APERTURE LIST*
%ADD10C,0.600000*%
%ADD11R,1.900000X1.900000*%
%ADD12C,1.900000*%
%ADD13R,1.800000X1.800000*%
%ADD14O,1.800000X1.800000*%
G04 APERTURE END LIST*
D10*
%TO.C,*%
X181250000Y-113250000D03*
X181250000Y-111750000D03*
X182750000Y-115500000D03*
X181250000Y-114750000D03*
X181250000Y-116250000D03*
X182750000Y-113250000D03*
X181250000Y-114000000D03*
X182750000Y-114750000D03*
X181250000Y-115500000D03*
X181250000Y-112500000D03*
X182750000Y-116250000D03*
X182750000Y-114000000D03*
X182750000Y-112500000D03*
X182750000Y-111750000D03*
%TD*%
%TO.C,R2*%
G36*
G01*
X177912500Y-117268750D02*
X177912500Y-118231250D01*
G75*
G02*
X177643750Y-118500000I-268750J0D01*
G01*
X177106250Y-118500000D01*
G75*
G02*
X176837500Y-118231250I0J268750D01*
G01*
X176837500Y-117268750D01*
G75*
G02*
X177106250Y-117000000I268750J0D01*
G01*
X177643750Y-117000000D01*
G75*
G02*
X177912500Y-117268750I0J-268750D01*
G01*
G37*
G36*
G01*
X176037500Y-117268750D02*
X176037500Y-118231250D01*
G75*
G02*
X175768750Y-118500000I-268750J0D01*
G01*
X175231250Y-118500000D01*
G75*
G02*
X174962500Y-118231250I0J268750D01*
G01*
X174962500Y-117268750D01*
G75*
G02*
X175231250Y-117000000I268750J0D01*
G01*
X175768750Y-117000000D01*
G75*
G02*
X176037500Y-117268750I0J-268750D01*
G01*
G37*
%TD*%
%TO.C,R2*%
G36*
G01*
X160912500Y-117268750D02*
X160912500Y-118231250D01*
G75*
G02*
X160643750Y-118500000I-268750J0D01*
G01*
X160106250Y-118500000D01*
G75*
G02*
X159837500Y-118231250I0J268750D01*
G01*
X159837500Y-117268750D01*
G75*
G02*
X160106250Y-117000000I268750J0D01*
G01*
X160643750Y-117000000D01*
G75*
G02*
X160912500Y-117268750I0J-268750D01*
G01*
G37*
G36*
G01*
X159037500Y-117268750D02*
X159037500Y-118231250D01*
G75*
G02*
X158768750Y-118500000I-268750J0D01*
G01*
X158231250Y-118500000D01*
G75*
G02*
X157962500Y-118231250I0J268750D01*
G01*
X157962500Y-117268750D01*
G75*
G02*
X158231250Y-117000000I268750J0D01*
G01*
X158768750Y-117000000D01*
G75*
G02*
X159037500Y-117268750I0J-268750D01*
G01*
G37*
%TD*%
%TO.C,R2*%
G36*
G01*
X143912500Y-117268750D02*
X143912500Y-118231250D01*
G75*
G02*
X143643750Y-118500000I-268750J0D01*
G01*
X143106250Y-118500000D01*
G75*
G02*
X142837500Y-118231250I0J268750D01*
G01*
X142837500Y-117268750D01*
G75*
G02*
X143106250Y-117000000I268750J0D01*
G01*
X143643750Y-117000000D01*
G75*
G02*
X143912500Y-117268750I0J-268750D01*
G01*
G37*
G36*
G01*
X142037500Y-117268750D02*
X142037500Y-118231250D01*
G75*
G02*
X141768750Y-118500000I-268750J0D01*
G01*
X141231250Y-118500000D01*
G75*
G02*
X140962500Y-118231250I0J268750D01*
G01*
X140962500Y-117268750D01*
G75*
G02*
X141231250Y-117000000I268750J0D01*
G01*
X141768750Y-117000000D01*
G75*
G02*
X142037500Y-117268750I0J-268750D01*
G01*
G37*
%TD*%
%TO.C,R2*%
G36*
G01*
X177912500Y-105268750D02*
X177912500Y-106231250D01*
G75*
G02*
X177643750Y-106500000I-268750J0D01*
G01*
X177106250Y-106500000D01*
G75*
G02*
X176837500Y-106231250I0J268750D01*
G01*
X176837500Y-105268750D01*
G75*
G02*
X177106250Y-105000000I268750J0D01*
G01*
X177643750Y-105000000D01*
G75*
G02*
X177912500Y-105268750I0J-268750D01*
G01*
G37*
G36*
G01*
X176037500Y-105268750D02*
X176037500Y-106231250D01*
G75*
G02*
X175768750Y-106500000I-268750J0D01*
G01*
X175231250Y-106500000D01*
G75*
G02*
X174962500Y-106231250I0J268750D01*
G01*
X174962500Y-105268750D01*
G75*
G02*
X175231250Y-105000000I268750J0D01*
G01*
X175768750Y-105000000D01*
G75*
G02*
X176037500Y-105268750I0J-268750D01*
G01*
G37*
%TD*%
%TO.C,R2*%
G36*
G01*
X160912500Y-105268750D02*
X160912500Y-106231250D01*
G75*
G02*
X160643750Y-106500000I-268750J0D01*
G01*
X160106250Y-106500000D01*
G75*
G02*
X159837500Y-106231250I0J268750D01*
G01*
X159837500Y-105268750D01*
G75*
G02*
X160106250Y-105000000I268750J0D01*
G01*
X160643750Y-105000000D01*
G75*
G02*
X160912500Y-105268750I0J-268750D01*
G01*
G37*
G36*
G01*
X159037500Y-105268750D02*
X159037500Y-106231250D01*
G75*
G02*
X158768750Y-106500000I-268750J0D01*
G01*
X158231250Y-106500000D01*
G75*
G02*
X157962500Y-106231250I0J268750D01*
G01*
X157962500Y-105268750D01*
G75*
G02*
X158231250Y-105000000I268750J0D01*
G01*
X158768750Y-105000000D01*
G75*
G02*
X159037500Y-105268750I0J-268750D01*
G01*
G37*
%TD*%
D11*
%TO.C,D1*%
X178500000Y-115350000D03*
D12*
X175960000Y-115350000D03*
%TD*%
D11*
%TO.C,D1*%
X161500000Y-115350000D03*
D12*
X158960000Y-115350000D03*
%TD*%
D11*
%TO.C,D1*%
X144500000Y-115350000D03*
D12*
X141960000Y-115350000D03*
%TD*%
D11*
%TO.C,D1*%
X178500000Y-103350000D03*
D12*
X175960000Y-103350000D03*
%TD*%
D11*
%TO.C,D1*%
X161500000Y-103350000D03*
D12*
X158960000Y-103350000D03*
%TD*%
%TO.C,U1*%
G36*
G01*
X166550000Y-118187800D02*
X166550000Y-116812200D01*
G75*
G02*
X166812200Y-116550000I262200J0D01*
G01*
X168187800Y-116550000D01*
G75*
G02*
X168450000Y-116812200I0J-262200D01*
G01*
X168450000Y-118187800D01*
G75*
G02*
X168187800Y-118450000I-262200J0D01*
G01*
X166812200Y-118450000D01*
G75*
G02*
X166550000Y-118187800I0J262200D01*
G01*
G37*
X170040000Y-117500000D03*
X172580000Y-117500000D03*
%TD*%
%TO.C,U1*%
G36*
G01*
X149550000Y-118187800D02*
X149550000Y-116812200D01*
G75*
G02*
X149812200Y-116550000I262200J0D01*
G01*
X151187800Y-116550000D01*
G75*
G02*
X151450000Y-116812200I0J-262200D01*
G01*
X151450000Y-118187800D01*
G75*
G02*
X151187800Y-118450000I-262200J0D01*
G01*
X149812200Y-118450000D01*
G75*
G02*
X149550000Y-118187800I0J262200D01*
G01*
G37*
X153040000Y-117500000D03*
X155580000Y-117500000D03*
%TD*%
%TO.C,U1*%
G36*
G01*
X132550000Y-118187800D02*
X132550000Y-116812200D01*
G75*
G02*
X132812200Y-116550000I262200J0D01*
G01*
X134187800Y-116550000D01*
G75*
G02*
X134450000Y-116812200I0J-262200D01*
G01*
X134450000Y-118187800D01*
G75*
G02*
X134187800Y-118450000I-262200J0D01*
G01*
X132812200Y-118450000D01*
G75*
G02*
X132550000Y-118187800I0J262200D01*
G01*
G37*
X136040000Y-117500000D03*
X138580000Y-117500000D03*
%TD*%
%TO.C,U1*%
G36*
G01*
X166550000Y-106187800D02*
X166550000Y-104812200D01*
G75*
G02*
X166812200Y-104550000I262200J0D01*
G01*
X168187800Y-104550000D01*
G75*
G02*
X168450000Y-104812200I0J-262200D01*
G01*
X168450000Y-106187800D01*
G75*
G02*
X168187800Y-106450000I-262200J0D01*
G01*
X166812200Y-106450000D01*
G75*
G02*
X166550000Y-106187800I0J262200D01*
G01*
G37*
X170040000Y-105500000D03*
X172580000Y-105500000D03*
%TD*%
%TO.C,U1*%
G36*
G01*
X149550000Y-106187800D02*
X149550000Y-104812200D01*
G75*
G02*
X149812200Y-104550000I262200J0D01*
G01*
X151187800Y-104550000D01*
G75*
G02*
X151450000Y-104812200I0J-262200D01*
G01*
X151450000Y-106187800D01*
G75*
G02*
X151187800Y-106450000I-262200J0D01*
G01*
X149812200Y-106450000D01*
G75*
G02*
X149550000Y-106187800I0J262200D01*
G01*
G37*
X153040000Y-105500000D03*
X155580000Y-105500000D03*
%TD*%
%TO.C,U2*%
G36*
G01*
X173750000Y-109770000D02*
X173750000Y-109420000D01*
G75*
G02*
X173925000Y-109245000I175000J0D01*
G01*
X175625000Y-109245000D01*
G75*
G02*
X175800000Y-109420000I0J-175000D01*
G01*
X175800000Y-109770000D01*
G75*
G02*
X175625000Y-109945000I-175000J0D01*
G01*
X173925000Y-109945000D01*
G75*
G02*
X173750000Y-109770000I0J175000D01*
G01*
G37*
G36*
G01*
X173750000Y-111040000D02*
X173750000Y-110690000D01*
G75*
G02*
X173925000Y-110515000I175000J0D01*
G01*
X175625000Y-110515000D01*
G75*
G02*
X175800000Y-110690000I0J-175000D01*
G01*
X175800000Y-111040000D01*
G75*
G02*
X175625000Y-111215000I-175000J0D01*
G01*
X173925000Y-111215000D01*
G75*
G02*
X173750000Y-111040000I0J175000D01*
G01*
G37*
G36*
G01*
X173750000Y-112310000D02*
X173750000Y-111960000D01*
G75*
G02*
X173925000Y-111785000I175000J0D01*
G01*
X175625000Y-111785000D01*
G75*
G02*
X175800000Y-111960000I0J-175000D01*
G01*
X175800000Y-112310000D01*
G75*
G02*
X175625000Y-112485000I-175000J0D01*
G01*
X173925000Y-112485000D01*
G75*
G02*
X173750000Y-112310000I0J175000D01*
G01*
G37*
G36*
G01*
X173750000Y-113580000D02*
X173750000Y-113230000D01*
G75*
G02*
X173925000Y-113055000I175000J0D01*
G01*
X175625000Y-113055000D01*
G75*
G02*
X175800000Y-113230000I0J-175000D01*
G01*
X175800000Y-113580000D01*
G75*
G02*
X175625000Y-113755000I-175000J0D01*
G01*
X173925000Y-113755000D01*
G75*
G02*
X173750000Y-113580000I0J175000D01*
G01*
G37*
G36*
G01*
X178700000Y-113580000D02*
X178700000Y-113230000D01*
G75*
G02*
X178875000Y-113055000I175000J0D01*
G01*
X180575000Y-113055000D01*
G75*
G02*
X180750000Y-113230000I0J-175000D01*
G01*
X180750000Y-113580000D01*
G75*
G02*
X180575000Y-113755000I-175000J0D01*
G01*
X178875000Y-113755000D01*
G75*
G02*
X178700000Y-113580000I0J175000D01*
G01*
G37*
G36*
G01*
X178700000Y-112310000D02*
X178700000Y-111960000D01*
G75*
G02*
X178875000Y-111785000I175000J0D01*
G01*
X180575000Y-111785000D01*
G75*
G02*
X180750000Y-111960000I0J-175000D01*
G01*
X180750000Y-112310000D01*
G75*
G02*
X180575000Y-112485000I-175000J0D01*
G01*
X178875000Y-112485000D01*
G75*
G02*
X178700000Y-112310000I0J175000D01*
G01*
G37*
G36*
G01*
X178700000Y-111040000D02*
X178700000Y-110690000D01*
G75*
G02*
X178875000Y-110515000I175000J0D01*
G01*
X180575000Y-110515000D01*
G75*
G02*
X180750000Y-110690000I0J-175000D01*
G01*
X180750000Y-111040000D01*
G75*
G02*
X180575000Y-111215000I-175000J0D01*
G01*
X178875000Y-111215000D01*
G75*
G02*
X178700000Y-111040000I0J175000D01*
G01*
G37*
G36*
G01*
X178700000Y-109770000D02*
X178700000Y-109420000D01*
G75*
G02*
X178875000Y-109245000I175000J0D01*
G01*
X180575000Y-109245000D01*
G75*
G02*
X180750000Y-109420000I0J-175000D01*
G01*
X180750000Y-109770000D01*
G75*
G02*
X180575000Y-109945000I-175000J0D01*
G01*
X178875000Y-109945000D01*
G75*
G02*
X178700000Y-109770000I0J175000D01*
G01*
G37*
%TD*%
%TO.C,U2*%
G36*
G01*
X156750000Y-109770000D02*
X156750000Y-109420000D01*
G75*
G02*
X156925000Y-109245000I175000J0D01*
G01*
X158625000Y-109245000D01*
G75*
G02*
X158800000Y-109420000I0J-175000D01*
G01*
X158800000Y-109770000D01*
G75*
G02*
X158625000Y-109945000I-175000J0D01*
G01*
X156925000Y-109945000D01*
G75*
G02*
X156750000Y-109770000I0J175000D01*
G01*
G37*
G36*
G01*
X156750000Y-111040000D02*
X156750000Y-110690000D01*
G75*
G02*
X156925000Y-110515000I175000J0D01*
G01*
X158625000Y-110515000D01*
G75*
G02*
X158800000Y-110690000I0J-175000D01*
G01*
X158800000Y-111040000D01*
G75*
G02*
X158625000Y-111215000I-175000J0D01*
G01*
X156925000Y-111215000D01*
G75*
G02*
X156750000Y-111040000I0J175000D01*
G01*
G37*
G36*
G01*
X156750000Y-112310000D02*
X156750000Y-111960000D01*
G75*
G02*
X156925000Y-111785000I175000J0D01*
G01*
X158625000Y-111785000D01*
G75*
G02*
X158800000Y-111960000I0J-175000D01*
G01*
X158800000Y-112310000D01*
G75*
G02*
X158625000Y-112485000I-175000J0D01*
G01*
X156925000Y-112485000D01*
G75*
G02*
X156750000Y-112310000I0J175000D01*
G01*
G37*
G36*
G01*
X156750000Y-113580000D02*
X156750000Y-113230000D01*
G75*
G02*
X156925000Y-113055000I175000J0D01*
G01*
X158625000Y-113055000D01*
G75*
G02*
X158800000Y-113230000I0J-175000D01*
G01*
X158800000Y-113580000D01*
G75*
G02*
X158625000Y-113755000I-175000J0D01*
G01*
X156925000Y-113755000D01*
G75*
G02*
X156750000Y-113580000I0J175000D01*
G01*
G37*
G36*
G01*
X161700000Y-113580000D02*
X161700000Y-113230000D01*
G75*
G02*
X161875000Y-113055000I175000J0D01*
G01*
X163575000Y-113055000D01*
G75*
G02*
X163750000Y-113230000I0J-175000D01*
G01*
X163750000Y-113580000D01*
G75*
G02*
X163575000Y-113755000I-175000J0D01*
G01*
X161875000Y-113755000D01*
G75*
G02*
X161700000Y-113580000I0J175000D01*
G01*
G37*
G36*
G01*
X161700000Y-112310000D02*
X161700000Y-111960000D01*
G75*
G02*
X161875000Y-111785000I175000J0D01*
G01*
X163575000Y-111785000D01*
G75*
G02*
X163750000Y-111960000I0J-175000D01*
G01*
X163750000Y-112310000D01*
G75*
G02*
X163575000Y-112485000I-175000J0D01*
G01*
X161875000Y-112485000D01*
G75*
G02*
X161700000Y-112310000I0J175000D01*
G01*
G37*
G36*
G01*
X161700000Y-111040000D02*
X161700000Y-110690000D01*
G75*
G02*
X161875000Y-110515000I175000J0D01*
G01*
X163575000Y-110515000D01*
G75*
G02*
X163750000Y-110690000I0J-175000D01*
G01*
X163750000Y-111040000D01*
G75*
G02*
X163575000Y-111215000I-175000J0D01*
G01*
X161875000Y-111215000D01*
G75*
G02*
X161700000Y-111040000I0J175000D01*
G01*
G37*
G36*
G01*
X161700000Y-109770000D02*
X161700000Y-109420000D01*
G75*
G02*
X161875000Y-109245000I175000J0D01*
G01*
X163575000Y-109245000D01*
G75*
G02*
X163750000Y-109420000I0J-175000D01*
G01*
X163750000Y-109770000D01*
G75*
G02*
X163575000Y-109945000I-175000J0D01*
G01*
X161875000Y-109945000D01*
G75*
G02*
X161700000Y-109770000I0J175000D01*
G01*
G37*
%TD*%
%TO.C,U2*%
G36*
G01*
X139750000Y-109770000D02*
X139750000Y-109420000D01*
G75*
G02*
X139925000Y-109245000I175000J0D01*
G01*
X141625000Y-109245000D01*
G75*
G02*
X141800000Y-109420000I0J-175000D01*
G01*
X141800000Y-109770000D01*
G75*
G02*
X141625000Y-109945000I-175000J0D01*
G01*
X139925000Y-109945000D01*
G75*
G02*
X139750000Y-109770000I0J175000D01*
G01*
G37*
G36*
G01*
X139750000Y-111040000D02*
X139750000Y-110690000D01*
G75*
G02*
X139925000Y-110515000I175000J0D01*
G01*
X141625000Y-110515000D01*
G75*
G02*
X141800000Y-110690000I0J-175000D01*
G01*
X141800000Y-111040000D01*
G75*
G02*
X141625000Y-111215000I-175000J0D01*
G01*
X139925000Y-111215000D01*
G75*
G02*
X139750000Y-111040000I0J175000D01*
G01*
G37*
G36*
G01*
X139750000Y-112310000D02*
X139750000Y-111960000D01*
G75*
G02*
X139925000Y-111785000I175000J0D01*
G01*
X141625000Y-111785000D01*
G75*
G02*
X141800000Y-111960000I0J-175000D01*
G01*
X141800000Y-112310000D01*
G75*
G02*
X141625000Y-112485000I-175000J0D01*
G01*
X139925000Y-112485000D01*
G75*
G02*
X139750000Y-112310000I0J175000D01*
G01*
G37*
G36*
G01*
X139750000Y-113580000D02*
X139750000Y-113230000D01*
G75*
G02*
X139925000Y-113055000I175000J0D01*
G01*
X141625000Y-113055000D01*
G75*
G02*
X141800000Y-113230000I0J-175000D01*
G01*
X141800000Y-113580000D01*
G75*
G02*
X141625000Y-113755000I-175000J0D01*
G01*
X139925000Y-113755000D01*
G75*
G02*
X139750000Y-113580000I0J175000D01*
G01*
G37*
G36*
G01*
X144700000Y-113580000D02*
X144700000Y-113230000D01*
G75*
G02*
X144875000Y-113055000I175000J0D01*
G01*
X146575000Y-113055000D01*
G75*
G02*
X146750000Y-113230000I0J-175000D01*
G01*
X146750000Y-113580000D01*
G75*
G02*
X146575000Y-113755000I-175000J0D01*
G01*
X144875000Y-113755000D01*
G75*
G02*
X144700000Y-113580000I0J175000D01*
G01*
G37*
G36*
G01*
X144700000Y-112310000D02*
X144700000Y-111960000D01*
G75*
G02*
X144875000Y-111785000I175000J0D01*
G01*
X146575000Y-111785000D01*
G75*
G02*
X146750000Y-111960000I0J-175000D01*
G01*
X146750000Y-112310000D01*
G75*
G02*
X146575000Y-112485000I-175000J0D01*
G01*
X144875000Y-112485000D01*
G75*
G02*
X144700000Y-112310000I0J175000D01*
G01*
G37*
G36*
G01*
X144700000Y-111040000D02*
X144700000Y-110690000D01*
G75*
G02*
X144875000Y-110515000I175000J0D01*
G01*
X146575000Y-110515000D01*
G75*
G02*
X146750000Y-110690000I0J-175000D01*
G01*
X146750000Y-111040000D01*
G75*
G02*
X146575000Y-111215000I-175000J0D01*
G01*
X144875000Y-111215000D01*
G75*
G02*
X144700000Y-111040000I0J175000D01*
G01*
G37*
G36*
G01*
X144700000Y-109770000D02*
X144700000Y-109420000D01*
G75*
G02*
X144875000Y-109245000I175000J0D01*
G01*
X146575000Y-109245000D01*
G75*
G02*
X146750000Y-109420000I0J-175000D01*
G01*
X146750000Y-109770000D01*
G75*
G02*
X146575000Y-109945000I-175000J0D01*
G01*
X144875000Y-109945000D01*
G75*
G02*
X144700000Y-109770000I0J175000D01*
G01*
G37*
%TD*%
%TO.C,U2*%
G36*
G01*
X173750000Y-97770000D02*
X173750000Y-97420000D01*
G75*
G02*
X173925000Y-97245000I175000J0D01*
G01*
X175625000Y-97245000D01*
G75*
G02*
X175800000Y-97420000I0J-175000D01*
G01*
X175800000Y-97770000D01*
G75*
G02*
X175625000Y-97945000I-175000J0D01*
G01*
X173925000Y-97945000D01*
G75*
G02*
X173750000Y-97770000I0J175000D01*
G01*
G37*
G36*
G01*
X173750000Y-99040000D02*
X173750000Y-98690000D01*
G75*
G02*
X173925000Y-98515000I175000J0D01*
G01*
X175625000Y-98515000D01*
G75*
G02*
X175800000Y-98690000I0J-175000D01*
G01*
X175800000Y-99040000D01*
G75*
G02*
X175625000Y-99215000I-175000J0D01*
G01*
X173925000Y-99215000D01*
G75*
G02*
X173750000Y-99040000I0J175000D01*
G01*
G37*
G36*
G01*
X173750000Y-100310000D02*
X173750000Y-99960000D01*
G75*
G02*
X173925000Y-99785000I175000J0D01*
G01*
X175625000Y-99785000D01*
G75*
G02*
X175800000Y-99960000I0J-175000D01*
G01*
X175800000Y-100310000D01*
G75*
G02*
X175625000Y-100485000I-175000J0D01*
G01*
X173925000Y-100485000D01*
G75*
G02*
X173750000Y-100310000I0J175000D01*
G01*
G37*
G36*
G01*
X173750000Y-101580000D02*
X173750000Y-101230000D01*
G75*
G02*
X173925000Y-101055000I175000J0D01*
G01*
X175625000Y-101055000D01*
G75*
G02*
X175800000Y-101230000I0J-175000D01*
G01*
X175800000Y-101580000D01*
G75*
G02*
X175625000Y-101755000I-175000J0D01*
G01*
X173925000Y-101755000D01*
G75*
G02*
X173750000Y-101580000I0J175000D01*
G01*
G37*
G36*
G01*
X178700000Y-101580000D02*
X178700000Y-101230000D01*
G75*
G02*
X178875000Y-101055000I175000J0D01*
G01*
X180575000Y-101055000D01*
G75*
G02*
X180750000Y-101230000I0J-175000D01*
G01*
X180750000Y-101580000D01*
G75*
G02*
X180575000Y-101755000I-175000J0D01*
G01*
X178875000Y-101755000D01*
G75*
G02*
X178700000Y-101580000I0J175000D01*
G01*
G37*
G36*
G01*
X178700000Y-100310000D02*
X178700000Y-99960000D01*
G75*
G02*
X178875000Y-99785000I175000J0D01*
G01*
X180575000Y-99785000D01*
G75*
G02*
X180750000Y-99960000I0J-175000D01*
G01*
X180750000Y-100310000D01*
G75*
G02*
X180575000Y-100485000I-175000J0D01*
G01*
X178875000Y-100485000D01*
G75*
G02*
X178700000Y-100310000I0J175000D01*
G01*
G37*
G36*
G01*
X178700000Y-99040000D02*
X178700000Y-98690000D01*
G75*
G02*
X178875000Y-98515000I175000J0D01*
G01*
X180575000Y-98515000D01*
G75*
G02*
X180750000Y-98690000I0J-175000D01*
G01*
X180750000Y-99040000D01*
G75*
G02*
X180575000Y-99215000I-175000J0D01*
G01*
X178875000Y-99215000D01*
G75*
G02*
X178700000Y-99040000I0J175000D01*
G01*
G37*
G36*
G01*
X178700000Y-97770000D02*
X178700000Y-97420000D01*
G75*
G02*
X178875000Y-97245000I175000J0D01*
G01*
X180575000Y-97245000D01*
G75*
G02*
X180750000Y-97420000I0J-175000D01*
G01*
X180750000Y-97770000D01*
G75*
G02*
X180575000Y-97945000I-175000J0D01*
G01*
X178875000Y-97945000D01*
G75*
G02*
X178700000Y-97770000I0J175000D01*
G01*
G37*
%TD*%
%TO.C,U2*%
G36*
G01*
X156750000Y-97770000D02*
X156750000Y-97420000D01*
G75*
G02*
X156925000Y-97245000I175000J0D01*
G01*
X158625000Y-97245000D01*
G75*
G02*
X158800000Y-97420000I0J-175000D01*
G01*
X158800000Y-97770000D01*
G75*
G02*
X158625000Y-97945000I-175000J0D01*
G01*
X156925000Y-97945000D01*
G75*
G02*
X156750000Y-97770000I0J175000D01*
G01*
G37*
G36*
G01*
X156750000Y-99040000D02*
X156750000Y-98690000D01*
G75*
G02*
X156925000Y-98515000I175000J0D01*
G01*
X158625000Y-98515000D01*
G75*
G02*
X158800000Y-98690000I0J-175000D01*
G01*
X158800000Y-99040000D01*
G75*
G02*
X158625000Y-99215000I-175000J0D01*
G01*
X156925000Y-99215000D01*
G75*
G02*
X156750000Y-99040000I0J175000D01*
G01*
G37*
G36*
G01*
X156750000Y-100310000D02*
X156750000Y-99960000D01*
G75*
G02*
X156925000Y-99785000I175000J0D01*
G01*
X158625000Y-99785000D01*
G75*
G02*
X158800000Y-99960000I0J-175000D01*
G01*
X158800000Y-100310000D01*
G75*
G02*
X158625000Y-100485000I-175000J0D01*
G01*
X156925000Y-100485000D01*
G75*
G02*
X156750000Y-100310000I0J175000D01*
G01*
G37*
G36*
G01*
X156750000Y-101580000D02*
X156750000Y-101230000D01*
G75*
G02*
X156925000Y-101055000I175000J0D01*
G01*
X158625000Y-101055000D01*
G75*
G02*
X158800000Y-101230000I0J-175000D01*
G01*
X158800000Y-101580000D01*
G75*
G02*
X158625000Y-101755000I-175000J0D01*
G01*
X156925000Y-101755000D01*
G75*
G02*
X156750000Y-101580000I0J175000D01*
G01*
G37*
G36*
G01*
X161700000Y-101580000D02*
X161700000Y-101230000D01*
G75*
G02*
X161875000Y-101055000I175000J0D01*
G01*
X163575000Y-101055000D01*
G75*
G02*
X163750000Y-101230000I0J-175000D01*
G01*
X163750000Y-101580000D01*
G75*
G02*
X163575000Y-101755000I-175000J0D01*
G01*
X161875000Y-101755000D01*
G75*
G02*
X161700000Y-101580000I0J175000D01*
G01*
G37*
G36*
G01*
X161700000Y-100310000D02*
X161700000Y-99960000D01*
G75*
G02*
X161875000Y-99785000I175000J0D01*
G01*
X163575000Y-99785000D01*
G75*
G02*
X163750000Y-99960000I0J-175000D01*
G01*
X163750000Y-100310000D01*
G75*
G02*
X163575000Y-100485000I-175000J0D01*
G01*
X161875000Y-100485000D01*
G75*
G02*
X161700000Y-100310000I0J175000D01*
G01*
G37*
G36*
G01*
X161700000Y-99040000D02*
X161700000Y-98690000D01*
G75*
G02*
X161875000Y-98515000I175000J0D01*
G01*
X163575000Y-98515000D01*
G75*
G02*
X163750000Y-98690000I0J-175000D01*
G01*
X163750000Y-99040000D01*
G75*
G02*
X163575000Y-99215000I-175000J0D01*
G01*
X161875000Y-99215000D01*
G75*
G02*
X161700000Y-99040000I0J175000D01*
G01*
G37*
G36*
G01*
X161700000Y-97770000D02*
X161700000Y-97420000D01*
G75*
G02*
X161875000Y-97245000I175000J0D01*
G01*
X163575000Y-97245000D01*
G75*
G02*
X163750000Y-97420000I0J-175000D01*
G01*
X163750000Y-97770000D01*
G75*
G02*
X163575000Y-97945000I-175000J0D01*
G01*
X161875000Y-97945000D01*
G75*
G02*
X161700000Y-97770000I0J175000D01*
G01*
G37*
%TD*%
D13*
%TO.C,J1*%
X172500000Y-110500000D03*
D14*
X169960000Y-110500000D03*
X167420000Y-110500000D03*
%TD*%
D13*
%TO.C,J1*%
X155500000Y-110500000D03*
D14*
X152960000Y-110500000D03*
X150420000Y-110500000D03*
%TD*%
D13*
%TO.C,J1*%
X138500000Y-110500000D03*
D14*
X135960000Y-110500000D03*
X133420000Y-110500000D03*
%TD*%
D13*
%TO.C,J1*%
X172500000Y-98500000D03*
D14*
X169960000Y-98500000D03*
X167420000Y-98500000D03*
%TD*%
D13*
%TO.C,J1*%
X155500000Y-98500000D03*
D14*
X152960000Y-98500000D03*
X150420000Y-98500000D03*
%TD*%
%TO.C,C1*%
G36*
G01*
X167900000Y-114956482D02*
X167900000Y-114043518D01*
G75*
G02*
X168168518Y-113775000I268518J0D01*
G01*
X169131482Y-113775000D01*
G75*
G02*
X169400000Y-114043518I0J-268518D01*
G01*
X169400000Y-114956482D01*
G75*
G02*
X169131482Y-115225000I-268518J0D01*
G01*
X168168518Y-115225000D01*
G75*
G02*
X167900000Y-114956482I0J268518D01*
G01*
G37*
G36*
G01*
X170600000Y-114956482D02*
X170600000Y-114043518D01*
G75*
G02*
X170868518Y-113775000I268518J0D01*
G01*
X171831482Y-113775000D01*
G75*
G02*
X172100000Y-114043518I0J-268518D01*
G01*
X172100000Y-114956482D01*
G75*
G02*
X171831482Y-115225000I-268518J0D01*
G01*
X170868518Y-115225000D01*
G75*
G02*
X170600000Y-114956482I0J268518D01*
G01*
G37*
%TD*%
%TO.C,C1*%
G36*
G01*
X150900000Y-114956482D02*
X150900000Y-114043518D01*
G75*
G02*
X151168518Y-113775000I268518J0D01*
G01*
X152131482Y-113775000D01*
G75*
G02*
X152400000Y-114043518I0J-268518D01*
G01*
X152400000Y-114956482D01*
G75*
G02*
X152131482Y-115225000I-268518J0D01*
G01*
X151168518Y-115225000D01*
G75*
G02*
X150900000Y-114956482I0J268518D01*
G01*
G37*
G36*
G01*
X153600000Y-114956482D02*
X153600000Y-114043518D01*
G75*
G02*
X153868518Y-113775000I268518J0D01*
G01*
X154831482Y-113775000D01*
G75*
G02*
X155100000Y-114043518I0J-268518D01*
G01*
X155100000Y-114956482D01*
G75*
G02*
X154831482Y-115225000I-268518J0D01*
G01*
X153868518Y-115225000D01*
G75*
G02*
X153600000Y-114956482I0J268518D01*
G01*
G37*
%TD*%
%TO.C,C1*%
G36*
G01*
X133900000Y-114956482D02*
X133900000Y-114043518D01*
G75*
G02*
X134168518Y-113775000I268518J0D01*
G01*
X135131482Y-113775000D01*
G75*
G02*
X135400000Y-114043518I0J-268518D01*
G01*
X135400000Y-114956482D01*
G75*
G02*
X135131482Y-115225000I-268518J0D01*
G01*
X134168518Y-115225000D01*
G75*
G02*
X133900000Y-114956482I0J268518D01*
G01*
G37*
G36*
G01*
X136600000Y-114956482D02*
X136600000Y-114043518D01*
G75*
G02*
X136868518Y-113775000I268518J0D01*
G01*
X137831482Y-113775000D01*
G75*
G02*
X138100000Y-114043518I0J-268518D01*
G01*
X138100000Y-114956482D01*
G75*
G02*
X137831482Y-115225000I-268518J0D01*
G01*
X136868518Y-115225000D01*
G75*
G02*
X136600000Y-114956482I0J268518D01*
G01*
G37*
%TD*%
%TO.C,C1*%
G36*
G01*
X167900000Y-102956482D02*
X167900000Y-102043518D01*
G75*
G02*
X168168518Y-101775000I268518J0D01*
G01*
X169131482Y-101775000D01*
G75*
G02*
X169400000Y-102043518I0J-268518D01*
G01*
X169400000Y-102956482D01*
G75*
G02*
X169131482Y-103225000I-268518J0D01*
G01*
X168168518Y-103225000D01*
G75*
G02*
X167900000Y-102956482I0J268518D01*
G01*
G37*
G36*
G01*
X170600000Y-102956482D02*
X170600000Y-102043518D01*
G75*
G02*
X170868518Y-101775000I268518J0D01*
G01*
X171831482Y-101775000D01*
G75*
G02*
X172100000Y-102043518I0J-268518D01*
G01*
X172100000Y-102956482D01*
G75*
G02*
X171831482Y-103225000I-268518J0D01*
G01*
X170868518Y-103225000D01*
G75*
G02*
X170600000Y-102956482I0J268518D01*
G01*
G37*
%TD*%
%TO.C,C1*%
G36*
G01*
X150900000Y-102956482D02*
X150900000Y-102043518D01*
G75*
G02*
X151168518Y-101775000I268518J0D01*
G01*
X152131482Y-101775000D01*
G75*
G02*
X152400000Y-102043518I0J-268518D01*
G01*
X152400000Y-102956482D01*
G75*
G02*
X152131482Y-103225000I-268518J0D01*
G01*
X151168518Y-103225000D01*
G75*
G02*
X150900000Y-102956482I0J268518D01*
G01*
G37*
G36*
G01*
X153600000Y-102956482D02*
X153600000Y-102043518D01*
G75*
G02*
X153868518Y-101775000I268518J0D01*
G01*
X154831482Y-101775000D01*
G75*
G02*
X155100000Y-102043518I0J-268518D01*
G01*
X155100000Y-102956482D01*
G75*
G02*
X154831482Y-103225000I-268518J0D01*
G01*
X153868518Y-103225000D01*
G75*
G02*
X153600000Y-102956482I0J268518D01*
G01*
G37*
%TD*%
D10*
%TO.C,*%
X165750000Y-111750000D03*
X165750000Y-112500000D03*
X165750000Y-114000000D03*
X165750000Y-116250000D03*
X164250000Y-112500000D03*
X164250000Y-115500000D03*
X165750000Y-114750000D03*
X164250000Y-114000000D03*
X165750000Y-113250000D03*
X164250000Y-116250000D03*
X164250000Y-114750000D03*
X165750000Y-115500000D03*
X164250000Y-111750000D03*
X164250000Y-113250000D03*
%TD*%
%TO.C,*%
X148750000Y-111750000D03*
X148750000Y-112500000D03*
X148750000Y-114000000D03*
X148750000Y-116250000D03*
X147250000Y-112500000D03*
X147250000Y-115500000D03*
X148750000Y-114750000D03*
X147250000Y-114000000D03*
X148750000Y-113250000D03*
X147250000Y-116250000D03*
X147250000Y-114750000D03*
X148750000Y-115500000D03*
X147250000Y-111750000D03*
X147250000Y-113250000D03*
%TD*%
%TO.C,*%
X165750000Y-99750000D03*
X165750000Y-100500000D03*
X165750000Y-102000000D03*
X165750000Y-104250000D03*
X164250000Y-100500000D03*
X164250000Y-103500000D03*
X165750000Y-102750000D03*
X164250000Y-102000000D03*
X165750000Y-101250000D03*
X164250000Y-104250000D03*
X164250000Y-102750000D03*
X165750000Y-103500000D03*
X164250000Y-99750000D03*
X164250000Y-101250000D03*
%TD*%
%TO.C,*%
X176250000Y-108750000D03*
X175500000Y-108750000D03*
X174000000Y-108750000D03*
X171750000Y-108750000D03*
X175500000Y-107250000D03*
X172500000Y-107250000D03*
X173250000Y-108750000D03*
X174000000Y-107250000D03*
X174750000Y-108750000D03*
X171750000Y-107250000D03*
X173250000Y-107250000D03*
X172500000Y-108750000D03*
X176250000Y-107250000D03*
X174750000Y-107250000D03*
%TD*%
%TO.C,*%
X159250000Y-108750000D03*
X158500000Y-108750000D03*
X157000000Y-108750000D03*
X154750000Y-108750000D03*
X158500000Y-107250000D03*
X155500000Y-107250000D03*
X156250000Y-108750000D03*
X157000000Y-107250000D03*
X157750000Y-108750000D03*
X154750000Y-107250000D03*
X156250000Y-107250000D03*
X155500000Y-108750000D03*
X159250000Y-107250000D03*
X157750000Y-107250000D03*
%TD*%
%TO.C,*%
X140750000Y-107250000D03*
X142250000Y-107250000D03*
X138500000Y-108750000D03*
X139250000Y-107250000D03*
X137750000Y-107250000D03*
X140750000Y-108750000D03*
X140000000Y-107250000D03*
X139250000Y-108750000D03*
X138500000Y-107250000D03*
X141500000Y-107250000D03*
X137750000Y-108750000D03*
X140000000Y-108750000D03*
X141500000Y-108750000D03*
X142250000Y-108750000D03*
%TD*%
%TO.C,*%
X147250000Y-101250000D03*
X147250000Y-99750000D03*
X148750000Y-103500000D03*
X147250000Y-102750000D03*
X147250000Y-104250000D03*
X148750000Y-101250000D03*
X147250000Y-102000000D03*
X148750000Y-102750000D03*
X147250000Y-103500000D03*
X147250000Y-100500000D03*
X148750000Y-104250000D03*
X148750000Y-102000000D03*
X148750000Y-100500000D03*
X148750000Y-99750000D03*
%TD*%
%TO.C,C1*%
G36*
G01*
X136600000Y-102956482D02*
X136600000Y-102043518D01*
G75*
G02*
X136868518Y-101775000I268518J0D01*
G01*
X137831482Y-101775000D01*
G75*
G02*
X138100000Y-102043518I0J-268518D01*
G01*
X138100000Y-102956482D01*
G75*
G02*
X137831482Y-103225000I-268518J0D01*
G01*
X136868518Y-103225000D01*
G75*
G02*
X136600000Y-102956482I0J268518D01*
G01*
G37*
G36*
G01*
X133900000Y-102956482D02*
X133900000Y-102043518D01*
G75*
G02*
X134168518Y-101775000I268518J0D01*
G01*
X135131482Y-101775000D01*
G75*
G02*
X135400000Y-102043518I0J-268518D01*
G01*
X135400000Y-102956482D01*
G75*
G02*
X135131482Y-103225000I-268518J0D01*
G01*
X134168518Y-103225000D01*
G75*
G02*
X133900000Y-102956482I0J268518D01*
G01*
G37*
%TD*%
D14*
%TO.C,J1*%
X133420000Y-98500000D03*
X135960000Y-98500000D03*
D13*
X138500000Y-98500000D03*
%TD*%
%TO.C,U2*%
G36*
G01*
X144700000Y-97770000D02*
X144700000Y-97420000D01*
G75*
G02*
X144875000Y-97245000I175000J0D01*
G01*
X146575000Y-97245000D01*
G75*
G02*
X146750000Y-97420000I0J-175000D01*
G01*
X146750000Y-97770000D01*
G75*
G02*
X146575000Y-97945000I-175000J0D01*
G01*
X144875000Y-97945000D01*
G75*
G02*
X144700000Y-97770000I0J175000D01*
G01*
G37*
G36*
G01*
X144700000Y-99040000D02*
X144700000Y-98690000D01*
G75*
G02*
X144875000Y-98515000I175000J0D01*
G01*
X146575000Y-98515000D01*
G75*
G02*
X146750000Y-98690000I0J-175000D01*
G01*
X146750000Y-99040000D01*
G75*
G02*
X146575000Y-99215000I-175000J0D01*
G01*
X144875000Y-99215000D01*
G75*
G02*
X144700000Y-99040000I0J175000D01*
G01*
G37*
G36*
G01*
X144700000Y-100310000D02*
X144700000Y-99960000D01*
G75*
G02*
X144875000Y-99785000I175000J0D01*
G01*
X146575000Y-99785000D01*
G75*
G02*
X146750000Y-99960000I0J-175000D01*
G01*
X146750000Y-100310000D01*
G75*
G02*
X146575000Y-100485000I-175000J0D01*
G01*
X144875000Y-100485000D01*
G75*
G02*
X144700000Y-100310000I0J175000D01*
G01*
G37*
G36*
G01*
X144700000Y-101580000D02*
X144700000Y-101230000D01*
G75*
G02*
X144875000Y-101055000I175000J0D01*
G01*
X146575000Y-101055000D01*
G75*
G02*
X146750000Y-101230000I0J-175000D01*
G01*
X146750000Y-101580000D01*
G75*
G02*
X146575000Y-101755000I-175000J0D01*
G01*
X144875000Y-101755000D01*
G75*
G02*
X144700000Y-101580000I0J175000D01*
G01*
G37*
G36*
G01*
X139750000Y-101580000D02*
X139750000Y-101230000D01*
G75*
G02*
X139925000Y-101055000I175000J0D01*
G01*
X141625000Y-101055000D01*
G75*
G02*
X141800000Y-101230000I0J-175000D01*
G01*
X141800000Y-101580000D01*
G75*
G02*
X141625000Y-101755000I-175000J0D01*
G01*
X139925000Y-101755000D01*
G75*
G02*
X139750000Y-101580000I0J175000D01*
G01*
G37*
G36*
G01*
X139750000Y-100310000D02*
X139750000Y-99960000D01*
G75*
G02*
X139925000Y-99785000I175000J0D01*
G01*
X141625000Y-99785000D01*
G75*
G02*
X141800000Y-99960000I0J-175000D01*
G01*
X141800000Y-100310000D01*
G75*
G02*
X141625000Y-100485000I-175000J0D01*
G01*
X139925000Y-100485000D01*
G75*
G02*
X139750000Y-100310000I0J175000D01*
G01*
G37*
G36*
G01*
X139750000Y-99040000D02*
X139750000Y-98690000D01*
G75*
G02*
X139925000Y-98515000I175000J0D01*
G01*
X141625000Y-98515000D01*
G75*
G02*
X141800000Y-98690000I0J-175000D01*
G01*
X141800000Y-99040000D01*
G75*
G02*
X141625000Y-99215000I-175000J0D01*
G01*
X139925000Y-99215000D01*
G75*
G02*
X139750000Y-99040000I0J175000D01*
G01*
G37*
G36*
G01*
X139750000Y-97770000D02*
X139750000Y-97420000D01*
G75*
G02*
X139925000Y-97245000I175000J0D01*
G01*
X141625000Y-97245000D01*
G75*
G02*
X141800000Y-97420000I0J-175000D01*
G01*
X141800000Y-97770000D01*
G75*
G02*
X141625000Y-97945000I-175000J0D01*
G01*
X139925000Y-97945000D01*
G75*
G02*
X139750000Y-97770000I0J175000D01*
G01*
G37*
%TD*%
D12*
%TO.C,U1*%
X138580000Y-105500000D03*
X136040000Y-105500000D03*
G36*
G01*
X132550000Y-106187800D02*
X132550000Y-104812200D01*
G75*
G02*
X132812200Y-104550000I262200J0D01*
G01*
X134187800Y-104550000D01*
G75*
G02*
X134450000Y-104812200I0J-262200D01*
G01*
X134450000Y-106187800D01*
G75*
G02*
X134187800Y-106450000I-262200J0D01*
G01*
X132812200Y-106450000D01*
G75*
G02*
X132550000Y-106187800I0J262200D01*
G01*
G37*
%TD*%
%TO.C,R2*%
G36*
G01*
X142037500Y-105268750D02*
X142037500Y-106231250D01*
G75*
G02*
X141768750Y-106500000I-268750J0D01*
G01*
X141231250Y-106500000D01*
G75*
G02*
X140962500Y-106231250I0J268750D01*
G01*
X140962500Y-105268750D01*
G75*
G02*
X141231250Y-105000000I268750J0D01*
G01*
X141768750Y-105000000D01*
G75*
G02*
X142037500Y-105268750I0J-268750D01*
G01*
G37*
G36*
G01*
X143912500Y-105268750D02*
X143912500Y-106231250D01*
G75*
G02*
X143643750Y-106500000I-268750J0D01*
G01*
X143106250Y-106500000D01*
G75*
G02*
X142837500Y-106231250I0J268750D01*
G01*
X142837500Y-105268750D01*
G75*
G02*
X143106250Y-105000000I268750J0D01*
G01*
X143643750Y-105000000D01*
G75*
G02*
X143912500Y-105268750I0J-268750D01*
G01*
G37*
%TD*%
%TO.C,D1*%
X141960000Y-103350000D03*
D11*
X144500000Y-103350000D03*
%TD*%
M02*
