%TF.GenerationSoftware,KiCad,Pcbnew,(5.1.6)-1*%
%TF.CreationDate,2021-08-15T16:57:45+02:00*%
%TF.ProjectId,proxima_panel,70726f78-696d-4615-9f70-616e656c2e6b,rev?*%
%TF.SameCoordinates,Original*%
%TF.FileFunction,Paste,Bot*%
%TF.FilePolarity,Positive*%
%FSLAX46Y46*%
G04 Gerber Fmt 4.6, Leading zero omitted, Abs format (unit mm)*
G04 Created by KiCad (PCBNEW (5.1.6)-1) date 2021-08-15 16:57:45*
%MOMM*%
%LPD*%
G01*
G04 APERTURE LIST*
G04 APERTURE END LIST*
%TO.C,R1*%
G36*
G01*
X201456250Y-187675000D02*
X200543750Y-187675000D01*
G75*
G02*
X200300000Y-187431250I0J243750D01*
G01*
X200300000Y-186943750D01*
G75*
G02*
X200543750Y-186700000I243750J0D01*
G01*
X201456250Y-186700000D01*
G75*
G02*
X201700000Y-186943750I0J-243750D01*
G01*
X201700000Y-187431250D01*
G75*
G02*
X201456250Y-187675000I-243750J0D01*
G01*
G37*
G36*
G01*
X201456250Y-185800000D02*
X200543750Y-185800000D01*
G75*
G02*
X200300000Y-185556250I0J243750D01*
G01*
X200300000Y-185068750D01*
G75*
G02*
X200543750Y-184825000I243750J0D01*
G01*
X201456250Y-184825000D01*
G75*
G02*
X201700000Y-185068750I0J-243750D01*
G01*
X201700000Y-185556250D01*
G75*
G02*
X201456250Y-185800000I-243750J0D01*
G01*
G37*
%TD*%
%TO.C,R1*%
G36*
G01*
X184456250Y-187675000D02*
X183543750Y-187675000D01*
G75*
G02*
X183300000Y-187431250I0J243750D01*
G01*
X183300000Y-186943750D01*
G75*
G02*
X183543750Y-186700000I243750J0D01*
G01*
X184456250Y-186700000D01*
G75*
G02*
X184700000Y-186943750I0J-243750D01*
G01*
X184700000Y-187431250D01*
G75*
G02*
X184456250Y-187675000I-243750J0D01*
G01*
G37*
G36*
G01*
X184456250Y-185800000D02*
X183543750Y-185800000D01*
G75*
G02*
X183300000Y-185556250I0J243750D01*
G01*
X183300000Y-185068750D01*
G75*
G02*
X183543750Y-184825000I243750J0D01*
G01*
X184456250Y-184825000D01*
G75*
G02*
X184700000Y-185068750I0J-243750D01*
G01*
X184700000Y-185556250D01*
G75*
G02*
X184456250Y-185800000I-243750J0D01*
G01*
G37*
%TD*%
%TO.C,R1*%
G36*
G01*
X167456250Y-187675000D02*
X166543750Y-187675000D01*
G75*
G02*
X166300000Y-187431250I0J243750D01*
G01*
X166300000Y-186943750D01*
G75*
G02*
X166543750Y-186700000I243750J0D01*
G01*
X167456250Y-186700000D01*
G75*
G02*
X167700000Y-186943750I0J-243750D01*
G01*
X167700000Y-187431250D01*
G75*
G02*
X167456250Y-187675000I-243750J0D01*
G01*
G37*
G36*
G01*
X167456250Y-185800000D02*
X166543750Y-185800000D01*
G75*
G02*
X166300000Y-185556250I0J243750D01*
G01*
X166300000Y-185068750D01*
G75*
G02*
X166543750Y-184825000I243750J0D01*
G01*
X167456250Y-184825000D01*
G75*
G02*
X167700000Y-185068750I0J-243750D01*
G01*
X167700000Y-185556250D01*
G75*
G02*
X167456250Y-185800000I-243750J0D01*
G01*
G37*
%TD*%
%TO.C,R1*%
G36*
G01*
X150456250Y-187675000D02*
X149543750Y-187675000D01*
G75*
G02*
X149300000Y-187431250I0J243750D01*
G01*
X149300000Y-186943750D01*
G75*
G02*
X149543750Y-186700000I243750J0D01*
G01*
X150456250Y-186700000D01*
G75*
G02*
X150700000Y-186943750I0J-243750D01*
G01*
X150700000Y-187431250D01*
G75*
G02*
X150456250Y-187675000I-243750J0D01*
G01*
G37*
G36*
G01*
X150456250Y-185800000D02*
X149543750Y-185800000D01*
G75*
G02*
X149300000Y-185556250I0J243750D01*
G01*
X149300000Y-185068750D01*
G75*
G02*
X149543750Y-184825000I243750J0D01*
G01*
X150456250Y-184825000D01*
G75*
G02*
X150700000Y-185068750I0J-243750D01*
G01*
X150700000Y-185556250D01*
G75*
G02*
X150456250Y-185800000I-243750J0D01*
G01*
G37*
%TD*%
%TO.C,R1*%
G36*
G01*
X133456250Y-187675000D02*
X132543750Y-187675000D01*
G75*
G02*
X132300000Y-187431250I0J243750D01*
G01*
X132300000Y-186943750D01*
G75*
G02*
X132543750Y-186700000I243750J0D01*
G01*
X133456250Y-186700000D01*
G75*
G02*
X133700000Y-186943750I0J-243750D01*
G01*
X133700000Y-187431250D01*
G75*
G02*
X133456250Y-187675000I-243750J0D01*
G01*
G37*
G36*
G01*
X133456250Y-185800000D02*
X132543750Y-185800000D01*
G75*
G02*
X132300000Y-185556250I0J243750D01*
G01*
X132300000Y-185068750D01*
G75*
G02*
X132543750Y-184825000I243750J0D01*
G01*
X133456250Y-184825000D01*
G75*
G02*
X133700000Y-185068750I0J-243750D01*
G01*
X133700000Y-185556250D01*
G75*
G02*
X133456250Y-185800000I-243750J0D01*
G01*
G37*
%TD*%
%TO.C,R1*%
G36*
G01*
X201456250Y-175675000D02*
X200543750Y-175675000D01*
G75*
G02*
X200300000Y-175431250I0J243750D01*
G01*
X200300000Y-174943750D01*
G75*
G02*
X200543750Y-174700000I243750J0D01*
G01*
X201456250Y-174700000D01*
G75*
G02*
X201700000Y-174943750I0J-243750D01*
G01*
X201700000Y-175431250D01*
G75*
G02*
X201456250Y-175675000I-243750J0D01*
G01*
G37*
G36*
G01*
X201456250Y-173800000D02*
X200543750Y-173800000D01*
G75*
G02*
X200300000Y-173556250I0J243750D01*
G01*
X200300000Y-173068750D01*
G75*
G02*
X200543750Y-172825000I243750J0D01*
G01*
X201456250Y-172825000D01*
G75*
G02*
X201700000Y-173068750I0J-243750D01*
G01*
X201700000Y-173556250D01*
G75*
G02*
X201456250Y-173800000I-243750J0D01*
G01*
G37*
%TD*%
%TO.C,R1*%
G36*
G01*
X184456250Y-175675000D02*
X183543750Y-175675000D01*
G75*
G02*
X183300000Y-175431250I0J243750D01*
G01*
X183300000Y-174943750D01*
G75*
G02*
X183543750Y-174700000I243750J0D01*
G01*
X184456250Y-174700000D01*
G75*
G02*
X184700000Y-174943750I0J-243750D01*
G01*
X184700000Y-175431250D01*
G75*
G02*
X184456250Y-175675000I-243750J0D01*
G01*
G37*
G36*
G01*
X184456250Y-173800000D02*
X183543750Y-173800000D01*
G75*
G02*
X183300000Y-173556250I0J243750D01*
G01*
X183300000Y-173068750D01*
G75*
G02*
X183543750Y-172825000I243750J0D01*
G01*
X184456250Y-172825000D01*
G75*
G02*
X184700000Y-173068750I0J-243750D01*
G01*
X184700000Y-173556250D01*
G75*
G02*
X184456250Y-173800000I-243750J0D01*
G01*
G37*
%TD*%
%TO.C,R1*%
G36*
G01*
X167456250Y-175675000D02*
X166543750Y-175675000D01*
G75*
G02*
X166300000Y-175431250I0J243750D01*
G01*
X166300000Y-174943750D01*
G75*
G02*
X166543750Y-174700000I243750J0D01*
G01*
X167456250Y-174700000D01*
G75*
G02*
X167700000Y-174943750I0J-243750D01*
G01*
X167700000Y-175431250D01*
G75*
G02*
X167456250Y-175675000I-243750J0D01*
G01*
G37*
G36*
G01*
X167456250Y-173800000D02*
X166543750Y-173800000D01*
G75*
G02*
X166300000Y-173556250I0J243750D01*
G01*
X166300000Y-173068750D01*
G75*
G02*
X166543750Y-172825000I243750J0D01*
G01*
X167456250Y-172825000D01*
G75*
G02*
X167700000Y-173068750I0J-243750D01*
G01*
X167700000Y-173556250D01*
G75*
G02*
X167456250Y-173800000I-243750J0D01*
G01*
G37*
%TD*%
%TO.C,R1*%
G36*
G01*
X150456250Y-175675000D02*
X149543750Y-175675000D01*
G75*
G02*
X149300000Y-175431250I0J243750D01*
G01*
X149300000Y-174943750D01*
G75*
G02*
X149543750Y-174700000I243750J0D01*
G01*
X150456250Y-174700000D01*
G75*
G02*
X150700000Y-174943750I0J-243750D01*
G01*
X150700000Y-175431250D01*
G75*
G02*
X150456250Y-175675000I-243750J0D01*
G01*
G37*
G36*
G01*
X150456250Y-173800000D02*
X149543750Y-173800000D01*
G75*
G02*
X149300000Y-173556250I0J243750D01*
G01*
X149300000Y-173068750D01*
G75*
G02*
X149543750Y-172825000I243750J0D01*
G01*
X150456250Y-172825000D01*
G75*
G02*
X150700000Y-173068750I0J-243750D01*
G01*
X150700000Y-173556250D01*
G75*
G02*
X150456250Y-173800000I-243750J0D01*
G01*
G37*
%TD*%
%TO.C,R1*%
G36*
G01*
X133456250Y-175675000D02*
X132543750Y-175675000D01*
G75*
G02*
X132300000Y-175431250I0J243750D01*
G01*
X132300000Y-174943750D01*
G75*
G02*
X132543750Y-174700000I243750J0D01*
G01*
X133456250Y-174700000D01*
G75*
G02*
X133700000Y-174943750I0J-243750D01*
G01*
X133700000Y-175431250D01*
G75*
G02*
X133456250Y-175675000I-243750J0D01*
G01*
G37*
G36*
G01*
X133456250Y-173800000D02*
X132543750Y-173800000D01*
G75*
G02*
X132300000Y-173556250I0J243750D01*
G01*
X132300000Y-173068750D01*
G75*
G02*
X132543750Y-172825000I243750J0D01*
G01*
X133456250Y-172825000D01*
G75*
G02*
X133700000Y-173068750I0J-243750D01*
G01*
X133700000Y-173556250D01*
G75*
G02*
X133456250Y-173800000I-243750J0D01*
G01*
G37*
%TD*%
%TO.C,R1*%
G36*
G01*
X201456250Y-163675000D02*
X200543750Y-163675000D01*
G75*
G02*
X200300000Y-163431250I0J243750D01*
G01*
X200300000Y-162943750D01*
G75*
G02*
X200543750Y-162700000I243750J0D01*
G01*
X201456250Y-162700000D01*
G75*
G02*
X201700000Y-162943750I0J-243750D01*
G01*
X201700000Y-163431250D01*
G75*
G02*
X201456250Y-163675000I-243750J0D01*
G01*
G37*
G36*
G01*
X201456250Y-161800000D02*
X200543750Y-161800000D01*
G75*
G02*
X200300000Y-161556250I0J243750D01*
G01*
X200300000Y-161068750D01*
G75*
G02*
X200543750Y-160825000I243750J0D01*
G01*
X201456250Y-160825000D01*
G75*
G02*
X201700000Y-161068750I0J-243750D01*
G01*
X201700000Y-161556250D01*
G75*
G02*
X201456250Y-161800000I-243750J0D01*
G01*
G37*
%TD*%
%TO.C,R1*%
G36*
G01*
X184456250Y-163675000D02*
X183543750Y-163675000D01*
G75*
G02*
X183300000Y-163431250I0J243750D01*
G01*
X183300000Y-162943750D01*
G75*
G02*
X183543750Y-162700000I243750J0D01*
G01*
X184456250Y-162700000D01*
G75*
G02*
X184700000Y-162943750I0J-243750D01*
G01*
X184700000Y-163431250D01*
G75*
G02*
X184456250Y-163675000I-243750J0D01*
G01*
G37*
G36*
G01*
X184456250Y-161800000D02*
X183543750Y-161800000D01*
G75*
G02*
X183300000Y-161556250I0J243750D01*
G01*
X183300000Y-161068750D01*
G75*
G02*
X183543750Y-160825000I243750J0D01*
G01*
X184456250Y-160825000D01*
G75*
G02*
X184700000Y-161068750I0J-243750D01*
G01*
X184700000Y-161556250D01*
G75*
G02*
X184456250Y-161800000I-243750J0D01*
G01*
G37*
%TD*%
%TO.C,R1*%
G36*
G01*
X167456250Y-163675000D02*
X166543750Y-163675000D01*
G75*
G02*
X166300000Y-163431250I0J243750D01*
G01*
X166300000Y-162943750D01*
G75*
G02*
X166543750Y-162700000I243750J0D01*
G01*
X167456250Y-162700000D01*
G75*
G02*
X167700000Y-162943750I0J-243750D01*
G01*
X167700000Y-163431250D01*
G75*
G02*
X167456250Y-163675000I-243750J0D01*
G01*
G37*
G36*
G01*
X167456250Y-161800000D02*
X166543750Y-161800000D01*
G75*
G02*
X166300000Y-161556250I0J243750D01*
G01*
X166300000Y-161068750D01*
G75*
G02*
X166543750Y-160825000I243750J0D01*
G01*
X167456250Y-160825000D01*
G75*
G02*
X167700000Y-161068750I0J-243750D01*
G01*
X167700000Y-161556250D01*
G75*
G02*
X167456250Y-161800000I-243750J0D01*
G01*
G37*
%TD*%
%TO.C,R1*%
G36*
G01*
X150456250Y-163675000D02*
X149543750Y-163675000D01*
G75*
G02*
X149300000Y-163431250I0J243750D01*
G01*
X149300000Y-162943750D01*
G75*
G02*
X149543750Y-162700000I243750J0D01*
G01*
X150456250Y-162700000D01*
G75*
G02*
X150700000Y-162943750I0J-243750D01*
G01*
X150700000Y-163431250D01*
G75*
G02*
X150456250Y-163675000I-243750J0D01*
G01*
G37*
G36*
G01*
X150456250Y-161800000D02*
X149543750Y-161800000D01*
G75*
G02*
X149300000Y-161556250I0J243750D01*
G01*
X149300000Y-161068750D01*
G75*
G02*
X149543750Y-160825000I243750J0D01*
G01*
X150456250Y-160825000D01*
G75*
G02*
X150700000Y-161068750I0J-243750D01*
G01*
X150700000Y-161556250D01*
G75*
G02*
X150456250Y-161800000I-243750J0D01*
G01*
G37*
%TD*%
%TO.C,R1*%
G36*
G01*
X133456250Y-163675000D02*
X132543750Y-163675000D01*
G75*
G02*
X132300000Y-163431250I0J243750D01*
G01*
X132300000Y-162943750D01*
G75*
G02*
X132543750Y-162700000I243750J0D01*
G01*
X133456250Y-162700000D01*
G75*
G02*
X133700000Y-162943750I0J-243750D01*
G01*
X133700000Y-163431250D01*
G75*
G02*
X133456250Y-163675000I-243750J0D01*
G01*
G37*
G36*
G01*
X133456250Y-161800000D02*
X132543750Y-161800000D01*
G75*
G02*
X132300000Y-161556250I0J243750D01*
G01*
X132300000Y-161068750D01*
G75*
G02*
X132543750Y-160825000I243750J0D01*
G01*
X133456250Y-160825000D01*
G75*
G02*
X133700000Y-161068750I0J-243750D01*
G01*
X133700000Y-161556250D01*
G75*
G02*
X133456250Y-161800000I-243750J0D01*
G01*
G37*
%TD*%
%TO.C,R1*%
G36*
G01*
X201456250Y-151675000D02*
X200543750Y-151675000D01*
G75*
G02*
X200300000Y-151431250I0J243750D01*
G01*
X200300000Y-150943750D01*
G75*
G02*
X200543750Y-150700000I243750J0D01*
G01*
X201456250Y-150700000D01*
G75*
G02*
X201700000Y-150943750I0J-243750D01*
G01*
X201700000Y-151431250D01*
G75*
G02*
X201456250Y-151675000I-243750J0D01*
G01*
G37*
G36*
G01*
X201456250Y-149800000D02*
X200543750Y-149800000D01*
G75*
G02*
X200300000Y-149556250I0J243750D01*
G01*
X200300000Y-149068750D01*
G75*
G02*
X200543750Y-148825000I243750J0D01*
G01*
X201456250Y-148825000D01*
G75*
G02*
X201700000Y-149068750I0J-243750D01*
G01*
X201700000Y-149556250D01*
G75*
G02*
X201456250Y-149800000I-243750J0D01*
G01*
G37*
%TD*%
%TO.C,R1*%
G36*
G01*
X184456250Y-151675000D02*
X183543750Y-151675000D01*
G75*
G02*
X183300000Y-151431250I0J243750D01*
G01*
X183300000Y-150943750D01*
G75*
G02*
X183543750Y-150700000I243750J0D01*
G01*
X184456250Y-150700000D01*
G75*
G02*
X184700000Y-150943750I0J-243750D01*
G01*
X184700000Y-151431250D01*
G75*
G02*
X184456250Y-151675000I-243750J0D01*
G01*
G37*
G36*
G01*
X184456250Y-149800000D02*
X183543750Y-149800000D01*
G75*
G02*
X183300000Y-149556250I0J243750D01*
G01*
X183300000Y-149068750D01*
G75*
G02*
X183543750Y-148825000I243750J0D01*
G01*
X184456250Y-148825000D01*
G75*
G02*
X184700000Y-149068750I0J-243750D01*
G01*
X184700000Y-149556250D01*
G75*
G02*
X184456250Y-149800000I-243750J0D01*
G01*
G37*
%TD*%
%TO.C,R1*%
G36*
G01*
X167456250Y-151675000D02*
X166543750Y-151675000D01*
G75*
G02*
X166300000Y-151431250I0J243750D01*
G01*
X166300000Y-150943750D01*
G75*
G02*
X166543750Y-150700000I243750J0D01*
G01*
X167456250Y-150700000D01*
G75*
G02*
X167700000Y-150943750I0J-243750D01*
G01*
X167700000Y-151431250D01*
G75*
G02*
X167456250Y-151675000I-243750J0D01*
G01*
G37*
G36*
G01*
X167456250Y-149800000D02*
X166543750Y-149800000D01*
G75*
G02*
X166300000Y-149556250I0J243750D01*
G01*
X166300000Y-149068750D01*
G75*
G02*
X166543750Y-148825000I243750J0D01*
G01*
X167456250Y-148825000D01*
G75*
G02*
X167700000Y-149068750I0J-243750D01*
G01*
X167700000Y-149556250D01*
G75*
G02*
X167456250Y-149800000I-243750J0D01*
G01*
G37*
%TD*%
%TO.C,R1*%
G36*
G01*
X150456250Y-151675000D02*
X149543750Y-151675000D01*
G75*
G02*
X149300000Y-151431250I0J243750D01*
G01*
X149300000Y-150943750D01*
G75*
G02*
X149543750Y-150700000I243750J0D01*
G01*
X150456250Y-150700000D01*
G75*
G02*
X150700000Y-150943750I0J-243750D01*
G01*
X150700000Y-151431250D01*
G75*
G02*
X150456250Y-151675000I-243750J0D01*
G01*
G37*
G36*
G01*
X150456250Y-149800000D02*
X149543750Y-149800000D01*
G75*
G02*
X149300000Y-149556250I0J243750D01*
G01*
X149300000Y-149068750D01*
G75*
G02*
X149543750Y-148825000I243750J0D01*
G01*
X150456250Y-148825000D01*
G75*
G02*
X150700000Y-149068750I0J-243750D01*
G01*
X150700000Y-149556250D01*
G75*
G02*
X150456250Y-149800000I-243750J0D01*
G01*
G37*
%TD*%
%TO.C,R1*%
G36*
G01*
X133456250Y-151675000D02*
X132543750Y-151675000D01*
G75*
G02*
X132300000Y-151431250I0J243750D01*
G01*
X132300000Y-150943750D01*
G75*
G02*
X132543750Y-150700000I243750J0D01*
G01*
X133456250Y-150700000D01*
G75*
G02*
X133700000Y-150943750I0J-243750D01*
G01*
X133700000Y-151431250D01*
G75*
G02*
X133456250Y-151675000I-243750J0D01*
G01*
G37*
G36*
G01*
X133456250Y-149800000D02*
X132543750Y-149800000D01*
G75*
G02*
X132300000Y-149556250I0J243750D01*
G01*
X132300000Y-149068750D01*
G75*
G02*
X132543750Y-148825000I243750J0D01*
G01*
X133456250Y-148825000D01*
G75*
G02*
X133700000Y-149068750I0J-243750D01*
G01*
X133700000Y-149556250D01*
G75*
G02*
X133456250Y-149800000I-243750J0D01*
G01*
G37*
%TD*%
%TO.C,R1*%
G36*
G01*
X201456250Y-139675000D02*
X200543750Y-139675000D01*
G75*
G02*
X200300000Y-139431250I0J243750D01*
G01*
X200300000Y-138943750D01*
G75*
G02*
X200543750Y-138700000I243750J0D01*
G01*
X201456250Y-138700000D01*
G75*
G02*
X201700000Y-138943750I0J-243750D01*
G01*
X201700000Y-139431250D01*
G75*
G02*
X201456250Y-139675000I-243750J0D01*
G01*
G37*
G36*
G01*
X201456250Y-137800000D02*
X200543750Y-137800000D01*
G75*
G02*
X200300000Y-137556250I0J243750D01*
G01*
X200300000Y-137068750D01*
G75*
G02*
X200543750Y-136825000I243750J0D01*
G01*
X201456250Y-136825000D01*
G75*
G02*
X201700000Y-137068750I0J-243750D01*
G01*
X201700000Y-137556250D01*
G75*
G02*
X201456250Y-137800000I-243750J0D01*
G01*
G37*
%TD*%
%TO.C,R1*%
G36*
G01*
X184456250Y-139675000D02*
X183543750Y-139675000D01*
G75*
G02*
X183300000Y-139431250I0J243750D01*
G01*
X183300000Y-138943750D01*
G75*
G02*
X183543750Y-138700000I243750J0D01*
G01*
X184456250Y-138700000D01*
G75*
G02*
X184700000Y-138943750I0J-243750D01*
G01*
X184700000Y-139431250D01*
G75*
G02*
X184456250Y-139675000I-243750J0D01*
G01*
G37*
G36*
G01*
X184456250Y-137800000D02*
X183543750Y-137800000D01*
G75*
G02*
X183300000Y-137556250I0J243750D01*
G01*
X183300000Y-137068750D01*
G75*
G02*
X183543750Y-136825000I243750J0D01*
G01*
X184456250Y-136825000D01*
G75*
G02*
X184700000Y-137068750I0J-243750D01*
G01*
X184700000Y-137556250D01*
G75*
G02*
X184456250Y-137800000I-243750J0D01*
G01*
G37*
%TD*%
%TO.C,R1*%
G36*
G01*
X167456250Y-139675000D02*
X166543750Y-139675000D01*
G75*
G02*
X166300000Y-139431250I0J243750D01*
G01*
X166300000Y-138943750D01*
G75*
G02*
X166543750Y-138700000I243750J0D01*
G01*
X167456250Y-138700000D01*
G75*
G02*
X167700000Y-138943750I0J-243750D01*
G01*
X167700000Y-139431250D01*
G75*
G02*
X167456250Y-139675000I-243750J0D01*
G01*
G37*
G36*
G01*
X167456250Y-137800000D02*
X166543750Y-137800000D01*
G75*
G02*
X166300000Y-137556250I0J243750D01*
G01*
X166300000Y-137068750D01*
G75*
G02*
X166543750Y-136825000I243750J0D01*
G01*
X167456250Y-136825000D01*
G75*
G02*
X167700000Y-137068750I0J-243750D01*
G01*
X167700000Y-137556250D01*
G75*
G02*
X167456250Y-137800000I-243750J0D01*
G01*
G37*
%TD*%
%TO.C,R1*%
G36*
G01*
X150456250Y-139675000D02*
X149543750Y-139675000D01*
G75*
G02*
X149300000Y-139431250I0J243750D01*
G01*
X149300000Y-138943750D01*
G75*
G02*
X149543750Y-138700000I243750J0D01*
G01*
X150456250Y-138700000D01*
G75*
G02*
X150700000Y-138943750I0J-243750D01*
G01*
X150700000Y-139431250D01*
G75*
G02*
X150456250Y-139675000I-243750J0D01*
G01*
G37*
G36*
G01*
X150456250Y-137800000D02*
X149543750Y-137800000D01*
G75*
G02*
X149300000Y-137556250I0J243750D01*
G01*
X149300000Y-137068750D01*
G75*
G02*
X149543750Y-136825000I243750J0D01*
G01*
X150456250Y-136825000D01*
G75*
G02*
X150700000Y-137068750I0J-243750D01*
G01*
X150700000Y-137556250D01*
G75*
G02*
X150456250Y-137800000I-243750J0D01*
G01*
G37*
%TD*%
%TO.C,R1*%
G36*
G01*
X133456250Y-139675000D02*
X132543750Y-139675000D01*
G75*
G02*
X132300000Y-139431250I0J243750D01*
G01*
X132300000Y-138943750D01*
G75*
G02*
X132543750Y-138700000I243750J0D01*
G01*
X133456250Y-138700000D01*
G75*
G02*
X133700000Y-138943750I0J-243750D01*
G01*
X133700000Y-139431250D01*
G75*
G02*
X133456250Y-139675000I-243750J0D01*
G01*
G37*
G36*
G01*
X133456250Y-137800000D02*
X132543750Y-137800000D01*
G75*
G02*
X132300000Y-137556250I0J243750D01*
G01*
X132300000Y-137068750D01*
G75*
G02*
X132543750Y-136825000I243750J0D01*
G01*
X133456250Y-136825000D01*
G75*
G02*
X133700000Y-137068750I0J-243750D01*
G01*
X133700000Y-137556250D01*
G75*
G02*
X133456250Y-137800000I-243750J0D01*
G01*
G37*
%TD*%
%TO.C,R1*%
G36*
G01*
X201456250Y-127675000D02*
X200543750Y-127675000D01*
G75*
G02*
X200300000Y-127431250I0J243750D01*
G01*
X200300000Y-126943750D01*
G75*
G02*
X200543750Y-126700000I243750J0D01*
G01*
X201456250Y-126700000D01*
G75*
G02*
X201700000Y-126943750I0J-243750D01*
G01*
X201700000Y-127431250D01*
G75*
G02*
X201456250Y-127675000I-243750J0D01*
G01*
G37*
G36*
G01*
X201456250Y-125800000D02*
X200543750Y-125800000D01*
G75*
G02*
X200300000Y-125556250I0J243750D01*
G01*
X200300000Y-125068750D01*
G75*
G02*
X200543750Y-124825000I243750J0D01*
G01*
X201456250Y-124825000D01*
G75*
G02*
X201700000Y-125068750I0J-243750D01*
G01*
X201700000Y-125556250D01*
G75*
G02*
X201456250Y-125800000I-243750J0D01*
G01*
G37*
%TD*%
%TO.C,R1*%
G36*
G01*
X184456250Y-127675000D02*
X183543750Y-127675000D01*
G75*
G02*
X183300000Y-127431250I0J243750D01*
G01*
X183300000Y-126943750D01*
G75*
G02*
X183543750Y-126700000I243750J0D01*
G01*
X184456250Y-126700000D01*
G75*
G02*
X184700000Y-126943750I0J-243750D01*
G01*
X184700000Y-127431250D01*
G75*
G02*
X184456250Y-127675000I-243750J0D01*
G01*
G37*
G36*
G01*
X184456250Y-125800000D02*
X183543750Y-125800000D01*
G75*
G02*
X183300000Y-125556250I0J243750D01*
G01*
X183300000Y-125068750D01*
G75*
G02*
X183543750Y-124825000I243750J0D01*
G01*
X184456250Y-124825000D01*
G75*
G02*
X184700000Y-125068750I0J-243750D01*
G01*
X184700000Y-125556250D01*
G75*
G02*
X184456250Y-125800000I-243750J0D01*
G01*
G37*
%TD*%
%TO.C,R1*%
G36*
G01*
X167456250Y-127675000D02*
X166543750Y-127675000D01*
G75*
G02*
X166300000Y-127431250I0J243750D01*
G01*
X166300000Y-126943750D01*
G75*
G02*
X166543750Y-126700000I243750J0D01*
G01*
X167456250Y-126700000D01*
G75*
G02*
X167700000Y-126943750I0J-243750D01*
G01*
X167700000Y-127431250D01*
G75*
G02*
X167456250Y-127675000I-243750J0D01*
G01*
G37*
G36*
G01*
X167456250Y-125800000D02*
X166543750Y-125800000D01*
G75*
G02*
X166300000Y-125556250I0J243750D01*
G01*
X166300000Y-125068750D01*
G75*
G02*
X166543750Y-124825000I243750J0D01*
G01*
X167456250Y-124825000D01*
G75*
G02*
X167700000Y-125068750I0J-243750D01*
G01*
X167700000Y-125556250D01*
G75*
G02*
X167456250Y-125800000I-243750J0D01*
G01*
G37*
%TD*%
%TO.C,R1*%
G36*
G01*
X150456250Y-127675000D02*
X149543750Y-127675000D01*
G75*
G02*
X149300000Y-127431250I0J243750D01*
G01*
X149300000Y-126943750D01*
G75*
G02*
X149543750Y-126700000I243750J0D01*
G01*
X150456250Y-126700000D01*
G75*
G02*
X150700000Y-126943750I0J-243750D01*
G01*
X150700000Y-127431250D01*
G75*
G02*
X150456250Y-127675000I-243750J0D01*
G01*
G37*
G36*
G01*
X150456250Y-125800000D02*
X149543750Y-125800000D01*
G75*
G02*
X149300000Y-125556250I0J243750D01*
G01*
X149300000Y-125068750D01*
G75*
G02*
X149543750Y-124825000I243750J0D01*
G01*
X150456250Y-124825000D01*
G75*
G02*
X150700000Y-125068750I0J-243750D01*
G01*
X150700000Y-125556250D01*
G75*
G02*
X150456250Y-125800000I-243750J0D01*
G01*
G37*
%TD*%
%TO.C,R1*%
G36*
G01*
X133456250Y-127675000D02*
X132543750Y-127675000D01*
G75*
G02*
X132300000Y-127431250I0J243750D01*
G01*
X132300000Y-126943750D01*
G75*
G02*
X132543750Y-126700000I243750J0D01*
G01*
X133456250Y-126700000D01*
G75*
G02*
X133700000Y-126943750I0J-243750D01*
G01*
X133700000Y-127431250D01*
G75*
G02*
X133456250Y-127675000I-243750J0D01*
G01*
G37*
G36*
G01*
X133456250Y-125800000D02*
X132543750Y-125800000D01*
G75*
G02*
X132300000Y-125556250I0J243750D01*
G01*
X132300000Y-125068750D01*
G75*
G02*
X132543750Y-124825000I243750J0D01*
G01*
X133456250Y-124825000D01*
G75*
G02*
X133700000Y-125068750I0J-243750D01*
G01*
X133700000Y-125556250D01*
G75*
G02*
X133456250Y-125800000I-243750J0D01*
G01*
G37*
%TD*%
%TO.C,R1*%
G36*
G01*
X201456250Y-115675000D02*
X200543750Y-115675000D01*
G75*
G02*
X200300000Y-115431250I0J243750D01*
G01*
X200300000Y-114943750D01*
G75*
G02*
X200543750Y-114700000I243750J0D01*
G01*
X201456250Y-114700000D01*
G75*
G02*
X201700000Y-114943750I0J-243750D01*
G01*
X201700000Y-115431250D01*
G75*
G02*
X201456250Y-115675000I-243750J0D01*
G01*
G37*
G36*
G01*
X201456250Y-113800000D02*
X200543750Y-113800000D01*
G75*
G02*
X200300000Y-113556250I0J243750D01*
G01*
X200300000Y-113068750D01*
G75*
G02*
X200543750Y-112825000I243750J0D01*
G01*
X201456250Y-112825000D01*
G75*
G02*
X201700000Y-113068750I0J-243750D01*
G01*
X201700000Y-113556250D01*
G75*
G02*
X201456250Y-113800000I-243750J0D01*
G01*
G37*
%TD*%
%TO.C,R1*%
G36*
G01*
X184456250Y-115675000D02*
X183543750Y-115675000D01*
G75*
G02*
X183300000Y-115431250I0J243750D01*
G01*
X183300000Y-114943750D01*
G75*
G02*
X183543750Y-114700000I243750J0D01*
G01*
X184456250Y-114700000D01*
G75*
G02*
X184700000Y-114943750I0J-243750D01*
G01*
X184700000Y-115431250D01*
G75*
G02*
X184456250Y-115675000I-243750J0D01*
G01*
G37*
G36*
G01*
X184456250Y-113800000D02*
X183543750Y-113800000D01*
G75*
G02*
X183300000Y-113556250I0J243750D01*
G01*
X183300000Y-113068750D01*
G75*
G02*
X183543750Y-112825000I243750J0D01*
G01*
X184456250Y-112825000D01*
G75*
G02*
X184700000Y-113068750I0J-243750D01*
G01*
X184700000Y-113556250D01*
G75*
G02*
X184456250Y-113800000I-243750J0D01*
G01*
G37*
%TD*%
%TO.C,R1*%
G36*
G01*
X167456250Y-115675000D02*
X166543750Y-115675000D01*
G75*
G02*
X166300000Y-115431250I0J243750D01*
G01*
X166300000Y-114943750D01*
G75*
G02*
X166543750Y-114700000I243750J0D01*
G01*
X167456250Y-114700000D01*
G75*
G02*
X167700000Y-114943750I0J-243750D01*
G01*
X167700000Y-115431250D01*
G75*
G02*
X167456250Y-115675000I-243750J0D01*
G01*
G37*
G36*
G01*
X167456250Y-113800000D02*
X166543750Y-113800000D01*
G75*
G02*
X166300000Y-113556250I0J243750D01*
G01*
X166300000Y-113068750D01*
G75*
G02*
X166543750Y-112825000I243750J0D01*
G01*
X167456250Y-112825000D01*
G75*
G02*
X167700000Y-113068750I0J-243750D01*
G01*
X167700000Y-113556250D01*
G75*
G02*
X167456250Y-113800000I-243750J0D01*
G01*
G37*
%TD*%
%TO.C,R1*%
G36*
G01*
X150456250Y-115675000D02*
X149543750Y-115675000D01*
G75*
G02*
X149300000Y-115431250I0J243750D01*
G01*
X149300000Y-114943750D01*
G75*
G02*
X149543750Y-114700000I243750J0D01*
G01*
X150456250Y-114700000D01*
G75*
G02*
X150700000Y-114943750I0J-243750D01*
G01*
X150700000Y-115431250D01*
G75*
G02*
X150456250Y-115675000I-243750J0D01*
G01*
G37*
G36*
G01*
X150456250Y-113800000D02*
X149543750Y-113800000D01*
G75*
G02*
X149300000Y-113556250I0J243750D01*
G01*
X149300000Y-113068750D01*
G75*
G02*
X149543750Y-112825000I243750J0D01*
G01*
X150456250Y-112825000D01*
G75*
G02*
X150700000Y-113068750I0J-243750D01*
G01*
X150700000Y-113556250D01*
G75*
G02*
X150456250Y-113800000I-243750J0D01*
G01*
G37*
%TD*%
%TO.C,R1*%
G36*
G01*
X133456250Y-115675000D02*
X132543750Y-115675000D01*
G75*
G02*
X132300000Y-115431250I0J243750D01*
G01*
X132300000Y-114943750D01*
G75*
G02*
X132543750Y-114700000I243750J0D01*
G01*
X133456250Y-114700000D01*
G75*
G02*
X133700000Y-114943750I0J-243750D01*
G01*
X133700000Y-115431250D01*
G75*
G02*
X133456250Y-115675000I-243750J0D01*
G01*
G37*
G36*
G01*
X133456250Y-113800000D02*
X132543750Y-113800000D01*
G75*
G02*
X132300000Y-113556250I0J243750D01*
G01*
X132300000Y-113068750D01*
G75*
G02*
X132543750Y-112825000I243750J0D01*
G01*
X133456250Y-112825000D01*
G75*
G02*
X133700000Y-113068750I0J-243750D01*
G01*
X133700000Y-113556250D01*
G75*
G02*
X133456250Y-113800000I-243750J0D01*
G01*
G37*
%TD*%
%TO.C,R1*%
G36*
G01*
X201456250Y-103675000D02*
X200543750Y-103675000D01*
G75*
G02*
X200300000Y-103431250I0J243750D01*
G01*
X200300000Y-102943750D01*
G75*
G02*
X200543750Y-102700000I243750J0D01*
G01*
X201456250Y-102700000D01*
G75*
G02*
X201700000Y-102943750I0J-243750D01*
G01*
X201700000Y-103431250D01*
G75*
G02*
X201456250Y-103675000I-243750J0D01*
G01*
G37*
G36*
G01*
X201456250Y-101800000D02*
X200543750Y-101800000D01*
G75*
G02*
X200300000Y-101556250I0J243750D01*
G01*
X200300000Y-101068750D01*
G75*
G02*
X200543750Y-100825000I243750J0D01*
G01*
X201456250Y-100825000D01*
G75*
G02*
X201700000Y-101068750I0J-243750D01*
G01*
X201700000Y-101556250D01*
G75*
G02*
X201456250Y-101800000I-243750J0D01*
G01*
G37*
%TD*%
%TO.C,R1*%
G36*
G01*
X184456250Y-103675000D02*
X183543750Y-103675000D01*
G75*
G02*
X183300000Y-103431250I0J243750D01*
G01*
X183300000Y-102943750D01*
G75*
G02*
X183543750Y-102700000I243750J0D01*
G01*
X184456250Y-102700000D01*
G75*
G02*
X184700000Y-102943750I0J-243750D01*
G01*
X184700000Y-103431250D01*
G75*
G02*
X184456250Y-103675000I-243750J0D01*
G01*
G37*
G36*
G01*
X184456250Y-101800000D02*
X183543750Y-101800000D01*
G75*
G02*
X183300000Y-101556250I0J243750D01*
G01*
X183300000Y-101068750D01*
G75*
G02*
X183543750Y-100825000I243750J0D01*
G01*
X184456250Y-100825000D01*
G75*
G02*
X184700000Y-101068750I0J-243750D01*
G01*
X184700000Y-101556250D01*
G75*
G02*
X184456250Y-101800000I-243750J0D01*
G01*
G37*
%TD*%
%TO.C,R1*%
G36*
G01*
X167456250Y-103675000D02*
X166543750Y-103675000D01*
G75*
G02*
X166300000Y-103431250I0J243750D01*
G01*
X166300000Y-102943750D01*
G75*
G02*
X166543750Y-102700000I243750J0D01*
G01*
X167456250Y-102700000D01*
G75*
G02*
X167700000Y-102943750I0J-243750D01*
G01*
X167700000Y-103431250D01*
G75*
G02*
X167456250Y-103675000I-243750J0D01*
G01*
G37*
G36*
G01*
X167456250Y-101800000D02*
X166543750Y-101800000D01*
G75*
G02*
X166300000Y-101556250I0J243750D01*
G01*
X166300000Y-101068750D01*
G75*
G02*
X166543750Y-100825000I243750J0D01*
G01*
X167456250Y-100825000D01*
G75*
G02*
X167700000Y-101068750I0J-243750D01*
G01*
X167700000Y-101556250D01*
G75*
G02*
X167456250Y-101800000I-243750J0D01*
G01*
G37*
%TD*%
%TO.C,R1*%
G36*
G01*
X150456250Y-103675000D02*
X149543750Y-103675000D01*
G75*
G02*
X149300000Y-103431250I0J243750D01*
G01*
X149300000Y-102943750D01*
G75*
G02*
X149543750Y-102700000I243750J0D01*
G01*
X150456250Y-102700000D01*
G75*
G02*
X150700000Y-102943750I0J-243750D01*
G01*
X150700000Y-103431250D01*
G75*
G02*
X150456250Y-103675000I-243750J0D01*
G01*
G37*
G36*
G01*
X150456250Y-101800000D02*
X149543750Y-101800000D01*
G75*
G02*
X149300000Y-101556250I0J243750D01*
G01*
X149300000Y-101068750D01*
G75*
G02*
X149543750Y-100825000I243750J0D01*
G01*
X150456250Y-100825000D01*
G75*
G02*
X150700000Y-101068750I0J-243750D01*
G01*
X150700000Y-101556250D01*
G75*
G02*
X150456250Y-101800000I-243750J0D01*
G01*
G37*
%TD*%
%TO.C,R5*%
G36*
G01*
X206706250Y-185800000D02*
X205793750Y-185800000D01*
G75*
G02*
X205550000Y-185556250I0J243750D01*
G01*
X205550000Y-185068750D01*
G75*
G02*
X205793750Y-184825000I243750J0D01*
G01*
X206706250Y-184825000D01*
G75*
G02*
X206950000Y-185068750I0J-243750D01*
G01*
X206950000Y-185556250D01*
G75*
G02*
X206706250Y-185800000I-243750J0D01*
G01*
G37*
G36*
G01*
X206706250Y-187675000D02*
X205793750Y-187675000D01*
G75*
G02*
X205550000Y-187431250I0J243750D01*
G01*
X205550000Y-186943750D01*
G75*
G02*
X205793750Y-186700000I243750J0D01*
G01*
X206706250Y-186700000D01*
G75*
G02*
X206950000Y-186943750I0J-243750D01*
G01*
X206950000Y-187431250D01*
G75*
G02*
X206706250Y-187675000I-243750J0D01*
G01*
G37*
%TD*%
%TO.C,R5*%
G36*
G01*
X189706250Y-185800000D02*
X188793750Y-185800000D01*
G75*
G02*
X188550000Y-185556250I0J243750D01*
G01*
X188550000Y-185068750D01*
G75*
G02*
X188793750Y-184825000I243750J0D01*
G01*
X189706250Y-184825000D01*
G75*
G02*
X189950000Y-185068750I0J-243750D01*
G01*
X189950000Y-185556250D01*
G75*
G02*
X189706250Y-185800000I-243750J0D01*
G01*
G37*
G36*
G01*
X189706250Y-187675000D02*
X188793750Y-187675000D01*
G75*
G02*
X188550000Y-187431250I0J243750D01*
G01*
X188550000Y-186943750D01*
G75*
G02*
X188793750Y-186700000I243750J0D01*
G01*
X189706250Y-186700000D01*
G75*
G02*
X189950000Y-186943750I0J-243750D01*
G01*
X189950000Y-187431250D01*
G75*
G02*
X189706250Y-187675000I-243750J0D01*
G01*
G37*
%TD*%
%TO.C,R5*%
G36*
G01*
X172706250Y-185800000D02*
X171793750Y-185800000D01*
G75*
G02*
X171550000Y-185556250I0J243750D01*
G01*
X171550000Y-185068750D01*
G75*
G02*
X171793750Y-184825000I243750J0D01*
G01*
X172706250Y-184825000D01*
G75*
G02*
X172950000Y-185068750I0J-243750D01*
G01*
X172950000Y-185556250D01*
G75*
G02*
X172706250Y-185800000I-243750J0D01*
G01*
G37*
G36*
G01*
X172706250Y-187675000D02*
X171793750Y-187675000D01*
G75*
G02*
X171550000Y-187431250I0J243750D01*
G01*
X171550000Y-186943750D01*
G75*
G02*
X171793750Y-186700000I243750J0D01*
G01*
X172706250Y-186700000D01*
G75*
G02*
X172950000Y-186943750I0J-243750D01*
G01*
X172950000Y-187431250D01*
G75*
G02*
X172706250Y-187675000I-243750J0D01*
G01*
G37*
%TD*%
%TO.C,R5*%
G36*
G01*
X155706250Y-185800000D02*
X154793750Y-185800000D01*
G75*
G02*
X154550000Y-185556250I0J243750D01*
G01*
X154550000Y-185068750D01*
G75*
G02*
X154793750Y-184825000I243750J0D01*
G01*
X155706250Y-184825000D01*
G75*
G02*
X155950000Y-185068750I0J-243750D01*
G01*
X155950000Y-185556250D01*
G75*
G02*
X155706250Y-185800000I-243750J0D01*
G01*
G37*
G36*
G01*
X155706250Y-187675000D02*
X154793750Y-187675000D01*
G75*
G02*
X154550000Y-187431250I0J243750D01*
G01*
X154550000Y-186943750D01*
G75*
G02*
X154793750Y-186700000I243750J0D01*
G01*
X155706250Y-186700000D01*
G75*
G02*
X155950000Y-186943750I0J-243750D01*
G01*
X155950000Y-187431250D01*
G75*
G02*
X155706250Y-187675000I-243750J0D01*
G01*
G37*
%TD*%
%TO.C,R5*%
G36*
G01*
X138706250Y-185800000D02*
X137793750Y-185800000D01*
G75*
G02*
X137550000Y-185556250I0J243750D01*
G01*
X137550000Y-185068750D01*
G75*
G02*
X137793750Y-184825000I243750J0D01*
G01*
X138706250Y-184825000D01*
G75*
G02*
X138950000Y-185068750I0J-243750D01*
G01*
X138950000Y-185556250D01*
G75*
G02*
X138706250Y-185800000I-243750J0D01*
G01*
G37*
G36*
G01*
X138706250Y-187675000D02*
X137793750Y-187675000D01*
G75*
G02*
X137550000Y-187431250I0J243750D01*
G01*
X137550000Y-186943750D01*
G75*
G02*
X137793750Y-186700000I243750J0D01*
G01*
X138706250Y-186700000D01*
G75*
G02*
X138950000Y-186943750I0J-243750D01*
G01*
X138950000Y-187431250D01*
G75*
G02*
X138706250Y-187675000I-243750J0D01*
G01*
G37*
%TD*%
%TO.C,R5*%
G36*
G01*
X206706250Y-173800000D02*
X205793750Y-173800000D01*
G75*
G02*
X205550000Y-173556250I0J243750D01*
G01*
X205550000Y-173068750D01*
G75*
G02*
X205793750Y-172825000I243750J0D01*
G01*
X206706250Y-172825000D01*
G75*
G02*
X206950000Y-173068750I0J-243750D01*
G01*
X206950000Y-173556250D01*
G75*
G02*
X206706250Y-173800000I-243750J0D01*
G01*
G37*
G36*
G01*
X206706250Y-175675000D02*
X205793750Y-175675000D01*
G75*
G02*
X205550000Y-175431250I0J243750D01*
G01*
X205550000Y-174943750D01*
G75*
G02*
X205793750Y-174700000I243750J0D01*
G01*
X206706250Y-174700000D01*
G75*
G02*
X206950000Y-174943750I0J-243750D01*
G01*
X206950000Y-175431250D01*
G75*
G02*
X206706250Y-175675000I-243750J0D01*
G01*
G37*
%TD*%
%TO.C,R5*%
G36*
G01*
X189706250Y-173800000D02*
X188793750Y-173800000D01*
G75*
G02*
X188550000Y-173556250I0J243750D01*
G01*
X188550000Y-173068750D01*
G75*
G02*
X188793750Y-172825000I243750J0D01*
G01*
X189706250Y-172825000D01*
G75*
G02*
X189950000Y-173068750I0J-243750D01*
G01*
X189950000Y-173556250D01*
G75*
G02*
X189706250Y-173800000I-243750J0D01*
G01*
G37*
G36*
G01*
X189706250Y-175675000D02*
X188793750Y-175675000D01*
G75*
G02*
X188550000Y-175431250I0J243750D01*
G01*
X188550000Y-174943750D01*
G75*
G02*
X188793750Y-174700000I243750J0D01*
G01*
X189706250Y-174700000D01*
G75*
G02*
X189950000Y-174943750I0J-243750D01*
G01*
X189950000Y-175431250D01*
G75*
G02*
X189706250Y-175675000I-243750J0D01*
G01*
G37*
%TD*%
%TO.C,R5*%
G36*
G01*
X172706250Y-173800000D02*
X171793750Y-173800000D01*
G75*
G02*
X171550000Y-173556250I0J243750D01*
G01*
X171550000Y-173068750D01*
G75*
G02*
X171793750Y-172825000I243750J0D01*
G01*
X172706250Y-172825000D01*
G75*
G02*
X172950000Y-173068750I0J-243750D01*
G01*
X172950000Y-173556250D01*
G75*
G02*
X172706250Y-173800000I-243750J0D01*
G01*
G37*
G36*
G01*
X172706250Y-175675000D02*
X171793750Y-175675000D01*
G75*
G02*
X171550000Y-175431250I0J243750D01*
G01*
X171550000Y-174943750D01*
G75*
G02*
X171793750Y-174700000I243750J0D01*
G01*
X172706250Y-174700000D01*
G75*
G02*
X172950000Y-174943750I0J-243750D01*
G01*
X172950000Y-175431250D01*
G75*
G02*
X172706250Y-175675000I-243750J0D01*
G01*
G37*
%TD*%
%TO.C,R5*%
G36*
G01*
X155706250Y-173800000D02*
X154793750Y-173800000D01*
G75*
G02*
X154550000Y-173556250I0J243750D01*
G01*
X154550000Y-173068750D01*
G75*
G02*
X154793750Y-172825000I243750J0D01*
G01*
X155706250Y-172825000D01*
G75*
G02*
X155950000Y-173068750I0J-243750D01*
G01*
X155950000Y-173556250D01*
G75*
G02*
X155706250Y-173800000I-243750J0D01*
G01*
G37*
G36*
G01*
X155706250Y-175675000D02*
X154793750Y-175675000D01*
G75*
G02*
X154550000Y-175431250I0J243750D01*
G01*
X154550000Y-174943750D01*
G75*
G02*
X154793750Y-174700000I243750J0D01*
G01*
X155706250Y-174700000D01*
G75*
G02*
X155950000Y-174943750I0J-243750D01*
G01*
X155950000Y-175431250D01*
G75*
G02*
X155706250Y-175675000I-243750J0D01*
G01*
G37*
%TD*%
%TO.C,R5*%
G36*
G01*
X138706250Y-173800000D02*
X137793750Y-173800000D01*
G75*
G02*
X137550000Y-173556250I0J243750D01*
G01*
X137550000Y-173068750D01*
G75*
G02*
X137793750Y-172825000I243750J0D01*
G01*
X138706250Y-172825000D01*
G75*
G02*
X138950000Y-173068750I0J-243750D01*
G01*
X138950000Y-173556250D01*
G75*
G02*
X138706250Y-173800000I-243750J0D01*
G01*
G37*
G36*
G01*
X138706250Y-175675000D02*
X137793750Y-175675000D01*
G75*
G02*
X137550000Y-175431250I0J243750D01*
G01*
X137550000Y-174943750D01*
G75*
G02*
X137793750Y-174700000I243750J0D01*
G01*
X138706250Y-174700000D01*
G75*
G02*
X138950000Y-174943750I0J-243750D01*
G01*
X138950000Y-175431250D01*
G75*
G02*
X138706250Y-175675000I-243750J0D01*
G01*
G37*
%TD*%
%TO.C,R5*%
G36*
G01*
X206706250Y-161800000D02*
X205793750Y-161800000D01*
G75*
G02*
X205550000Y-161556250I0J243750D01*
G01*
X205550000Y-161068750D01*
G75*
G02*
X205793750Y-160825000I243750J0D01*
G01*
X206706250Y-160825000D01*
G75*
G02*
X206950000Y-161068750I0J-243750D01*
G01*
X206950000Y-161556250D01*
G75*
G02*
X206706250Y-161800000I-243750J0D01*
G01*
G37*
G36*
G01*
X206706250Y-163675000D02*
X205793750Y-163675000D01*
G75*
G02*
X205550000Y-163431250I0J243750D01*
G01*
X205550000Y-162943750D01*
G75*
G02*
X205793750Y-162700000I243750J0D01*
G01*
X206706250Y-162700000D01*
G75*
G02*
X206950000Y-162943750I0J-243750D01*
G01*
X206950000Y-163431250D01*
G75*
G02*
X206706250Y-163675000I-243750J0D01*
G01*
G37*
%TD*%
%TO.C,R5*%
G36*
G01*
X189706250Y-161800000D02*
X188793750Y-161800000D01*
G75*
G02*
X188550000Y-161556250I0J243750D01*
G01*
X188550000Y-161068750D01*
G75*
G02*
X188793750Y-160825000I243750J0D01*
G01*
X189706250Y-160825000D01*
G75*
G02*
X189950000Y-161068750I0J-243750D01*
G01*
X189950000Y-161556250D01*
G75*
G02*
X189706250Y-161800000I-243750J0D01*
G01*
G37*
G36*
G01*
X189706250Y-163675000D02*
X188793750Y-163675000D01*
G75*
G02*
X188550000Y-163431250I0J243750D01*
G01*
X188550000Y-162943750D01*
G75*
G02*
X188793750Y-162700000I243750J0D01*
G01*
X189706250Y-162700000D01*
G75*
G02*
X189950000Y-162943750I0J-243750D01*
G01*
X189950000Y-163431250D01*
G75*
G02*
X189706250Y-163675000I-243750J0D01*
G01*
G37*
%TD*%
%TO.C,R5*%
G36*
G01*
X172706250Y-161800000D02*
X171793750Y-161800000D01*
G75*
G02*
X171550000Y-161556250I0J243750D01*
G01*
X171550000Y-161068750D01*
G75*
G02*
X171793750Y-160825000I243750J0D01*
G01*
X172706250Y-160825000D01*
G75*
G02*
X172950000Y-161068750I0J-243750D01*
G01*
X172950000Y-161556250D01*
G75*
G02*
X172706250Y-161800000I-243750J0D01*
G01*
G37*
G36*
G01*
X172706250Y-163675000D02*
X171793750Y-163675000D01*
G75*
G02*
X171550000Y-163431250I0J243750D01*
G01*
X171550000Y-162943750D01*
G75*
G02*
X171793750Y-162700000I243750J0D01*
G01*
X172706250Y-162700000D01*
G75*
G02*
X172950000Y-162943750I0J-243750D01*
G01*
X172950000Y-163431250D01*
G75*
G02*
X172706250Y-163675000I-243750J0D01*
G01*
G37*
%TD*%
%TO.C,R5*%
G36*
G01*
X155706250Y-161800000D02*
X154793750Y-161800000D01*
G75*
G02*
X154550000Y-161556250I0J243750D01*
G01*
X154550000Y-161068750D01*
G75*
G02*
X154793750Y-160825000I243750J0D01*
G01*
X155706250Y-160825000D01*
G75*
G02*
X155950000Y-161068750I0J-243750D01*
G01*
X155950000Y-161556250D01*
G75*
G02*
X155706250Y-161800000I-243750J0D01*
G01*
G37*
G36*
G01*
X155706250Y-163675000D02*
X154793750Y-163675000D01*
G75*
G02*
X154550000Y-163431250I0J243750D01*
G01*
X154550000Y-162943750D01*
G75*
G02*
X154793750Y-162700000I243750J0D01*
G01*
X155706250Y-162700000D01*
G75*
G02*
X155950000Y-162943750I0J-243750D01*
G01*
X155950000Y-163431250D01*
G75*
G02*
X155706250Y-163675000I-243750J0D01*
G01*
G37*
%TD*%
%TO.C,R5*%
G36*
G01*
X138706250Y-161800000D02*
X137793750Y-161800000D01*
G75*
G02*
X137550000Y-161556250I0J243750D01*
G01*
X137550000Y-161068750D01*
G75*
G02*
X137793750Y-160825000I243750J0D01*
G01*
X138706250Y-160825000D01*
G75*
G02*
X138950000Y-161068750I0J-243750D01*
G01*
X138950000Y-161556250D01*
G75*
G02*
X138706250Y-161800000I-243750J0D01*
G01*
G37*
G36*
G01*
X138706250Y-163675000D02*
X137793750Y-163675000D01*
G75*
G02*
X137550000Y-163431250I0J243750D01*
G01*
X137550000Y-162943750D01*
G75*
G02*
X137793750Y-162700000I243750J0D01*
G01*
X138706250Y-162700000D01*
G75*
G02*
X138950000Y-162943750I0J-243750D01*
G01*
X138950000Y-163431250D01*
G75*
G02*
X138706250Y-163675000I-243750J0D01*
G01*
G37*
%TD*%
%TO.C,R5*%
G36*
G01*
X206706250Y-149800000D02*
X205793750Y-149800000D01*
G75*
G02*
X205550000Y-149556250I0J243750D01*
G01*
X205550000Y-149068750D01*
G75*
G02*
X205793750Y-148825000I243750J0D01*
G01*
X206706250Y-148825000D01*
G75*
G02*
X206950000Y-149068750I0J-243750D01*
G01*
X206950000Y-149556250D01*
G75*
G02*
X206706250Y-149800000I-243750J0D01*
G01*
G37*
G36*
G01*
X206706250Y-151675000D02*
X205793750Y-151675000D01*
G75*
G02*
X205550000Y-151431250I0J243750D01*
G01*
X205550000Y-150943750D01*
G75*
G02*
X205793750Y-150700000I243750J0D01*
G01*
X206706250Y-150700000D01*
G75*
G02*
X206950000Y-150943750I0J-243750D01*
G01*
X206950000Y-151431250D01*
G75*
G02*
X206706250Y-151675000I-243750J0D01*
G01*
G37*
%TD*%
%TO.C,R5*%
G36*
G01*
X189706250Y-149800000D02*
X188793750Y-149800000D01*
G75*
G02*
X188550000Y-149556250I0J243750D01*
G01*
X188550000Y-149068750D01*
G75*
G02*
X188793750Y-148825000I243750J0D01*
G01*
X189706250Y-148825000D01*
G75*
G02*
X189950000Y-149068750I0J-243750D01*
G01*
X189950000Y-149556250D01*
G75*
G02*
X189706250Y-149800000I-243750J0D01*
G01*
G37*
G36*
G01*
X189706250Y-151675000D02*
X188793750Y-151675000D01*
G75*
G02*
X188550000Y-151431250I0J243750D01*
G01*
X188550000Y-150943750D01*
G75*
G02*
X188793750Y-150700000I243750J0D01*
G01*
X189706250Y-150700000D01*
G75*
G02*
X189950000Y-150943750I0J-243750D01*
G01*
X189950000Y-151431250D01*
G75*
G02*
X189706250Y-151675000I-243750J0D01*
G01*
G37*
%TD*%
%TO.C,R5*%
G36*
G01*
X172706250Y-149800000D02*
X171793750Y-149800000D01*
G75*
G02*
X171550000Y-149556250I0J243750D01*
G01*
X171550000Y-149068750D01*
G75*
G02*
X171793750Y-148825000I243750J0D01*
G01*
X172706250Y-148825000D01*
G75*
G02*
X172950000Y-149068750I0J-243750D01*
G01*
X172950000Y-149556250D01*
G75*
G02*
X172706250Y-149800000I-243750J0D01*
G01*
G37*
G36*
G01*
X172706250Y-151675000D02*
X171793750Y-151675000D01*
G75*
G02*
X171550000Y-151431250I0J243750D01*
G01*
X171550000Y-150943750D01*
G75*
G02*
X171793750Y-150700000I243750J0D01*
G01*
X172706250Y-150700000D01*
G75*
G02*
X172950000Y-150943750I0J-243750D01*
G01*
X172950000Y-151431250D01*
G75*
G02*
X172706250Y-151675000I-243750J0D01*
G01*
G37*
%TD*%
%TO.C,R5*%
G36*
G01*
X155706250Y-149800000D02*
X154793750Y-149800000D01*
G75*
G02*
X154550000Y-149556250I0J243750D01*
G01*
X154550000Y-149068750D01*
G75*
G02*
X154793750Y-148825000I243750J0D01*
G01*
X155706250Y-148825000D01*
G75*
G02*
X155950000Y-149068750I0J-243750D01*
G01*
X155950000Y-149556250D01*
G75*
G02*
X155706250Y-149800000I-243750J0D01*
G01*
G37*
G36*
G01*
X155706250Y-151675000D02*
X154793750Y-151675000D01*
G75*
G02*
X154550000Y-151431250I0J243750D01*
G01*
X154550000Y-150943750D01*
G75*
G02*
X154793750Y-150700000I243750J0D01*
G01*
X155706250Y-150700000D01*
G75*
G02*
X155950000Y-150943750I0J-243750D01*
G01*
X155950000Y-151431250D01*
G75*
G02*
X155706250Y-151675000I-243750J0D01*
G01*
G37*
%TD*%
%TO.C,R5*%
G36*
G01*
X138706250Y-149800000D02*
X137793750Y-149800000D01*
G75*
G02*
X137550000Y-149556250I0J243750D01*
G01*
X137550000Y-149068750D01*
G75*
G02*
X137793750Y-148825000I243750J0D01*
G01*
X138706250Y-148825000D01*
G75*
G02*
X138950000Y-149068750I0J-243750D01*
G01*
X138950000Y-149556250D01*
G75*
G02*
X138706250Y-149800000I-243750J0D01*
G01*
G37*
G36*
G01*
X138706250Y-151675000D02*
X137793750Y-151675000D01*
G75*
G02*
X137550000Y-151431250I0J243750D01*
G01*
X137550000Y-150943750D01*
G75*
G02*
X137793750Y-150700000I243750J0D01*
G01*
X138706250Y-150700000D01*
G75*
G02*
X138950000Y-150943750I0J-243750D01*
G01*
X138950000Y-151431250D01*
G75*
G02*
X138706250Y-151675000I-243750J0D01*
G01*
G37*
%TD*%
%TO.C,R5*%
G36*
G01*
X206706250Y-137800000D02*
X205793750Y-137800000D01*
G75*
G02*
X205550000Y-137556250I0J243750D01*
G01*
X205550000Y-137068750D01*
G75*
G02*
X205793750Y-136825000I243750J0D01*
G01*
X206706250Y-136825000D01*
G75*
G02*
X206950000Y-137068750I0J-243750D01*
G01*
X206950000Y-137556250D01*
G75*
G02*
X206706250Y-137800000I-243750J0D01*
G01*
G37*
G36*
G01*
X206706250Y-139675000D02*
X205793750Y-139675000D01*
G75*
G02*
X205550000Y-139431250I0J243750D01*
G01*
X205550000Y-138943750D01*
G75*
G02*
X205793750Y-138700000I243750J0D01*
G01*
X206706250Y-138700000D01*
G75*
G02*
X206950000Y-138943750I0J-243750D01*
G01*
X206950000Y-139431250D01*
G75*
G02*
X206706250Y-139675000I-243750J0D01*
G01*
G37*
%TD*%
%TO.C,R5*%
G36*
G01*
X189706250Y-137800000D02*
X188793750Y-137800000D01*
G75*
G02*
X188550000Y-137556250I0J243750D01*
G01*
X188550000Y-137068750D01*
G75*
G02*
X188793750Y-136825000I243750J0D01*
G01*
X189706250Y-136825000D01*
G75*
G02*
X189950000Y-137068750I0J-243750D01*
G01*
X189950000Y-137556250D01*
G75*
G02*
X189706250Y-137800000I-243750J0D01*
G01*
G37*
G36*
G01*
X189706250Y-139675000D02*
X188793750Y-139675000D01*
G75*
G02*
X188550000Y-139431250I0J243750D01*
G01*
X188550000Y-138943750D01*
G75*
G02*
X188793750Y-138700000I243750J0D01*
G01*
X189706250Y-138700000D01*
G75*
G02*
X189950000Y-138943750I0J-243750D01*
G01*
X189950000Y-139431250D01*
G75*
G02*
X189706250Y-139675000I-243750J0D01*
G01*
G37*
%TD*%
%TO.C,R5*%
G36*
G01*
X172706250Y-137800000D02*
X171793750Y-137800000D01*
G75*
G02*
X171550000Y-137556250I0J243750D01*
G01*
X171550000Y-137068750D01*
G75*
G02*
X171793750Y-136825000I243750J0D01*
G01*
X172706250Y-136825000D01*
G75*
G02*
X172950000Y-137068750I0J-243750D01*
G01*
X172950000Y-137556250D01*
G75*
G02*
X172706250Y-137800000I-243750J0D01*
G01*
G37*
G36*
G01*
X172706250Y-139675000D02*
X171793750Y-139675000D01*
G75*
G02*
X171550000Y-139431250I0J243750D01*
G01*
X171550000Y-138943750D01*
G75*
G02*
X171793750Y-138700000I243750J0D01*
G01*
X172706250Y-138700000D01*
G75*
G02*
X172950000Y-138943750I0J-243750D01*
G01*
X172950000Y-139431250D01*
G75*
G02*
X172706250Y-139675000I-243750J0D01*
G01*
G37*
%TD*%
%TO.C,R5*%
G36*
G01*
X155706250Y-137800000D02*
X154793750Y-137800000D01*
G75*
G02*
X154550000Y-137556250I0J243750D01*
G01*
X154550000Y-137068750D01*
G75*
G02*
X154793750Y-136825000I243750J0D01*
G01*
X155706250Y-136825000D01*
G75*
G02*
X155950000Y-137068750I0J-243750D01*
G01*
X155950000Y-137556250D01*
G75*
G02*
X155706250Y-137800000I-243750J0D01*
G01*
G37*
G36*
G01*
X155706250Y-139675000D02*
X154793750Y-139675000D01*
G75*
G02*
X154550000Y-139431250I0J243750D01*
G01*
X154550000Y-138943750D01*
G75*
G02*
X154793750Y-138700000I243750J0D01*
G01*
X155706250Y-138700000D01*
G75*
G02*
X155950000Y-138943750I0J-243750D01*
G01*
X155950000Y-139431250D01*
G75*
G02*
X155706250Y-139675000I-243750J0D01*
G01*
G37*
%TD*%
%TO.C,R5*%
G36*
G01*
X138706250Y-137800000D02*
X137793750Y-137800000D01*
G75*
G02*
X137550000Y-137556250I0J243750D01*
G01*
X137550000Y-137068750D01*
G75*
G02*
X137793750Y-136825000I243750J0D01*
G01*
X138706250Y-136825000D01*
G75*
G02*
X138950000Y-137068750I0J-243750D01*
G01*
X138950000Y-137556250D01*
G75*
G02*
X138706250Y-137800000I-243750J0D01*
G01*
G37*
G36*
G01*
X138706250Y-139675000D02*
X137793750Y-139675000D01*
G75*
G02*
X137550000Y-139431250I0J243750D01*
G01*
X137550000Y-138943750D01*
G75*
G02*
X137793750Y-138700000I243750J0D01*
G01*
X138706250Y-138700000D01*
G75*
G02*
X138950000Y-138943750I0J-243750D01*
G01*
X138950000Y-139431250D01*
G75*
G02*
X138706250Y-139675000I-243750J0D01*
G01*
G37*
%TD*%
%TO.C,R5*%
G36*
G01*
X206706250Y-125800000D02*
X205793750Y-125800000D01*
G75*
G02*
X205550000Y-125556250I0J243750D01*
G01*
X205550000Y-125068750D01*
G75*
G02*
X205793750Y-124825000I243750J0D01*
G01*
X206706250Y-124825000D01*
G75*
G02*
X206950000Y-125068750I0J-243750D01*
G01*
X206950000Y-125556250D01*
G75*
G02*
X206706250Y-125800000I-243750J0D01*
G01*
G37*
G36*
G01*
X206706250Y-127675000D02*
X205793750Y-127675000D01*
G75*
G02*
X205550000Y-127431250I0J243750D01*
G01*
X205550000Y-126943750D01*
G75*
G02*
X205793750Y-126700000I243750J0D01*
G01*
X206706250Y-126700000D01*
G75*
G02*
X206950000Y-126943750I0J-243750D01*
G01*
X206950000Y-127431250D01*
G75*
G02*
X206706250Y-127675000I-243750J0D01*
G01*
G37*
%TD*%
%TO.C,R5*%
G36*
G01*
X189706250Y-125800000D02*
X188793750Y-125800000D01*
G75*
G02*
X188550000Y-125556250I0J243750D01*
G01*
X188550000Y-125068750D01*
G75*
G02*
X188793750Y-124825000I243750J0D01*
G01*
X189706250Y-124825000D01*
G75*
G02*
X189950000Y-125068750I0J-243750D01*
G01*
X189950000Y-125556250D01*
G75*
G02*
X189706250Y-125800000I-243750J0D01*
G01*
G37*
G36*
G01*
X189706250Y-127675000D02*
X188793750Y-127675000D01*
G75*
G02*
X188550000Y-127431250I0J243750D01*
G01*
X188550000Y-126943750D01*
G75*
G02*
X188793750Y-126700000I243750J0D01*
G01*
X189706250Y-126700000D01*
G75*
G02*
X189950000Y-126943750I0J-243750D01*
G01*
X189950000Y-127431250D01*
G75*
G02*
X189706250Y-127675000I-243750J0D01*
G01*
G37*
%TD*%
%TO.C,R5*%
G36*
G01*
X172706250Y-125800000D02*
X171793750Y-125800000D01*
G75*
G02*
X171550000Y-125556250I0J243750D01*
G01*
X171550000Y-125068750D01*
G75*
G02*
X171793750Y-124825000I243750J0D01*
G01*
X172706250Y-124825000D01*
G75*
G02*
X172950000Y-125068750I0J-243750D01*
G01*
X172950000Y-125556250D01*
G75*
G02*
X172706250Y-125800000I-243750J0D01*
G01*
G37*
G36*
G01*
X172706250Y-127675000D02*
X171793750Y-127675000D01*
G75*
G02*
X171550000Y-127431250I0J243750D01*
G01*
X171550000Y-126943750D01*
G75*
G02*
X171793750Y-126700000I243750J0D01*
G01*
X172706250Y-126700000D01*
G75*
G02*
X172950000Y-126943750I0J-243750D01*
G01*
X172950000Y-127431250D01*
G75*
G02*
X172706250Y-127675000I-243750J0D01*
G01*
G37*
%TD*%
%TO.C,R5*%
G36*
G01*
X155706250Y-125800000D02*
X154793750Y-125800000D01*
G75*
G02*
X154550000Y-125556250I0J243750D01*
G01*
X154550000Y-125068750D01*
G75*
G02*
X154793750Y-124825000I243750J0D01*
G01*
X155706250Y-124825000D01*
G75*
G02*
X155950000Y-125068750I0J-243750D01*
G01*
X155950000Y-125556250D01*
G75*
G02*
X155706250Y-125800000I-243750J0D01*
G01*
G37*
G36*
G01*
X155706250Y-127675000D02*
X154793750Y-127675000D01*
G75*
G02*
X154550000Y-127431250I0J243750D01*
G01*
X154550000Y-126943750D01*
G75*
G02*
X154793750Y-126700000I243750J0D01*
G01*
X155706250Y-126700000D01*
G75*
G02*
X155950000Y-126943750I0J-243750D01*
G01*
X155950000Y-127431250D01*
G75*
G02*
X155706250Y-127675000I-243750J0D01*
G01*
G37*
%TD*%
%TO.C,R5*%
G36*
G01*
X138706250Y-125800000D02*
X137793750Y-125800000D01*
G75*
G02*
X137550000Y-125556250I0J243750D01*
G01*
X137550000Y-125068750D01*
G75*
G02*
X137793750Y-124825000I243750J0D01*
G01*
X138706250Y-124825000D01*
G75*
G02*
X138950000Y-125068750I0J-243750D01*
G01*
X138950000Y-125556250D01*
G75*
G02*
X138706250Y-125800000I-243750J0D01*
G01*
G37*
G36*
G01*
X138706250Y-127675000D02*
X137793750Y-127675000D01*
G75*
G02*
X137550000Y-127431250I0J243750D01*
G01*
X137550000Y-126943750D01*
G75*
G02*
X137793750Y-126700000I243750J0D01*
G01*
X138706250Y-126700000D01*
G75*
G02*
X138950000Y-126943750I0J-243750D01*
G01*
X138950000Y-127431250D01*
G75*
G02*
X138706250Y-127675000I-243750J0D01*
G01*
G37*
%TD*%
%TO.C,R5*%
G36*
G01*
X206706250Y-113800000D02*
X205793750Y-113800000D01*
G75*
G02*
X205550000Y-113556250I0J243750D01*
G01*
X205550000Y-113068750D01*
G75*
G02*
X205793750Y-112825000I243750J0D01*
G01*
X206706250Y-112825000D01*
G75*
G02*
X206950000Y-113068750I0J-243750D01*
G01*
X206950000Y-113556250D01*
G75*
G02*
X206706250Y-113800000I-243750J0D01*
G01*
G37*
G36*
G01*
X206706250Y-115675000D02*
X205793750Y-115675000D01*
G75*
G02*
X205550000Y-115431250I0J243750D01*
G01*
X205550000Y-114943750D01*
G75*
G02*
X205793750Y-114700000I243750J0D01*
G01*
X206706250Y-114700000D01*
G75*
G02*
X206950000Y-114943750I0J-243750D01*
G01*
X206950000Y-115431250D01*
G75*
G02*
X206706250Y-115675000I-243750J0D01*
G01*
G37*
%TD*%
%TO.C,R5*%
G36*
G01*
X189706250Y-113800000D02*
X188793750Y-113800000D01*
G75*
G02*
X188550000Y-113556250I0J243750D01*
G01*
X188550000Y-113068750D01*
G75*
G02*
X188793750Y-112825000I243750J0D01*
G01*
X189706250Y-112825000D01*
G75*
G02*
X189950000Y-113068750I0J-243750D01*
G01*
X189950000Y-113556250D01*
G75*
G02*
X189706250Y-113800000I-243750J0D01*
G01*
G37*
G36*
G01*
X189706250Y-115675000D02*
X188793750Y-115675000D01*
G75*
G02*
X188550000Y-115431250I0J243750D01*
G01*
X188550000Y-114943750D01*
G75*
G02*
X188793750Y-114700000I243750J0D01*
G01*
X189706250Y-114700000D01*
G75*
G02*
X189950000Y-114943750I0J-243750D01*
G01*
X189950000Y-115431250D01*
G75*
G02*
X189706250Y-115675000I-243750J0D01*
G01*
G37*
%TD*%
%TO.C,R5*%
G36*
G01*
X172706250Y-113800000D02*
X171793750Y-113800000D01*
G75*
G02*
X171550000Y-113556250I0J243750D01*
G01*
X171550000Y-113068750D01*
G75*
G02*
X171793750Y-112825000I243750J0D01*
G01*
X172706250Y-112825000D01*
G75*
G02*
X172950000Y-113068750I0J-243750D01*
G01*
X172950000Y-113556250D01*
G75*
G02*
X172706250Y-113800000I-243750J0D01*
G01*
G37*
G36*
G01*
X172706250Y-115675000D02*
X171793750Y-115675000D01*
G75*
G02*
X171550000Y-115431250I0J243750D01*
G01*
X171550000Y-114943750D01*
G75*
G02*
X171793750Y-114700000I243750J0D01*
G01*
X172706250Y-114700000D01*
G75*
G02*
X172950000Y-114943750I0J-243750D01*
G01*
X172950000Y-115431250D01*
G75*
G02*
X172706250Y-115675000I-243750J0D01*
G01*
G37*
%TD*%
%TO.C,R5*%
G36*
G01*
X155706250Y-113800000D02*
X154793750Y-113800000D01*
G75*
G02*
X154550000Y-113556250I0J243750D01*
G01*
X154550000Y-113068750D01*
G75*
G02*
X154793750Y-112825000I243750J0D01*
G01*
X155706250Y-112825000D01*
G75*
G02*
X155950000Y-113068750I0J-243750D01*
G01*
X155950000Y-113556250D01*
G75*
G02*
X155706250Y-113800000I-243750J0D01*
G01*
G37*
G36*
G01*
X155706250Y-115675000D02*
X154793750Y-115675000D01*
G75*
G02*
X154550000Y-115431250I0J243750D01*
G01*
X154550000Y-114943750D01*
G75*
G02*
X154793750Y-114700000I243750J0D01*
G01*
X155706250Y-114700000D01*
G75*
G02*
X155950000Y-114943750I0J-243750D01*
G01*
X155950000Y-115431250D01*
G75*
G02*
X155706250Y-115675000I-243750J0D01*
G01*
G37*
%TD*%
%TO.C,R5*%
G36*
G01*
X138706250Y-113800000D02*
X137793750Y-113800000D01*
G75*
G02*
X137550000Y-113556250I0J243750D01*
G01*
X137550000Y-113068750D01*
G75*
G02*
X137793750Y-112825000I243750J0D01*
G01*
X138706250Y-112825000D01*
G75*
G02*
X138950000Y-113068750I0J-243750D01*
G01*
X138950000Y-113556250D01*
G75*
G02*
X138706250Y-113800000I-243750J0D01*
G01*
G37*
G36*
G01*
X138706250Y-115675000D02*
X137793750Y-115675000D01*
G75*
G02*
X137550000Y-115431250I0J243750D01*
G01*
X137550000Y-114943750D01*
G75*
G02*
X137793750Y-114700000I243750J0D01*
G01*
X138706250Y-114700000D01*
G75*
G02*
X138950000Y-114943750I0J-243750D01*
G01*
X138950000Y-115431250D01*
G75*
G02*
X138706250Y-115675000I-243750J0D01*
G01*
G37*
%TD*%
%TO.C,R5*%
G36*
G01*
X206706250Y-101800000D02*
X205793750Y-101800000D01*
G75*
G02*
X205550000Y-101556250I0J243750D01*
G01*
X205550000Y-101068750D01*
G75*
G02*
X205793750Y-100825000I243750J0D01*
G01*
X206706250Y-100825000D01*
G75*
G02*
X206950000Y-101068750I0J-243750D01*
G01*
X206950000Y-101556250D01*
G75*
G02*
X206706250Y-101800000I-243750J0D01*
G01*
G37*
G36*
G01*
X206706250Y-103675000D02*
X205793750Y-103675000D01*
G75*
G02*
X205550000Y-103431250I0J243750D01*
G01*
X205550000Y-102943750D01*
G75*
G02*
X205793750Y-102700000I243750J0D01*
G01*
X206706250Y-102700000D01*
G75*
G02*
X206950000Y-102943750I0J-243750D01*
G01*
X206950000Y-103431250D01*
G75*
G02*
X206706250Y-103675000I-243750J0D01*
G01*
G37*
%TD*%
%TO.C,R5*%
G36*
G01*
X189706250Y-101800000D02*
X188793750Y-101800000D01*
G75*
G02*
X188550000Y-101556250I0J243750D01*
G01*
X188550000Y-101068750D01*
G75*
G02*
X188793750Y-100825000I243750J0D01*
G01*
X189706250Y-100825000D01*
G75*
G02*
X189950000Y-101068750I0J-243750D01*
G01*
X189950000Y-101556250D01*
G75*
G02*
X189706250Y-101800000I-243750J0D01*
G01*
G37*
G36*
G01*
X189706250Y-103675000D02*
X188793750Y-103675000D01*
G75*
G02*
X188550000Y-103431250I0J243750D01*
G01*
X188550000Y-102943750D01*
G75*
G02*
X188793750Y-102700000I243750J0D01*
G01*
X189706250Y-102700000D01*
G75*
G02*
X189950000Y-102943750I0J-243750D01*
G01*
X189950000Y-103431250D01*
G75*
G02*
X189706250Y-103675000I-243750J0D01*
G01*
G37*
%TD*%
%TO.C,R5*%
G36*
G01*
X172706250Y-101800000D02*
X171793750Y-101800000D01*
G75*
G02*
X171550000Y-101556250I0J243750D01*
G01*
X171550000Y-101068750D01*
G75*
G02*
X171793750Y-100825000I243750J0D01*
G01*
X172706250Y-100825000D01*
G75*
G02*
X172950000Y-101068750I0J-243750D01*
G01*
X172950000Y-101556250D01*
G75*
G02*
X172706250Y-101800000I-243750J0D01*
G01*
G37*
G36*
G01*
X172706250Y-103675000D02*
X171793750Y-103675000D01*
G75*
G02*
X171550000Y-103431250I0J243750D01*
G01*
X171550000Y-102943750D01*
G75*
G02*
X171793750Y-102700000I243750J0D01*
G01*
X172706250Y-102700000D01*
G75*
G02*
X172950000Y-102943750I0J-243750D01*
G01*
X172950000Y-103431250D01*
G75*
G02*
X172706250Y-103675000I-243750J0D01*
G01*
G37*
%TD*%
%TO.C,R5*%
G36*
G01*
X155706250Y-101800000D02*
X154793750Y-101800000D01*
G75*
G02*
X154550000Y-101556250I0J243750D01*
G01*
X154550000Y-101068750D01*
G75*
G02*
X154793750Y-100825000I243750J0D01*
G01*
X155706250Y-100825000D01*
G75*
G02*
X155950000Y-101068750I0J-243750D01*
G01*
X155950000Y-101556250D01*
G75*
G02*
X155706250Y-101800000I-243750J0D01*
G01*
G37*
G36*
G01*
X155706250Y-103675000D02*
X154793750Y-103675000D01*
G75*
G02*
X154550000Y-103431250I0J243750D01*
G01*
X154550000Y-102943750D01*
G75*
G02*
X154793750Y-102700000I243750J0D01*
G01*
X155706250Y-102700000D01*
G75*
G02*
X155950000Y-102943750I0J-243750D01*
G01*
X155950000Y-103431250D01*
G75*
G02*
X155706250Y-103675000I-243750J0D01*
G01*
G37*
%TD*%
%TO.C,C2*%
G36*
G01*
X212675000Y-189293750D02*
X212675000Y-190206250D01*
G75*
G02*
X212431250Y-190450000I-243750J0D01*
G01*
X211943750Y-190450000D01*
G75*
G02*
X211700000Y-190206250I0J243750D01*
G01*
X211700000Y-189293750D01*
G75*
G02*
X211943750Y-189050000I243750J0D01*
G01*
X212431250Y-189050000D01*
G75*
G02*
X212675000Y-189293750I0J-243750D01*
G01*
G37*
G36*
G01*
X210800000Y-189293750D02*
X210800000Y-190206250D01*
G75*
G02*
X210556250Y-190450000I-243750J0D01*
G01*
X210068750Y-190450000D01*
G75*
G02*
X209825000Y-190206250I0J243750D01*
G01*
X209825000Y-189293750D01*
G75*
G02*
X210068750Y-189050000I243750J0D01*
G01*
X210556250Y-189050000D01*
G75*
G02*
X210800000Y-189293750I0J-243750D01*
G01*
G37*
%TD*%
%TO.C,C2*%
G36*
G01*
X195675000Y-189293750D02*
X195675000Y-190206250D01*
G75*
G02*
X195431250Y-190450000I-243750J0D01*
G01*
X194943750Y-190450000D01*
G75*
G02*
X194700000Y-190206250I0J243750D01*
G01*
X194700000Y-189293750D01*
G75*
G02*
X194943750Y-189050000I243750J0D01*
G01*
X195431250Y-189050000D01*
G75*
G02*
X195675000Y-189293750I0J-243750D01*
G01*
G37*
G36*
G01*
X193800000Y-189293750D02*
X193800000Y-190206250D01*
G75*
G02*
X193556250Y-190450000I-243750J0D01*
G01*
X193068750Y-190450000D01*
G75*
G02*
X192825000Y-190206250I0J243750D01*
G01*
X192825000Y-189293750D01*
G75*
G02*
X193068750Y-189050000I243750J0D01*
G01*
X193556250Y-189050000D01*
G75*
G02*
X193800000Y-189293750I0J-243750D01*
G01*
G37*
%TD*%
%TO.C,C2*%
G36*
G01*
X178675000Y-189293750D02*
X178675000Y-190206250D01*
G75*
G02*
X178431250Y-190450000I-243750J0D01*
G01*
X177943750Y-190450000D01*
G75*
G02*
X177700000Y-190206250I0J243750D01*
G01*
X177700000Y-189293750D01*
G75*
G02*
X177943750Y-189050000I243750J0D01*
G01*
X178431250Y-189050000D01*
G75*
G02*
X178675000Y-189293750I0J-243750D01*
G01*
G37*
G36*
G01*
X176800000Y-189293750D02*
X176800000Y-190206250D01*
G75*
G02*
X176556250Y-190450000I-243750J0D01*
G01*
X176068750Y-190450000D01*
G75*
G02*
X175825000Y-190206250I0J243750D01*
G01*
X175825000Y-189293750D01*
G75*
G02*
X176068750Y-189050000I243750J0D01*
G01*
X176556250Y-189050000D01*
G75*
G02*
X176800000Y-189293750I0J-243750D01*
G01*
G37*
%TD*%
%TO.C,C2*%
G36*
G01*
X161675000Y-189293750D02*
X161675000Y-190206250D01*
G75*
G02*
X161431250Y-190450000I-243750J0D01*
G01*
X160943750Y-190450000D01*
G75*
G02*
X160700000Y-190206250I0J243750D01*
G01*
X160700000Y-189293750D01*
G75*
G02*
X160943750Y-189050000I243750J0D01*
G01*
X161431250Y-189050000D01*
G75*
G02*
X161675000Y-189293750I0J-243750D01*
G01*
G37*
G36*
G01*
X159800000Y-189293750D02*
X159800000Y-190206250D01*
G75*
G02*
X159556250Y-190450000I-243750J0D01*
G01*
X159068750Y-190450000D01*
G75*
G02*
X158825000Y-190206250I0J243750D01*
G01*
X158825000Y-189293750D01*
G75*
G02*
X159068750Y-189050000I243750J0D01*
G01*
X159556250Y-189050000D01*
G75*
G02*
X159800000Y-189293750I0J-243750D01*
G01*
G37*
%TD*%
%TO.C,C2*%
G36*
G01*
X144675000Y-189293750D02*
X144675000Y-190206250D01*
G75*
G02*
X144431250Y-190450000I-243750J0D01*
G01*
X143943750Y-190450000D01*
G75*
G02*
X143700000Y-190206250I0J243750D01*
G01*
X143700000Y-189293750D01*
G75*
G02*
X143943750Y-189050000I243750J0D01*
G01*
X144431250Y-189050000D01*
G75*
G02*
X144675000Y-189293750I0J-243750D01*
G01*
G37*
G36*
G01*
X142800000Y-189293750D02*
X142800000Y-190206250D01*
G75*
G02*
X142556250Y-190450000I-243750J0D01*
G01*
X142068750Y-190450000D01*
G75*
G02*
X141825000Y-190206250I0J243750D01*
G01*
X141825000Y-189293750D01*
G75*
G02*
X142068750Y-189050000I243750J0D01*
G01*
X142556250Y-189050000D01*
G75*
G02*
X142800000Y-189293750I0J-243750D01*
G01*
G37*
%TD*%
%TO.C,C2*%
G36*
G01*
X212675000Y-177293750D02*
X212675000Y-178206250D01*
G75*
G02*
X212431250Y-178450000I-243750J0D01*
G01*
X211943750Y-178450000D01*
G75*
G02*
X211700000Y-178206250I0J243750D01*
G01*
X211700000Y-177293750D01*
G75*
G02*
X211943750Y-177050000I243750J0D01*
G01*
X212431250Y-177050000D01*
G75*
G02*
X212675000Y-177293750I0J-243750D01*
G01*
G37*
G36*
G01*
X210800000Y-177293750D02*
X210800000Y-178206250D01*
G75*
G02*
X210556250Y-178450000I-243750J0D01*
G01*
X210068750Y-178450000D01*
G75*
G02*
X209825000Y-178206250I0J243750D01*
G01*
X209825000Y-177293750D01*
G75*
G02*
X210068750Y-177050000I243750J0D01*
G01*
X210556250Y-177050000D01*
G75*
G02*
X210800000Y-177293750I0J-243750D01*
G01*
G37*
%TD*%
%TO.C,C2*%
G36*
G01*
X195675000Y-177293750D02*
X195675000Y-178206250D01*
G75*
G02*
X195431250Y-178450000I-243750J0D01*
G01*
X194943750Y-178450000D01*
G75*
G02*
X194700000Y-178206250I0J243750D01*
G01*
X194700000Y-177293750D01*
G75*
G02*
X194943750Y-177050000I243750J0D01*
G01*
X195431250Y-177050000D01*
G75*
G02*
X195675000Y-177293750I0J-243750D01*
G01*
G37*
G36*
G01*
X193800000Y-177293750D02*
X193800000Y-178206250D01*
G75*
G02*
X193556250Y-178450000I-243750J0D01*
G01*
X193068750Y-178450000D01*
G75*
G02*
X192825000Y-178206250I0J243750D01*
G01*
X192825000Y-177293750D01*
G75*
G02*
X193068750Y-177050000I243750J0D01*
G01*
X193556250Y-177050000D01*
G75*
G02*
X193800000Y-177293750I0J-243750D01*
G01*
G37*
%TD*%
%TO.C,C2*%
G36*
G01*
X178675000Y-177293750D02*
X178675000Y-178206250D01*
G75*
G02*
X178431250Y-178450000I-243750J0D01*
G01*
X177943750Y-178450000D01*
G75*
G02*
X177700000Y-178206250I0J243750D01*
G01*
X177700000Y-177293750D01*
G75*
G02*
X177943750Y-177050000I243750J0D01*
G01*
X178431250Y-177050000D01*
G75*
G02*
X178675000Y-177293750I0J-243750D01*
G01*
G37*
G36*
G01*
X176800000Y-177293750D02*
X176800000Y-178206250D01*
G75*
G02*
X176556250Y-178450000I-243750J0D01*
G01*
X176068750Y-178450000D01*
G75*
G02*
X175825000Y-178206250I0J243750D01*
G01*
X175825000Y-177293750D01*
G75*
G02*
X176068750Y-177050000I243750J0D01*
G01*
X176556250Y-177050000D01*
G75*
G02*
X176800000Y-177293750I0J-243750D01*
G01*
G37*
%TD*%
%TO.C,C2*%
G36*
G01*
X161675000Y-177293750D02*
X161675000Y-178206250D01*
G75*
G02*
X161431250Y-178450000I-243750J0D01*
G01*
X160943750Y-178450000D01*
G75*
G02*
X160700000Y-178206250I0J243750D01*
G01*
X160700000Y-177293750D01*
G75*
G02*
X160943750Y-177050000I243750J0D01*
G01*
X161431250Y-177050000D01*
G75*
G02*
X161675000Y-177293750I0J-243750D01*
G01*
G37*
G36*
G01*
X159800000Y-177293750D02*
X159800000Y-178206250D01*
G75*
G02*
X159556250Y-178450000I-243750J0D01*
G01*
X159068750Y-178450000D01*
G75*
G02*
X158825000Y-178206250I0J243750D01*
G01*
X158825000Y-177293750D01*
G75*
G02*
X159068750Y-177050000I243750J0D01*
G01*
X159556250Y-177050000D01*
G75*
G02*
X159800000Y-177293750I0J-243750D01*
G01*
G37*
%TD*%
%TO.C,C2*%
G36*
G01*
X144675000Y-177293750D02*
X144675000Y-178206250D01*
G75*
G02*
X144431250Y-178450000I-243750J0D01*
G01*
X143943750Y-178450000D01*
G75*
G02*
X143700000Y-178206250I0J243750D01*
G01*
X143700000Y-177293750D01*
G75*
G02*
X143943750Y-177050000I243750J0D01*
G01*
X144431250Y-177050000D01*
G75*
G02*
X144675000Y-177293750I0J-243750D01*
G01*
G37*
G36*
G01*
X142800000Y-177293750D02*
X142800000Y-178206250D01*
G75*
G02*
X142556250Y-178450000I-243750J0D01*
G01*
X142068750Y-178450000D01*
G75*
G02*
X141825000Y-178206250I0J243750D01*
G01*
X141825000Y-177293750D01*
G75*
G02*
X142068750Y-177050000I243750J0D01*
G01*
X142556250Y-177050000D01*
G75*
G02*
X142800000Y-177293750I0J-243750D01*
G01*
G37*
%TD*%
%TO.C,C2*%
G36*
G01*
X212675000Y-165293750D02*
X212675000Y-166206250D01*
G75*
G02*
X212431250Y-166450000I-243750J0D01*
G01*
X211943750Y-166450000D01*
G75*
G02*
X211700000Y-166206250I0J243750D01*
G01*
X211700000Y-165293750D01*
G75*
G02*
X211943750Y-165050000I243750J0D01*
G01*
X212431250Y-165050000D01*
G75*
G02*
X212675000Y-165293750I0J-243750D01*
G01*
G37*
G36*
G01*
X210800000Y-165293750D02*
X210800000Y-166206250D01*
G75*
G02*
X210556250Y-166450000I-243750J0D01*
G01*
X210068750Y-166450000D01*
G75*
G02*
X209825000Y-166206250I0J243750D01*
G01*
X209825000Y-165293750D01*
G75*
G02*
X210068750Y-165050000I243750J0D01*
G01*
X210556250Y-165050000D01*
G75*
G02*
X210800000Y-165293750I0J-243750D01*
G01*
G37*
%TD*%
%TO.C,C2*%
G36*
G01*
X195675000Y-165293750D02*
X195675000Y-166206250D01*
G75*
G02*
X195431250Y-166450000I-243750J0D01*
G01*
X194943750Y-166450000D01*
G75*
G02*
X194700000Y-166206250I0J243750D01*
G01*
X194700000Y-165293750D01*
G75*
G02*
X194943750Y-165050000I243750J0D01*
G01*
X195431250Y-165050000D01*
G75*
G02*
X195675000Y-165293750I0J-243750D01*
G01*
G37*
G36*
G01*
X193800000Y-165293750D02*
X193800000Y-166206250D01*
G75*
G02*
X193556250Y-166450000I-243750J0D01*
G01*
X193068750Y-166450000D01*
G75*
G02*
X192825000Y-166206250I0J243750D01*
G01*
X192825000Y-165293750D01*
G75*
G02*
X193068750Y-165050000I243750J0D01*
G01*
X193556250Y-165050000D01*
G75*
G02*
X193800000Y-165293750I0J-243750D01*
G01*
G37*
%TD*%
%TO.C,C2*%
G36*
G01*
X178675000Y-165293750D02*
X178675000Y-166206250D01*
G75*
G02*
X178431250Y-166450000I-243750J0D01*
G01*
X177943750Y-166450000D01*
G75*
G02*
X177700000Y-166206250I0J243750D01*
G01*
X177700000Y-165293750D01*
G75*
G02*
X177943750Y-165050000I243750J0D01*
G01*
X178431250Y-165050000D01*
G75*
G02*
X178675000Y-165293750I0J-243750D01*
G01*
G37*
G36*
G01*
X176800000Y-165293750D02*
X176800000Y-166206250D01*
G75*
G02*
X176556250Y-166450000I-243750J0D01*
G01*
X176068750Y-166450000D01*
G75*
G02*
X175825000Y-166206250I0J243750D01*
G01*
X175825000Y-165293750D01*
G75*
G02*
X176068750Y-165050000I243750J0D01*
G01*
X176556250Y-165050000D01*
G75*
G02*
X176800000Y-165293750I0J-243750D01*
G01*
G37*
%TD*%
%TO.C,C2*%
G36*
G01*
X161675000Y-165293750D02*
X161675000Y-166206250D01*
G75*
G02*
X161431250Y-166450000I-243750J0D01*
G01*
X160943750Y-166450000D01*
G75*
G02*
X160700000Y-166206250I0J243750D01*
G01*
X160700000Y-165293750D01*
G75*
G02*
X160943750Y-165050000I243750J0D01*
G01*
X161431250Y-165050000D01*
G75*
G02*
X161675000Y-165293750I0J-243750D01*
G01*
G37*
G36*
G01*
X159800000Y-165293750D02*
X159800000Y-166206250D01*
G75*
G02*
X159556250Y-166450000I-243750J0D01*
G01*
X159068750Y-166450000D01*
G75*
G02*
X158825000Y-166206250I0J243750D01*
G01*
X158825000Y-165293750D01*
G75*
G02*
X159068750Y-165050000I243750J0D01*
G01*
X159556250Y-165050000D01*
G75*
G02*
X159800000Y-165293750I0J-243750D01*
G01*
G37*
%TD*%
%TO.C,C2*%
G36*
G01*
X144675000Y-165293750D02*
X144675000Y-166206250D01*
G75*
G02*
X144431250Y-166450000I-243750J0D01*
G01*
X143943750Y-166450000D01*
G75*
G02*
X143700000Y-166206250I0J243750D01*
G01*
X143700000Y-165293750D01*
G75*
G02*
X143943750Y-165050000I243750J0D01*
G01*
X144431250Y-165050000D01*
G75*
G02*
X144675000Y-165293750I0J-243750D01*
G01*
G37*
G36*
G01*
X142800000Y-165293750D02*
X142800000Y-166206250D01*
G75*
G02*
X142556250Y-166450000I-243750J0D01*
G01*
X142068750Y-166450000D01*
G75*
G02*
X141825000Y-166206250I0J243750D01*
G01*
X141825000Y-165293750D01*
G75*
G02*
X142068750Y-165050000I243750J0D01*
G01*
X142556250Y-165050000D01*
G75*
G02*
X142800000Y-165293750I0J-243750D01*
G01*
G37*
%TD*%
%TO.C,C2*%
G36*
G01*
X212675000Y-153293750D02*
X212675000Y-154206250D01*
G75*
G02*
X212431250Y-154450000I-243750J0D01*
G01*
X211943750Y-154450000D01*
G75*
G02*
X211700000Y-154206250I0J243750D01*
G01*
X211700000Y-153293750D01*
G75*
G02*
X211943750Y-153050000I243750J0D01*
G01*
X212431250Y-153050000D01*
G75*
G02*
X212675000Y-153293750I0J-243750D01*
G01*
G37*
G36*
G01*
X210800000Y-153293750D02*
X210800000Y-154206250D01*
G75*
G02*
X210556250Y-154450000I-243750J0D01*
G01*
X210068750Y-154450000D01*
G75*
G02*
X209825000Y-154206250I0J243750D01*
G01*
X209825000Y-153293750D01*
G75*
G02*
X210068750Y-153050000I243750J0D01*
G01*
X210556250Y-153050000D01*
G75*
G02*
X210800000Y-153293750I0J-243750D01*
G01*
G37*
%TD*%
%TO.C,C2*%
G36*
G01*
X195675000Y-153293750D02*
X195675000Y-154206250D01*
G75*
G02*
X195431250Y-154450000I-243750J0D01*
G01*
X194943750Y-154450000D01*
G75*
G02*
X194700000Y-154206250I0J243750D01*
G01*
X194700000Y-153293750D01*
G75*
G02*
X194943750Y-153050000I243750J0D01*
G01*
X195431250Y-153050000D01*
G75*
G02*
X195675000Y-153293750I0J-243750D01*
G01*
G37*
G36*
G01*
X193800000Y-153293750D02*
X193800000Y-154206250D01*
G75*
G02*
X193556250Y-154450000I-243750J0D01*
G01*
X193068750Y-154450000D01*
G75*
G02*
X192825000Y-154206250I0J243750D01*
G01*
X192825000Y-153293750D01*
G75*
G02*
X193068750Y-153050000I243750J0D01*
G01*
X193556250Y-153050000D01*
G75*
G02*
X193800000Y-153293750I0J-243750D01*
G01*
G37*
%TD*%
%TO.C,C2*%
G36*
G01*
X178675000Y-153293750D02*
X178675000Y-154206250D01*
G75*
G02*
X178431250Y-154450000I-243750J0D01*
G01*
X177943750Y-154450000D01*
G75*
G02*
X177700000Y-154206250I0J243750D01*
G01*
X177700000Y-153293750D01*
G75*
G02*
X177943750Y-153050000I243750J0D01*
G01*
X178431250Y-153050000D01*
G75*
G02*
X178675000Y-153293750I0J-243750D01*
G01*
G37*
G36*
G01*
X176800000Y-153293750D02*
X176800000Y-154206250D01*
G75*
G02*
X176556250Y-154450000I-243750J0D01*
G01*
X176068750Y-154450000D01*
G75*
G02*
X175825000Y-154206250I0J243750D01*
G01*
X175825000Y-153293750D01*
G75*
G02*
X176068750Y-153050000I243750J0D01*
G01*
X176556250Y-153050000D01*
G75*
G02*
X176800000Y-153293750I0J-243750D01*
G01*
G37*
%TD*%
%TO.C,C2*%
G36*
G01*
X161675000Y-153293750D02*
X161675000Y-154206250D01*
G75*
G02*
X161431250Y-154450000I-243750J0D01*
G01*
X160943750Y-154450000D01*
G75*
G02*
X160700000Y-154206250I0J243750D01*
G01*
X160700000Y-153293750D01*
G75*
G02*
X160943750Y-153050000I243750J0D01*
G01*
X161431250Y-153050000D01*
G75*
G02*
X161675000Y-153293750I0J-243750D01*
G01*
G37*
G36*
G01*
X159800000Y-153293750D02*
X159800000Y-154206250D01*
G75*
G02*
X159556250Y-154450000I-243750J0D01*
G01*
X159068750Y-154450000D01*
G75*
G02*
X158825000Y-154206250I0J243750D01*
G01*
X158825000Y-153293750D01*
G75*
G02*
X159068750Y-153050000I243750J0D01*
G01*
X159556250Y-153050000D01*
G75*
G02*
X159800000Y-153293750I0J-243750D01*
G01*
G37*
%TD*%
%TO.C,C2*%
G36*
G01*
X144675000Y-153293750D02*
X144675000Y-154206250D01*
G75*
G02*
X144431250Y-154450000I-243750J0D01*
G01*
X143943750Y-154450000D01*
G75*
G02*
X143700000Y-154206250I0J243750D01*
G01*
X143700000Y-153293750D01*
G75*
G02*
X143943750Y-153050000I243750J0D01*
G01*
X144431250Y-153050000D01*
G75*
G02*
X144675000Y-153293750I0J-243750D01*
G01*
G37*
G36*
G01*
X142800000Y-153293750D02*
X142800000Y-154206250D01*
G75*
G02*
X142556250Y-154450000I-243750J0D01*
G01*
X142068750Y-154450000D01*
G75*
G02*
X141825000Y-154206250I0J243750D01*
G01*
X141825000Y-153293750D01*
G75*
G02*
X142068750Y-153050000I243750J0D01*
G01*
X142556250Y-153050000D01*
G75*
G02*
X142800000Y-153293750I0J-243750D01*
G01*
G37*
%TD*%
%TO.C,C2*%
G36*
G01*
X212675000Y-141293750D02*
X212675000Y-142206250D01*
G75*
G02*
X212431250Y-142450000I-243750J0D01*
G01*
X211943750Y-142450000D01*
G75*
G02*
X211700000Y-142206250I0J243750D01*
G01*
X211700000Y-141293750D01*
G75*
G02*
X211943750Y-141050000I243750J0D01*
G01*
X212431250Y-141050000D01*
G75*
G02*
X212675000Y-141293750I0J-243750D01*
G01*
G37*
G36*
G01*
X210800000Y-141293750D02*
X210800000Y-142206250D01*
G75*
G02*
X210556250Y-142450000I-243750J0D01*
G01*
X210068750Y-142450000D01*
G75*
G02*
X209825000Y-142206250I0J243750D01*
G01*
X209825000Y-141293750D01*
G75*
G02*
X210068750Y-141050000I243750J0D01*
G01*
X210556250Y-141050000D01*
G75*
G02*
X210800000Y-141293750I0J-243750D01*
G01*
G37*
%TD*%
%TO.C,C2*%
G36*
G01*
X195675000Y-141293750D02*
X195675000Y-142206250D01*
G75*
G02*
X195431250Y-142450000I-243750J0D01*
G01*
X194943750Y-142450000D01*
G75*
G02*
X194700000Y-142206250I0J243750D01*
G01*
X194700000Y-141293750D01*
G75*
G02*
X194943750Y-141050000I243750J0D01*
G01*
X195431250Y-141050000D01*
G75*
G02*
X195675000Y-141293750I0J-243750D01*
G01*
G37*
G36*
G01*
X193800000Y-141293750D02*
X193800000Y-142206250D01*
G75*
G02*
X193556250Y-142450000I-243750J0D01*
G01*
X193068750Y-142450000D01*
G75*
G02*
X192825000Y-142206250I0J243750D01*
G01*
X192825000Y-141293750D01*
G75*
G02*
X193068750Y-141050000I243750J0D01*
G01*
X193556250Y-141050000D01*
G75*
G02*
X193800000Y-141293750I0J-243750D01*
G01*
G37*
%TD*%
%TO.C,C2*%
G36*
G01*
X178675000Y-141293750D02*
X178675000Y-142206250D01*
G75*
G02*
X178431250Y-142450000I-243750J0D01*
G01*
X177943750Y-142450000D01*
G75*
G02*
X177700000Y-142206250I0J243750D01*
G01*
X177700000Y-141293750D01*
G75*
G02*
X177943750Y-141050000I243750J0D01*
G01*
X178431250Y-141050000D01*
G75*
G02*
X178675000Y-141293750I0J-243750D01*
G01*
G37*
G36*
G01*
X176800000Y-141293750D02*
X176800000Y-142206250D01*
G75*
G02*
X176556250Y-142450000I-243750J0D01*
G01*
X176068750Y-142450000D01*
G75*
G02*
X175825000Y-142206250I0J243750D01*
G01*
X175825000Y-141293750D01*
G75*
G02*
X176068750Y-141050000I243750J0D01*
G01*
X176556250Y-141050000D01*
G75*
G02*
X176800000Y-141293750I0J-243750D01*
G01*
G37*
%TD*%
%TO.C,C2*%
G36*
G01*
X161675000Y-141293750D02*
X161675000Y-142206250D01*
G75*
G02*
X161431250Y-142450000I-243750J0D01*
G01*
X160943750Y-142450000D01*
G75*
G02*
X160700000Y-142206250I0J243750D01*
G01*
X160700000Y-141293750D01*
G75*
G02*
X160943750Y-141050000I243750J0D01*
G01*
X161431250Y-141050000D01*
G75*
G02*
X161675000Y-141293750I0J-243750D01*
G01*
G37*
G36*
G01*
X159800000Y-141293750D02*
X159800000Y-142206250D01*
G75*
G02*
X159556250Y-142450000I-243750J0D01*
G01*
X159068750Y-142450000D01*
G75*
G02*
X158825000Y-142206250I0J243750D01*
G01*
X158825000Y-141293750D01*
G75*
G02*
X159068750Y-141050000I243750J0D01*
G01*
X159556250Y-141050000D01*
G75*
G02*
X159800000Y-141293750I0J-243750D01*
G01*
G37*
%TD*%
%TO.C,C2*%
G36*
G01*
X144675000Y-141293750D02*
X144675000Y-142206250D01*
G75*
G02*
X144431250Y-142450000I-243750J0D01*
G01*
X143943750Y-142450000D01*
G75*
G02*
X143700000Y-142206250I0J243750D01*
G01*
X143700000Y-141293750D01*
G75*
G02*
X143943750Y-141050000I243750J0D01*
G01*
X144431250Y-141050000D01*
G75*
G02*
X144675000Y-141293750I0J-243750D01*
G01*
G37*
G36*
G01*
X142800000Y-141293750D02*
X142800000Y-142206250D01*
G75*
G02*
X142556250Y-142450000I-243750J0D01*
G01*
X142068750Y-142450000D01*
G75*
G02*
X141825000Y-142206250I0J243750D01*
G01*
X141825000Y-141293750D01*
G75*
G02*
X142068750Y-141050000I243750J0D01*
G01*
X142556250Y-141050000D01*
G75*
G02*
X142800000Y-141293750I0J-243750D01*
G01*
G37*
%TD*%
%TO.C,C2*%
G36*
G01*
X212675000Y-129293750D02*
X212675000Y-130206250D01*
G75*
G02*
X212431250Y-130450000I-243750J0D01*
G01*
X211943750Y-130450000D01*
G75*
G02*
X211700000Y-130206250I0J243750D01*
G01*
X211700000Y-129293750D01*
G75*
G02*
X211943750Y-129050000I243750J0D01*
G01*
X212431250Y-129050000D01*
G75*
G02*
X212675000Y-129293750I0J-243750D01*
G01*
G37*
G36*
G01*
X210800000Y-129293750D02*
X210800000Y-130206250D01*
G75*
G02*
X210556250Y-130450000I-243750J0D01*
G01*
X210068750Y-130450000D01*
G75*
G02*
X209825000Y-130206250I0J243750D01*
G01*
X209825000Y-129293750D01*
G75*
G02*
X210068750Y-129050000I243750J0D01*
G01*
X210556250Y-129050000D01*
G75*
G02*
X210800000Y-129293750I0J-243750D01*
G01*
G37*
%TD*%
%TO.C,C2*%
G36*
G01*
X195675000Y-129293750D02*
X195675000Y-130206250D01*
G75*
G02*
X195431250Y-130450000I-243750J0D01*
G01*
X194943750Y-130450000D01*
G75*
G02*
X194700000Y-130206250I0J243750D01*
G01*
X194700000Y-129293750D01*
G75*
G02*
X194943750Y-129050000I243750J0D01*
G01*
X195431250Y-129050000D01*
G75*
G02*
X195675000Y-129293750I0J-243750D01*
G01*
G37*
G36*
G01*
X193800000Y-129293750D02*
X193800000Y-130206250D01*
G75*
G02*
X193556250Y-130450000I-243750J0D01*
G01*
X193068750Y-130450000D01*
G75*
G02*
X192825000Y-130206250I0J243750D01*
G01*
X192825000Y-129293750D01*
G75*
G02*
X193068750Y-129050000I243750J0D01*
G01*
X193556250Y-129050000D01*
G75*
G02*
X193800000Y-129293750I0J-243750D01*
G01*
G37*
%TD*%
%TO.C,C2*%
G36*
G01*
X178675000Y-129293750D02*
X178675000Y-130206250D01*
G75*
G02*
X178431250Y-130450000I-243750J0D01*
G01*
X177943750Y-130450000D01*
G75*
G02*
X177700000Y-130206250I0J243750D01*
G01*
X177700000Y-129293750D01*
G75*
G02*
X177943750Y-129050000I243750J0D01*
G01*
X178431250Y-129050000D01*
G75*
G02*
X178675000Y-129293750I0J-243750D01*
G01*
G37*
G36*
G01*
X176800000Y-129293750D02*
X176800000Y-130206250D01*
G75*
G02*
X176556250Y-130450000I-243750J0D01*
G01*
X176068750Y-130450000D01*
G75*
G02*
X175825000Y-130206250I0J243750D01*
G01*
X175825000Y-129293750D01*
G75*
G02*
X176068750Y-129050000I243750J0D01*
G01*
X176556250Y-129050000D01*
G75*
G02*
X176800000Y-129293750I0J-243750D01*
G01*
G37*
%TD*%
%TO.C,C2*%
G36*
G01*
X161675000Y-129293750D02*
X161675000Y-130206250D01*
G75*
G02*
X161431250Y-130450000I-243750J0D01*
G01*
X160943750Y-130450000D01*
G75*
G02*
X160700000Y-130206250I0J243750D01*
G01*
X160700000Y-129293750D01*
G75*
G02*
X160943750Y-129050000I243750J0D01*
G01*
X161431250Y-129050000D01*
G75*
G02*
X161675000Y-129293750I0J-243750D01*
G01*
G37*
G36*
G01*
X159800000Y-129293750D02*
X159800000Y-130206250D01*
G75*
G02*
X159556250Y-130450000I-243750J0D01*
G01*
X159068750Y-130450000D01*
G75*
G02*
X158825000Y-130206250I0J243750D01*
G01*
X158825000Y-129293750D01*
G75*
G02*
X159068750Y-129050000I243750J0D01*
G01*
X159556250Y-129050000D01*
G75*
G02*
X159800000Y-129293750I0J-243750D01*
G01*
G37*
%TD*%
%TO.C,C2*%
G36*
G01*
X144675000Y-129293750D02*
X144675000Y-130206250D01*
G75*
G02*
X144431250Y-130450000I-243750J0D01*
G01*
X143943750Y-130450000D01*
G75*
G02*
X143700000Y-130206250I0J243750D01*
G01*
X143700000Y-129293750D01*
G75*
G02*
X143943750Y-129050000I243750J0D01*
G01*
X144431250Y-129050000D01*
G75*
G02*
X144675000Y-129293750I0J-243750D01*
G01*
G37*
G36*
G01*
X142800000Y-129293750D02*
X142800000Y-130206250D01*
G75*
G02*
X142556250Y-130450000I-243750J0D01*
G01*
X142068750Y-130450000D01*
G75*
G02*
X141825000Y-130206250I0J243750D01*
G01*
X141825000Y-129293750D01*
G75*
G02*
X142068750Y-129050000I243750J0D01*
G01*
X142556250Y-129050000D01*
G75*
G02*
X142800000Y-129293750I0J-243750D01*
G01*
G37*
%TD*%
%TO.C,C2*%
G36*
G01*
X212675000Y-117293750D02*
X212675000Y-118206250D01*
G75*
G02*
X212431250Y-118450000I-243750J0D01*
G01*
X211943750Y-118450000D01*
G75*
G02*
X211700000Y-118206250I0J243750D01*
G01*
X211700000Y-117293750D01*
G75*
G02*
X211943750Y-117050000I243750J0D01*
G01*
X212431250Y-117050000D01*
G75*
G02*
X212675000Y-117293750I0J-243750D01*
G01*
G37*
G36*
G01*
X210800000Y-117293750D02*
X210800000Y-118206250D01*
G75*
G02*
X210556250Y-118450000I-243750J0D01*
G01*
X210068750Y-118450000D01*
G75*
G02*
X209825000Y-118206250I0J243750D01*
G01*
X209825000Y-117293750D01*
G75*
G02*
X210068750Y-117050000I243750J0D01*
G01*
X210556250Y-117050000D01*
G75*
G02*
X210800000Y-117293750I0J-243750D01*
G01*
G37*
%TD*%
%TO.C,C2*%
G36*
G01*
X195675000Y-117293750D02*
X195675000Y-118206250D01*
G75*
G02*
X195431250Y-118450000I-243750J0D01*
G01*
X194943750Y-118450000D01*
G75*
G02*
X194700000Y-118206250I0J243750D01*
G01*
X194700000Y-117293750D01*
G75*
G02*
X194943750Y-117050000I243750J0D01*
G01*
X195431250Y-117050000D01*
G75*
G02*
X195675000Y-117293750I0J-243750D01*
G01*
G37*
G36*
G01*
X193800000Y-117293750D02*
X193800000Y-118206250D01*
G75*
G02*
X193556250Y-118450000I-243750J0D01*
G01*
X193068750Y-118450000D01*
G75*
G02*
X192825000Y-118206250I0J243750D01*
G01*
X192825000Y-117293750D01*
G75*
G02*
X193068750Y-117050000I243750J0D01*
G01*
X193556250Y-117050000D01*
G75*
G02*
X193800000Y-117293750I0J-243750D01*
G01*
G37*
%TD*%
%TO.C,C2*%
G36*
G01*
X178675000Y-117293750D02*
X178675000Y-118206250D01*
G75*
G02*
X178431250Y-118450000I-243750J0D01*
G01*
X177943750Y-118450000D01*
G75*
G02*
X177700000Y-118206250I0J243750D01*
G01*
X177700000Y-117293750D01*
G75*
G02*
X177943750Y-117050000I243750J0D01*
G01*
X178431250Y-117050000D01*
G75*
G02*
X178675000Y-117293750I0J-243750D01*
G01*
G37*
G36*
G01*
X176800000Y-117293750D02*
X176800000Y-118206250D01*
G75*
G02*
X176556250Y-118450000I-243750J0D01*
G01*
X176068750Y-118450000D01*
G75*
G02*
X175825000Y-118206250I0J243750D01*
G01*
X175825000Y-117293750D01*
G75*
G02*
X176068750Y-117050000I243750J0D01*
G01*
X176556250Y-117050000D01*
G75*
G02*
X176800000Y-117293750I0J-243750D01*
G01*
G37*
%TD*%
%TO.C,C2*%
G36*
G01*
X161675000Y-117293750D02*
X161675000Y-118206250D01*
G75*
G02*
X161431250Y-118450000I-243750J0D01*
G01*
X160943750Y-118450000D01*
G75*
G02*
X160700000Y-118206250I0J243750D01*
G01*
X160700000Y-117293750D01*
G75*
G02*
X160943750Y-117050000I243750J0D01*
G01*
X161431250Y-117050000D01*
G75*
G02*
X161675000Y-117293750I0J-243750D01*
G01*
G37*
G36*
G01*
X159800000Y-117293750D02*
X159800000Y-118206250D01*
G75*
G02*
X159556250Y-118450000I-243750J0D01*
G01*
X159068750Y-118450000D01*
G75*
G02*
X158825000Y-118206250I0J243750D01*
G01*
X158825000Y-117293750D01*
G75*
G02*
X159068750Y-117050000I243750J0D01*
G01*
X159556250Y-117050000D01*
G75*
G02*
X159800000Y-117293750I0J-243750D01*
G01*
G37*
%TD*%
%TO.C,C2*%
G36*
G01*
X144675000Y-117293750D02*
X144675000Y-118206250D01*
G75*
G02*
X144431250Y-118450000I-243750J0D01*
G01*
X143943750Y-118450000D01*
G75*
G02*
X143700000Y-118206250I0J243750D01*
G01*
X143700000Y-117293750D01*
G75*
G02*
X143943750Y-117050000I243750J0D01*
G01*
X144431250Y-117050000D01*
G75*
G02*
X144675000Y-117293750I0J-243750D01*
G01*
G37*
G36*
G01*
X142800000Y-117293750D02*
X142800000Y-118206250D01*
G75*
G02*
X142556250Y-118450000I-243750J0D01*
G01*
X142068750Y-118450000D01*
G75*
G02*
X141825000Y-118206250I0J243750D01*
G01*
X141825000Y-117293750D01*
G75*
G02*
X142068750Y-117050000I243750J0D01*
G01*
X142556250Y-117050000D01*
G75*
G02*
X142800000Y-117293750I0J-243750D01*
G01*
G37*
%TD*%
%TO.C,C2*%
G36*
G01*
X212675000Y-105293750D02*
X212675000Y-106206250D01*
G75*
G02*
X212431250Y-106450000I-243750J0D01*
G01*
X211943750Y-106450000D01*
G75*
G02*
X211700000Y-106206250I0J243750D01*
G01*
X211700000Y-105293750D01*
G75*
G02*
X211943750Y-105050000I243750J0D01*
G01*
X212431250Y-105050000D01*
G75*
G02*
X212675000Y-105293750I0J-243750D01*
G01*
G37*
G36*
G01*
X210800000Y-105293750D02*
X210800000Y-106206250D01*
G75*
G02*
X210556250Y-106450000I-243750J0D01*
G01*
X210068750Y-106450000D01*
G75*
G02*
X209825000Y-106206250I0J243750D01*
G01*
X209825000Y-105293750D01*
G75*
G02*
X210068750Y-105050000I243750J0D01*
G01*
X210556250Y-105050000D01*
G75*
G02*
X210800000Y-105293750I0J-243750D01*
G01*
G37*
%TD*%
%TO.C,C2*%
G36*
G01*
X195675000Y-105293750D02*
X195675000Y-106206250D01*
G75*
G02*
X195431250Y-106450000I-243750J0D01*
G01*
X194943750Y-106450000D01*
G75*
G02*
X194700000Y-106206250I0J243750D01*
G01*
X194700000Y-105293750D01*
G75*
G02*
X194943750Y-105050000I243750J0D01*
G01*
X195431250Y-105050000D01*
G75*
G02*
X195675000Y-105293750I0J-243750D01*
G01*
G37*
G36*
G01*
X193800000Y-105293750D02*
X193800000Y-106206250D01*
G75*
G02*
X193556250Y-106450000I-243750J0D01*
G01*
X193068750Y-106450000D01*
G75*
G02*
X192825000Y-106206250I0J243750D01*
G01*
X192825000Y-105293750D01*
G75*
G02*
X193068750Y-105050000I243750J0D01*
G01*
X193556250Y-105050000D01*
G75*
G02*
X193800000Y-105293750I0J-243750D01*
G01*
G37*
%TD*%
%TO.C,C2*%
G36*
G01*
X178675000Y-105293750D02*
X178675000Y-106206250D01*
G75*
G02*
X178431250Y-106450000I-243750J0D01*
G01*
X177943750Y-106450000D01*
G75*
G02*
X177700000Y-106206250I0J243750D01*
G01*
X177700000Y-105293750D01*
G75*
G02*
X177943750Y-105050000I243750J0D01*
G01*
X178431250Y-105050000D01*
G75*
G02*
X178675000Y-105293750I0J-243750D01*
G01*
G37*
G36*
G01*
X176800000Y-105293750D02*
X176800000Y-106206250D01*
G75*
G02*
X176556250Y-106450000I-243750J0D01*
G01*
X176068750Y-106450000D01*
G75*
G02*
X175825000Y-106206250I0J243750D01*
G01*
X175825000Y-105293750D01*
G75*
G02*
X176068750Y-105050000I243750J0D01*
G01*
X176556250Y-105050000D01*
G75*
G02*
X176800000Y-105293750I0J-243750D01*
G01*
G37*
%TD*%
%TO.C,C2*%
G36*
G01*
X161675000Y-105293750D02*
X161675000Y-106206250D01*
G75*
G02*
X161431250Y-106450000I-243750J0D01*
G01*
X160943750Y-106450000D01*
G75*
G02*
X160700000Y-106206250I0J243750D01*
G01*
X160700000Y-105293750D01*
G75*
G02*
X160943750Y-105050000I243750J0D01*
G01*
X161431250Y-105050000D01*
G75*
G02*
X161675000Y-105293750I0J-243750D01*
G01*
G37*
G36*
G01*
X159800000Y-105293750D02*
X159800000Y-106206250D01*
G75*
G02*
X159556250Y-106450000I-243750J0D01*
G01*
X159068750Y-106450000D01*
G75*
G02*
X158825000Y-106206250I0J243750D01*
G01*
X158825000Y-105293750D01*
G75*
G02*
X159068750Y-105050000I243750J0D01*
G01*
X159556250Y-105050000D01*
G75*
G02*
X159800000Y-105293750I0J-243750D01*
G01*
G37*
%TD*%
%TO.C,D2*%
G36*
G01*
X203956250Y-187675000D02*
X203043750Y-187675000D01*
G75*
G02*
X202800000Y-187431250I0J243750D01*
G01*
X202800000Y-186943750D01*
G75*
G02*
X203043750Y-186700000I243750J0D01*
G01*
X203956250Y-186700000D01*
G75*
G02*
X204200000Y-186943750I0J-243750D01*
G01*
X204200000Y-187431250D01*
G75*
G02*
X203956250Y-187675000I-243750J0D01*
G01*
G37*
G36*
G01*
X203956250Y-185800000D02*
X203043750Y-185800000D01*
G75*
G02*
X202800000Y-185556250I0J243750D01*
G01*
X202800000Y-185068750D01*
G75*
G02*
X203043750Y-184825000I243750J0D01*
G01*
X203956250Y-184825000D01*
G75*
G02*
X204200000Y-185068750I0J-243750D01*
G01*
X204200000Y-185556250D01*
G75*
G02*
X203956250Y-185800000I-243750J0D01*
G01*
G37*
%TD*%
%TO.C,D2*%
G36*
G01*
X186956250Y-187675000D02*
X186043750Y-187675000D01*
G75*
G02*
X185800000Y-187431250I0J243750D01*
G01*
X185800000Y-186943750D01*
G75*
G02*
X186043750Y-186700000I243750J0D01*
G01*
X186956250Y-186700000D01*
G75*
G02*
X187200000Y-186943750I0J-243750D01*
G01*
X187200000Y-187431250D01*
G75*
G02*
X186956250Y-187675000I-243750J0D01*
G01*
G37*
G36*
G01*
X186956250Y-185800000D02*
X186043750Y-185800000D01*
G75*
G02*
X185800000Y-185556250I0J243750D01*
G01*
X185800000Y-185068750D01*
G75*
G02*
X186043750Y-184825000I243750J0D01*
G01*
X186956250Y-184825000D01*
G75*
G02*
X187200000Y-185068750I0J-243750D01*
G01*
X187200000Y-185556250D01*
G75*
G02*
X186956250Y-185800000I-243750J0D01*
G01*
G37*
%TD*%
%TO.C,D2*%
G36*
G01*
X169956250Y-187675000D02*
X169043750Y-187675000D01*
G75*
G02*
X168800000Y-187431250I0J243750D01*
G01*
X168800000Y-186943750D01*
G75*
G02*
X169043750Y-186700000I243750J0D01*
G01*
X169956250Y-186700000D01*
G75*
G02*
X170200000Y-186943750I0J-243750D01*
G01*
X170200000Y-187431250D01*
G75*
G02*
X169956250Y-187675000I-243750J0D01*
G01*
G37*
G36*
G01*
X169956250Y-185800000D02*
X169043750Y-185800000D01*
G75*
G02*
X168800000Y-185556250I0J243750D01*
G01*
X168800000Y-185068750D01*
G75*
G02*
X169043750Y-184825000I243750J0D01*
G01*
X169956250Y-184825000D01*
G75*
G02*
X170200000Y-185068750I0J-243750D01*
G01*
X170200000Y-185556250D01*
G75*
G02*
X169956250Y-185800000I-243750J0D01*
G01*
G37*
%TD*%
%TO.C,D2*%
G36*
G01*
X152956250Y-187675000D02*
X152043750Y-187675000D01*
G75*
G02*
X151800000Y-187431250I0J243750D01*
G01*
X151800000Y-186943750D01*
G75*
G02*
X152043750Y-186700000I243750J0D01*
G01*
X152956250Y-186700000D01*
G75*
G02*
X153200000Y-186943750I0J-243750D01*
G01*
X153200000Y-187431250D01*
G75*
G02*
X152956250Y-187675000I-243750J0D01*
G01*
G37*
G36*
G01*
X152956250Y-185800000D02*
X152043750Y-185800000D01*
G75*
G02*
X151800000Y-185556250I0J243750D01*
G01*
X151800000Y-185068750D01*
G75*
G02*
X152043750Y-184825000I243750J0D01*
G01*
X152956250Y-184825000D01*
G75*
G02*
X153200000Y-185068750I0J-243750D01*
G01*
X153200000Y-185556250D01*
G75*
G02*
X152956250Y-185800000I-243750J0D01*
G01*
G37*
%TD*%
%TO.C,D2*%
G36*
G01*
X135956250Y-187675000D02*
X135043750Y-187675000D01*
G75*
G02*
X134800000Y-187431250I0J243750D01*
G01*
X134800000Y-186943750D01*
G75*
G02*
X135043750Y-186700000I243750J0D01*
G01*
X135956250Y-186700000D01*
G75*
G02*
X136200000Y-186943750I0J-243750D01*
G01*
X136200000Y-187431250D01*
G75*
G02*
X135956250Y-187675000I-243750J0D01*
G01*
G37*
G36*
G01*
X135956250Y-185800000D02*
X135043750Y-185800000D01*
G75*
G02*
X134800000Y-185556250I0J243750D01*
G01*
X134800000Y-185068750D01*
G75*
G02*
X135043750Y-184825000I243750J0D01*
G01*
X135956250Y-184825000D01*
G75*
G02*
X136200000Y-185068750I0J-243750D01*
G01*
X136200000Y-185556250D01*
G75*
G02*
X135956250Y-185800000I-243750J0D01*
G01*
G37*
%TD*%
%TO.C,D2*%
G36*
G01*
X203956250Y-175675000D02*
X203043750Y-175675000D01*
G75*
G02*
X202800000Y-175431250I0J243750D01*
G01*
X202800000Y-174943750D01*
G75*
G02*
X203043750Y-174700000I243750J0D01*
G01*
X203956250Y-174700000D01*
G75*
G02*
X204200000Y-174943750I0J-243750D01*
G01*
X204200000Y-175431250D01*
G75*
G02*
X203956250Y-175675000I-243750J0D01*
G01*
G37*
G36*
G01*
X203956250Y-173800000D02*
X203043750Y-173800000D01*
G75*
G02*
X202800000Y-173556250I0J243750D01*
G01*
X202800000Y-173068750D01*
G75*
G02*
X203043750Y-172825000I243750J0D01*
G01*
X203956250Y-172825000D01*
G75*
G02*
X204200000Y-173068750I0J-243750D01*
G01*
X204200000Y-173556250D01*
G75*
G02*
X203956250Y-173800000I-243750J0D01*
G01*
G37*
%TD*%
%TO.C,D2*%
G36*
G01*
X186956250Y-175675000D02*
X186043750Y-175675000D01*
G75*
G02*
X185800000Y-175431250I0J243750D01*
G01*
X185800000Y-174943750D01*
G75*
G02*
X186043750Y-174700000I243750J0D01*
G01*
X186956250Y-174700000D01*
G75*
G02*
X187200000Y-174943750I0J-243750D01*
G01*
X187200000Y-175431250D01*
G75*
G02*
X186956250Y-175675000I-243750J0D01*
G01*
G37*
G36*
G01*
X186956250Y-173800000D02*
X186043750Y-173800000D01*
G75*
G02*
X185800000Y-173556250I0J243750D01*
G01*
X185800000Y-173068750D01*
G75*
G02*
X186043750Y-172825000I243750J0D01*
G01*
X186956250Y-172825000D01*
G75*
G02*
X187200000Y-173068750I0J-243750D01*
G01*
X187200000Y-173556250D01*
G75*
G02*
X186956250Y-173800000I-243750J0D01*
G01*
G37*
%TD*%
%TO.C,D2*%
G36*
G01*
X169956250Y-175675000D02*
X169043750Y-175675000D01*
G75*
G02*
X168800000Y-175431250I0J243750D01*
G01*
X168800000Y-174943750D01*
G75*
G02*
X169043750Y-174700000I243750J0D01*
G01*
X169956250Y-174700000D01*
G75*
G02*
X170200000Y-174943750I0J-243750D01*
G01*
X170200000Y-175431250D01*
G75*
G02*
X169956250Y-175675000I-243750J0D01*
G01*
G37*
G36*
G01*
X169956250Y-173800000D02*
X169043750Y-173800000D01*
G75*
G02*
X168800000Y-173556250I0J243750D01*
G01*
X168800000Y-173068750D01*
G75*
G02*
X169043750Y-172825000I243750J0D01*
G01*
X169956250Y-172825000D01*
G75*
G02*
X170200000Y-173068750I0J-243750D01*
G01*
X170200000Y-173556250D01*
G75*
G02*
X169956250Y-173800000I-243750J0D01*
G01*
G37*
%TD*%
%TO.C,D2*%
G36*
G01*
X152956250Y-175675000D02*
X152043750Y-175675000D01*
G75*
G02*
X151800000Y-175431250I0J243750D01*
G01*
X151800000Y-174943750D01*
G75*
G02*
X152043750Y-174700000I243750J0D01*
G01*
X152956250Y-174700000D01*
G75*
G02*
X153200000Y-174943750I0J-243750D01*
G01*
X153200000Y-175431250D01*
G75*
G02*
X152956250Y-175675000I-243750J0D01*
G01*
G37*
G36*
G01*
X152956250Y-173800000D02*
X152043750Y-173800000D01*
G75*
G02*
X151800000Y-173556250I0J243750D01*
G01*
X151800000Y-173068750D01*
G75*
G02*
X152043750Y-172825000I243750J0D01*
G01*
X152956250Y-172825000D01*
G75*
G02*
X153200000Y-173068750I0J-243750D01*
G01*
X153200000Y-173556250D01*
G75*
G02*
X152956250Y-173800000I-243750J0D01*
G01*
G37*
%TD*%
%TO.C,D2*%
G36*
G01*
X135956250Y-175675000D02*
X135043750Y-175675000D01*
G75*
G02*
X134800000Y-175431250I0J243750D01*
G01*
X134800000Y-174943750D01*
G75*
G02*
X135043750Y-174700000I243750J0D01*
G01*
X135956250Y-174700000D01*
G75*
G02*
X136200000Y-174943750I0J-243750D01*
G01*
X136200000Y-175431250D01*
G75*
G02*
X135956250Y-175675000I-243750J0D01*
G01*
G37*
G36*
G01*
X135956250Y-173800000D02*
X135043750Y-173800000D01*
G75*
G02*
X134800000Y-173556250I0J243750D01*
G01*
X134800000Y-173068750D01*
G75*
G02*
X135043750Y-172825000I243750J0D01*
G01*
X135956250Y-172825000D01*
G75*
G02*
X136200000Y-173068750I0J-243750D01*
G01*
X136200000Y-173556250D01*
G75*
G02*
X135956250Y-173800000I-243750J0D01*
G01*
G37*
%TD*%
%TO.C,D2*%
G36*
G01*
X203956250Y-163675000D02*
X203043750Y-163675000D01*
G75*
G02*
X202800000Y-163431250I0J243750D01*
G01*
X202800000Y-162943750D01*
G75*
G02*
X203043750Y-162700000I243750J0D01*
G01*
X203956250Y-162700000D01*
G75*
G02*
X204200000Y-162943750I0J-243750D01*
G01*
X204200000Y-163431250D01*
G75*
G02*
X203956250Y-163675000I-243750J0D01*
G01*
G37*
G36*
G01*
X203956250Y-161800000D02*
X203043750Y-161800000D01*
G75*
G02*
X202800000Y-161556250I0J243750D01*
G01*
X202800000Y-161068750D01*
G75*
G02*
X203043750Y-160825000I243750J0D01*
G01*
X203956250Y-160825000D01*
G75*
G02*
X204200000Y-161068750I0J-243750D01*
G01*
X204200000Y-161556250D01*
G75*
G02*
X203956250Y-161800000I-243750J0D01*
G01*
G37*
%TD*%
%TO.C,D2*%
G36*
G01*
X186956250Y-163675000D02*
X186043750Y-163675000D01*
G75*
G02*
X185800000Y-163431250I0J243750D01*
G01*
X185800000Y-162943750D01*
G75*
G02*
X186043750Y-162700000I243750J0D01*
G01*
X186956250Y-162700000D01*
G75*
G02*
X187200000Y-162943750I0J-243750D01*
G01*
X187200000Y-163431250D01*
G75*
G02*
X186956250Y-163675000I-243750J0D01*
G01*
G37*
G36*
G01*
X186956250Y-161800000D02*
X186043750Y-161800000D01*
G75*
G02*
X185800000Y-161556250I0J243750D01*
G01*
X185800000Y-161068750D01*
G75*
G02*
X186043750Y-160825000I243750J0D01*
G01*
X186956250Y-160825000D01*
G75*
G02*
X187200000Y-161068750I0J-243750D01*
G01*
X187200000Y-161556250D01*
G75*
G02*
X186956250Y-161800000I-243750J0D01*
G01*
G37*
%TD*%
%TO.C,D2*%
G36*
G01*
X169956250Y-163675000D02*
X169043750Y-163675000D01*
G75*
G02*
X168800000Y-163431250I0J243750D01*
G01*
X168800000Y-162943750D01*
G75*
G02*
X169043750Y-162700000I243750J0D01*
G01*
X169956250Y-162700000D01*
G75*
G02*
X170200000Y-162943750I0J-243750D01*
G01*
X170200000Y-163431250D01*
G75*
G02*
X169956250Y-163675000I-243750J0D01*
G01*
G37*
G36*
G01*
X169956250Y-161800000D02*
X169043750Y-161800000D01*
G75*
G02*
X168800000Y-161556250I0J243750D01*
G01*
X168800000Y-161068750D01*
G75*
G02*
X169043750Y-160825000I243750J0D01*
G01*
X169956250Y-160825000D01*
G75*
G02*
X170200000Y-161068750I0J-243750D01*
G01*
X170200000Y-161556250D01*
G75*
G02*
X169956250Y-161800000I-243750J0D01*
G01*
G37*
%TD*%
%TO.C,D2*%
G36*
G01*
X152956250Y-163675000D02*
X152043750Y-163675000D01*
G75*
G02*
X151800000Y-163431250I0J243750D01*
G01*
X151800000Y-162943750D01*
G75*
G02*
X152043750Y-162700000I243750J0D01*
G01*
X152956250Y-162700000D01*
G75*
G02*
X153200000Y-162943750I0J-243750D01*
G01*
X153200000Y-163431250D01*
G75*
G02*
X152956250Y-163675000I-243750J0D01*
G01*
G37*
G36*
G01*
X152956250Y-161800000D02*
X152043750Y-161800000D01*
G75*
G02*
X151800000Y-161556250I0J243750D01*
G01*
X151800000Y-161068750D01*
G75*
G02*
X152043750Y-160825000I243750J0D01*
G01*
X152956250Y-160825000D01*
G75*
G02*
X153200000Y-161068750I0J-243750D01*
G01*
X153200000Y-161556250D01*
G75*
G02*
X152956250Y-161800000I-243750J0D01*
G01*
G37*
%TD*%
%TO.C,D2*%
G36*
G01*
X135956250Y-163675000D02*
X135043750Y-163675000D01*
G75*
G02*
X134800000Y-163431250I0J243750D01*
G01*
X134800000Y-162943750D01*
G75*
G02*
X135043750Y-162700000I243750J0D01*
G01*
X135956250Y-162700000D01*
G75*
G02*
X136200000Y-162943750I0J-243750D01*
G01*
X136200000Y-163431250D01*
G75*
G02*
X135956250Y-163675000I-243750J0D01*
G01*
G37*
G36*
G01*
X135956250Y-161800000D02*
X135043750Y-161800000D01*
G75*
G02*
X134800000Y-161556250I0J243750D01*
G01*
X134800000Y-161068750D01*
G75*
G02*
X135043750Y-160825000I243750J0D01*
G01*
X135956250Y-160825000D01*
G75*
G02*
X136200000Y-161068750I0J-243750D01*
G01*
X136200000Y-161556250D01*
G75*
G02*
X135956250Y-161800000I-243750J0D01*
G01*
G37*
%TD*%
%TO.C,D2*%
G36*
G01*
X203956250Y-151675000D02*
X203043750Y-151675000D01*
G75*
G02*
X202800000Y-151431250I0J243750D01*
G01*
X202800000Y-150943750D01*
G75*
G02*
X203043750Y-150700000I243750J0D01*
G01*
X203956250Y-150700000D01*
G75*
G02*
X204200000Y-150943750I0J-243750D01*
G01*
X204200000Y-151431250D01*
G75*
G02*
X203956250Y-151675000I-243750J0D01*
G01*
G37*
G36*
G01*
X203956250Y-149800000D02*
X203043750Y-149800000D01*
G75*
G02*
X202800000Y-149556250I0J243750D01*
G01*
X202800000Y-149068750D01*
G75*
G02*
X203043750Y-148825000I243750J0D01*
G01*
X203956250Y-148825000D01*
G75*
G02*
X204200000Y-149068750I0J-243750D01*
G01*
X204200000Y-149556250D01*
G75*
G02*
X203956250Y-149800000I-243750J0D01*
G01*
G37*
%TD*%
%TO.C,D2*%
G36*
G01*
X186956250Y-151675000D02*
X186043750Y-151675000D01*
G75*
G02*
X185800000Y-151431250I0J243750D01*
G01*
X185800000Y-150943750D01*
G75*
G02*
X186043750Y-150700000I243750J0D01*
G01*
X186956250Y-150700000D01*
G75*
G02*
X187200000Y-150943750I0J-243750D01*
G01*
X187200000Y-151431250D01*
G75*
G02*
X186956250Y-151675000I-243750J0D01*
G01*
G37*
G36*
G01*
X186956250Y-149800000D02*
X186043750Y-149800000D01*
G75*
G02*
X185800000Y-149556250I0J243750D01*
G01*
X185800000Y-149068750D01*
G75*
G02*
X186043750Y-148825000I243750J0D01*
G01*
X186956250Y-148825000D01*
G75*
G02*
X187200000Y-149068750I0J-243750D01*
G01*
X187200000Y-149556250D01*
G75*
G02*
X186956250Y-149800000I-243750J0D01*
G01*
G37*
%TD*%
%TO.C,D2*%
G36*
G01*
X169956250Y-151675000D02*
X169043750Y-151675000D01*
G75*
G02*
X168800000Y-151431250I0J243750D01*
G01*
X168800000Y-150943750D01*
G75*
G02*
X169043750Y-150700000I243750J0D01*
G01*
X169956250Y-150700000D01*
G75*
G02*
X170200000Y-150943750I0J-243750D01*
G01*
X170200000Y-151431250D01*
G75*
G02*
X169956250Y-151675000I-243750J0D01*
G01*
G37*
G36*
G01*
X169956250Y-149800000D02*
X169043750Y-149800000D01*
G75*
G02*
X168800000Y-149556250I0J243750D01*
G01*
X168800000Y-149068750D01*
G75*
G02*
X169043750Y-148825000I243750J0D01*
G01*
X169956250Y-148825000D01*
G75*
G02*
X170200000Y-149068750I0J-243750D01*
G01*
X170200000Y-149556250D01*
G75*
G02*
X169956250Y-149800000I-243750J0D01*
G01*
G37*
%TD*%
%TO.C,D2*%
G36*
G01*
X152956250Y-151675000D02*
X152043750Y-151675000D01*
G75*
G02*
X151800000Y-151431250I0J243750D01*
G01*
X151800000Y-150943750D01*
G75*
G02*
X152043750Y-150700000I243750J0D01*
G01*
X152956250Y-150700000D01*
G75*
G02*
X153200000Y-150943750I0J-243750D01*
G01*
X153200000Y-151431250D01*
G75*
G02*
X152956250Y-151675000I-243750J0D01*
G01*
G37*
G36*
G01*
X152956250Y-149800000D02*
X152043750Y-149800000D01*
G75*
G02*
X151800000Y-149556250I0J243750D01*
G01*
X151800000Y-149068750D01*
G75*
G02*
X152043750Y-148825000I243750J0D01*
G01*
X152956250Y-148825000D01*
G75*
G02*
X153200000Y-149068750I0J-243750D01*
G01*
X153200000Y-149556250D01*
G75*
G02*
X152956250Y-149800000I-243750J0D01*
G01*
G37*
%TD*%
%TO.C,D2*%
G36*
G01*
X135956250Y-151675000D02*
X135043750Y-151675000D01*
G75*
G02*
X134800000Y-151431250I0J243750D01*
G01*
X134800000Y-150943750D01*
G75*
G02*
X135043750Y-150700000I243750J0D01*
G01*
X135956250Y-150700000D01*
G75*
G02*
X136200000Y-150943750I0J-243750D01*
G01*
X136200000Y-151431250D01*
G75*
G02*
X135956250Y-151675000I-243750J0D01*
G01*
G37*
G36*
G01*
X135956250Y-149800000D02*
X135043750Y-149800000D01*
G75*
G02*
X134800000Y-149556250I0J243750D01*
G01*
X134800000Y-149068750D01*
G75*
G02*
X135043750Y-148825000I243750J0D01*
G01*
X135956250Y-148825000D01*
G75*
G02*
X136200000Y-149068750I0J-243750D01*
G01*
X136200000Y-149556250D01*
G75*
G02*
X135956250Y-149800000I-243750J0D01*
G01*
G37*
%TD*%
%TO.C,D2*%
G36*
G01*
X203956250Y-139675000D02*
X203043750Y-139675000D01*
G75*
G02*
X202800000Y-139431250I0J243750D01*
G01*
X202800000Y-138943750D01*
G75*
G02*
X203043750Y-138700000I243750J0D01*
G01*
X203956250Y-138700000D01*
G75*
G02*
X204200000Y-138943750I0J-243750D01*
G01*
X204200000Y-139431250D01*
G75*
G02*
X203956250Y-139675000I-243750J0D01*
G01*
G37*
G36*
G01*
X203956250Y-137800000D02*
X203043750Y-137800000D01*
G75*
G02*
X202800000Y-137556250I0J243750D01*
G01*
X202800000Y-137068750D01*
G75*
G02*
X203043750Y-136825000I243750J0D01*
G01*
X203956250Y-136825000D01*
G75*
G02*
X204200000Y-137068750I0J-243750D01*
G01*
X204200000Y-137556250D01*
G75*
G02*
X203956250Y-137800000I-243750J0D01*
G01*
G37*
%TD*%
%TO.C,D2*%
G36*
G01*
X186956250Y-139675000D02*
X186043750Y-139675000D01*
G75*
G02*
X185800000Y-139431250I0J243750D01*
G01*
X185800000Y-138943750D01*
G75*
G02*
X186043750Y-138700000I243750J0D01*
G01*
X186956250Y-138700000D01*
G75*
G02*
X187200000Y-138943750I0J-243750D01*
G01*
X187200000Y-139431250D01*
G75*
G02*
X186956250Y-139675000I-243750J0D01*
G01*
G37*
G36*
G01*
X186956250Y-137800000D02*
X186043750Y-137800000D01*
G75*
G02*
X185800000Y-137556250I0J243750D01*
G01*
X185800000Y-137068750D01*
G75*
G02*
X186043750Y-136825000I243750J0D01*
G01*
X186956250Y-136825000D01*
G75*
G02*
X187200000Y-137068750I0J-243750D01*
G01*
X187200000Y-137556250D01*
G75*
G02*
X186956250Y-137800000I-243750J0D01*
G01*
G37*
%TD*%
%TO.C,D2*%
G36*
G01*
X169956250Y-139675000D02*
X169043750Y-139675000D01*
G75*
G02*
X168800000Y-139431250I0J243750D01*
G01*
X168800000Y-138943750D01*
G75*
G02*
X169043750Y-138700000I243750J0D01*
G01*
X169956250Y-138700000D01*
G75*
G02*
X170200000Y-138943750I0J-243750D01*
G01*
X170200000Y-139431250D01*
G75*
G02*
X169956250Y-139675000I-243750J0D01*
G01*
G37*
G36*
G01*
X169956250Y-137800000D02*
X169043750Y-137800000D01*
G75*
G02*
X168800000Y-137556250I0J243750D01*
G01*
X168800000Y-137068750D01*
G75*
G02*
X169043750Y-136825000I243750J0D01*
G01*
X169956250Y-136825000D01*
G75*
G02*
X170200000Y-137068750I0J-243750D01*
G01*
X170200000Y-137556250D01*
G75*
G02*
X169956250Y-137800000I-243750J0D01*
G01*
G37*
%TD*%
%TO.C,D2*%
G36*
G01*
X152956250Y-139675000D02*
X152043750Y-139675000D01*
G75*
G02*
X151800000Y-139431250I0J243750D01*
G01*
X151800000Y-138943750D01*
G75*
G02*
X152043750Y-138700000I243750J0D01*
G01*
X152956250Y-138700000D01*
G75*
G02*
X153200000Y-138943750I0J-243750D01*
G01*
X153200000Y-139431250D01*
G75*
G02*
X152956250Y-139675000I-243750J0D01*
G01*
G37*
G36*
G01*
X152956250Y-137800000D02*
X152043750Y-137800000D01*
G75*
G02*
X151800000Y-137556250I0J243750D01*
G01*
X151800000Y-137068750D01*
G75*
G02*
X152043750Y-136825000I243750J0D01*
G01*
X152956250Y-136825000D01*
G75*
G02*
X153200000Y-137068750I0J-243750D01*
G01*
X153200000Y-137556250D01*
G75*
G02*
X152956250Y-137800000I-243750J0D01*
G01*
G37*
%TD*%
%TO.C,D2*%
G36*
G01*
X135956250Y-139675000D02*
X135043750Y-139675000D01*
G75*
G02*
X134800000Y-139431250I0J243750D01*
G01*
X134800000Y-138943750D01*
G75*
G02*
X135043750Y-138700000I243750J0D01*
G01*
X135956250Y-138700000D01*
G75*
G02*
X136200000Y-138943750I0J-243750D01*
G01*
X136200000Y-139431250D01*
G75*
G02*
X135956250Y-139675000I-243750J0D01*
G01*
G37*
G36*
G01*
X135956250Y-137800000D02*
X135043750Y-137800000D01*
G75*
G02*
X134800000Y-137556250I0J243750D01*
G01*
X134800000Y-137068750D01*
G75*
G02*
X135043750Y-136825000I243750J0D01*
G01*
X135956250Y-136825000D01*
G75*
G02*
X136200000Y-137068750I0J-243750D01*
G01*
X136200000Y-137556250D01*
G75*
G02*
X135956250Y-137800000I-243750J0D01*
G01*
G37*
%TD*%
%TO.C,D2*%
G36*
G01*
X203956250Y-127675000D02*
X203043750Y-127675000D01*
G75*
G02*
X202800000Y-127431250I0J243750D01*
G01*
X202800000Y-126943750D01*
G75*
G02*
X203043750Y-126700000I243750J0D01*
G01*
X203956250Y-126700000D01*
G75*
G02*
X204200000Y-126943750I0J-243750D01*
G01*
X204200000Y-127431250D01*
G75*
G02*
X203956250Y-127675000I-243750J0D01*
G01*
G37*
G36*
G01*
X203956250Y-125800000D02*
X203043750Y-125800000D01*
G75*
G02*
X202800000Y-125556250I0J243750D01*
G01*
X202800000Y-125068750D01*
G75*
G02*
X203043750Y-124825000I243750J0D01*
G01*
X203956250Y-124825000D01*
G75*
G02*
X204200000Y-125068750I0J-243750D01*
G01*
X204200000Y-125556250D01*
G75*
G02*
X203956250Y-125800000I-243750J0D01*
G01*
G37*
%TD*%
%TO.C,D2*%
G36*
G01*
X186956250Y-127675000D02*
X186043750Y-127675000D01*
G75*
G02*
X185800000Y-127431250I0J243750D01*
G01*
X185800000Y-126943750D01*
G75*
G02*
X186043750Y-126700000I243750J0D01*
G01*
X186956250Y-126700000D01*
G75*
G02*
X187200000Y-126943750I0J-243750D01*
G01*
X187200000Y-127431250D01*
G75*
G02*
X186956250Y-127675000I-243750J0D01*
G01*
G37*
G36*
G01*
X186956250Y-125800000D02*
X186043750Y-125800000D01*
G75*
G02*
X185800000Y-125556250I0J243750D01*
G01*
X185800000Y-125068750D01*
G75*
G02*
X186043750Y-124825000I243750J0D01*
G01*
X186956250Y-124825000D01*
G75*
G02*
X187200000Y-125068750I0J-243750D01*
G01*
X187200000Y-125556250D01*
G75*
G02*
X186956250Y-125800000I-243750J0D01*
G01*
G37*
%TD*%
%TO.C,D2*%
G36*
G01*
X169956250Y-127675000D02*
X169043750Y-127675000D01*
G75*
G02*
X168800000Y-127431250I0J243750D01*
G01*
X168800000Y-126943750D01*
G75*
G02*
X169043750Y-126700000I243750J0D01*
G01*
X169956250Y-126700000D01*
G75*
G02*
X170200000Y-126943750I0J-243750D01*
G01*
X170200000Y-127431250D01*
G75*
G02*
X169956250Y-127675000I-243750J0D01*
G01*
G37*
G36*
G01*
X169956250Y-125800000D02*
X169043750Y-125800000D01*
G75*
G02*
X168800000Y-125556250I0J243750D01*
G01*
X168800000Y-125068750D01*
G75*
G02*
X169043750Y-124825000I243750J0D01*
G01*
X169956250Y-124825000D01*
G75*
G02*
X170200000Y-125068750I0J-243750D01*
G01*
X170200000Y-125556250D01*
G75*
G02*
X169956250Y-125800000I-243750J0D01*
G01*
G37*
%TD*%
%TO.C,D2*%
G36*
G01*
X152956250Y-127675000D02*
X152043750Y-127675000D01*
G75*
G02*
X151800000Y-127431250I0J243750D01*
G01*
X151800000Y-126943750D01*
G75*
G02*
X152043750Y-126700000I243750J0D01*
G01*
X152956250Y-126700000D01*
G75*
G02*
X153200000Y-126943750I0J-243750D01*
G01*
X153200000Y-127431250D01*
G75*
G02*
X152956250Y-127675000I-243750J0D01*
G01*
G37*
G36*
G01*
X152956250Y-125800000D02*
X152043750Y-125800000D01*
G75*
G02*
X151800000Y-125556250I0J243750D01*
G01*
X151800000Y-125068750D01*
G75*
G02*
X152043750Y-124825000I243750J0D01*
G01*
X152956250Y-124825000D01*
G75*
G02*
X153200000Y-125068750I0J-243750D01*
G01*
X153200000Y-125556250D01*
G75*
G02*
X152956250Y-125800000I-243750J0D01*
G01*
G37*
%TD*%
%TO.C,D2*%
G36*
G01*
X135956250Y-127675000D02*
X135043750Y-127675000D01*
G75*
G02*
X134800000Y-127431250I0J243750D01*
G01*
X134800000Y-126943750D01*
G75*
G02*
X135043750Y-126700000I243750J0D01*
G01*
X135956250Y-126700000D01*
G75*
G02*
X136200000Y-126943750I0J-243750D01*
G01*
X136200000Y-127431250D01*
G75*
G02*
X135956250Y-127675000I-243750J0D01*
G01*
G37*
G36*
G01*
X135956250Y-125800000D02*
X135043750Y-125800000D01*
G75*
G02*
X134800000Y-125556250I0J243750D01*
G01*
X134800000Y-125068750D01*
G75*
G02*
X135043750Y-124825000I243750J0D01*
G01*
X135956250Y-124825000D01*
G75*
G02*
X136200000Y-125068750I0J-243750D01*
G01*
X136200000Y-125556250D01*
G75*
G02*
X135956250Y-125800000I-243750J0D01*
G01*
G37*
%TD*%
%TO.C,D2*%
G36*
G01*
X203956250Y-115675000D02*
X203043750Y-115675000D01*
G75*
G02*
X202800000Y-115431250I0J243750D01*
G01*
X202800000Y-114943750D01*
G75*
G02*
X203043750Y-114700000I243750J0D01*
G01*
X203956250Y-114700000D01*
G75*
G02*
X204200000Y-114943750I0J-243750D01*
G01*
X204200000Y-115431250D01*
G75*
G02*
X203956250Y-115675000I-243750J0D01*
G01*
G37*
G36*
G01*
X203956250Y-113800000D02*
X203043750Y-113800000D01*
G75*
G02*
X202800000Y-113556250I0J243750D01*
G01*
X202800000Y-113068750D01*
G75*
G02*
X203043750Y-112825000I243750J0D01*
G01*
X203956250Y-112825000D01*
G75*
G02*
X204200000Y-113068750I0J-243750D01*
G01*
X204200000Y-113556250D01*
G75*
G02*
X203956250Y-113800000I-243750J0D01*
G01*
G37*
%TD*%
%TO.C,D2*%
G36*
G01*
X186956250Y-115675000D02*
X186043750Y-115675000D01*
G75*
G02*
X185800000Y-115431250I0J243750D01*
G01*
X185800000Y-114943750D01*
G75*
G02*
X186043750Y-114700000I243750J0D01*
G01*
X186956250Y-114700000D01*
G75*
G02*
X187200000Y-114943750I0J-243750D01*
G01*
X187200000Y-115431250D01*
G75*
G02*
X186956250Y-115675000I-243750J0D01*
G01*
G37*
G36*
G01*
X186956250Y-113800000D02*
X186043750Y-113800000D01*
G75*
G02*
X185800000Y-113556250I0J243750D01*
G01*
X185800000Y-113068750D01*
G75*
G02*
X186043750Y-112825000I243750J0D01*
G01*
X186956250Y-112825000D01*
G75*
G02*
X187200000Y-113068750I0J-243750D01*
G01*
X187200000Y-113556250D01*
G75*
G02*
X186956250Y-113800000I-243750J0D01*
G01*
G37*
%TD*%
%TO.C,D2*%
G36*
G01*
X169956250Y-115675000D02*
X169043750Y-115675000D01*
G75*
G02*
X168800000Y-115431250I0J243750D01*
G01*
X168800000Y-114943750D01*
G75*
G02*
X169043750Y-114700000I243750J0D01*
G01*
X169956250Y-114700000D01*
G75*
G02*
X170200000Y-114943750I0J-243750D01*
G01*
X170200000Y-115431250D01*
G75*
G02*
X169956250Y-115675000I-243750J0D01*
G01*
G37*
G36*
G01*
X169956250Y-113800000D02*
X169043750Y-113800000D01*
G75*
G02*
X168800000Y-113556250I0J243750D01*
G01*
X168800000Y-113068750D01*
G75*
G02*
X169043750Y-112825000I243750J0D01*
G01*
X169956250Y-112825000D01*
G75*
G02*
X170200000Y-113068750I0J-243750D01*
G01*
X170200000Y-113556250D01*
G75*
G02*
X169956250Y-113800000I-243750J0D01*
G01*
G37*
%TD*%
%TO.C,D2*%
G36*
G01*
X152956250Y-115675000D02*
X152043750Y-115675000D01*
G75*
G02*
X151800000Y-115431250I0J243750D01*
G01*
X151800000Y-114943750D01*
G75*
G02*
X152043750Y-114700000I243750J0D01*
G01*
X152956250Y-114700000D01*
G75*
G02*
X153200000Y-114943750I0J-243750D01*
G01*
X153200000Y-115431250D01*
G75*
G02*
X152956250Y-115675000I-243750J0D01*
G01*
G37*
G36*
G01*
X152956250Y-113800000D02*
X152043750Y-113800000D01*
G75*
G02*
X151800000Y-113556250I0J243750D01*
G01*
X151800000Y-113068750D01*
G75*
G02*
X152043750Y-112825000I243750J0D01*
G01*
X152956250Y-112825000D01*
G75*
G02*
X153200000Y-113068750I0J-243750D01*
G01*
X153200000Y-113556250D01*
G75*
G02*
X152956250Y-113800000I-243750J0D01*
G01*
G37*
%TD*%
%TO.C,D2*%
G36*
G01*
X135956250Y-115675000D02*
X135043750Y-115675000D01*
G75*
G02*
X134800000Y-115431250I0J243750D01*
G01*
X134800000Y-114943750D01*
G75*
G02*
X135043750Y-114700000I243750J0D01*
G01*
X135956250Y-114700000D01*
G75*
G02*
X136200000Y-114943750I0J-243750D01*
G01*
X136200000Y-115431250D01*
G75*
G02*
X135956250Y-115675000I-243750J0D01*
G01*
G37*
G36*
G01*
X135956250Y-113800000D02*
X135043750Y-113800000D01*
G75*
G02*
X134800000Y-113556250I0J243750D01*
G01*
X134800000Y-113068750D01*
G75*
G02*
X135043750Y-112825000I243750J0D01*
G01*
X135956250Y-112825000D01*
G75*
G02*
X136200000Y-113068750I0J-243750D01*
G01*
X136200000Y-113556250D01*
G75*
G02*
X135956250Y-113800000I-243750J0D01*
G01*
G37*
%TD*%
%TO.C,D2*%
G36*
G01*
X203956250Y-103675000D02*
X203043750Y-103675000D01*
G75*
G02*
X202800000Y-103431250I0J243750D01*
G01*
X202800000Y-102943750D01*
G75*
G02*
X203043750Y-102700000I243750J0D01*
G01*
X203956250Y-102700000D01*
G75*
G02*
X204200000Y-102943750I0J-243750D01*
G01*
X204200000Y-103431250D01*
G75*
G02*
X203956250Y-103675000I-243750J0D01*
G01*
G37*
G36*
G01*
X203956250Y-101800000D02*
X203043750Y-101800000D01*
G75*
G02*
X202800000Y-101556250I0J243750D01*
G01*
X202800000Y-101068750D01*
G75*
G02*
X203043750Y-100825000I243750J0D01*
G01*
X203956250Y-100825000D01*
G75*
G02*
X204200000Y-101068750I0J-243750D01*
G01*
X204200000Y-101556250D01*
G75*
G02*
X203956250Y-101800000I-243750J0D01*
G01*
G37*
%TD*%
%TO.C,D2*%
G36*
G01*
X186956250Y-103675000D02*
X186043750Y-103675000D01*
G75*
G02*
X185800000Y-103431250I0J243750D01*
G01*
X185800000Y-102943750D01*
G75*
G02*
X186043750Y-102700000I243750J0D01*
G01*
X186956250Y-102700000D01*
G75*
G02*
X187200000Y-102943750I0J-243750D01*
G01*
X187200000Y-103431250D01*
G75*
G02*
X186956250Y-103675000I-243750J0D01*
G01*
G37*
G36*
G01*
X186956250Y-101800000D02*
X186043750Y-101800000D01*
G75*
G02*
X185800000Y-101556250I0J243750D01*
G01*
X185800000Y-101068750D01*
G75*
G02*
X186043750Y-100825000I243750J0D01*
G01*
X186956250Y-100825000D01*
G75*
G02*
X187200000Y-101068750I0J-243750D01*
G01*
X187200000Y-101556250D01*
G75*
G02*
X186956250Y-101800000I-243750J0D01*
G01*
G37*
%TD*%
%TO.C,D2*%
G36*
G01*
X169956250Y-103675000D02*
X169043750Y-103675000D01*
G75*
G02*
X168800000Y-103431250I0J243750D01*
G01*
X168800000Y-102943750D01*
G75*
G02*
X169043750Y-102700000I243750J0D01*
G01*
X169956250Y-102700000D01*
G75*
G02*
X170200000Y-102943750I0J-243750D01*
G01*
X170200000Y-103431250D01*
G75*
G02*
X169956250Y-103675000I-243750J0D01*
G01*
G37*
G36*
G01*
X169956250Y-101800000D02*
X169043750Y-101800000D01*
G75*
G02*
X168800000Y-101556250I0J243750D01*
G01*
X168800000Y-101068750D01*
G75*
G02*
X169043750Y-100825000I243750J0D01*
G01*
X169956250Y-100825000D01*
G75*
G02*
X170200000Y-101068750I0J-243750D01*
G01*
X170200000Y-101556250D01*
G75*
G02*
X169956250Y-101800000I-243750J0D01*
G01*
G37*
%TD*%
%TO.C,D2*%
G36*
G01*
X152956250Y-103675000D02*
X152043750Y-103675000D01*
G75*
G02*
X151800000Y-103431250I0J243750D01*
G01*
X151800000Y-102943750D01*
G75*
G02*
X152043750Y-102700000I243750J0D01*
G01*
X152956250Y-102700000D01*
G75*
G02*
X153200000Y-102943750I0J-243750D01*
G01*
X153200000Y-103431250D01*
G75*
G02*
X152956250Y-103675000I-243750J0D01*
G01*
G37*
G36*
G01*
X152956250Y-101800000D02*
X152043750Y-101800000D01*
G75*
G02*
X151800000Y-101556250I0J243750D01*
G01*
X151800000Y-101068750D01*
G75*
G02*
X152043750Y-100825000I243750J0D01*
G01*
X152956250Y-100825000D01*
G75*
G02*
X153200000Y-101068750I0J-243750D01*
G01*
X153200000Y-101556250D01*
G75*
G02*
X152956250Y-101800000I-243750J0D01*
G01*
G37*
%TD*%
%TO.C,C3*%
G36*
G01*
X212925000Y-181543750D02*
X212925000Y-182456250D01*
G75*
G02*
X212681250Y-182700000I-243750J0D01*
G01*
X212193750Y-182700000D01*
G75*
G02*
X211950000Y-182456250I0J243750D01*
G01*
X211950000Y-181543750D01*
G75*
G02*
X212193750Y-181300000I243750J0D01*
G01*
X212681250Y-181300000D01*
G75*
G02*
X212925000Y-181543750I0J-243750D01*
G01*
G37*
G36*
G01*
X211050000Y-181543750D02*
X211050000Y-182456250D01*
G75*
G02*
X210806250Y-182700000I-243750J0D01*
G01*
X210318750Y-182700000D01*
G75*
G02*
X210075000Y-182456250I0J243750D01*
G01*
X210075000Y-181543750D01*
G75*
G02*
X210318750Y-181300000I243750J0D01*
G01*
X210806250Y-181300000D01*
G75*
G02*
X211050000Y-181543750I0J-243750D01*
G01*
G37*
%TD*%
%TO.C,C3*%
G36*
G01*
X195925000Y-181543750D02*
X195925000Y-182456250D01*
G75*
G02*
X195681250Y-182700000I-243750J0D01*
G01*
X195193750Y-182700000D01*
G75*
G02*
X194950000Y-182456250I0J243750D01*
G01*
X194950000Y-181543750D01*
G75*
G02*
X195193750Y-181300000I243750J0D01*
G01*
X195681250Y-181300000D01*
G75*
G02*
X195925000Y-181543750I0J-243750D01*
G01*
G37*
G36*
G01*
X194050000Y-181543750D02*
X194050000Y-182456250D01*
G75*
G02*
X193806250Y-182700000I-243750J0D01*
G01*
X193318750Y-182700000D01*
G75*
G02*
X193075000Y-182456250I0J243750D01*
G01*
X193075000Y-181543750D01*
G75*
G02*
X193318750Y-181300000I243750J0D01*
G01*
X193806250Y-181300000D01*
G75*
G02*
X194050000Y-181543750I0J-243750D01*
G01*
G37*
%TD*%
%TO.C,C3*%
G36*
G01*
X178925000Y-181543750D02*
X178925000Y-182456250D01*
G75*
G02*
X178681250Y-182700000I-243750J0D01*
G01*
X178193750Y-182700000D01*
G75*
G02*
X177950000Y-182456250I0J243750D01*
G01*
X177950000Y-181543750D01*
G75*
G02*
X178193750Y-181300000I243750J0D01*
G01*
X178681250Y-181300000D01*
G75*
G02*
X178925000Y-181543750I0J-243750D01*
G01*
G37*
G36*
G01*
X177050000Y-181543750D02*
X177050000Y-182456250D01*
G75*
G02*
X176806250Y-182700000I-243750J0D01*
G01*
X176318750Y-182700000D01*
G75*
G02*
X176075000Y-182456250I0J243750D01*
G01*
X176075000Y-181543750D01*
G75*
G02*
X176318750Y-181300000I243750J0D01*
G01*
X176806250Y-181300000D01*
G75*
G02*
X177050000Y-181543750I0J-243750D01*
G01*
G37*
%TD*%
%TO.C,C3*%
G36*
G01*
X161925000Y-181543750D02*
X161925000Y-182456250D01*
G75*
G02*
X161681250Y-182700000I-243750J0D01*
G01*
X161193750Y-182700000D01*
G75*
G02*
X160950000Y-182456250I0J243750D01*
G01*
X160950000Y-181543750D01*
G75*
G02*
X161193750Y-181300000I243750J0D01*
G01*
X161681250Y-181300000D01*
G75*
G02*
X161925000Y-181543750I0J-243750D01*
G01*
G37*
G36*
G01*
X160050000Y-181543750D02*
X160050000Y-182456250D01*
G75*
G02*
X159806250Y-182700000I-243750J0D01*
G01*
X159318750Y-182700000D01*
G75*
G02*
X159075000Y-182456250I0J243750D01*
G01*
X159075000Y-181543750D01*
G75*
G02*
X159318750Y-181300000I243750J0D01*
G01*
X159806250Y-181300000D01*
G75*
G02*
X160050000Y-181543750I0J-243750D01*
G01*
G37*
%TD*%
%TO.C,C3*%
G36*
G01*
X144925000Y-181543750D02*
X144925000Y-182456250D01*
G75*
G02*
X144681250Y-182700000I-243750J0D01*
G01*
X144193750Y-182700000D01*
G75*
G02*
X143950000Y-182456250I0J243750D01*
G01*
X143950000Y-181543750D01*
G75*
G02*
X144193750Y-181300000I243750J0D01*
G01*
X144681250Y-181300000D01*
G75*
G02*
X144925000Y-181543750I0J-243750D01*
G01*
G37*
G36*
G01*
X143050000Y-181543750D02*
X143050000Y-182456250D01*
G75*
G02*
X142806250Y-182700000I-243750J0D01*
G01*
X142318750Y-182700000D01*
G75*
G02*
X142075000Y-182456250I0J243750D01*
G01*
X142075000Y-181543750D01*
G75*
G02*
X142318750Y-181300000I243750J0D01*
G01*
X142806250Y-181300000D01*
G75*
G02*
X143050000Y-181543750I0J-243750D01*
G01*
G37*
%TD*%
%TO.C,C3*%
G36*
G01*
X212925000Y-169543750D02*
X212925000Y-170456250D01*
G75*
G02*
X212681250Y-170700000I-243750J0D01*
G01*
X212193750Y-170700000D01*
G75*
G02*
X211950000Y-170456250I0J243750D01*
G01*
X211950000Y-169543750D01*
G75*
G02*
X212193750Y-169300000I243750J0D01*
G01*
X212681250Y-169300000D01*
G75*
G02*
X212925000Y-169543750I0J-243750D01*
G01*
G37*
G36*
G01*
X211050000Y-169543750D02*
X211050000Y-170456250D01*
G75*
G02*
X210806250Y-170700000I-243750J0D01*
G01*
X210318750Y-170700000D01*
G75*
G02*
X210075000Y-170456250I0J243750D01*
G01*
X210075000Y-169543750D01*
G75*
G02*
X210318750Y-169300000I243750J0D01*
G01*
X210806250Y-169300000D01*
G75*
G02*
X211050000Y-169543750I0J-243750D01*
G01*
G37*
%TD*%
%TO.C,C3*%
G36*
G01*
X195925000Y-169543750D02*
X195925000Y-170456250D01*
G75*
G02*
X195681250Y-170700000I-243750J0D01*
G01*
X195193750Y-170700000D01*
G75*
G02*
X194950000Y-170456250I0J243750D01*
G01*
X194950000Y-169543750D01*
G75*
G02*
X195193750Y-169300000I243750J0D01*
G01*
X195681250Y-169300000D01*
G75*
G02*
X195925000Y-169543750I0J-243750D01*
G01*
G37*
G36*
G01*
X194050000Y-169543750D02*
X194050000Y-170456250D01*
G75*
G02*
X193806250Y-170700000I-243750J0D01*
G01*
X193318750Y-170700000D01*
G75*
G02*
X193075000Y-170456250I0J243750D01*
G01*
X193075000Y-169543750D01*
G75*
G02*
X193318750Y-169300000I243750J0D01*
G01*
X193806250Y-169300000D01*
G75*
G02*
X194050000Y-169543750I0J-243750D01*
G01*
G37*
%TD*%
%TO.C,C3*%
G36*
G01*
X178925000Y-169543750D02*
X178925000Y-170456250D01*
G75*
G02*
X178681250Y-170700000I-243750J0D01*
G01*
X178193750Y-170700000D01*
G75*
G02*
X177950000Y-170456250I0J243750D01*
G01*
X177950000Y-169543750D01*
G75*
G02*
X178193750Y-169300000I243750J0D01*
G01*
X178681250Y-169300000D01*
G75*
G02*
X178925000Y-169543750I0J-243750D01*
G01*
G37*
G36*
G01*
X177050000Y-169543750D02*
X177050000Y-170456250D01*
G75*
G02*
X176806250Y-170700000I-243750J0D01*
G01*
X176318750Y-170700000D01*
G75*
G02*
X176075000Y-170456250I0J243750D01*
G01*
X176075000Y-169543750D01*
G75*
G02*
X176318750Y-169300000I243750J0D01*
G01*
X176806250Y-169300000D01*
G75*
G02*
X177050000Y-169543750I0J-243750D01*
G01*
G37*
%TD*%
%TO.C,C3*%
G36*
G01*
X161925000Y-169543750D02*
X161925000Y-170456250D01*
G75*
G02*
X161681250Y-170700000I-243750J0D01*
G01*
X161193750Y-170700000D01*
G75*
G02*
X160950000Y-170456250I0J243750D01*
G01*
X160950000Y-169543750D01*
G75*
G02*
X161193750Y-169300000I243750J0D01*
G01*
X161681250Y-169300000D01*
G75*
G02*
X161925000Y-169543750I0J-243750D01*
G01*
G37*
G36*
G01*
X160050000Y-169543750D02*
X160050000Y-170456250D01*
G75*
G02*
X159806250Y-170700000I-243750J0D01*
G01*
X159318750Y-170700000D01*
G75*
G02*
X159075000Y-170456250I0J243750D01*
G01*
X159075000Y-169543750D01*
G75*
G02*
X159318750Y-169300000I243750J0D01*
G01*
X159806250Y-169300000D01*
G75*
G02*
X160050000Y-169543750I0J-243750D01*
G01*
G37*
%TD*%
%TO.C,C3*%
G36*
G01*
X144925000Y-169543750D02*
X144925000Y-170456250D01*
G75*
G02*
X144681250Y-170700000I-243750J0D01*
G01*
X144193750Y-170700000D01*
G75*
G02*
X143950000Y-170456250I0J243750D01*
G01*
X143950000Y-169543750D01*
G75*
G02*
X144193750Y-169300000I243750J0D01*
G01*
X144681250Y-169300000D01*
G75*
G02*
X144925000Y-169543750I0J-243750D01*
G01*
G37*
G36*
G01*
X143050000Y-169543750D02*
X143050000Y-170456250D01*
G75*
G02*
X142806250Y-170700000I-243750J0D01*
G01*
X142318750Y-170700000D01*
G75*
G02*
X142075000Y-170456250I0J243750D01*
G01*
X142075000Y-169543750D01*
G75*
G02*
X142318750Y-169300000I243750J0D01*
G01*
X142806250Y-169300000D01*
G75*
G02*
X143050000Y-169543750I0J-243750D01*
G01*
G37*
%TD*%
%TO.C,C3*%
G36*
G01*
X212925000Y-157543750D02*
X212925000Y-158456250D01*
G75*
G02*
X212681250Y-158700000I-243750J0D01*
G01*
X212193750Y-158700000D01*
G75*
G02*
X211950000Y-158456250I0J243750D01*
G01*
X211950000Y-157543750D01*
G75*
G02*
X212193750Y-157300000I243750J0D01*
G01*
X212681250Y-157300000D01*
G75*
G02*
X212925000Y-157543750I0J-243750D01*
G01*
G37*
G36*
G01*
X211050000Y-157543750D02*
X211050000Y-158456250D01*
G75*
G02*
X210806250Y-158700000I-243750J0D01*
G01*
X210318750Y-158700000D01*
G75*
G02*
X210075000Y-158456250I0J243750D01*
G01*
X210075000Y-157543750D01*
G75*
G02*
X210318750Y-157300000I243750J0D01*
G01*
X210806250Y-157300000D01*
G75*
G02*
X211050000Y-157543750I0J-243750D01*
G01*
G37*
%TD*%
%TO.C,C3*%
G36*
G01*
X195925000Y-157543750D02*
X195925000Y-158456250D01*
G75*
G02*
X195681250Y-158700000I-243750J0D01*
G01*
X195193750Y-158700000D01*
G75*
G02*
X194950000Y-158456250I0J243750D01*
G01*
X194950000Y-157543750D01*
G75*
G02*
X195193750Y-157300000I243750J0D01*
G01*
X195681250Y-157300000D01*
G75*
G02*
X195925000Y-157543750I0J-243750D01*
G01*
G37*
G36*
G01*
X194050000Y-157543750D02*
X194050000Y-158456250D01*
G75*
G02*
X193806250Y-158700000I-243750J0D01*
G01*
X193318750Y-158700000D01*
G75*
G02*
X193075000Y-158456250I0J243750D01*
G01*
X193075000Y-157543750D01*
G75*
G02*
X193318750Y-157300000I243750J0D01*
G01*
X193806250Y-157300000D01*
G75*
G02*
X194050000Y-157543750I0J-243750D01*
G01*
G37*
%TD*%
%TO.C,C3*%
G36*
G01*
X178925000Y-157543750D02*
X178925000Y-158456250D01*
G75*
G02*
X178681250Y-158700000I-243750J0D01*
G01*
X178193750Y-158700000D01*
G75*
G02*
X177950000Y-158456250I0J243750D01*
G01*
X177950000Y-157543750D01*
G75*
G02*
X178193750Y-157300000I243750J0D01*
G01*
X178681250Y-157300000D01*
G75*
G02*
X178925000Y-157543750I0J-243750D01*
G01*
G37*
G36*
G01*
X177050000Y-157543750D02*
X177050000Y-158456250D01*
G75*
G02*
X176806250Y-158700000I-243750J0D01*
G01*
X176318750Y-158700000D01*
G75*
G02*
X176075000Y-158456250I0J243750D01*
G01*
X176075000Y-157543750D01*
G75*
G02*
X176318750Y-157300000I243750J0D01*
G01*
X176806250Y-157300000D01*
G75*
G02*
X177050000Y-157543750I0J-243750D01*
G01*
G37*
%TD*%
%TO.C,C3*%
G36*
G01*
X161925000Y-157543750D02*
X161925000Y-158456250D01*
G75*
G02*
X161681250Y-158700000I-243750J0D01*
G01*
X161193750Y-158700000D01*
G75*
G02*
X160950000Y-158456250I0J243750D01*
G01*
X160950000Y-157543750D01*
G75*
G02*
X161193750Y-157300000I243750J0D01*
G01*
X161681250Y-157300000D01*
G75*
G02*
X161925000Y-157543750I0J-243750D01*
G01*
G37*
G36*
G01*
X160050000Y-157543750D02*
X160050000Y-158456250D01*
G75*
G02*
X159806250Y-158700000I-243750J0D01*
G01*
X159318750Y-158700000D01*
G75*
G02*
X159075000Y-158456250I0J243750D01*
G01*
X159075000Y-157543750D01*
G75*
G02*
X159318750Y-157300000I243750J0D01*
G01*
X159806250Y-157300000D01*
G75*
G02*
X160050000Y-157543750I0J-243750D01*
G01*
G37*
%TD*%
%TO.C,C3*%
G36*
G01*
X144925000Y-157543750D02*
X144925000Y-158456250D01*
G75*
G02*
X144681250Y-158700000I-243750J0D01*
G01*
X144193750Y-158700000D01*
G75*
G02*
X143950000Y-158456250I0J243750D01*
G01*
X143950000Y-157543750D01*
G75*
G02*
X144193750Y-157300000I243750J0D01*
G01*
X144681250Y-157300000D01*
G75*
G02*
X144925000Y-157543750I0J-243750D01*
G01*
G37*
G36*
G01*
X143050000Y-157543750D02*
X143050000Y-158456250D01*
G75*
G02*
X142806250Y-158700000I-243750J0D01*
G01*
X142318750Y-158700000D01*
G75*
G02*
X142075000Y-158456250I0J243750D01*
G01*
X142075000Y-157543750D01*
G75*
G02*
X142318750Y-157300000I243750J0D01*
G01*
X142806250Y-157300000D01*
G75*
G02*
X143050000Y-157543750I0J-243750D01*
G01*
G37*
%TD*%
%TO.C,C3*%
G36*
G01*
X212925000Y-145543750D02*
X212925000Y-146456250D01*
G75*
G02*
X212681250Y-146700000I-243750J0D01*
G01*
X212193750Y-146700000D01*
G75*
G02*
X211950000Y-146456250I0J243750D01*
G01*
X211950000Y-145543750D01*
G75*
G02*
X212193750Y-145300000I243750J0D01*
G01*
X212681250Y-145300000D01*
G75*
G02*
X212925000Y-145543750I0J-243750D01*
G01*
G37*
G36*
G01*
X211050000Y-145543750D02*
X211050000Y-146456250D01*
G75*
G02*
X210806250Y-146700000I-243750J0D01*
G01*
X210318750Y-146700000D01*
G75*
G02*
X210075000Y-146456250I0J243750D01*
G01*
X210075000Y-145543750D01*
G75*
G02*
X210318750Y-145300000I243750J0D01*
G01*
X210806250Y-145300000D01*
G75*
G02*
X211050000Y-145543750I0J-243750D01*
G01*
G37*
%TD*%
%TO.C,C3*%
G36*
G01*
X195925000Y-145543750D02*
X195925000Y-146456250D01*
G75*
G02*
X195681250Y-146700000I-243750J0D01*
G01*
X195193750Y-146700000D01*
G75*
G02*
X194950000Y-146456250I0J243750D01*
G01*
X194950000Y-145543750D01*
G75*
G02*
X195193750Y-145300000I243750J0D01*
G01*
X195681250Y-145300000D01*
G75*
G02*
X195925000Y-145543750I0J-243750D01*
G01*
G37*
G36*
G01*
X194050000Y-145543750D02*
X194050000Y-146456250D01*
G75*
G02*
X193806250Y-146700000I-243750J0D01*
G01*
X193318750Y-146700000D01*
G75*
G02*
X193075000Y-146456250I0J243750D01*
G01*
X193075000Y-145543750D01*
G75*
G02*
X193318750Y-145300000I243750J0D01*
G01*
X193806250Y-145300000D01*
G75*
G02*
X194050000Y-145543750I0J-243750D01*
G01*
G37*
%TD*%
%TO.C,C3*%
G36*
G01*
X178925000Y-145543750D02*
X178925000Y-146456250D01*
G75*
G02*
X178681250Y-146700000I-243750J0D01*
G01*
X178193750Y-146700000D01*
G75*
G02*
X177950000Y-146456250I0J243750D01*
G01*
X177950000Y-145543750D01*
G75*
G02*
X178193750Y-145300000I243750J0D01*
G01*
X178681250Y-145300000D01*
G75*
G02*
X178925000Y-145543750I0J-243750D01*
G01*
G37*
G36*
G01*
X177050000Y-145543750D02*
X177050000Y-146456250D01*
G75*
G02*
X176806250Y-146700000I-243750J0D01*
G01*
X176318750Y-146700000D01*
G75*
G02*
X176075000Y-146456250I0J243750D01*
G01*
X176075000Y-145543750D01*
G75*
G02*
X176318750Y-145300000I243750J0D01*
G01*
X176806250Y-145300000D01*
G75*
G02*
X177050000Y-145543750I0J-243750D01*
G01*
G37*
%TD*%
%TO.C,C3*%
G36*
G01*
X161925000Y-145543750D02*
X161925000Y-146456250D01*
G75*
G02*
X161681250Y-146700000I-243750J0D01*
G01*
X161193750Y-146700000D01*
G75*
G02*
X160950000Y-146456250I0J243750D01*
G01*
X160950000Y-145543750D01*
G75*
G02*
X161193750Y-145300000I243750J0D01*
G01*
X161681250Y-145300000D01*
G75*
G02*
X161925000Y-145543750I0J-243750D01*
G01*
G37*
G36*
G01*
X160050000Y-145543750D02*
X160050000Y-146456250D01*
G75*
G02*
X159806250Y-146700000I-243750J0D01*
G01*
X159318750Y-146700000D01*
G75*
G02*
X159075000Y-146456250I0J243750D01*
G01*
X159075000Y-145543750D01*
G75*
G02*
X159318750Y-145300000I243750J0D01*
G01*
X159806250Y-145300000D01*
G75*
G02*
X160050000Y-145543750I0J-243750D01*
G01*
G37*
%TD*%
%TO.C,C3*%
G36*
G01*
X144925000Y-145543750D02*
X144925000Y-146456250D01*
G75*
G02*
X144681250Y-146700000I-243750J0D01*
G01*
X144193750Y-146700000D01*
G75*
G02*
X143950000Y-146456250I0J243750D01*
G01*
X143950000Y-145543750D01*
G75*
G02*
X144193750Y-145300000I243750J0D01*
G01*
X144681250Y-145300000D01*
G75*
G02*
X144925000Y-145543750I0J-243750D01*
G01*
G37*
G36*
G01*
X143050000Y-145543750D02*
X143050000Y-146456250D01*
G75*
G02*
X142806250Y-146700000I-243750J0D01*
G01*
X142318750Y-146700000D01*
G75*
G02*
X142075000Y-146456250I0J243750D01*
G01*
X142075000Y-145543750D01*
G75*
G02*
X142318750Y-145300000I243750J0D01*
G01*
X142806250Y-145300000D01*
G75*
G02*
X143050000Y-145543750I0J-243750D01*
G01*
G37*
%TD*%
%TO.C,C3*%
G36*
G01*
X212925000Y-133543750D02*
X212925000Y-134456250D01*
G75*
G02*
X212681250Y-134700000I-243750J0D01*
G01*
X212193750Y-134700000D01*
G75*
G02*
X211950000Y-134456250I0J243750D01*
G01*
X211950000Y-133543750D01*
G75*
G02*
X212193750Y-133300000I243750J0D01*
G01*
X212681250Y-133300000D01*
G75*
G02*
X212925000Y-133543750I0J-243750D01*
G01*
G37*
G36*
G01*
X211050000Y-133543750D02*
X211050000Y-134456250D01*
G75*
G02*
X210806250Y-134700000I-243750J0D01*
G01*
X210318750Y-134700000D01*
G75*
G02*
X210075000Y-134456250I0J243750D01*
G01*
X210075000Y-133543750D01*
G75*
G02*
X210318750Y-133300000I243750J0D01*
G01*
X210806250Y-133300000D01*
G75*
G02*
X211050000Y-133543750I0J-243750D01*
G01*
G37*
%TD*%
%TO.C,C3*%
G36*
G01*
X195925000Y-133543750D02*
X195925000Y-134456250D01*
G75*
G02*
X195681250Y-134700000I-243750J0D01*
G01*
X195193750Y-134700000D01*
G75*
G02*
X194950000Y-134456250I0J243750D01*
G01*
X194950000Y-133543750D01*
G75*
G02*
X195193750Y-133300000I243750J0D01*
G01*
X195681250Y-133300000D01*
G75*
G02*
X195925000Y-133543750I0J-243750D01*
G01*
G37*
G36*
G01*
X194050000Y-133543750D02*
X194050000Y-134456250D01*
G75*
G02*
X193806250Y-134700000I-243750J0D01*
G01*
X193318750Y-134700000D01*
G75*
G02*
X193075000Y-134456250I0J243750D01*
G01*
X193075000Y-133543750D01*
G75*
G02*
X193318750Y-133300000I243750J0D01*
G01*
X193806250Y-133300000D01*
G75*
G02*
X194050000Y-133543750I0J-243750D01*
G01*
G37*
%TD*%
%TO.C,C3*%
G36*
G01*
X178925000Y-133543750D02*
X178925000Y-134456250D01*
G75*
G02*
X178681250Y-134700000I-243750J0D01*
G01*
X178193750Y-134700000D01*
G75*
G02*
X177950000Y-134456250I0J243750D01*
G01*
X177950000Y-133543750D01*
G75*
G02*
X178193750Y-133300000I243750J0D01*
G01*
X178681250Y-133300000D01*
G75*
G02*
X178925000Y-133543750I0J-243750D01*
G01*
G37*
G36*
G01*
X177050000Y-133543750D02*
X177050000Y-134456250D01*
G75*
G02*
X176806250Y-134700000I-243750J0D01*
G01*
X176318750Y-134700000D01*
G75*
G02*
X176075000Y-134456250I0J243750D01*
G01*
X176075000Y-133543750D01*
G75*
G02*
X176318750Y-133300000I243750J0D01*
G01*
X176806250Y-133300000D01*
G75*
G02*
X177050000Y-133543750I0J-243750D01*
G01*
G37*
%TD*%
%TO.C,C3*%
G36*
G01*
X161925000Y-133543750D02*
X161925000Y-134456250D01*
G75*
G02*
X161681250Y-134700000I-243750J0D01*
G01*
X161193750Y-134700000D01*
G75*
G02*
X160950000Y-134456250I0J243750D01*
G01*
X160950000Y-133543750D01*
G75*
G02*
X161193750Y-133300000I243750J0D01*
G01*
X161681250Y-133300000D01*
G75*
G02*
X161925000Y-133543750I0J-243750D01*
G01*
G37*
G36*
G01*
X160050000Y-133543750D02*
X160050000Y-134456250D01*
G75*
G02*
X159806250Y-134700000I-243750J0D01*
G01*
X159318750Y-134700000D01*
G75*
G02*
X159075000Y-134456250I0J243750D01*
G01*
X159075000Y-133543750D01*
G75*
G02*
X159318750Y-133300000I243750J0D01*
G01*
X159806250Y-133300000D01*
G75*
G02*
X160050000Y-133543750I0J-243750D01*
G01*
G37*
%TD*%
%TO.C,C3*%
G36*
G01*
X144925000Y-133543750D02*
X144925000Y-134456250D01*
G75*
G02*
X144681250Y-134700000I-243750J0D01*
G01*
X144193750Y-134700000D01*
G75*
G02*
X143950000Y-134456250I0J243750D01*
G01*
X143950000Y-133543750D01*
G75*
G02*
X144193750Y-133300000I243750J0D01*
G01*
X144681250Y-133300000D01*
G75*
G02*
X144925000Y-133543750I0J-243750D01*
G01*
G37*
G36*
G01*
X143050000Y-133543750D02*
X143050000Y-134456250D01*
G75*
G02*
X142806250Y-134700000I-243750J0D01*
G01*
X142318750Y-134700000D01*
G75*
G02*
X142075000Y-134456250I0J243750D01*
G01*
X142075000Y-133543750D01*
G75*
G02*
X142318750Y-133300000I243750J0D01*
G01*
X142806250Y-133300000D01*
G75*
G02*
X143050000Y-133543750I0J-243750D01*
G01*
G37*
%TD*%
%TO.C,C3*%
G36*
G01*
X212925000Y-121543750D02*
X212925000Y-122456250D01*
G75*
G02*
X212681250Y-122700000I-243750J0D01*
G01*
X212193750Y-122700000D01*
G75*
G02*
X211950000Y-122456250I0J243750D01*
G01*
X211950000Y-121543750D01*
G75*
G02*
X212193750Y-121300000I243750J0D01*
G01*
X212681250Y-121300000D01*
G75*
G02*
X212925000Y-121543750I0J-243750D01*
G01*
G37*
G36*
G01*
X211050000Y-121543750D02*
X211050000Y-122456250D01*
G75*
G02*
X210806250Y-122700000I-243750J0D01*
G01*
X210318750Y-122700000D01*
G75*
G02*
X210075000Y-122456250I0J243750D01*
G01*
X210075000Y-121543750D01*
G75*
G02*
X210318750Y-121300000I243750J0D01*
G01*
X210806250Y-121300000D01*
G75*
G02*
X211050000Y-121543750I0J-243750D01*
G01*
G37*
%TD*%
%TO.C,C3*%
G36*
G01*
X195925000Y-121543750D02*
X195925000Y-122456250D01*
G75*
G02*
X195681250Y-122700000I-243750J0D01*
G01*
X195193750Y-122700000D01*
G75*
G02*
X194950000Y-122456250I0J243750D01*
G01*
X194950000Y-121543750D01*
G75*
G02*
X195193750Y-121300000I243750J0D01*
G01*
X195681250Y-121300000D01*
G75*
G02*
X195925000Y-121543750I0J-243750D01*
G01*
G37*
G36*
G01*
X194050000Y-121543750D02*
X194050000Y-122456250D01*
G75*
G02*
X193806250Y-122700000I-243750J0D01*
G01*
X193318750Y-122700000D01*
G75*
G02*
X193075000Y-122456250I0J243750D01*
G01*
X193075000Y-121543750D01*
G75*
G02*
X193318750Y-121300000I243750J0D01*
G01*
X193806250Y-121300000D01*
G75*
G02*
X194050000Y-121543750I0J-243750D01*
G01*
G37*
%TD*%
%TO.C,C3*%
G36*
G01*
X178925000Y-121543750D02*
X178925000Y-122456250D01*
G75*
G02*
X178681250Y-122700000I-243750J0D01*
G01*
X178193750Y-122700000D01*
G75*
G02*
X177950000Y-122456250I0J243750D01*
G01*
X177950000Y-121543750D01*
G75*
G02*
X178193750Y-121300000I243750J0D01*
G01*
X178681250Y-121300000D01*
G75*
G02*
X178925000Y-121543750I0J-243750D01*
G01*
G37*
G36*
G01*
X177050000Y-121543750D02*
X177050000Y-122456250D01*
G75*
G02*
X176806250Y-122700000I-243750J0D01*
G01*
X176318750Y-122700000D01*
G75*
G02*
X176075000Y-122456250I0J243750D01*
G01*
X176075000Y-121543750D01*
G75*
G02*
X176318750Y-121300000I243750J0D01*
G01*
X176806250Y-121300000D01*
G75*
G02*
X177050000Y-121543750I0J-243750D01*
G01*
G37*
%TD*%
%TO.C,C3*%
G36*
G01*
X161925000Y-121543750D02*
X161925000Y-122456250D01*
G75*
G02*
X161681250Y-122700000I-243750J0D01*
G01*
X161193750Y-122700000D01*
G75*
G02*
X160950000Y-122456250I0J243750D01*
G01*
X160950000Y-121543750D01*
G75*
G02*
X161193750Y-121300000I243750J0D01*
G01*
X161681250Y-121300000D01*
G75*
G02*
X161925000Y-121543750I0J-243750D01*
G01*
G37*
G36*
G01*
X160050000Y-121543750D02*
X160050000Y-122456250D01*
G75*
G02*
X159806250Y-122700000I-243750J0D01*
G01*
X159318750Y-122700000D01*
G75*
G02*
X159075000Y-122456250I0J243750D01*
G01*
X159075000Y-121543750D01*
G75*
G02*
X159318750Y-121300000I243750J0D01*
G01*
X159806250Y-121300000D01*
G75*
G02*
X160050000Y-121543750I0J-243750D01*
G01*
G37*
%TD*%
%TO.C,C3*%
G36*
G01*
X144925000Y-121543750D02*
X144925000Y-122456250D01*
G75*
G02*
X144681250Y-122700000I-243750J0D01*
G01*
X144193750Y-122700000D01*
G75*
G02*
X143950000Y-122456250I0J243750D01*
G01*
X143950000Y-121543750D01*
G75*
G02*
X144193750Y-121300000I243750J0D01*
G01*
X144681250Y-121300000D01*
G75*
G02*
X144925000Y-121543750I0J-243750D01*
G01*
G37*
G36*
G01*
X143050000Y-121543750D02*
X143050000Y-122456250D01*
G75*
G02*
X142806250Y-122700000I-243750J0D01*
G01*
X142318750Y-122700000D01*
G75*
G02*
X142075000Y-122456250I0J243750D01*
G01*
X142075000Y-121543750D01*
G75*
G02*
X142318750Y-121300000I243750J0D01*
G01*
X142806250Y-121300000D01*
G75*
G02*
X143050000Y-121543750I0J-243750D01*
G01*
G37*
%TD*%
%TO.C,C3*%
G36*
G01*
X212925000Y-109543750D02*
X212925000Y-110456250D01*
G75*
G02*
X212681250Y-110700000I-243750J0D01*
G01*
X212193750Y-110700000D01*
G75*
G02*
X211950000Y-110456250I0J243750D01*
G01*
X211950000Y-109543750D01*
G75*
G02*
X212193750Y-109300000I243750J0D01*
G01*
X212681250Y-109300000D01*
G75*
G02*
X212925000Y-109543750I0J-243750D01*
G01*
G37*
G36*
G01*
X211050000Y-109543750D02*
X211050000Y-110456250D01*
G75*
G02*
X210806250Y-110700000I-243750J0D01*
G01*
X210318750Y-110700000D01*
G75*
G02*
X210075000Y-110456250I0J243750D01*
G01*
X210075000Y-109543750D01*
G75*
G02*
X210318750Y-109300000I243750J0D01*
G01*
X210806250Y-109300000D01*
G75*
G02*
X211050000Y-109543750I0J-243750D01*
G01*
G37*
%TD*%
%TO.C,C3*%
G36*
G01*
X195925000Y-109543750D02*
X195925000Y-110456250D01*
G75*
G02*
X195681250Y-110700000I-243750J0D01*
G01*
X195193750Y-110700000D01*
G75*
G02*
X194950000Y-110456250I0J243750D01*
G01*
X194950000Y-109543750D01*
G75*
G02*
X195193750Y-109300000I243750J0D01*
G01*
X195681250Y-109300000D01*
G75*
G02*
X195925000Y-109543750I0J-243750D01*
G01*
G37*
G36*
G01*
X194050000Y-109543750D02*
X194050000Y-110456250D01*
G75*
G02*
X193806250Y-110700000I-243750J0D01*
G01*
X193318750Y-110700000D01*
G75*
G02*
X193075000Y-110456250I0J243750D01*
G01*
X193075000Y-109543750D01*
G75*
G02*
X193318750Y-109300000I243750J0D01*
G01*
X193806250Y-109300000D01*
G75*
G02*
X194050000Y-109543750I0J-243750D01*
G01*
G37*
%TD*%
%TO.C,C3*%
G36*
G01*
X178925000Y-109543750D02*
X178925000Y-110456250D01*
G75*
G02*
X178681250Y-110700000I-243750J0D01*
G01*
X178193750Y-110700000D01*
G75*
G02*
X177950000Y-110456250I0J243750D01*
G01*
X177950000Y-109543750D01*
G75*
G02*
X178193750Y-109300000I243750J0D01*
G01*
X178681250Y-109300000D01*
G75*
G02*
X178925000Y-109543750I0J-243750D01*
G01*
G37*
G36*
G01*
X177050000Y-109543750D02*
X177050000Y-110456250D01*
G75*
G02*
X176806250Y-110700000I-243750J0D01*
G01*
X176318750Y-110700000D01*
G75*
G02*
X176075000Y-110456250I0J243750D01*
G01*
X176075000Y-109543750D01*
G75*
G02*
X176318750Y-109300000I243750J0D01*
G01*
X176806250Y-109300000D01*
G75*
G02*
X177050000Y-109543750I0J-243750D01*
G01*
G37*
%TD*%
%TO.C,C3*%
G36*
G01*
X161925000Y-109543750D02*
X161925000Y-110456250D01*
G75*
G02*
X161681250Y-110700000I-243750J0D01*
G01*
X161193750Y-110700000D01*
G75*
G02*
X160950000Y-110456250I0J243750D01*
G01*
X160950000Y-109543750D01*
G75*
G02*
X161193750Y-109300000I243750J0D01*
G01*
X161681250Y-109300000D01*
G75*
G02*
X161925000Y-109543750I0J-243750D01*
G01*
G37*
G36*
G01*
X160050000Y-109543750D02*
X160050000Y-110456250D01*
G75*
G02*
X159806250Y-110700000I-243750J0D01*
G01*
X159318750Y-110700000D01*
G75*
G02*
X159075000Y-110456250I0J243750D01*
G01*
X159075000Y-109543750D01*
G75*
G02*
X159318750Y-109300000I243750J0D01*
G01*
X159806250Y-109300000D01*
G75*
G02*
X160050000Y-109543750I0J-243750D01*
G01*
G37*
%TD*%
%TO.C,C3*%
G36*
G01*
X144925000Y-109543750D02*
X144925000Y-110456250D01*
G75*
G02*
X144681250Y-110700000I-243750J0D01*
G01*
X144193750Y-110700000D01*
G75*
G02*
X143950000Y-110456250I0J243750D01*
G01*
X143950000Y-109543750D01*
G75*
G02*
X144193750Y-109300000I243750J0D01*
G01*
X144681250Y-109300000D01*
G75*
G02*
X144925000Y-109543750I0J-243750D01*
G01*
G37*
G36*
G01*
X143050000Y-109543750D02*
X143050000Y-110456250D01*
G75*
G02*
X142806250Y-110700000I-243750J0D01*
G01*
X142318750Y-110700000D01*
G75*
G02*
X142075000Y-110456250I0J243750D01*
G01*
X142075000Y-109543750D01*
G75*
G02*
X142318750Y-109300000I243750J0D01*
G01*
X142806250Y-109300000D01*
G75*
G02*
X143050000Y-109543750I0J-243750D01*
G01*
G37*
%TD*%
%TO.C,C3*%
G36*
G01*
X212925000Y-97543750D02*
X212925000Y-98456250D01*
G75*
G02*
X212681250Y-98700000I-243750J0D01*
G01*
X212193750Y-98700000D01*
G75*
G02*
X211950000Y-98456250I0J243750D01*
G01*
X211950000Y-97543750D01*
G75*
G02*
X212193750Y-97300000I243750J0D01*
G01*
X212681250Y-97300000D01*
G75*
G02*
X212925000Y-97543750I0J-243750D01*
G01*
G37*
G36*
G01*
X211050000Y-97543750D02*
X211050000Y-98456250D01*
G75*
G02*
X210806250Y-98700000I-243750J0D01*
G01*
X210318750Y-98700000D01*
G75*
G02*
X210075000Y-98456250I0J243750D01*
G01*
X210075000Y-97543750D01*
G75*
G02*
X210318750Y-97300000I243750J0D01*
G01*
X210806250Y-97300000D01*
G75*
G02*
X211050000Y-97543750I0J-243750D01*
G01*
G37*
%TD*%
%TO.C,C3*%
G36*
G01*
X195925000Y-97543750D02*
X195925000Y-98456250D01*
G75*
G02*
X195681250Y-98700000I-243750J0D01*
G01*
X195193750Y-98700000D01*
G75*
G02*
X194950000Y-98456250I0J243750D01*
G01*
X194950000Y-97543750D01*
G75*
G02*
X195193750Y-97300000I243750J0D01*
G01*
X195681250Y-97300000D01*
G75*
G02*
X195925000Y-97543750I0J-243750D01*
G01*
G37*
G36*
G01*
X194050000Y-97543750D02*
X194050000Y-98456250D01*
G75*
G02*
X193806250Y-98700000I-243750J0D01*
G01*
X193318750Y-98700000D01*
G75*
G02*
X193075000Y-98456250I0J243750D01*
G01*
X193075000Y-97543750D01*
G75*
G02*
X193318750Y-97300000I243750J0D01*
G01*
X193806250Y-97300000D01*
G75*
G02*
X194050000Y-97543750I0J-243750D01*
G01*
G37*
%TD*%
%TO.C,C3*%
G36*
G01*
X178925000Y-97543750D02*
X178925000Y-98456250D01*
G75*
G02*
X178681250Y-98700000I-243750J0D01*
G01*
X178193750Y-98700000D01*
G75*
G02*
X177950000Y-98456250I0J243750D01*
G01*
X177950000Y-97543750D01*
G75*
G02*
X178193750Y-97300000I243750J0D01*
G01*
X178681250Y-97300000D01*
G75*
G02*
X178925000Y-97543750I0J-243750D01*
G01*
G37*
G36*
G01*
X177050000Y-97543750D02*
X177050000Y-98456250D01*
G75*
G02*
X176806250Y-98700000I-243750J0D01*
G01*
X176318750Y-98700000D01*
G75*
G02*
X176075000Y-98456250I0J243750D01*
G01*
X176075000Y-97543750D01*
G75*
G02*
X176318750Y-97300000I243750J0D01*
G01*
X176806250Y-97300000D01*
G75*
G02*
X177050000Y-97543750I0J-243750D01*
G01*
G37*
%TD*%
%TO.C,C3*%
G36*
G01*
X161925000Y-97543750D02*
X161925000Y-98456250D01*
G75*
G02*
X161681250Y-98700000I-243750J0D01*
G01*
X161193750Y-98700000D01*
G75*
G02*
X160950000Y-98456250I0J243750D01*
G01*
X160950000Y-97543750D01*
G75*
G02*
X161193750Y-97300000I243750J0D01*
G01*
X161681250Y-97300000D01*
G75*
G02*
X161925000Y-97543750I0J-243750D01*
G01*
G37*
G36*
G01*
X160050000Y-97543750D02*
X160050000Y-98456250D01*
G75*
G02*
X159806250Y-98700000I-243750J0D01*
G01*
X159318750Y-98700000D01*
G75*
G02*
X159075000Y-98456250I0J243750D01*
G01*
X159075000Y-97543750D01*
G75*
G02*
X159318750Y-97300000I243750J0D01*
G01*
X159806250Y-97300000D01*
G75*
G02*
X160050000Y-97543750I0J-243750D01*
G01*
G37*
%TD*%
%TO.C,R3*%
G36*
G01*
X209206250Y-185675000D02*
X208293750Y-185675000D01*
G75*
G02*
X208050000Y-185431250I0J243750D01*
G01*
X208050000Y-184943750D01*
G75*
G02*
X208293750Y-184700000I243750J0D01*
G01*
X209206250Y-184700000D01*
G75*
G02*
X209450000Y-184943750I0J-243750D01*
G01*
X209450000Y-185431250D01*
G75*
G02*
X209206250Y-185675000I-243750J0D01*
G01*
G37*
G36*
G01*
X209206250Y-183800000D02*
X208293750Y-183800000D01*
G75*
G02*
X208050000Y-183556250I0J243750D01*
G01*
X208050000Y-183068750D01*
G75*
G02*
X208293750Y-182825000I243750J0D01*
G01*
X209206250Y-182825000D01*
G75*
G02*
X209450000Y-183068750I0J-243750D01*
G01*
X209450000Y-183556250D01*
G75*
G02*
X209206250Y-183800000I-243750J0D01*
G01*
G37*
%TD*%
%TO.C,R3*%
G36*
G01*
X192206250Y-185675000D02*
X191293750Y-185675000D01*
G75*
G02*
X191050000Y-185431250I0J243750D01*
G01*
X191050000Y-184943750D01*
G75*
G02*
X191293750Y-184700000I243750J0D01*
G01*
X192206250Y-184700000D01*
G75*
G02*
X192450000Y-184943750I0J-243750D01*
G01*
X192450000Y-185431250D01*
G75*
G02*
X192206250Y-185675000I-243750J0D01*
G01*
G37*
G36*
G01*
X192206250Y-183800000D02*
X191293750Y-183800000D01*
G75*
G02*
X191050000Y-183556250I0J243750D01*
G01*
X191050000Y-183068750D01*
G75*
G02*
X191293750Y-182825000I243750J0D01*
G01*
X192206250Y-182825000D01*
G75*
G02*
X192450000Y-183068750I0J-243750D01*
G01*
X192450000Y-183556250D01*
G75*
G02*
X192206250Y-183800000I-243750J0D01*
G01*
G37*
%TD*%
%TO.C,R3*%
G36*
G01*
X175206250Y-185675000D02*
X174293750Y-185675000D01*
G75*
G02*
X174050000Y-185431250I0J243750D01*
G01*
X174050000Y-184943750D01*
G75*
G02*
X174293750Y-184700000I243750J0D01*
G01*
X175206250Y-184700000D01*
G75*
G02*
X175450000Y-184943750I0J-243750D01*
G01*
X175450000Y-185431250D01*
G75*
G02*
X175206250Y-185675000I-243750J0D01*
G01*
G37*
G36*
G01*
X175206250Y-183800000D02*
X174293750Y-183800000D01*
G75*
G02*
X174050000Y-183556250I0J243750D01*
G01*
X174050000Y-183068750D01*
G75*
G02*
X174293750Y-182825000I243750J0D01*
G01*
X175206250Y-182825000D01*
G75*
G02*
X175450000Y-183068750I0J-243750D01*
G01*
X175450000Y-183556250D01*
G75*
G02*
X175206250Y-183800000I-243750J0D01*
G01*
G37*
%TD*%
%TO.C,R3*%
G36*
G01*
X158206250Y-185675000D02*
X157293750Y-185675000D01*
G75*
G02*
X157050000Y-185431250I0J243750D01*
G01*
X157050000Y-184943750D01*
G75*
G02*
X157293750Y-184700000I243750J0D01*
G01*
X158206250Y-184700000D01*
G75*
G02*
X158450000Y-184943750I0J-243750D01*
G01*
X158450000Y-185431250D01*
G75*
G02*
X158206250Y-185675000I-243750J0D01*
G01*
G37*
G36*
G01*
X158206250Y-183800000D02*
X157293750Y-183800000D01*
G75*
G02*
X157050000Y-183556250I0J243750D01*
G01*
X157050000Y-183068750D01*
G75*
G02*
X157293750Y-182825000I243750J0D01*
G01*
X158206250Y-182825000D01*
G75*
G02*
X158450000Y-183068750I0J-243750D01*
G01*
X158450000Y-183556250D01*
G75*
G02*
X158206250Y-183800000I-243750J0D01*
G01*
G37*
%TD*%
%TO.C,R3*%
G36*
G01*
X141206250Y-185675000D02*
X140293750Y-185675000D01*
G75*
G02*
X140050000Y-185431250I0J243750D01*
G01*
X140050000Y-184943750D01*
G75*
G02*
X140293750Y-184700000I243750J0D01*
G01*
X141206250Y-184700000D01*
G75*
G02*
X141450000Y-184943750I0J-243750D01*
G01*
X141450000Y-185431250D01*
G75*
G02*
X141206250Y-185675000I-243750J0D01*
G01*
G37*
G36*
G01*
X141206250Y-183800000D02*
X140293750Y-183800000D01*
G75*
G02*
X140050000Y-183556250I0J243750D01*
G01*
X140050000Y-183068750D01*
G75*
G02*
X140293750Y-182825000I243750J0D01*
G01*
X141206250Y-182825000D01*
G75*
G02*
X141450000Y-183068750I0J-243750D01*
G01*
X141450000Y-183556250D01*
G75*
G02*
X141206250Y-183800000I-243750J0D01*
G01*
G37*
%TD*%
%TO.C,R3*%
G36*
G01*
X209206250Y-173675000D02*
X208293750Y-173675000D01*
G75*
G02*
X208050000Y-173431250I0J243750D01*
G01*
X208050000Y-172943750D01*
G75*
G02*
X208293750Y-172700000I243750J0D01*
G01*
X209206250Y-172700000D01*
G75*
G02*
X209450000Y-172943750I0J-243750D01*
G01*
X209450000Y-173431250D01*
G75*
G02*
X209206250Y-173675000I-243750J0D01*
G01*
G37*
G36*
G01*
X209206250Y-171800000D02*
X208293750Y-171800000D01*
G75*
G02*
X208050000Y-171556250I0J243750D01*
G01*
X208050000Y-171068750D01*
G75*
G02*
X208293750Y-170825000I243750J0D01*
G01*
X209206250Y-170825000D01*
G75*
G02*
X209450000Y-171068750I0J-243750D01*
G01*
X209450000Y-171556250D01*
G75*
G02*
X209206250Y-171800000I-243750J0D01*
G01*
G37*
%TD*%
%TO.C,R3*%
G36*
G01*
X192206250Y-173675000D02*
X191293750Y-173675000D01*
G75*
G02*
X191050000Y-173431250I0J243750D01*
G01*
X191050000Y-172943750D01*
G75*
G02*
X191293750Y-172700000I243750J0D01*
G01*
X192206250Y-172700000D01*
G75*
G02*
X192450000Y-172943750I0J-243750D01*
G01*
X192450000Y-173431250D01*
G75*
G02*
X192206250Y-173675000I-243750J0D01*
G01*
G37*
G36*
G01*
X192206250Y-171800000D02*
X191293750Y-171800000D01*
G75*
G02*
X191050000Y-171556250I0J243750D01*
G01*
X191050000Y-171068750D01*
G75*
G02*
X191293750Y-170825000I243750J0D01*
G01*
X192206250Y-170825000D01*
G75*
G02*
X192450000Y-171068750I0J-243750D01*
G01*
X192450000Y-171556250D01*
G75*
G02*
X192206250Y-171800000I-243750J0D01*
G01*
G37*
%TD*%
%TO.C,R3*%
G36*
G01*
X175206250Y-173675000D02*
X174293750Y-173675000D01*
G75*
G02*
X174050000Y-173431250I0J243750D01*
G01*
X174050000Y-172943750D01*
G75*
G02*
X174293750Y-172700000I243750J0D01*
G01*
X175206250Y-172700000D01*
G75*
G02*
X175450000Y-172943750I0J-243750D01*
G01*
X175450000Y-173431250D01*
G75*
G02*
X175206250Y-173675000I-243750J0D01*
G01*
G37*
G36*
G01*
X175206250Y-171800000D02*
X174293750Y-171800000D01*
G75*
G02*
X174050000Y-171556250I0J243750D01*
G01*
X174050000Y-171068750D01*
G75*
G02*
X174293750Y-170825000I243750J0D01*
G01*
X175206250Y-170825000D01*
G75*
G02*
X175450000Y-171068750I0J-243750D01*
G01*
X175450000Y-171556250D01*
G75*
G02*
X175206250Y-171800000I-243750J0D01*
G01*
G37*
%TD*%
%TO.C,R3*%
G36*
G01*
X158206250Y-173675000D02*
X157293750Y-173675000D01*
G75*
G02*
X157050000Y-173431250I0J243750D01*
G01*
X157050000Y-172943750D01*
G75*
G02*
X157293750Y-172700000I243750J0D01*
G01*
X158206250Y-172700000D01*
G75*
G02*
X158450000Y-172943750I0J-243750D01*
G01*
X158450000Y-173431250D01*
G75*
G02*
X158206250Y-173675000I-243750J0D01*
G01*
G37*
G36*
G01*
X158206250Y-171800000D02*
X157293750Y-171800000D01*
G75*
G02*
X157050000Y-171556250I0J243750D01*
G01*
X157050000Y-171068750D01*
G75*
G02*
X157293750Y-170825000I243750J0D01*
G01*
X158206250Y-170825000D01*
G75*
G02*
X158450000Y-171068750I0J-243750D01*
G01*
X158450000Y-171556250D01*
G75*
G02*
X158206250Y-171800000I-243750J0D01*
G01*
G37*
%TD*%
%TO.C,R3*%
G36*
G01*
X141206250Y-173675000D02*
X140293750Y-173675000D01*
G75*
G02*
X140050000Y-173431250I0J243750D01*
G01*
X140050000Y-172943750D01*
G75*
G02*
X140293750Y-172700000I243750J0D01*
G01*
X141206250Y-172700000D01*
G75*
G02*
X141450000Y-172943750I0J-243750D01*
G01*
X141450000Y-173431250D01*
G75*
G02*
X141206250Y-173675000I-243750J0D01*
G01*
G37*
G36*
G01*
X141206250Y-171800000D02*
X140293750Y-171800000D01*
G75*
G02*
X140050000Y-171556250I0J243750D01*
G01*
X140050000Y-171068750D01*
G75*
G02*
X140293750Y-170825000I243750J0D01*
G01*
X141206250Y-170825000D01*
G75*
G02*
X141450000Y-171068750I0J-243750D01*
G01*
X141450000Y-171556250D01*
G75*
G02*
X141206250Y-171800000I-243750J0D01*
G01*
G37*
%TD*%
%TO.C,R3*%
G36*
G01*
X209206250Y-161675000D02*
X208293750Y-161675000D01*
G75*
G02*
X208050000Y-161431250I0J243750D01*
G01*
X208050000Y-160943750D01*
G75*
G02*
X208293750Y-160700000I243750J0D01*
G01*
X209206250Y-160700000D01*
G75*
G02*
X209450000Y-160943750I0J-243750D01*
G01*
X209450000Y-161431250D01*
G75*
G02*
X209206250Y-161675000I-243750J0D01*
G01*
G37*
G36*
G01*
X209206250Y-159800000D02*
X208293750Y-159800000D01*
G75*
G02*
X208050000Y-159556250I0J243750D01*
G01*
X208050000Y-159068750D01*
G75*
G02*
X208293750Y-158825000I243750J0D01*
G01*
X209206250Y-158825000D01*
G75*
G02*
X209450000Y-159068750I0J-243750D01*
G01*
X209450000Y-159556250D01*
G75*
G02*
X209206250Y-159800000I-243750J0D01*
G01*
G37*
%TD*%
%TO.C,R3*%
G36*
G01*
X192206250Y-161675000D02*
X191293750Y-161675000D01*
G75*
G02*
X191050000Y-161431250I0J243750D01*
G01*
X191050000Y-160943750D01*
G75*
G02*
X191293750Y-160700000I243750J0D01*
G01*
X192206250Y-160700000D01*
G75*
G02*
X192450000Y-160943750I0J-243750D01*
G01*
X192450000Y-161431250D01*
G75*
G02*
X192206250Y-161675000I-243750J0D01*
G01*
G37*
G36*
G01*
X192206250Y-159800000D02*
X191293750Y-159800000D01*
G75*
G02*
X191050000Y-159556250I0J243750D01*
G01*
X191050000Y-159068750D01*
G75*
G02*
X191293750Y-158825000I243750J0D01*
G01*
X192206250Y-158825000D01*
G75*
G02*
X192450000Y-159068750I0J-243750D01*
G01*
X192450000Y-159556250D01*
G75*
G02*
X192206250Y-159800000I-243750J0D01*
G01*
G37*
%TD*%
%TO.C,R3*%
G36*
G01*
X175206250Y-161675000D02*
X174293750Y-161675000D01*
G75*
G02*
X174050000Y-161431250I0J243750D01*
G01*
X174050000Y-160943750D01*
G75*
G02*
X174293750Y-160700000I243750J0D01*
G01*
X175206250Y-160700000D01*
G75*
G02*
X175450000Y-160943750I0J-243750D01*
G01*
X175450000Y-161431250D01*
G75*
G02*
X175206250Y-161675000I-243750J0D01*
G01*
G37*
G36*
G01*
X175206250Y-159800000D02*
X174293750Y-159800000D01*
G75*
G02*
X174050000Y-159556250I0J243750D01*
G01*
X174050000Y-159068750D01*
G75*
G02*
X174293750Y-158825000I243750J0D01*
G01*
X175206250Y-158825000D01*
G75*
G02*
X175450000Y-159068750I0J-243750D01*
G01*
X175450000Y-159556250D01*
G75*
G02*
X175206250Y-159800000I-243750J0D01*
G01*
G37*
%TD*%
%TO.C,R3*%
G36*
G01*
X158206250Y-161675000D02*
X157293750Y-161675000D01*
G75*
G02*
X157050000Y-161431250I0J243750D01*
G01*
X157050000Y-160943750D01*
G75*
G02*
X157293750Y-160700000I243750J0D01*
G01*
X158206250Y-160700000D01*
G75*
G02*
X158450000Y-160943750I0J-243750D01*
G01*
X158450000Y-161431250D01*
G75*
G02*
X158206250Y-161675000I-243750J0D01*
G01*
G37*
G36*
G01*
X158206250Y-159800000D02*
X157293750Y-159800000D01*
G75*
G02*
X157050000Y-159556250I0J243750D01*
G01*
X157050000Y-159068750D01*
G75*
G02*
X157293750Y-158825000I243750J0D01*
G01*
X158206250Y-158825000D01*
G75*
G02*
X158450000Y-159068750I0J-243750D01*
G01*
X158450000Y-159556250D01*
G75*
G02*
X158206250Y-159800000I-243750J0D01*
G01*
G37*
%TD*%
%TO.C,R3*%
G36*
G01*
X141206250Y-161675000D02*
X140293750Y-161675000D01*
G75*
G02*
X140050000Y-161431250I0J243750D01*
G01*
X140050000Y-160943750D01*
G75*
G02*
X140293750Y-160700000I243750J0D01*
G01*
X141206250Y-160700000D01*
G75*
G02*
X141450000Y-160943750I0J-243750D01*
G01*
X141450000Y-161431250D01*
G75*
G02*
X141206250Y-161675000I-243750J0D01*
G01*
G37*
G36*
G01*
X141206250Y-159800000D02*
X140293750Y-159800000D01*
G75*
G02*
X140050000Y-159556250I0J243750D01*
G01*
X140050000Y-159068750D01*
G75*
G02*
X140293750Y-158825000I243750J0D01*
G01*
X141206250Y-158825000D01*
G75*
G02*
X141450000Y-159068750I0J-243750D01*
G01*
X141450000Y-159556250D01*
G75*
G02*
X141206250Y-159800000I-243750J0D01*
G01*
G37*
%TD*%
%TO.C,R3*%
G36*
G01*
X209206250Y-149675000D02*
X208293750Y-149675000D01*
G75*
G02*
X208050000Y-149431250I0J243750D01*
G01*
X208050000Y-148943750D01*
G75*
G02*
X208293750Y-148700000I243750J0D01*
G01*
X209206250Y-148700000D01*
G75*
G02*
X209450000Y-148943750I0J-243750D01*
G01*
X209450000Y-149431250D01*
G75*
G02*
X209206250Y-149675000I-243750J0D01*
G01*
G37*
G36*
G01*
X209206250Y-147800000D02*
X208293750Y-147800000D01*
G75*
G02*
X208050000Y-147556250I0J243750D01*
G01*
X208050000Y-147068750D01*
G75*
G02*
X208293750Y-146825000I243750J0D01*
G01*
X209206250Y-146825000D01*
G75*
G02*
X209450000Y-147068750I0J-243750D01*
G01*
X209450000Y-147556250D01*
G75*
G02*
X209206250Y-147800000I-243750J0D01*
G01*
G37*
%TD*%
%TO.C,R3*%
G36*
G01*
X192206250Y-149675000D02*
X191293750Y-149675000D01*
G75*
G02*
X191050000Y-149431250I0J243750D01*
G01*
X191050000Y-148943750D01*
G75*
G02*
X191293750Y-148700000I243750J0D01*
G01*
X192206250Y-148700000D01*
G75*
G02*
X192450000Y-148943750I0J-243750D01*
G01*
X192450000Y-149431250D01*
G75*
G02*
X192206250Y-149675000I-243750J0D01*
G01*
G37*
G36*
G01*
X192206250Y-147800000D02*
X191293750Y-147800000D01*
G75*
G02*
X191050000Y-147556250I0J243750D01*
G01*
X191050000Y-147068750D01*
G75*
G02*
X191293750Y-146825000I243750J0D01*
G01*
X192206250Y-146825000D01*
G75*
G02*
X192450000Y-147068750I0J-243750D01*
G01*
X192450000Y-147556250D01*
G75*
G02*
X192206250Y-147800000I-243750J0D01*
G01*
G37*
%TD*%
%TO.C,R3*%
G36*
G01*
X175206250Y-149675000D02*
X174293750Y-149675000D01*
G75*
G02*
X174050000Y-149431250I0J243750D01*
G01*
X174050000Y-148943750D01*
G75*
G02*
X174293750Y-148700000I243750J0D01*
G01*
X175206250Y-148700000D01*
G75*
G02*
X175450000Y-148943750I0J-243750D01*
G01*
X175450000Y-149431250D01*
G75*
G02*
X175206250Y-149675000I-243750J0D01*
G01*
G37*
G36*
G01*
X175206250Y-147800000D02*
X174293750Y-147800000D01*
G75*
G02*
X174050000Y-147556250I0J243750D01*
G01*
X174050000Y-147068750D01*
G75*
G02*
X174293750Y-146825000I243750J0D01*
G01*
X175206250Y-146825000D01*
G75*
G02*
X175450000Y-147068750I0J-243750D01*
G01*
X175450000Y-147556250D01*
G75*
G02*
X175206250Y-147800000I-243750J0D01*
G01*
G37*
%TD*%
%TO.C,R3*%
G36*
G01*
X158206250Y-149675000D02*
X157293750Y-149675000D01*
G75*
G02*
X157050000Y-149431250I0J243750D01*
G01*
X157050000Y-148943750D01*
G75*
G02*
X157293750Y-148700000I243750J0D01*
G01*
X158206250Y-148700000D01*
G75*
G02*
X158450000Y-148943750I0J-243750D01*
G01*
X158450000Y-149431250D01*
G75*
G02*
X158206250Y-149675000I-243750J0D01*
G01*
G37*
G36*
G01*
X158206250Y-147800000D02*
X157293750Y-147800000D01*
G75*
G02*
X157050000Y-147556250I0J243750D01*
G01*
X157050000Y-147068750D01*
G75*
G02*
X157293750Y-146825000I243750J0D01*
G01*
X158206250Y-146825000D01*
G75*
G02*
X158450000Y-147068750I0J-243750D01*
G01*
X158450000Y-147556250D01*
G75*
G02*
X158206250Y-147800000I-243750J0D01*
G01*
G37*
%TD*%
%TO.C,R3*%
G36*
G01*
X141206250Y-149675000D02*
X140293750Y-149675000D01*
G75*
G02*
X140050000Y-149431250I0J243750D01*
G01*
X140050000Y-148943750D01*
G75*
G02*
X140293750Y-148700000I243750J0D01*
G01*
X141206250Y-148700000D01*
G75*
G02*
X141450000Y-148943750I0J-243750D01*
G01*
X141450000Y-149431250D01*
G75*
G02*
X141206250Y-149675000I-243750J0D01*
G01*
G37*
G36*
G01*
X141206250Y-147800000D02*
X140293750Y-147800000D01*
G75*
G02*
X140050000Y-147556250I0J243750D01*
G01*
X140050000Y-147068750D01*
G75*
G02*
X140293750Y-146825000I243750J0D01*
G01*
X141206250Y-146825000D01*
G75*
G02*
X141450000Y-147068750I0J-243750D01*
G01*
X141450000Y-147556250D01*
G75*
G02*
X141206250Y-147800000I-243750J0D01*
G01*
G37*
%TD*%
%TO.C,R3*%
G36*
G01*
X209206250Y-137675000D02*
X208293750Y-137675000D01*
G75*
G02*
X208050000Y-137431250I0J243750D01*
G01*
X208050000Y-136943750D01*
G75*
G02*
X208293750Y-136700000I243750J0D01*
G01*
X209206250Y-136700000D01*
G75*
G02*
X209450000Y-136943750I0J-243750D01*
G01*
X209450000Y-137431250D01*
G75*
G02*
X209206250Y-137675000I-243750J0D01*
G01*
G37*
G36*
G01*
X209206250Y-135800000D02*
X208293750Y-135800000D01*
G75*
G02*
X208050000Y-135556250I0J243750D01*
G01*
X208050000Y-135068750D01*
G75*
G02*
X208293750Y-134825000I243750J0D01*
G01*
X209206250Y-134825000D01*
G75*
G02*
X209450000Y-135068750I0J-243750D01*
G01*
X209450000Y-135556250D01*
G75*
G02*
X209206250Y-135800000I-243750J0D01*
G01*
G37*
%TD*%
%TO.C,R3*%
G36*
G01*
X192206250Y-137675000D02*
X191293750Y-137675000D01*
G75*
G02*
X191050000Y-137431250I0J243750D01*
G01*
X191050000Y-136943750D01*
G75*
G02*
X191293750Y-136700000I243750J0D01*
G01*
X192206250Y-136700000D01*
G75*
G02*
X192450000Y-136943750I0J-243750D01*
G01*
X192450000Y-137431250D01*
G75*
G02*
X192206250Y-137675000I-243750J0D01*
G01*
G37*
G36*
G01*
X192206250Y-135800000D02*
X191293750Y-135800000D01*
G75*
G02*
X191050000Y-135556250I0J243750D01*
G01*
X191050000Y-135068750D01*
G75*
G02*
X191293750Y-134825000I243750J0D01*
G01*
X192206250Y-134825000D01*
G75*
G02*
X192450000Y-135068750I0J-243750D01*
G01*
X192450000Y-135556250D01*
G75*
G02*
X192206250Y-135800000I-243750J0D01*
G01*
G37*
%TD*%
%TO.C,R3*%
G36*
G01*
X175206250Y-137675000D02*
X174293750Y-137675000D01*
G75*
G02*
X174050000Y-137431250I0J243750D01*
G01*
X174050000Y-136943750D01*
G75*
G02*
X174293750Y-136700000I243750J0D01*
G01*
X175206250Y-136700000D01*
G75*
G02*
X175450000Y-136943750I0J-243750D01*
G01*
X175450000Y-137431250D01*
G75*
G02*
X175206250Y-137675000I-243750J0D01*
G01*
G37*
G36*
G01*
X175206250Y-135800000D02*
X174293750Y-135800000D01*
G75*
G02*
X174050000Y-135556250I0J243750D01*
G01*
X174050000Y-135068750D01*
G75*
G02*
X174293750Y-134825000I243750J0D01*
G01*
X175206250Y-134825000D01*
G75*
G02*
X175450000Y-135068750I0J-243750D01*
G01*
X175450000Y-135556250D01*
G75*
G02*
X175206250Y-135800000I-243750J0D01*
G01*
G37*
%TD*%
%TO.C,R3*%
G36*
G01*
X158206250Y-137675000D02*
X157293750Y-137675000D01*
G75*
G02*
X157050000Y-137431250I0J243750D01*
G01*
X157050000Y-136943750D01*
G75*
G02*
X157293750Y-136700000I243750J0D01*
G01*
X158206250Y-136700000D01*
G75*
G02*
X158450000Y-136943750I0J-243750D01*
G01*
X158450000Y-137431250D01*
G75*
G02*
X158206250Y-137675000I-243750J0D01*
G01*
G37*
G36*
G01*
X158206250Y-135800000D02*
X157293750Y-135800000D01*
G75*
G02*
X157050000Y-135556250I0J243750D01*
G01*
X157050000Y-135068750D01*
G75*
G02*
X157293750Y-134825000I243750J0D01*
G01*
X158206250Y-134825000D01*
G75*
G02*
X158450000Y-135068750I0J-243750D01*
G01*
X158450000Y-135556250D01*
G75*
G02*
X158206250Y-135800000I-243750J0D01*
G01*
G37*
%TD*%
%TO.C,R3*%
G36*
G01*
X141206250Y-137675000D02*
X140293750Y-137675000D01*
G75*
G02*
X140050000Y-137431250I0J243750D01*
G01*
X140050000Y-136943750D01*
G75*
G02*
X140293750Y-136700000I243750J0D01*
G01*
X141206250Y-136700000D01*
G75*
G02*
X141450000Y-136943750I0J-243750D01*
G01*
X141450000Y-137431250D01*
G75*
G02*
X141206250Y-137675000I-243750J0D01*
G01*
G37*
G36*
G01*
X141206250Y-135800000D02*
X140293750Y-135800000D01*
G75*
G02*
X140050000Y-135556250I0J243750D01*
G01*
X140050000Y-135068750D01*
G75*
G02*
X140293750Y-134825000I243750J0D01*
G01*
X141206250Y-134825000D01*
G75*
G02*
X141450000Y-135068750I0J-243750D01*
G01*
X141450000Y-135556250D01*
G75*
G02*
X141206250Y-135800000I-243750J0D01*
G01*
G37*
%TD*%
%TO.C,R3*%
G36*
G01*
X209206250Y-125675000D02*
X208293750Y-125675000D01*
G75*
G02*
X208050000Y-125431250I0J243750D01*
G01*
X208050000Y-124943750D01*
G75*
G02*
X208293750Y-124700000I243750J0D01*
G01*
X209206250Y-124700000D01*
G75*
G02*
X209450000Y-124943750I0J-243750D01*
G01*
X209450000Y-125431250D01*
G75*
G02*
X209206250Y-125675000I-243750J0D01*
G01*
G37*
G36*
G01*
X209206250Y-123800000D02*
X208293750Y-123800000D01*
G75*
G02*
X208050000Y-123556250I0J243750D01*
G01*
X208050000Y-123068750D01*
G75*
G02*
X208293750Y-122825000I243750J0D01*
G01*
X209206250Y-122825000D01*
G75*
G02*
X209450000Y-123068750I0J-243750D01*
G01*
X209450000Y-123556250D01*
G75*
G02*
X209206250Y-123800000I-243750J0D01*
G01*
G37*
%TD*%
%TO.C,R3*%
G36*
G01*
X192206250Y-125675000D02*
X191293750Y-125675000D01*
G75*
G02*
X191050000Y-125431250I0J243750D01*
G01*
X191050000Y-124943750D01*
G75*
G02*
X191293750Y-124700000I243750J0D01*
G01*
X192206250Y-124700000D01*
G75*
G02*
X192450000Y-124943750I0J-243750D01*
G01*
X192450000Y-125431250D01*
G75*
G02*
X192206250Y-125675000I-243750J0D01*
G01*
G37*
G36*
G01*
X192206250Y-123800000D02*
X191293750Y-123800000D01*
G75*
G02*
X191050000Y-123556250I0J243750D01*
G01*
X191050000Y-123068750D01*
G75*
G02*
X191293750Y-122825000I243750J0D01*
G01*
X192206250Y-122825000D01*
G75*
G02*
X192450000Y-123068750I0J-243750D01*
G01*
X192450000Y-123556250D01*
G75*
G02*
X192206250Y-123800000I-243750J0D01*
G01*
G37*
%TD*%
%TO.C,R3*%
G36*
G01*
X175206250Y-125675000D02*
X174293750Y-125675000D01*
G75*
G02*
X174050000Y-125431250I0J243750D01*
G01*
X174050000Y-124943750D01*
G75*
G02*
X174293750Y-124700000I243750J0D01*
G01*
X175206250Y-124700000D01*
G75*
G02*
X175450000Y-124943750I0J-243750D01*
G01*
X175450000Y-125431250D01*
G75*
G02*
X175206250Y-125675000I-243750J0D01*
G01*
G37*
G36*
G01*
X175206250Y-123800000D02*
X174293750Y-123800000D01*
G75*
G02*
X174050000Y-123556250I0J243750D01*
G01*
X174050000Y-123068750D01*
G75*
G02*
X174293750Y-122825000I243750J0D01*
G01*
X175206250Y-122825000D01*
G75*
G02*
X175450000Y-123068750I0J-243750D01*
G01*
X175450000Y-123556250D01*
G75*
G02*
X175206250Y-123800000I-243750J0D01*
G01*
G37*
%TD*%
%TO.C,R3*%
G36*
G01*
X158206250Y-125675000D02*
X157293750Y-125675000D01*
G75*
G02*
X157050000Y-125431250I0J243750D01*
G01*
X157050000Y-124943750D01*
G75*
G02*
X157293750Y-124700000I243750J0D01*
G01*
X158206250Y-124700000D01*
G75*
G02*
X158450000Y-124943750I0J-243750D01*
G01*
X158450000Y-125431250D01*
G75*
G02*
X158206250Y-125675000I-243750J0D01*
G01*
G37*
G36*
G01*
X158206250Y-123800000D02*
X157293750Y-123800000D01*
G75*
G02*
X157050000Y-123556250I0J243750D01*
G01*
X157050000Y-123068750D01*
G75*
G02*
X157293750Y-122825000I243750J0D01*
G01*
X158206250Y-122825000D01*
G75*
G02*
X158450000Y-123068750I0J-243750D01*
G01*
X158450000Y-123556250D01*
G75*
G02*
X158206250Y-123800000I-243750J0D01*
G01*
G37*
%TD*%
%TO.C,R3*%
G36*
G01*
X141206250Y-125675000D02*
X140293750Y-125675000D01*
G75*
G02*
X140050000Y-125431250I0J243750D01*
G01*
X140050000Y-124943750D01*
G75*
G02*
X140293750Y-124700000I243750J0D01*
G01*
X141206250Y-124700000D01*
G75*
G02*
X141450000Y-124943750I0J-243750D01*
G01*
X141450000Y-125431250D01*
G75*
G02*
X141206250Y-125675000I-243750J0D01*
G01*
G37*
G36*
G01*
X141206250Y-123800000D02*
X140293750Y-123800000D01*
G75*
G02*
X140050000Y-123556250I0J243750D01*
G01*
X140050000Y-123068750D01*
G75*
G02*
X140293750Y-122825000I243750J0D01*
G01*
X141206250Y-122825000D01*
G75*
G02*
X141450000Y-123068750I0J-243750D01*
G01*
X141450000Y-123556250D01*
G75*
G02*
X141206250Y-123800000I-243750J0D01*
G01*
G37*
%TD*%
%TO.C,R3*%
G36*
G01*
X209206250Y-113675000D02*
X208293750Y-113675000D01*
G75*
G02*
X208050000Y-113431250I0J243750D01*
G01*
X208050000Y-112943750D01*
G75*
G02*
X208293750Y-112700000I243750J0D01*
G01*
X209206250Y-112700000D01*
G75*
G02*
X209450000Y-112943750I0J-243750D01*
G01*
X209450000Y-113431250D01*
G75*
G02*
X209206250Y-113675000I-243750J0D01*
G01*
G37*
G36*
G01*
X209206250Y-111800000D02*
X208293750Y-111800000D01*
G75*
G02*
X208050000Y-111556250I0J243750D01*
G01*
X208050000Y-111068750D01*
G75*
G02*
X208293750Y-110825000I243750J0D01*
G01*
X209206250Y-110825000D01*
G75*
G02*
X209450000Y-111068750I0J-243750D01*
G01*
X209450000Y-111556250D01*
G75*
G02*
X209206250Y-111800000I-243750J0D01*
G01*
G37*
%TD*%
%TO.C,R3*%
G36*
G01*
X192206250Y-113675000D02*
X191293750Y-113675000D01*
G75*
G02*
X191050000Y-113431250I0J243750D01*
G01*
X191050000Y-112943750D01*
G75*
G02*
X191293750Y-112700000I243750J0D01*
G01*
X192206250Y-112700000D01*
G75*
G02*
X192450000Y-112943750I0J-243750D01*
G01*
X192450000Y-113431250D01*
G75*
G02*
X192206250Y-113675000I-243750J0D01*
G01*
G37*
G36*
G01*
X192206250Y-111800000D02*
X191293750Y-111800000D01*
G75*
G02*
X191050000Y-111556250I0J243750D01*
G01*
X191050000Y-111068750D01*
G75*
G02*
X191293750Y-110825000I243750J0D01*
G01*
X192206250Y-110825000D01*
G75*
G02*
X192450000Y-111068750I0J-243750D01*
G01*
X192450000Y-111556250D01*
G75*
G02*
X192206250Y-111800000I-243750J0D01*
G01*
G37*
%TD*%
%TO.C,R3*%
G36*
G01*
X175206250Y-113675000D02*
X174293750Y-113675000D01*
G75*
G02*
X174050000Y-113431250I0J243750D01*
G01*
X174050000Y-112943750D01*
G75*
G02*
X174293750Y-112700000I243750J0D01*
G01*
X175206250Y-112700000D01*
G75*
G02*
X175450000Y-112943750I0J-243750D01*
G01*
X175450000Y-113431250D01*
G75*
G02*
X175206250Y-113675000I-243750J0D01*
G01*
G37*
G36*
G01*
X175206250Y-111800000D02*
X174293750Y-111800000D01*
G75*
G02*
X174050000Y-111556250I0J243750D01*
G01*
X174050000Y-111068750D01*
G75*
G02*
X174293750Y-110825000I243750J0D01*
G01*
X175206250Y-110825000D01*
G75*
G02*
X175450000Y-111068750I0J-243750D01*
G01*
X175450000Y-111556250D01*
G75*
G02*
X175206250Y-111800000I-243750J0D01*
G01*
G37*
%TD*%
%TO.C,R3*%
G36*
G01*
X158206250Y-113675000D02*
X157293750Y-113675000D01*
G75*
G02*
X157050000Y-113431250I0J243750D01*
G01*
X157050000Y-112943750D01*
G75*
G02*
X157293750Y-112700000I243750J0D01*
G01*
X158206250Y-112700000D01*
G75*
G02*
X158450000Y-112943750I0J-243750D01*
G01*
X158450000Y-113431250D01*
G75*
G02*
X158206250Y-113675000I-243750J0D01*
G01*
G37*
G36*
G01*
X158206250Y-111800000D02*
X157293750Y-111800000D01*
G75*
G02*
X157050000Y-111556250I0J243750D01*
G01*
X157050000Y-111068750D01*
G75*
G02*
X157293750Y-110825000I243750J0D01*
G01*
X158206250Y-110825000D01*
G75*
G02*
X158450000Y-111068750I0J-243750D01*
G01*
X158450000Y-111556250D01*
G75*
G02*
X158206250Y-111800000I-243750J0D01*
G01*
G37*
%TD*%
%TO.C,R3*%
G36*
G01*
X141206250Y-113675000D02*
X140293750Y-113675000D01*
G75*
G02*
X140050000Y-113431250I0J243750D01*
G01*
X140050000Y-112943750D01*
G75*
G02*
X140293750Y-112700000I243750J0D01*
G01*
X141206250Y-112700000D01*
G75*
G02*
X141450000Y-112943750I0J-243750D01*
G01*
X141450000Y-113431250D01*
G75*
G02*
X141206250Y-113675000I-243750J0D01*
G01*
G37*
G36*
G01*
X141206250Y-111800000D02*
X140293750Y-111800000D01*
G75*
G02*
X140050000Y-111556250I0J243750D01*
G01*
X140050000Y-111068750D01*
G75*
G02*
X140293750Y-110825000I243750J0D01*
G01*
X141206250Y-110825000D01*
G75*
G02*
X141450000Y-111068750I0J-243750D01*
G01*
X141450000Y-111556250D01*
G75*
G02*
X141206250Y-111800000I-243750J0D01*
G01*
G37*
%TD*%
%TO.C,R3*%
G36*
G01*
X209206250Y-101675000D02*
X208293750Y-101675000D01*
G75*
G02*
X208050000Y-101431250I0J243750D01*
G01*
X208050000Y-100943750D01*
G75*
G02*
X208293750Y-100700000I243750J0D01*
G01*
X209206250Y-100700000D01*
G75*
G02*
X209450000Y-100943750I0J-243750D01*
G01*
X209450000Y-101431250D01*
G75*
G02*
X209206250Y-101675000I-243750J0D01*
G01*
G37*
G36*
G01*
X209206250Y-99800000D02*
X208293750Y-99800000D01*
G75*
G02*
X208050000Y-99556250I0J243750D01*
G01*
X208050000Y-99068750D01*
G75*
G02*
X208293750Y-98825000I243750J0D01*
G01*
X209206250Y-98825000D01*
G75*
G02*
X209450000Y-99068750I0J-243750D01*
G01*
X209450000Y-99556250D01*
G75*
G02*
X209206250Y-99800000I-243750J0D01*
G01*
G37*
%TD*%
%TO.C,R3*%
G36*
G01*
X192206250Y-101675000D02*
X191293750Y-101675000D01*
G75*
G02*
X191050000Y-101431250I0J243750D01*
G01*
X191050000Y-100943750D01*
G75*
G02*
X191293750Y-100700000I243750J0D01*
G01*
X192206250Y-100700000D01*
G75*
G02*
X192450000Y-100943750I0J-243750D01*
G01*
X192450000Y-101431250D01*
G75*
G02*
X192206250Y-101675000I-243750J0D01*
G01*
G37*
G36*
G01*
X192206250Y-99800000D02*
X191293750Y-99800000D01*
G75*
G02*
X191050000Y-99556250I0J243750D01*
G01*
X191050000Y-99068750D01*
G75*
G02*
X191293750Y-98825000I243750J0D01*
G01*
X192206250Y-98825000D01*
G75*
G02*
X192450000Y-99068750I0J-243750D01*
G01*
X192450000Y-99556250D01*
G75*
G02*
X192206250Y-99800000I-243750J0D01*
G01*
G37*
%TD*%
%TO.C,R3*%
G36*
G01*
X175206250Y-101675000D02*
X174293750Y-101675000D01*
G75*
G02*
X174050000Y-101431250I0J243750D01*
G01*
X174050000Y-100943750D01*
G75*
G02*
X174293750Y-100700000I243750J0D01*
G01*
X175206250Y-100700000D01*
G75*
G02*
X175450000Y-100943750I0J-243750D01*
G01*
X175450000Y-101431250D01*
G75*
G02*
X175206250Y-101675000I-243750J0D01*
G01*
G37*
G36*
G01*
X175206250Y-99800000D02*
X174293750Y-99800000D01*
G75*
G02*
X174050000Y-99556250I0J243750D01*
G01*
X174050000Y-99068750D01*
G75*
G02*
X174293750Y-98825000I243750J0D01*
G01*
X175206250Y-98825000D01*
G75*
G02*
X175450000Y-99068750I0J-243750D01*
G01*
X175450000Y-99556250D01*
G75*
G02*
X175206250Y-99800000I-243750J0D01*
G01*
G37*
%TD*%
%TO.C,R3*%
G36*
G01*
X158206250Y-101675000D02*
X157293750Y-101675000D01*
G75*
G02*
X157050000Y-101431250I0J243750D01*
G01*
X157050000Y-100943750D01*
G75*
G02*
X157293750Y-100700000I243750J0D01*
G01*
X158206250Y-100700000D01*
G75*
G02*
X158450000Y-100943750I0J-243750D01*
G01*
X158450000Y-101431250D01*
G75*
G02*
X158206250Y-101675000I-243750J0D01*
G01*
G37*
G36*
G01*
X158206250Y-99800000D02*
X157293750Y-99800000D01*
G75*
G02*
X157050000Y-99556250I0J243750D01*
G01*
X157050000Y-99068750D01*
G75*
G02*
X157293750Y-98825000I243750J0D01*
G01*
X158206250Y-98825000D01*
G75*
G02*
X158450000Y-99068750I0J-243750D01*
G01*
X158450000Y-99556250D01*
G75*
G02*
X158206250Y-99800000I-243750J0D01*
G01*
G37*
%TD*%
%TO.C,R4*%
G36*
G01*
X210075000Y-184706250D02*
X210075000Y-183793750D01*
G75*
G02*
X210318750Y-183550000I243750J0D01*
G01*
X210806250Y-183550000D01*
G75*
G02*
X211050000Y-183793750I0J-243750D01*
G01*
X211050000Y-184706250D01*
G75*
G02*
X210806250Y-184950000I-243750J0D01*
G01*
X210318750Y-184950000D01*
G75*
G02*
X210075000Y-184706250I0J243750D01*
G01*
G37*
G36*
G01*
X211950000Y-184706250D02*
X211950000Y-183793750D01*
G75*
G02*
X212193750Y-183550000I243750J0D01*
G01*
X212681250Y-183550000D01*
G75*
G02*
X212925000Y-183793750I0J-243750D01*
G01*
X212925000Y-184706250D01*
G75*
G02*
X212681250Y-184950000I-243750J0D01*
G01*
X212193750Y-184950000D01*
G75*
G02*
X211950000Y-184706250I0J243750D01*
G01*
G37*
%TD*%
%TO.C,R4*%
G36*
G01*
X193075000Y-184706250D02*
X193075000Y-183793750D01*
G75*
G02*
X193318750Y-183550000I243750J0D01*
G01*
X193806250Y-183550000D01*
G75*
G02*
X194050000Y-183793750I0J-243750D01*
G01*
X194050000Y-184706250D01*
G75*
G02*
X193806250Y-184950000I-243750J0D01*
G01*
X193318750Y-184950000D01*
G75*
G02*
X193075000Y-184706250I0J243750D01*
G01*
G37*
G36*
G01*
X194950000Y-184706250D02*
X194950000Y-183793750D01*
G75*
G02*
X195193750Y-183550000I243750J0D01*
G01*
X195681250Y-183550000D01*
G75*
G02*
X195925000Y-183793750I0J-243750D01*
G01*
X195925000Y-184706250D01*
G75*
G02*
X195681250Y-184950000I-243750J0D01*
G01*
X195193750Y-184950000D01*
G75*
G02*
X194950000Y-184706250I0J243750D01*
G01*
G37*
%TD*%
%TO.C,R4*%
G36*
G01*
X176075000Y-184706250D02*
X176075000Y-183793750D01*
G75*
G02*
X176318750Y-183550000I243750J0D01*
G01*
X176806250Y-183550000D01*
G75*
G02*
X177050000Y-183793750I0J-243750D01*
G01*
X177050000Y-184706250D01*
G75*
G02*
X176806250Y-184950000I-243750J0D01*
G01*
X176318750Y-184950000D01*
G75*
G02*
X176075000Y-184706250I0J243750D01*
G01*
G37*
G36*
G01*
X177950000Y-184706250D02*
X177950000Y-183793750D01*
G75*
G02*
X178193750Y-183550000I243750J0D01*
G01*
X178681250Y-183550000D01*
G75*
G02*
X178925000Y-183793750I0J-243750D01*
G01*
X178925000Y-184706250D01*
G75*
G02*
X178681250Y-184950000I-243750J0D01*
G01*
X178193750Y-184950000D01*
G75*
G02*
X177950000Y-184706250I0J243750D01*
G01*
G37*
%TD*%
%TO.C,R4*%
G36*
G01*
X159075000Y-184706250D02*
X159075000Y-183793750D01*
G75*
G02*
X159318750Y-183550000I243750J0D01*
G01*
X159806250Y-183550000D01*
G75*
G02*
X160050000Y-183793750I0J-243750D01*
G01*
X160050000Y-184706250D01*
G75*
G02*
X159806250Y-184950000I-243750J0D01*
G01*
X159318750Y-184950000D01*
G75*
G02*
X159075000Y-184706250I0J243750D01*
G01*
G37*
G36*
G01*
X160950000Y-184706250D02*
X160950000Y-183793750D01*
G75*
G02*
X161193750Y-183550000I243750J0D01*
G01*
X161681250Y-183550000D01*
G75*
G02*
X161925000Y-183793750I0J-243750D01*
G01*
X161925000Y-184706250D01*
G75*
G02*
X161681250Y-184950000I-243750J0D01*
G01*
X161193750Y-184950000D01*
G75*
G02*
X160950000Y-184706250I0J243750D01*
G01*
G37*
%TD*%
%TO.C,R4*%
G36*
G01*
X142075000Y-184706250D02*
X142075000Y-183793750D01*
G75*
G02*
X142318750Y-183550000I243750J0D01*
G01*
X142806250Y-183550000D01*
G75*
G02*
X143050000Y-183793750I0J-243750D01*
G01*
X143050000Y-184706250D01*
G75*
G02*
X142806250Y-184950000I-243750J0D01*
G01*
X142318750Y-184950000D01*
G75*
G02*
X142075000Y-184706250I0J243750D01*
G01*
G37*
G36*
G01*
X143950000Y-184706250D02*
X143950000Y-183793750D01*
G75*
G02*
X144193750Y-183550000I243750J0D01*
G01*
X144681250Y-183550000D01*
G75*
G02*
X144925000Y-183793750I0J-243750D01*
G01*
X144925000Y-184706250D01*
G75*
G02*
X144681250Y-184950000I-243750J0D01*
G01*
X144193750Y-184950000D01*
G75*
G02*
X143950000Y-184706250I0J243750D01*
G01*
G37*
%TD*%
%TO.C,R4*%
G36*
G01*
X210075000Y-172706250D02*
X210075000Y-171793750D01*
G75*
G02*
X210318750Y-171550000I243750J0D01*
G01*
X210806250Y-171550000D01*
G75*
G02*
X211050000Y-171793750I0J-243750D01*
G01*
X211050000Y-172706250D01*
G75*
G02*
X210806250Y-172950000I-243750J0D01*
G01*
X210318750Y-172950000D01*
G75*
G02*
X210075000Y-172706250I0J243750D01*
G01*
G37*
G36*
G01*
X211950000Y-172706250D02*
X211950000Y-171793750D01*
G75*
G02*
X212193750Y-171550000I243750J0D01*
G01*
X212681250Y-171550000D01*
G75*
G02*
X212925000Y-171793750I0J-243750D01*
G01*
X212925000Y-172706250D01*
G75*
G02*
X212681250Y-172950000I-243750J0D01*
G01*
X212193750Y-172950000D01*
G75*
G02*
X211950000Y-172706250I0J243750D01*
G01*
G37*
%TD*%
%TO.C,R4*%
G36*
G01*
X193075000Y-172706250D02*
X193075000Y-171793750D01*
G75*
G02*
X193318750Y-171550000I243750J0D01*
G01*
X193806250Y-171550000D01*
G75*
G02*
X194050000Y-171793750I0J-243750D01*
G01*
X194050000Y-172706250D01*
G75*
G02*
X193806250Y-172950000I-243750J0D01*
G01*
X193318750Y-172950000D01*
G75*
G02*
X193075000Y-172706250I0J243750D01*
G01*
G37*
G36*
G01*
X194950000Y-172706250D02*
X194950000Y-171793750D01*
G75*
G02*
X195193750Y-171550000I243750J0D01*
G01*
X195681250Y-171550000D01*
G75*
G02*
X195925000Y-171793750I0J-243750D01*
G01*
X195925000Y-172706250D01*
G75*
G02*
X195681250Y-172950000I-243750J0D01*
G01*
X195193750Y-172950000D01*
G75*
G02*
X194950000Y-172706250I0J243750D01*
G01*
G37*
%TD*%
%TO.C,R4*%
G36*
G01*
X176075000Y-172706250D02*
X176075000Y-171793750D01*
G75*
G02*
X176318750Y-171550000I243750J0D01*
G01*
X176806250Y-171550000D01*
G75*
G02*
X177050000Y-171793750I0J-243750D01*
G01*
X177050000Y-172706250D01*
G75*
G02*
X176806250Y-172950000I-243750J0D01*
G01*
X176318750Y-172950000D01*
G75*
G02*
X176075000Y-172706250I0J243750D01*
G01*
G37*
G36*
G01*
X177950000Y-172706250D02*
X177950000Y-171793750D01*
G75*
G02*
X178193750Y-171550000I243750J0D01*
G01*
X178681250Y-171550000D01*
G75*
G02*
X178925000Y-171793750I0J-243750D01*
G01*
X178925000Y-172706250D01*
G75*
G02*
X178681250Y-172950000I-243750J0D01*
G01*
X178193750Y-172950000D01*
G75*
G02*
X177950000Y-172706250I0J243750D01*
G01*
G37*
%TD*%
%TO.C,R4*%
G36*
G01*
X159075000Y-172706250D02*
X159075000Y-171793750D01*
G75*
G02*
X159318750Y-171550000I243750J0D01*
G01*
X159806250Y-171550000D01*
G75*
G02*
X160050000Y-171793750I0J-243750D01*
G01*
X160050000Y-172706250D01*
G75*
G02*
X159806250Y-172950000I-243750J0D01*
G01*
X159318750Y-172950000D01*
G75*
G02*
X159075000Y-172706250I0J243750D01*
G01*
G37*
G36*
G01*
X160950000Y-172706250D02*
X160950000Y-171793750D01*
G75*
G02*
X161193750Y-171550000I243750J0D01*
G01*
X161681250Y-171550000D01*
G75*
G02*
X161925000Y-171793750I0J-243750D01*
G01*
X161925000Y-172706250D01*
G75*
G02*
X161681250Y-172950000I-243750J0D01*
G01*
X161193750Y-172950000D01*
G75*
G02*
X160950000Y-172706250I0J243750D01*
G01*
G37*
%TD*%
%TO.C,R4*%
G36*
G01*
X142075000Y-172706250D02*
X142075000Y-171793750D01*
G75*
G02*
X142318750Y-171550000I243750J0D01*
G01*
X142806250Y-171550000D01*
G75*
G02*
X143050000Y-171793750I0J-243750D01*
G01*
X143050000Y-172706250D01*
G75*
G02*
X142806250Y-172950000I-243750J0D01*
G01*
X142318750Y-172950000D01*
G75*
G02*
X142075000Y-172706250I0J243750D01*
G01*
G37*
G36*
G01*
X143950000Y-172706250D02*
X143950000Y-171793750D01*
G75*
G02*
X144193750Y-171550000I243750J0D01*
G01*
X144681250Y-171550000D01*
G75*
G02*
X144925000Y-171793750I0J-243750D01*
G01*
X144925000Y-172706250D01*
G75*
G02*
X144681250Y-172950000I-243750J0D01*
G01*
X144193750Y-172950000D01*
G75*
G02*
X143950000Y-172706250I0J243750D01*
G01*
G37*
%TD*%
%TO.C,R4*%
G36*
G01*
X210075000Y-160706250D02*
X210075000Y-159793750D01*
G75*
G02*
X210318750Y-159550000I243750J0D01*
G01*
X210806250Y-159550000D01*
G75*
G02*
X211050000Y-159793750I0J-243750D01*
G01*
X211050000Y-160706250D01*
G75*
G02*
X210806250Y-160950000I-243750J0D01*
G01*
X210318750Y-160950000D01*
G75*
G02*
X210075000Y-160706250I0J243750D01*
G01*
G37*
G36*
G01*
X211950000Y-160706250D02*
X211950000Y-159793750D01*
G75*
G02*
X212193750Y-159550000I243750J0D01*
G01*
X212681250Y-159550000D01*
G75*
G02*
X212925000Y-159793750I0J-243750D01*
G01*
X212925000Y-160706250D01*
G75*
G02*
X212681250Y-160950000I-243750J0D01*
G01*
X212193750Y-160950000D01*
G75*
G02*
X211950000Y-160706250I0J243750D01*
G01*
G37*
%TD*%
%TO.C,R4*%
G36*
G01*
X193075000Y-160706250D02*
X193075000Y-159793750D01*
G75*
G02*
X193318750Y-159550000I243750J0D01*
G01*
X193806250Y-159550000D01*
G75*
G02*
X194050000Y-159793750I0J-243750D01*
G01*
X194050000Y-160706250D01*
G75*
G02*
X193806250Y-160950000I-243750J0D01*
G01*
X193318750Y-160950000D01*
G75*
G02*
X193075000Y-160706250I0J243750D01*
G01*
G37*
G36*
G01*
X194950000Y-160706250D02*
X194950000Y-159793750D01*
G75*
G02*
X195193750Y-159550000I243750J0D01*
G01*
X195681250Y-159550000D01*
G75*
G02*
X195925000Y-159793750I0J-243750D01*
G01*
X195925000Y-160706250D01*
G75*
G02*
X195681250Y-160950000I-243750J0D01*
G01*
X195193750Y-160950000D01*
G75*
G02*
X194950000Y-160706250I0J243750D01*
G01*
G37*
%TD*%
%TO.C,R4*%
G36*
G01*
X176075000Y-160706250D02*
X176075000Y-159793750D01*
G75*
G02*
X176318750Y-159550000I243750J0D01*
G01*
X176806250Y-159550000D01*
G75*
G02*
X177050000Y-159793750I0J-243750D01*
G01*
X177050000Y-160706250D01*
G75*
G02*
X176806250Y-160950000I-243750J0D01*
G01*
X176318750Y-160950000D01*
G75*
G02*
X176075000Y-160706250I0J243750D01*
G01*
G37*
G36*
G01*
X177950000Y-160706250D02*
X177950000Y-159793750D01*
G75*
G02*
X178193750Y-159550000I243750J0D01*
G01*
X178681250Y-159550000D01*
G75*
G02*
X178925000Y-159793750I0J-243750D01*
G01*
X178925000Y-160706250D01*
G75*
G02*
X178681250Y-160950000I-243750J0D01*
G01*
X178193750Y-160950000D01*
G75*
G02*
X177950000Y-160706250I0J243750D01*
G01*
G37*
%TD*%
%TO.C,R4*%
G36*
G01*
X159075000Y-160706250D02*
X159075000Y-159793750D01*
G75*
G02*
X159318750Y-159550000I243750J0D01*
G01*
X159806250Y-159550000D01*
G75*
G02*
X160050000Y-159793750I0J-243750D01*
G01*
X160050000Y-160706250D01*
G75*
G02*
X159806250Y-160950000I-243750J0D01*
G01*
X159318750Y-160950000D01*
G75*
G02*
X159075000Y-160706250I0J243750D01*
G01*
G37*
G36*
G01*
X160950000Y-160706250D02*
X160950000Y-159793750D01*
G75*
G02*
X161193750Y-159550000I243750J0D01*
G01*
X161681250Y-159550000D01*
G75*
G02*
X161925000Y-159793750I0J-243750D01*
G01*
X161925000Y-160706250D01*
G75*
G02*
X161681250Y-160950000I-243750J0D01*
G01*
X161193750Y-160950000D01*
G75*
G02*
X160950000Y-160706250I0J243750D01*
G01*
G37*
%TD*%
%TO.C,R4*%
G36*
G01*
X142075000Y-160706250D02*
X142075000Y-159793750D01*
G75*
G02*
X142318750Y-159550000I243750J0D01*
G01*
X142806250Y-159550000D01*
G75*
G02*
X143050000Y-159793750I0J-243750D01*
G01*
X143050000Y-160706250D01*
G75*
G02*
X142806250Y-160950000I-243750J0D01*
G01*
X142318750Y-160950000D01*
G75*
G02*
X142075000Y-160706250I0J243750D01*
G01*
G37*
G36*
G01*
X143950000Y-160706250D02*
X143950000Y-159793750D01*
G75*
G02*
X144193750Y-159550000I243750J0D01*
G01*
X144681250Y-159550000D01*
G75*
G02*
X144925000Y-159793750I0J-243750D01*
G01*
X144925000Y-160706250D01*
G75*
G02*
X144681250Y-160950000I-243750J0D01*
G01*
X144193750Y-160950000D01*
G75*
G02*
X143950000Y-160706250I0J243750D01*
G01*
G37*
%TD*%
%TO.C,R4*%
G36*
G01*
X210075000Y-148706250D02*
X210075000Y-147793750D01*
G75*
G02*
X210318750Y-147550000I243750J0D01*
G01*
X210806250Y-147550000D01*
G75*
G02*
X211050000Y-147793750I0J-243750D01*
G01*
X211050000Y-148706250D01*
G75*
G02*
X210806250Y-148950000I-243750J0D01*
G01*
X210318750Y-148950000D01*
G75*
G02*
X210075000Y-148706250I0J243750D01*
G01*
G37*
G36*
G01*
X211950000Y-148706250D02*
X211950000Y-147793750D01*
G75*
G02*
X212193750Y-147550000I243750J0D01*
G01*
X212681250Y-147550000D01*
G75*
G02*
X212925000Y-147793750I0J-243750D01*
G01*
X212925000Y-148706250D01*
G75*
G02*
X212681250Y-148950000I-243750J0D01*
G01*
X212193750Y-148950000D01*
G75*
G02*
X211950000Y-148706250I0J243750D01*
G01*
G37*
%TD*%
%TO.C,R4*%
G36*
G01*
X193075000Y-148706250D02*
X193075000Y-147793750D01*
G75*
G02*
X193318750Y-147550000I243750J0D01*
G01*
X193806250Y-147550000D01*
G75*
G02*
X194050000Y-147793750I0J-243750D01*
G01*
X194050000Y-148706250D01*
G75*
G02*
X193806250Y-148950000I-243750J0D01*
G01*
X193318750Y-148950000D01*
G75*
G02*
X193075000Y-148706250I0J243750D01*
G01*
G37*
G36*
G01*
X194950000Y-148706250D02*
X194950000Y-147793750D01*
G75*
G02*
X195193750Y-147550000I243750J0D01*
G01*
X195681250Y-147550000D01*
G75*
G02*
X195925000Y-147793750I0J-243750D01*
G01*
X195925000Y-148706250D01*
G75*
G02*
X195681250Y-148950000I-243750J0D01*
G01*
X195193750Y-148950000D01*
G75*
G02*
X194950000Y-148706250I0J243750D01*
G01*
G37*
%TD*%
%TO.C,R4*%
G36*
G01*
X176075000Y-148706250D02*
X176075000Y-147793750D01*
G75*
G02*
X176318750Y-147550000I243750J0D01*
G01*
X176806250Y-147550000D01*
G75*
G02*
X177050000Y-147793750I0J-243750D01*
G01*
X177050000Y-148706250D01*
G75*
G02*
X176806250Y-148950000I-243750J0D01*
G01*
X176318750Y-148950000D01*
G75*
G02*
X176075000Y-148706250I0J243750D01*
G01*
G37*
G36*
G01*
X177950000Y-148706250D02*
X177950000Y-147793750D01*
G75*
G02*
X178193750Y-147550000I243750J0D01*
G01*
X178681250Y-147550000D01*
G75*
G02*
X178925000Y-147793750I0J-243750D01*
G01*
X178925000Y-148706250D01*
G75*
G02*
X178681250Y-148950000I-243750J0D01*
G01*
X178193750Y-148950000D01*
G75*
G02*
X177950000Y-148706250I0J243750D01*
G01*
G37*
%TD*%
%TO.C,R4*%
G36*
G01*
X159075000Y-148706250D02*
X159075000Y-147793750D01*
G75*
G02*
X159318750Y-147550000I243750J0D01*
G01*
X159806250Y-147550000D01*
G75*
G02*
X160050000Y-147793750I0J-243750D01*
G01*
X160050000Y-148706250D01*
G75*
G02*
X159806250Y-148950000I-243750J0D01*
G01*
X159318750Y-148950000D01*
G75*
G02*
X159075000Y-148706250I0J243750D01*
G01*
G37*
G36*
G01*
X160950000Y-148706250D02*
X160950000Y-147793750D01*
G75*
G02*
X161193750Y-147550000I243750J0D01*
G01*
X161681250Y-147550000D01*
G75*
G02*
X161925000Y-147793750I0J-243750D01*
G01*
X161925000Y-148706250D01*
G75*
G02*
X161681250Y-148950000I-243750J0D01*
G01*
X161193750Y-148950000D01*
G75*
G02*
X160950000Y-148706250I0J243750D01*
G01*
G37*
%TD*%
%TO.C,R4*%
G36*
G01*
X142075000Y-148706250D02*
X142075000Y-147793750D01*
G75*
G02*
X142318750Y-147550000I243750J0D01*
G01*
X142806250Y-147550000D01*
G75*
G02*
X143050000Y-147793750I0J-243750D01*
G01*
X143050000Y-148706250D01*
G75*
G02*
X142806250Y-148950000I-243750J0D01*
G01*
X142318750Y-148950000D01*
G75*
G02*
X142075000Y-148706250I0J243750D01*
G01*
G37*
G36*
G01*
X143950000Y-148706250D02*
X143950000Y-147793750D01*
G75*
G02*
X144193750Y-147550000I243750J0D01*
G01*
X144681250Y-147550000D01*
G75*
G02*
X144925000Y-147793750I0J-243750D01*
G01*
X144925000Y-148706250D01*
G75*
G02*
X144681250Y-148950000I-243750J0D01*
G01*
X144193750Y-148950000D01*
G75*
G02*
X143950000Y-148706250I0J243750D01*
G01*
G37*
%TD*%
%TO.C,R4*%
G36*
G01*
X210075000Y-136706250D02*
X210075000Y-135793750D01*
G75*
G02*
X210318750Y-135550000I243750J0D01*
G01*
X210806250Y-135550000D01*
G75*
G02*
X211050000Y-135793750I0J-243750D01*
G01*
X211050000Y-136706250D01*
G75*
G02*
X210806250Y-136950000I-243750J0D01*
G01*
X210318750Y-136950000D01*
G75*
G02*
X210075000Y-136706250I0J243750D01*
G01*
G37*
G36*
G01*
X211950000Y-136706250D02*
X211950000Y-135793750D01*
G75*
G02*
X212193750Y-135550000I243750J0D01*
G01*
X212681250Y-135550000D01*
G75*
G02*
X212925000Y-135793750I0J-243750D01*
G01*
X212925000Y-136706250D01*
G75*
G02*
X212681250Y-136950000I-243750J0D01*
G01*
X212193750Y-136950000D01*
G75*
G02*
X211950000Y-136706250I0J243750D01*
G01*
G37*
%TD*%
%TO.C,R4*%
G36*
G01*
X193075000Y-136706250D02*
X193075000Y-135793750D01*
G75*
G02*
X193318750Y-135550000I243750J0D01*
G01*
X193806250Y-135550000D01*
G75*
G02*
X194050000Y-135793750I0J-243750D01*
G01*
X194050000Y-136706250D01*
G75*
G02*
X193806250Y-136950000I-243750J0D01*
G01*
X193318750Y-136950000D01*
G75*
G02*
X193075000Y-136706250I0J243750D01*
G01*
G37*
G36*
G01*
X194950000Y-136706250D02*
X194950000Y-135793750D01*
G75*
G02*
X195193750Y-135550000I243750J0D01*
G01*
X195681250Y-135550000D01*
G75*
G02*
X195925000Y-135793750I0J-243750D01*
G01*
X195925000Y-136706250D01*
G75*
G02*
X195681250Y-136950000I-243750J0D01*
G01*
X195193750Y-136950000D01*
G75*
G02*
X194950000Y-136706250I0J243750D01*
G01*
G37*
%TD*%
%TO.C,R4*%
G36*
G01*
X176075000Y-136706250D02*
X176075000Y-135793750D01*
G75*
G02*
X176318750Y-135550000I243750J0D01*
G01*
X176806250Y-135550000D01*
G75*
G02*
X177050000Y-135793750I0J-243750D01*
G01*
X177050000Y-136706250D01*
G75*
G02*
X176806250Y-136950000I-243750J0D01*
G01*
X176318750Y-136950000D01*
G75*
G02*
X176075000Y-136706250I0J243750D01*
G01*
G37*
G36*
G01*
X177950000Y-136706250D02*
X177950000Y-135793750D01*
G75*
G02*
X178193750Y-135550000I243750J0D01*
G01*
X178681250Y-135550000D01*
G75*
G02*
X178925000Y-135793750I0J-243750D01*
G01*
X178925000Y-136706250D01*
G75*
G02*
X178681250Y-136950000I-243750J0D01*
G01*
X178193750Y-136950000D01*
G75*
G02*
X177950000Y-136706250I0J243750D01*
G01*
G37*
%TD*%
%TO.C,R4*%
G36*
G01*
X159075000Y-136706250D02*
X159075000Y-135793750D01*
G75*
G02*
X159318750Y-135550000I243750J0D01*
G01*
X159806250Y-135550000D01*
G75*
G02*
X160050000Y-135793750I0J-243750D01*
G01*
X160050000Y-136706250D01*
G75*
G02*
X159806250Y-136950000I-243750J0D01*
G01*
X159318750Y-136950000D01*
G75*
G02*
X159075000Y-136706250I0J243750D01*
G01*
G37*
G36*
G01*
X160950000Y-136706250D02*
X160950000Y-135793750D01*
G75*
G02*
X161193750Y-135550000I243750J0D01*
G01*
X161681250Y-135550000D01*
G75*
G02*
X161925000Y-135793750I0J-243750D01*
G01*
X161925000Y-136706250D01*
G75*
G02*
X161681250Y-136950000I-243750J0D01*
G01*
X161193750Y-136950000D01*
G75*
G02*
X160950000Y-136706250I0J243750D01*
G01*
G37*
%TD*%
%TO.C,R4*%
G36*
G01*
X142075000Y-136706250D02*
X142075000Y-135793750D01*
G75*
G02*
X142318750Y-135550000I243750J0D01*
G01*
X142806250Y-135550000D01*
G75*
G02*
X143050000Y-135793750I0J-243750D01*
G01*
X143050000Y-136706250D01*
G75*
G02*
X142806250Y-136950000I-243750J0D01*
G01*
X142318750Y-136950000D01*
G75*
G02*
X142075000Y-136706250I0J243750D01*
G01*
G37*
G36*
G01*
X143950000Y-136706250D02*
X143950000Y-135793750D01*
G75*
G02*
X144193750Y-135550000I243750J0D01*
G01*
X144681250Y-135550000D01*
G75*
G02*
X144925000Y-135793750I0J-243750D01*
G01*
X144925000Y-136706250D01*
G75*
G02*
X144681250Y-136950000I-243750J0D01*
G01*
X144193750Y-136950000D01*
G75*
G02*
X143950000Y-136706250I0J243750D01*
G01*
G37*
%TD*%
%TO.C,R4*%
G36*
G01*
X210075000Y-124706250D02*
X210075000Y-123793750D01*
G75*
G02*
X210318750Y-123550000I243750J0D01*
G01*
X210806250Y-123550000D01*
G75*
G02*
X211050000Y-123793750I0J-243750D01*
G01*
X211050000Y-124706250D01*
G75*
G02*
X210806250Y-124950000I-243750J0D01*
G01*
X210318750Y-124950000D01*
G75*
G02*
X210075000Y-124706250I0J243750D01*
G01*
G37*
G36*
G01*
X211950000Y-124706250D02*
X211950000Y-123793750D01*
G75*
G02*
X212193750Y-123550000I243750J0D01*
G01*
X212681250Y-123550000D01*
G75*
G02*
X212925000Y-123793750I0J-243750D01*
G01*
X212925000Y-124706250D01*
G75*
G02*
X212681250Y-124950000I-243750J0D01*
G01*
X212193750Y-124950000D01*
G75*
G02*
X211950000Y-124706250I0J243750D01*
G01*
G37*
%TD*%
%TO.C,R4*%
G36*
G01*
X193075000Y-124706250D02*
X193075000Y-123793750D01*
G75*
G02*
X193318750Y-123550000I243750J0D01*
G01*
X193806250Y-123550000D01*
G75*
G02*
X194050000Y-123793750I0J-243750D01*
G01*
X194050000Y-124706250D01*
G75*
G02*
X193806250Y-124950000I-243750J0D01*
G01*
X193318750Y-124950000D01*
G75*
G02*
X193075000Y-124706250I0J243750D01*
G01*
G37*
G36*
G01*
X194950000Y-124706250D02*
X194950000Y-123793750D01*
G75*
G02*
X195193750Y-123550000I243750J0D01*
G01*
X195681250Y-123550000D01*
G75*
G02*
X195925000Y-123793750I0J-243750D01*
G01*
X195925000Y-124706250D01*
G75*
G02*
X195681250Y-124950000I-243750J0D01*
G01*
X195193750Y-124950000D01*
G75*
G02*
X194950000Y-124706250I0J243750D01*
G01*
G37*
%TD*%
%TO.C,R4*%
G36*
G01*
X176075000Y-124706250D02*
X176075000Y-123793750D01*
G75*
G02*
X176318750Y-123550000I243750J0D01*
G01*
X176806250Y-123550000D01*
G75*
G02*
X177050000Y-123793750I0J-243750D01*
G01*
X177050000Y-124706250D01*
G75*
G02*
X176806250Y-124950000I-243750J0D01*
G01*
X176318750Y-124950000D01*
G75*
G02*
X176075000Y-124706250I0J243750D01*
G01*
G37*
G36*
G01*
X177950000Y-124706250D02*
X177950000Y-123793750D01*
G75*
G02*
X178193750Y-123550000I243750J0D01*
G01*
X178681250Y-123550000D01*
G75*
G02*
X178925000Y-123793750I0J-243750D01*
G01*
X178925000Y-124706250D01*
G75*
G02*
X178681250Y-124950000I-243750J0D01*
G01*
X178193750Y-124950000D01*
G75*
G02*
X177950000Y-124706250I0J243750D01*
G01*
G37*
%TD*%
%TO.C,R4*%
G36*
G01*
X159075000Y-124706250D02*
X159075000Y-123793750D01*
G75*
G02*
X159318750Y-123550000I243750J0D01*
G01*
X159806250Y-123550000D01*
G75*
G02*
X160050000Y-123793750I0J-243750D01*
G01*
X160050000Y-124706250D01*
G75*
G02*
X159806250Y-124950000I-243750J0D01*
G01*
X159318750Y-124950000D01*
G75*
G02*
X159075000Y-124706250I0J243750D01*
G01*
G37*
G36*
G01*
X160950000Y-124706250D02*
X160950000Y-123793750D01*
G75*
G02*
X161193750Y-123550000I243750J0D01*
G01*
X161681250Y-123550000D01*
G75*
G02*
X161925000Y-123793750I0J-243750D01*
G01*
X161925000Y-124706250D01*
G75*
G02*
X161681250Y-124950000I-243750J0D01*
G01*
X161193750Y-124950000D01*
G75*
G02*
X160950000Y-124706250I0J243750D01*
G01*
G37*
%TD*%
%TO.C,R4*%
G36*
G01*
X142075000Y-124706250D02*
X142075000Y-123793750D01*
G75*
G02*
X142318750Y-123550000I243750J0D01*
G01*
X142806250Y-123550000D01*
G75*
G02*
X143050000Y-123793750I0J-243750D01*
G01*
X143050000Y-124706250D01*
G75*
G02*
X142806250Y-124950000I-243750J0D01*
G01*
X142318750Y-124950000D01*
G75*
G02*
X142075000Y-124706250I0J243750D01*
G01*
G37*
G36*
G01*
X143950000Y-124706250D02*
X143950000Y-123793750D01*
G75*
G02*
X144193750Y-123550000I243750J0D01*
G01*
X144681250Y-123550000D01*
G75*
G02*
X144925000Y-123793750I0J-243750D01*
G01*
X144925000Y-124706250D01*
G75*
G02*
X144681250Y-124950000I-243750J0D01*
G01*
X144193750Y-124950000D01*
G75*
G02*
X143950000Y-124706250I0J243750D01*
G01*
G37*
%TD*%
%TO.C,R4*%
G36*
G01*
X210075000Y-112706250D02*
X210075000Y-111793750D01*
G75*
G02*
X210318750Y-111550000I243750J0D01*
G01*
X210806250Y-111550000D01*
G75*
G02*
X211050000Y-111793750I0J-243750D01*
G01*
X211050000Y-112706250D01*
G75*
G02*
X210806250Y-112950000I-243750J0D01*
G01*
X210318750Y-112950000D01*
G75*
G02*
X210075000Y-112706250I0J243750D01*
G01*
G37*
G36*
G01*
X211950000Y-112706250D02*
X211950000Y-111793750D01*
G75*
G02*
X212193750Y-111550000I243750J0D01*
G01*
X212681250Y-111550000D01*
G75*
G02*
X212925000Y-111793750I0J-243750D01*
G01*
X212925000Y-112706250D01*
G75*
G02*
X212681250Y-112950000I-243750J0D01*
G01*
X212193750Y-112950000D01*
G75*
G02*
X211950000Y-112706250I0J243750D01*
G01*
G37*
%TD*%
%TO.C,R4*%
G36*
G01*
X193075000Y-112706250D02*
X193075000Y-111793750D01*
G75*
G02*
X193318750Y-111550000I243750J0D01*
G01*
X193806250Y-111550000D01*
G75*
G02*
X194050000Y-111793750I0J-243750D01*
G01*
X194050000Y-112706250D01*
G75*
G02*
X193806250Y-112950000I-243750J0D01*
G01*
X193318750Y-112950000D01*
G75*
G02*
X193075000Y-112706250I0J243750D01*
G01*
G37*
G36*
G01*
X194950000Y-112706250D02*
X194950000Y-111793750D01*
G75*
G02*
X195193750Y-111550000I243750J0D01*
G01*
X195681250Y-111550000D01*
G75*
G02*
X195925000Y-111793750I0J-243750D01*
G01*
X195925000Y-112706250D01*
G75*
G02*
X195681250Y-112950000I-243750J0D01*
G01*
X195193750Y-112950000D01*
G75*
G02*
X194950000Y-112706250I0J243750D01*
G01*
G37*
%TD*%
%TO.C,R4*%
G36*
G01*
X176075000Y-112706250D02*
X176075000Y-111793750D01*
G75*
G02*
X176318750Y-111550000I243750J0D01*
G01*
X176806250Y-111550000D01*
G75*
G02*
X177050000Y-111793750I0J-243750D01*
G01*
X177050000Y-112706250D01*
G75*
G02*
X176806250Y-112950000I-243750J0D01*
G01*
X176318750Y-112950000D01*
G75*
G02*
X176075000Y-112706250I0J243750D01*
G01*
G37*
G36*
G01*
X177950000Y-112706250D02*
X177950000Y-111793750D01*
G75*
G02*
X178193750Y-111550000I243750J0D01*
G01*
X178681250Y-111550000D01*
G75*
G02*
X178925000Y-111793750I0J-243750D01*
G01*
X178925000Y-112706250D01*
G75*
G02*
X178681250Y-112950000I-243750J0D01*
G01*
X178193750Y-112950000D01*
G75*
G02*
X177950000Y-112706250I0J243750D01*
G01*
G37*
%TD*%
%TO.C,R4*%
G36*
G01*
X159075000Y-112706250D02*
X159075000Y-111793750D01*
G75*
G02*
X159318750Y-111550000I243750J0D01*
G01*
X159806250Y-111550000D01*
G75*
G02*
X160050000Y-111793750I0J-243750D01*
G01*
X160050000Y-112706250D01*
G75*
G02*
X159806250Y-112950000I-243750J0D01*
G01*
X159318750Y-112950000D01*
G75*
G02*
X159075000Y-112706250I0J243750D01*
G01*
G37*
G36*
G01*
X160950000Y-112706250D02*
X160950000Y-111793750D01*
G75*
G02*
X161193750Y-111550000I243750J0D01*
G01*
X161681250Y-111550000D01*
G75*
G02*
X161925000Y-111793750I0J-243750D01*
G01*
X161925000Y-112706250D01*
G75*
G02*
X161681250Y-112950000I-243750J0D01*
G01*
X161193750Y-112950000D01*
G75*
G02*
X160950000Y-112706250I0J243750D01*
G01*
G37*
%TD*%
%TO.C,R4*%
G36*
G01*
X142075000Y-112706250D02*
X142075000Y-111793750D01*
G75*
G02*
X142318750Y-111550000I243750J0D01*
G01*
X142806250Y-111550000D01*
G75*
G02*
X143050000Y-111793750I0J-243750D01*
G01*
X143050000Y-112706250D01*
G75*
G02*
X142806250Y-112950000I-243750J0D01*
G01*
X142318750Y-112950000D01*
G75*
G02*
X142075000Y-112706250I0J243750D01*
G01*
G37*
G36*
G01*
X143950000Y-112706250D02*
X143950000Y-111793750D01*
G75*
G02*
X144193750Y-111550000I243750J0D01*
G01*
X144681250Y-111550000D01*
G75*
G02*
X144925000Y-111793750I0J-243750D01*
G01*
X144925000Y-112706250D01*
G75*
G02*
X144681250Y-112950000I-243750J0D01*
G01*
X144193750Y-112950000D01*
G75*
G02*
X143950000Y-112706250I0J243750D01*
G01*
G37*
%TD*%
%TO.C,R4*%
G36*
G01*
X210075000Y-100706250D02*
X210075000Y-99793750D01*
G75*
G02*
X210318750Y-99550000I243750J0D01*
G01*
X210806250Y-99550000D01*
G75*
G02*
X211050000Y-99793750I0J-243750D01*
G01*
X211050000Y-100706250D01*
G75*
G02*
X210806250Y-100950000I-243750J0D01*
G01*
X210318750Y-100950000D01*
G75*
G02*
X210075000Y-100706250I0J243750D01*
G01*
G37*
G36*
G01*
X211950000Y-100706250D02*
X211950000Y-99793750D01*
G75*
G02*
X212193750Y-99550000I243750J0D01*
G01*
X212681250Y-99550000D01*
G75*
G02*
X212925000Y-99793750I0J-243750D01*
G01*
X212925000Y-100706250D01*
G75*
G02*
X212681250Y-100950000I-243750J0D01*
G01*
X212193750Y-100950000D01*
G75*
G02*
X211950000Y-100706250I0J243750D01*
G01*
G37*
%TD*%
%TO.C,R4*%
G36*
G01*
X193075000Y-100706250D02*
X193075000Y-99793750D01*
G75*
G02*
X193318750Y-99550000I243750J0D01*
G01*
X193806250Y-99550000D01*
G75*
G02*
X194050000Y-99793750I0J-243750D01*
G01*
X194050000Y-100706250D01*
G75*
G02*
X193806250Y-100950000I-243750J0D01*
G01*
X193318750Y-100950000D01*
G75*
G02*
X193075000Y-100706250I0J243750D01*
G01*
G37*
G36*
G01*
X194950000Y-100706250D02*
X194950000Y-99793750D01*
G75*
G02*
X195193750Y-99550000I243750J0D01*
G01*
X195681250Y-99550000D01*
G75*
G02*
X195925000Y-99793750I0J-243750D01*
G01*
X195925000Y-100706250D01*
G75*
G02*
X195681250Y-100950000I-243750J0D01*
G01*
X195193750Y-100950000D01*
G75*
G02*
X194950000Y-100706250I0J243750D01*
G01*
G37*
%TD*%
%TO.C,R4*%
G36*
G01*
X176075000Y-100706250D02*
X176075000Y-99793750D01*
G75*
G02*
X176318750Y-99550000I243750J0D01*
G01*
X176806250Y-99550000D01*
G75*
G02*
X177050000Y-99793750I0J-243750D01*
G01*
X177050000Y-100706250D01*
G75*
G02*
X176806250Y-100950000I-243750J0D01*
G01*
X176318750Y-100950000D01*
G75*
G02*
X176075000Y-100706250I0J243750D01*
G01*
G37*
G36*
G01*
X177950000Y-100706250D02*
X177950000Y-99793750D01*
G75*
G02*
X178193750Y-99550000I243750J0D01*
G01*
X178681250Y-99550000D01*
G75*
G02*
X178925000Y-99793750I0J-243750D01*
G01*
X178925000Y-100706250D01*
G75*
G02*
X178681250Y-100950000I-243750J0D01*
G01*
X178193750Y-100950000D01*
G75*
G02*
X177950000Y-100706250I0J243750D01*
G01*
G37*
%TD*%
%TO.C,R4*%
G36*
G01*
X159075000Y-100706250D02*
X159075000Y-99793750D01*
G75*
G02*
X159318750Y-99550000I243750J0D01*
G01*
X159806250Y-99550000D01*
G75*
G02*
X160050000Y-99793750I0J-243750D01*
G01*
X160050000Y-100706250D01*
G75*
G02*
X159806250Y-100950000I-243750J0D01*
G01*
X159318750Y-100950000D01*
G75*
G02*
X159075000Y-100706250I0J243750D01*
G01*
G37*
G36*
G01*
X160950000Y-100706250D02*
X160950000Y-99793750D01*
G75*
G02*
X161193750Y-99550000I243750J0D01*
G01*
X161681250Y-99550000D01*
G75*
G02*
X161925000Y-99793750I0J-243750D01*
G01*
X161925000Y-100706250D01*
G75*
G02*
X161681250Y-100950000I-243750J0D01*
G01*
X161193750Y-100950000D01*
G75*
G02*
X160950000Y-100706250I0J243750D01*
G01*
G37*
%TD*%
%TO.C,R4*%
G36*
G01*
X143950000Y-100706250D02*
X143950000Y-99793750D01*
G75*
G02*
X144193750Y-99550000I243750J0D01*
G01*
X144681250Y-99550000D01*
G75*
G02*
X144925000Y-99793750I0J-243750D01*
G01*
X144925000Y-100706250D01*
G75*
G02*
X144681250Y-100950000I-243750J0D01*
G01*
X144193750Y-100950000D01*
G75*
G02*
X143950000Y-100706250I0J243750D01*
G01*
G37*
G36*
G01*
X142075000Y-100706250D02*
X142075000Y-99793750D01*
G75*
G02*
X142318750Y-99550000I243750J0D01*
G01*
X142806250Y-99550000D01*
G75*
G02*
X143050000Y-99793750I0J-243750D01*
G01*
X143050000Y-100706250D01*
G75*
G02*
X142806250Y-100950000I-243750J0D01*
G01*
X142318750Y-100950000D01*
G75*
G02*
X142075000Y-100706250I0J243750D01*
G01*
G37*
%TD*%
%TO.C,R3*%
G36*
G01*
X141206250Y-99800000D02*
X140293750Y-99800000D01*
G75*
G02*
X140050000Y-99556250I0J243750D01*
G01*
X140050000Y-99068750D01*
G75*
G02*
X140293750Y-98825000I243750J0D01*
G01*
X141206250Y-98825000D01*
G75*
G02*
X141450000Y-99068750I0J-243750D01*
G01*
X141450000Y-99556250D01*
G75*
G02*
X141206250Y-99800000I-243750J0D01*
G01*
G37*
G36*
G01*
X141206250Y-101675000D02*
X140293750Y-101675000D01*
G75*
G02*
X140050000Y-101431250I0J243750D01*
G01*
X140050000Y-100943750D01*
G75*
G02*
X140293750Y-100700000I243750J0D01*
G01*
X141206250Y-100700000D01*
G75*
G02*
X141450000Y-100943750I0J-243750D01*
G01*
X141450000Y-101431250D01*
G75*
G02*
X141206250Y-101675000I-243750J0D01*
G01*
G37*
%TD*%
%TO.C,R5*%
G36*
G01*
X138706250Y-103675000D02*
X137793750Y-103675000D01*
G75*
G02*
X137550000Y-103431250I0J243750D01*
G01*
X137550000Y-102943750D01*
G75*
G02*
X137793750Y-102700000I243750J0D01*
G01*
X138706250Y-102700000D01*
G75*
G02*
X138950000Y-102943750I0J-243750D01*
G01*
X138950000Y-103431250D01*
G75*
G02*
X138706250Y-103675000I-243750J0D01*
G01*
G37*
G36*
G01*
X138706250Y-101800000D02*
X137793750Y-101800000D01*
G75*
G02*
X137550000Y-101556250I0J243750D01*
G01*
X137550000Y-101068750D01*
G75*
G02*
X137793750Y-100825000I243750J0D01*
G01*
X138706250Y-100825000D01*
G75*
G02*
X138950000Y-101068750I0J-243750D01*
G01*
X138950000Y-101556250D01*
G75*
G02*
X138706250Y-101800000I-243750J0D01*
G01*
G37*
%TD*%
%TO.C,R1*%
G36*
G01*
X133456250Y-101800000D02*
X132543750Y-101800000D01*
G75*
G02*
X132300000Y-101556250I0J243750D01*
G01*
X132300000Y-101068750D01*
G75*
G02*
X132543750Y-100825000I243750J0D01*
G01*
X133456250Y-100825000D01*
G75*
G02*
X133700000Y-101068750I0J-243750D01*
G01*
X133700000Y-101556250D01*
G75*
G02*
X133456250Y-101800000I-243750J0D01*
G01*
G37*
G36*
G01*
X133456250Y-103675000D02*
X132543750Y-103675000D01*
G75*
G02*
X132300000Y-103431250I0J243750D01*
G01*
X132300000Y-102943750D01*
G75*
G02*
X132543750Y-102700000I243750J0D01*
G01*
X133456250Y-102700000D01*
G75*
G02*
X133700000Y-102943750I0J-243750D01*
G01*
X133700000Y-103431250D01*
G75*
G02*
X133456250Y-103675000I-243750J0D01*
G01*
G37*
%TD*%
%TO.C,D2*%
G36*
G01*
X135956250Y-101800000D02*
X135043750Y-101800000D01*
G75*
G02*
X134800000Y-101556250I0J243750D01*
G01*
X134800000Y-101068750D01*
G75*
G02*
X135043750Y-100825000I243750J0D01*
G01*
X135956250Y-100825000D01*
G75*
G02*
X136200000Y-101068750I0J-243750D01*
G01*
X136200000Y-101556250D01*
G75*
G02*
X135956250Y-101800000I-243750J0D01*
G01*
G37*
G36*
G01*
X135956250Y-103675000D02*
X135043750Y-103675000D01*
G75*
G02*
X134800000Y-103431250I0J243750D01*
G01*
X134800000Y-102943750D01*
G75*
G02*
X135043750Y-102700000I243750J0D01*
G01*
X135956250Y-102700000D01*
G75*
G02*
X136200000Y-102943750I0J-243750D01*
G01*
X136200000Y-103431250D01*
G75*
G02*
X135956250Y-103675000I-243750J0D01*
G01*
G37*
%TD*%
%TO.C,C3*%
G36*
G01*
X143050000Y-97543750D02*
X143050000Y-98456250D01*
G75*
G02*
X142806250Y-98700000I-243750J0D01*
G01*
X142318750Y-98700000D01*
G75*
G02*
X142075000Y-98456250I0J243750D01*
G01*
X142075000Y-97543750D01*
G75*
G02*
X142318750Y-97300000I243750J0D01*
G01*
X142806250Y-97300000D01*
G75*
G02*
X143050000Y-97543750I0J-243750D01*
G01*
G37*
G36*
G01*
X144925000Y-97543750D02*
X144925000Y-98456250D01*
G75*
G02*
X144681250Y-98700000I-243750J0D01*
G01*
X144193750Y-98700000D01*
G75*
G02*
X143950000Y-98456250I0J243750D01*
G01*
X143950000Y-97543750D01*
G75*
G02*
X144193750Y-97300000I243750J0D01*
G01*
X144681250Y-97300000D01*
G75*
G02*
X144925000Y-97543750I0J-243750D01*
G01*
G37*
%TD*%
%TO.C,C2*%
G36*
G01*
X142800000Y-105293750D02*
X142800000Y-106206250D01*
G75*
G02*
X142556250Y-106450000I-243750J0D01*
G01*
X142068750Y-106450000D01*
G75*
G02*
X141825000Y-106206250I0J243750D01*
G01*
X141825000Y-105293750D01*
G75*
G02*
X142068750Y-105050000I243750J0D01*
G01*
X142556250Y-105050000D01*
G75*
G02*
X142800000Y-105293750I0J-243750D01*
G01*
G37*
G36*
G01*
X144675000Y-105293750D02*
X144675000Y-106206250D01*
G75*
G02*
X144431250Y-106450000I-243750J0D01*
G01*
X143943750Y-106450000D01*
G75*
G02*
X143700000Y-106206250I0J243750D01*
G01*
X143700000Y-105293750D01*
G75*
G02*
X143943750Y-105050000I243750J0D01*
G01*
X144431250Y-105050000D01*
G75*
G02*
X144675000Y-105293750I0J-243750D01*
G01*
G37*
%TD*%
M02*
